<?xml version="1.0" encoding="utf-8"?>
<!-- Generator: Adobe Illustrator 18.1.1, SVG Export Plug-In . SVG Version: 6.00 Build 0)  -->
<svg version="1.1" id="tm-logo" xmlns="http://www.w3.org/2000/svg" xmlns:xlink="http://www.w3.org/1999/xlink" x="0px" y="0px" viewBox="0 0 965 562" xml:space="preserve">
<path d="M441.3,76.8c1.4-0.3,2.2-1.5,1.8-2.7c-0.4-1.1-1.8-1.8-3.2-1.4
	c-1.4,0.3-2.2,1.6-1.8,2.7S440,77.1,441.3,76.8z M450.1,74.8c1.4-0.3,2.3-1.4,2-2.6c-0.3-1.2-1.7-1.9-3.1-1.6
	c-1.4,0.3-2.3,1.5-2,2.6C447.3,74.4,448.7,75.1,450.1,74.8z M458.9,73.3c1.4-0.2,2.4-1.3,2.2-2.5c-0.2-1.2-1.6-2-3-1.8
	c-1.5,0.2-2.4,1.3-2.2,2.5C456.1,72.8,457.5,73.5,458.9,73.3z M467.8,72.2c1.4-0.1,2.4-1.2,2.3-2.4c-0.1-1.2-1.4-2-2.9-1.9
	c-1.5,0.1-2.5,1.2-2.3,2.4C465.1,71.6,466.4,72.4,467.8,72.2z M476.7,71.6c1.4-0.1,2.5-1.1,2.5-2.3c-0.1-1.2-1.3-2.1-2.8-2
	c-1.5,0.1-2.6,1.1-2.5,2.3C474.1,70.8,475.3,71.7,476.7,71.6z M485.7,71.4c1.4,0,2.6-0.9,2.6-2.1c0-1.2-1.1-2.2-2.6-2.2
	c-1.5,0-2.6,1-2.6,2.2C483.1,70.4,484.3,71.4,485.7,71.4z M494.6,71.6c1.4,0.1,2.6-0.8,2.8-2c0.1-1.2-1-2.2-2.5-2.3s-2.7,0.9-2.8,2
	C492.1,70.5,493.2,71.5,494.6,71.6z M503.6,72.2c1.4,0.1,2.7-0.7,2.9-1.9c0.2-1.2-0.9-2.3-2.3-2.4c-1.5-0.1-2.8,0.7-2.9,1.9
	C501.1,71.1,502.2,72.1,503.6,72.2z M512.5,73.3c1.4,0.2,2.8-0.6,3-1.7c0.3-1.2-0.7-2.3-2.2-2.5c-1.5-0.2-2.8,0.6-3,1.8
	C510.1,72,511.1,73.1,512.5,73.3z M521.3,74.8c1.4,0.3,2.8-0.4,3.1-1.6c0.3-1.2-0.5-2.3-2-2.6c-1.4-0.3-2.8,0.4-3.1,1.6
	C519,73.4,519.9,74.6,521.3,74.8z M530,76.8c1.4,0.3,2.8-0.3,3.2-1.4c0.4-1.1-0.4-2.4-1.8-2.7c-1.4-0.4-2.9,0.3-3.3,1.4
	C527.9,75.3,528.7,76.4,530,76.8z M372.9,143.5c5,3.2,13.1,7.2,18.1,8C385.3,148.5,379.4,145.7,372.9,143.5z M339.5,92.8
	c8.1,3,13.9,12.2,22.4,12.3C353.2,102.8,347.4,93.6,339.5,92.8z M328.7,68.2c1.1,9.3,7.8,13,15.9,15.2c3.4,0.4,1.8-1.3-0.7-0.7
	C336.2,80.5,331.5,75.3,328.7,68.2z M320,92.8c4.8,3.6,11,9.8,15.9,10.9C330.7,100.4,324.5,94.3,320,92.8z M320.7,83.4
	c-11.7-2.5-5.8-18.8-3.6-22.5C309.1,67.1,310.9,83.2,320.7,83.4z M340.3,63.1c-0.5-3.4,4-5.6,2.9-7.2
	C342,57.6,338.2,60.5,340.3,63.1z M364.2,226.9c-2.5-0.9-4.1-2.6-5.1-5.1c2.8-0.9,0.6-10.9,0.7-2.9c-0.9,1.1-2.1,1.8-2.2,3.6
	C358.9,224.4,362.3,227.9,364.2,226.9z M375,198.6c1.2,3.6,0.9-1.6,0-5.1c-0.5-2-8.6-6.3-6.5-4.4C373.3,191.4,373.8,195,375,198.6z
	 M333.7,205.8c-1.6,3.3-3.3,10.3-3.6,12.3C333,216.2,334.2,208.8,333.7,205.8z M600.8,226.9c1.8,1.1,5.2-2.5,6.5-4.4
	c-0.1-1.9-1.3-2.5-2.2-3.6c0.1-8-2.1,2,0.7,2.9C605,224.2,603.3,225.9,600.8,226.9z M590,198.6c1.2-3.6,1.7-7.2,6.5-9.4
	c2.1-1.9-6,2.4-6.5,4.4C589.1,197,588.7,202.2,590,198.6z M631.3,205.8c-0.5,2.9,0.8,10.3,3.6,12.3
	C634.5,216.1,632.8,209.1,631.3,205.8z M592.2,143.5c-6.5,2.2-12.4,5-18.1,8C579,150.7,587.1,146.7,592.2,143.5z M625.5,92.8
	c-7.9,0.8-13.6,10-22.5,12.3C611.6,105,617.4,95.8,625.5,92.8z M636.3,68.2c-2.8,7.1-7.5,12.3-15.2,14.5c-2.5-0.6-4.1,1.1-0.7,0.7
	C628.6,81.2,635.2,77.4,636.3,68.2z M645,92.8c-4.5,1.5-10.8,7.6-15.9,10.9C634,102.6,640.2,96.4,645,92.8z M644.3,83.4
	c9.8-0.2,11.6-16.3,3.6-22.5C650.1,64.5,656,80.9,644.3,83.4z M533.2,172.9l-0.1,0.1l-0.1,0.1c-0.3,0.4-0.6,0.7-0.7,1.2l0,0.1v0.1
	c0,0.8,0.6,1.3,1.2,1.6c1.4,0.8,2.9,1.2,4.5,1.2c1.8,0,3.5-0.5,5-1.7c1.5-1.2,2.2-2.8,2.2-4.7s-0.6-3.6-1.7-5.2
	c-2.1-2.9-5.4-4.7-8.7-5.8c-3.3-1.1-6.7-1.6-10.1-1.6c-4.1,0-8.2,0.6-12,2.1c-6.7,2.6-11.4,7.2-11.4,14.7c0,3.2,1.1,6.2,3,8.8
	c2.5,3.5,6.1,6.7,9.5,9.3l3.8,3c4.1,3.2,10.5,8.9,10.5,14.7c0,3.5-1.4,6.5-3.7,9c-1.5,1.6-3.2,3.1-5,4.3l-0.1,0.1l-0.1,0.1
	c-0.1,0.1-0.2,0.1-0.3,0.2c-0.5,0.3-1,0.5-1.4,0.8c-4.2,2.4-8.8,3.4-13.7,3.4c-6.4,0-12.5-2-18-5.2c-6.6-3.8-11.5-9.2-11.5-17.1
	c0-3,0.9-5.6,2.8-7.9c1.9-2.3,4.3-3.4,7.3-3.4c2.6,0,5,1.3,7,2.9l1.2,1l0.5-1.5c0.1-0.4,0.3-1,0.3-1.4c0-2-2.2-3-3.9-3.5
	c-1.5-0.5-3.1-0.8-4.6-0.8c-2.7,0-5.2,0.7-7.5,2.2c-5.1,3.3-7.2,8.4-7.2,14.4c0,7.3,3.3,12.9,9,17.2c6.5,4.9,14.1,6.8,22.1,6.8
	c5.3,0,10.5-1,15.5-3.1c4.2-1.8,8-4.3,10.9-7.8c3.1-3.6,4.9-7.8,4.9-12.6c0-6.6-4.3-12-9.2-16l-8.8-7.2c-3.6-2.9-8.6-7.8-8.6-12.8
	c0-3.5,1.7-6.1,4.6-8c3.7-2.4,8.3-3.2,12.7-3.2c2.9,0,5.7,0.5,8.5,1.5c3.6,1.3,9,3.9,9,8.5c0,1.7-0.8,2.2-2.4,2.2
	c-1.3,0-2.5-0.3-3.5-1.1l-1-0.8L533.2,172.9z M483.7,147.8c2.8,0.2,5.8,0.5,8.5,1.2l0.8,0.2l0.4-0.7c0.3-0.5,0.5-1,0.5-1.6
	c0-1.2-1.1-1.9-2.2-2.1c-1.6-0.4-4.1-0.5-6.2-0.5c3.1-6.1,7.5-12.3,11.5-17.8c2.4-3.3,4.9-6.5,7.5-9.6l7.7-8.9l-3.7,1.2
	c-1.4,0.5-2.8,1.1-3.9,2.2c-1,0.9-2,2.2-2.8,3.2l-4.9,5.8c-3.4,4-6.6,8.4-9.6,12.6c-2.6,3.7-5.2,7.5-7.5,11.4
	c-4.3,0.1-8.7,0.4-12.9,1.2c2.2-3.1,4.5-6.2,6.5-9.4c1.3-2,2.5-4,3.6-6.1l1.5-2.6c0.6-1.1,1.8-3.2,1.8-4.5c0-1-0.7-1.7-1.7-1.7
	c-0.6,0-1.2,0.3-1.7,0.5l-0.5,0.3l-0.1,0.6c-0.2,1.6-0.8,3.1-1.6,4.5c-3.3,5.9-6.9,11.4-10.8,17c-0.5,0.8-1.1,1.7-1.8,2.4l-0.4,0.1
	l-0.9,0.2c-3.1,0.8-6.2,1.8-9.2,2.9c-6,2.3-11.7,5.2-16.9,8.8c-4.1,2.8-8.1,6.1-11.2,10c-2.1,2.7-4.3,6.2-4.3,9.8
	c0,3.7,1.9,5.9,5.6,5.9c5.3,0,11.5-4.9,15.3-8.1c3.3-2.9,6.6-6,9.4-9.4l1.1-1.3l3.8-4.2c0.7-0.8,1.4-1.6,2.1-2.4
	c1.5-1.8,3-3.7,4.4-5.5l2.1-2.8c0.3-0.4,0.7-0.8,1-1.2c4.5-0.9,9.1-1.6,13.7-1.6l-1.6,2.8c-4,6.9-10,18.2-10,26.4c0,2,0.5,4,1.8,5.6
	c1.4,1.7,3.2,2.5,5.4,2.5c4.7,0,10-3.2,13.7-5.9c7.5-5.4,14.4-11.8,20.2-19.1l0.6-0.7l-2.1-2.3l-1.4,1.5c-2.9,3-5.8,6.1-8.9,9
	c-2.1,2.1-4.4,4.2-6.8,5.9c-3,2.2-8,5.5-11.8,5.5c-2.8,0-3.5-1.8-3.5-4.4c0-2,0.5-4.3,1.1-6.2c1-3.5,2.5-7,4.1-10.3
	c1.6-3.4,3.4-6.7,5.1-10L483.7,147.8z M459,150.7c-3.2,4.1-6.6,8.1-10,12.1c-3,3.4-6.1,6.8-9.5,9.9c-3,2.8-8.5,7.3-12.9,7.3
	c-2,0-2.7-0.9-2.7-2.8c0-4.2,3.9-8.4,6.8-11.1c3.5-3.2,7.5-5.9,11.6-8.2C447.4,155,453.2,152.3,459,150.7z M548.8,91.1l-1.2-0.5
	c-4.2-1.7-8.4-3.1-12.7-4.3c-16.8-4.7-34.9-6.2-52.3-5.9c-17.5,0.3-35.6,2-52.6,6.5c-4.3,1.1-8.5,2.5-12.7,4c-0.3,0.1-0.6,0.3-1,0.4
	c5.9,23.5-0.6,69.9-6.7,91c-1.7,6-2.6,11.6-2.3,17.8c0.5,9,3.4,18,6.7,26.2c1.7,4.1,3.6,8.1,6.7,11.3c2.1,2.2,4.5,3.9,7.1,5.4
	c3.9,2.4,8,4.5,12,6.6c6.2,3.4,12.4,6.8,18.5,10.3c8.2,4.8,16.3,9.9,24.2,15.1c7.9-5.2,16-10.3,24.2-15.1c6.1-3.6,12.3-7,18.5-10.3
	c4-2.2,8.1-4.3,12-6.6c2.5-1.6,5-3.3,7.1-5.4c3.1-3.2,5-7.3,6.7-11.3c3.4-8.2,6.2-17.3,6.7-26.2c0.3-6.3-0.6-11.8-2.3-17.8
	C549.4,161.1,542.8,114.6,548.8,91.1z M482.6,269.9c-7.2-4.7-14.5-9.3-22-13.7c-6.1-3.6-12.3-7-18.6-10.4c-3.9-2.1-7.9-4.2-11.8-6.5
	c-2.2-1.4-4.4-2.9-6.2-4.7c-2.7-2.8-4.4-6.4-5.8-10c-3.2-7.8-6-16.3-6.4-24.8c-0.3-5.7,0.5-10.9,2.1-16.4c1.9-6.8,3.4-13.9,4.6-20.9
	c1.5-8.6,2.7-17.3,3.5-25.9c0.8-8.3,1.2-16.6,1-24.9c-0.1-5.8-0.5-11.9-1.6-17.7c3.2-1.1,6.4-2.1,9.7-2.9
	c16.7-4.4,34.3-6.1,51.6-6.4c17-0.3,34.6,1.2,51,5.8c3.4,1,6.7,2,10,3.3c-1.1,5.8-1.5,12-1.6,17.8c-0.2,8.3,0.3,16.7,1,25
	c0.8,8.7,2,17.3,3.5,25.9c1.2,7,2.7,14.1,4.6,20.9c1.6,5.5,2.4,10.7,2.1,16.4c-0.5,8.4-3.2,17-6.4,24.8c-1.4,3.5-3.2,7.2-5.8,10
	c-1.8,1.9-4,3.4-6.2,4.7c-3.8,2.3-7.8,4.4-11.8,6.5c-6.3,3.4-12.5,6.8-18.6,10.4C497.1,260.6,489.8,265.1,482.6,269.9z M624.7,63.1
	c2.1-2.6-1.8-5.5-2.9-7.2C620.7,57.5,625.3,59.7,624.7,63.1z M393.7,269.2c-1.6,0.6-3,2-3.8,3.4c-1.7,3.1-1.9,6.9-1.2,10.3
	c1.3,6.8,7.8,10.6,13.6,13.2c12.6,5.6,27.9,3.2,38.6-5.3c0.2-1.6,0.6-3.2,1.3-4.7c-1.3,1.3-2.8,2.2-4.3,3.3c-4,2.8-8.4,5.1-13,6.5
	c-5.3,1.6-11.1,2.1-16.5,0.7c-3.9-1-7.8-3.1-10.6-6.1C392.7,284.9,390.7,276.3,393.7,269.2z M572.5,269.2c3,7.1,1.1,15.7-4.1,21.3
	c-2.8,3-6.7,5-10.6,6.1c-5.4,1.4-11.2,1-16.5-0.7c-4.6-1.4-9-3.8-13-6.5c-1.5-1-3-2-4.3-3.3c0.7,1.5,1.1,3.1,1.3,4.7
	c10.8,8.5,26,10.9,38.6,5.3c5.8-2.6,12.3-6.4,13.7-13.2c0.7-3.4,0.5-7.2-1.2-10.3C575.5,271.2,574.1,269.8,572.5,269.2z M439.6,68.4
	l-0.6,0.2c-3.6,0.9-6.5,4.4-5.1,8.2c0.5,1.2,1.3,2.1,2.2,2.8c-2.1,0.4-4.1,0.9-6.2,1.5l-1.3,0.3v-0.2c0-2.2,0.4-5-1.4-6.7l-0.4-0.4
	c-1.7-3.6-4.5-6.3-8.2-8l-2-0.9l-0.6,1.4l-0.5,0c-0.5,0.1-0.9,0.2-1.3,0.4c-0.7-0.4-1.5-0.8-2.4-0.8c-1.5-0.1-2.8,0.5-3.8,1.4
	c-0.6-0.4-1.3-0.8-1.9-1.2l-1.4-1.1l-1.4,1.1c-4.7,3.8-9.6,7.4-13.9,11.7l-0.7,0.7l0,1c0.1,2.1,0,4.4-0.8,6.5l-1.2-0.7l-1.1,1.4
	c-0.1,0.2-0.3,0.3-0.4,0.5c-1.1,1.1-2.6,1.8-3.9,2.5c-1.3,0.7-2.5,1.5-3.5,2.5c-0.3-1.8-1-3.6-2.3-4.9c-1-1.1-2.3-2-3.6-2.8
	c-3.3-1.8-7.6-2.3-11.3-2.6c-1.2-0.1-2.5-0.2-3.8-0.3c0.3-0.1,0.6-0.2,0.9-0.4c0.4-0.3,0.9-0.8,1.1-1l4,0.6l-1.8-3.7
	c-0.6-1.3-0.1-2.7,0.1-4.1c4.2,0.9,9.4,1.5,13.4,0.5l0.2,0l0.2-0.1c0.1,0,0.2-0.1,0.3-0.1c2.1-0.8,4-2.3,5.4-4l0.1-0.2l0.1-0.2
	c0.3-0.6,0.5-1.2,0.6-1.8c0.6-2.7-0.2-7.6-2.9-8.9c-0.7-0.3-1.4-0.4-2.2-0.3l-1.5,0.3l-0.3,1.5c0,0.2,0,0.1,0,0.3l0,0.4l0.1,0.4
	c0.3,0.9,0.2,1.7-0.2,2.6l-0.2,0.3l-0.1,0.3c-0.2,0.9-0.5,1.8-1.3,2.4c-1.6,1.2-5,0.8-6.9,0.5c-0.6-0.1-1.3-0.2-1.9-0.4l-1-0.3
	l0.3-1.3c0.1-0.7,0.5-1.3,0.8-1.9c0.8-1.5,1.3-2.7,1.4-4.3l1.1,0l-0.5-2.7c-1-5.4-5.8-6.5-10.3-7.8l0,0c-3.5-6.6-14-4.3-16.8-8.2
	l-2.4-3.3l-0.7,1.8c-0.8-1.3-1.6-3.8-5.2-3.8h-0.4L330,35c-2.8,1.1-3.2,3.8-3.9,6.3c-3.2,1.2-6.2,2.9-9.5,3.7l-2.7,0.7l1,1.9
	c-8.6,6.9-9.6,19-16.1,27.2l-1.9,2.4l2.9,1c0.2,0.1,0.5,0.1,0.7,0.2c-3.5,7.8-1.3,19.3-0.1,27.4l-3.8,5.3c-3.1,4.4-5.2,9.5-3.3,14.8
	c0.5,1.4,1.2,2.7,2.1,3.9l-0.4-0.1l-0.3,2.7c-0.3,3,0,6.3,1.9,8.8l0.5,0.7l0.9,0.1c-0.7,2.4-0.9,5.1,1,7c0.7,0.7,1.6,1.1,2.6,1.3
	c-0.7,1.6-0.7,3.5-0.4,5.2l0.3,2.1l2.1-0.3c0.1,0,0.6,0.3,0.7,0.3c0.7,0.3,1.3,0.4,2,0.4c1.5-0.1,2.5-0.7,3.2-1.8l0,0.2
	c-0.2,1.2-1.1,2.5-1.9,3.4l-0.1,0l-0.2,0.2l-0.3,0.4c-5.3,7.1-14,10.9-19.5,18.2c-1.7,2.2-2.9,4.5-3.6,7l-2.9-0.1
	c-6.9-0.2-10.6,7.8-6.2,13l0.4,0.4l0.5,0.2c1.2,0.5,2.6,0.7,3.9,0.9c-0.5,1.1-0.5,2.3-0.3,3.7l0,0.3l0.1,0.2l0.2,0.5l0.2,0.3
	l0.3,0.3c2.1,2.2,6.4,2.8,8.7,0.6l1.2-1.2c4.1,2.8,9.6,3.4,14.5,1.8c-0.4,4.3-0.6,8.7-0.6,13.1c-1.7,2.6-5.4,4.2-8.2,2.4l-2.1-1.4
	l-1.1,2.3c-1.9,4.1-0.7,8.9,0.2,13.2c-1.8,0.8-2.9,2.1-4.6,3c-0.6,0.3-1.2,0.5-1.9,0.6l-3.7,0.4l2.2,3c0.4,0.5,0.8,0.9,1.3,1.3
	l-0.2,0.2l-1.4,1.3l1.1,1.6c0.6,0.9,1.4,1.4,2.2,1.8c-0.3,0.2-0.5,0.5-0.7,0.8l-0.9,1.2l0.8,1.2c1.1,1.7,2.9,2.1,4.8,2.3
	c0.6,0.1,1.6,0,2.4,0.1c-0.6,3.3-0.1,6.9-0.3,10.1l0,0.7l0.4,0.6c0.2,0.2,0.3,0.4,0.5,0.6c-0.6,2.9,0.6,6.8,3.7,7.6l1.5,0.4l0.9-1.3
	c0.3-0.4,0.5-0.8,0.6-1.2c1.8,0,3-0.7,4.3-1.9c0.3-0.3,0.6-0.6,0.9-0.8l0.3-0.2l0.2-0.2l0.1-0.1c0.2-0.2,0.4-0.4,0.7-0.5
	c1.2,2.1,2.4,3.9,4.7,5l0.5,0.2c0.7,1.3,1.6,2.4,2.9,3.3l2.3,1.5l0.9-2.6c0.5-1.3,0.9-2.2,1.2-3.1l0.3,0.9l0.8-0.9l0,0.3l0.1,2.3
	l2.3-0.3c2.7-0.3,4-2,4.6-4.1l2.2,3.6l0-1.8l1.6,0.8l1-1.5c0.9-1.4,1.9-3.4,1.8-5.3l0,0l0-2.5c-0.1-5.5-3.7-7.7-8.4-9.2l-0.6-0.2
	l-0.6,0.2c-0.2,0.1-0.4,0.1-0.6,0.1l-3.5,0.6l0.3,0.3c-1.8,0.3-3.7,0.1-5.3-0.9l0.2-0.3l-0.1,0l0-0.1l-1.6-0.8
	c-3-3-2.8-9.3-2.2-13.2c1-6.8,5.8-8.7,11.2-11.8c4.1-2.4,8.1-5,11.5-8.3l0.1-0.1l0.1-0.2c0-0.1,0.1-0.1,0.1-0.2
	c0.7-0.8,1.3-1.6,1.9-2.5c2.3-3.5,3.5-7.3,4.2-11.4c3.6-0.1,8.1,0.3,10.6,2.8c1.7,1.7,2.2,4.1,2.2,6.4c-0.8,0.3-1.5,0.5-2.6,0.3
	l-2.3-0.4l-0.2,2.4c-0.5,5.4,1.9,7.8,6.2,10.3c0.6,0.3,1.1,0.7,1.7,1c-1,1.7-1.7,3.5-2.6,5.3l-1.1,2.2l2.3,0.8
	c0.7,0.3,1.5,0.4,2.2,0.4l0,0.1l-0.4,1.9l1.9,0.6c1,0.3,1.9,0.3,2.8,0.1c-0.1,0.6-0.1,1.2,0,1.8l0.3,1.8l1.8,0.1
	c3.9,0.1,5.6-1.6,7.4-4.4c0.8,0.5,1.6,1.1,2.3,1.8c0.8,0.7,1.6,1.5,2.5,2.2c-0.3,2.3-0.9,3.8-0.6,6.5l0.2,1.6l1.5,0.2
	c-0.1,2.7,1.4,5.3,3.9,6.4l2.4,1l0.5-2.6c0-0.2,0.1-0.4,0.2-0.7l0.1,0.4l2.6-2.1c0.9-0.7,1.9-1.3,2.9-1.9c1.3,2.3,3.3,3.8,6,4.5
	l1,0.3c0.6,0.6,1.2,1,1.9,1.4c-2.5,1.5-4.6,3.6-6.2,6l-0.3,0.4c-0.8,0.2-1.6,0.6-2.3,1.1c-2.1,1.6-3.8,3.4-4.8,5.8
	c-5.6,12.4,2.6,23.1,14.1,27.7c12.9,5.2,27.4,3.6,39.1-3.9c0.2,0.7,0.4,1.3,0.7,2c1.4,3.2,3.9,6.1,7,7.9c0.2,2.8,1.2,5.4,2.9,7.7
	c4.3,5.8,12.7,7.2,19.3,5.2c7.4-2.2,12.1-9,13.9-16.4c1.8,7.4,6.5,14.2,13.9,16.4c6.6,2,15,0.6,19.3-5.2c1.7-2.3,2.7-4.9,2.9-7.7
	c3.1-1.7,5.6-4.6,7-7.9c0.3-0.6,0.5-1.3,0.7-2c11.6,7.5,26.1,9.1,39.1,3.9c11.4-4.6,19.7-15.2,14.1-27.7c-1.1-2.4-2.8-4.2-4.8-5.8
	c-0.7-0.5-1.5-0.9-2.3-1.1l-0.3-0.4c-1.8-2.7-4.2-4.9-7-6.5c0.6-0.3,1.1-0.7,1.5-1.2l1-0.3c2.6-0.8,4.7-2.3,6-4.5
	c1,0.6,2,1.2,2.9,1.9l2.6,2.1l0.1-0.4c0.1,0.2,0.2,0.4,0.2,0.7l0.5,2.6l2.4-1c2.5-1.1,4-3.7,4-6.4l1.5-0.2l0.2-1.6
	c0.4-2.7-0.2-4.2-0.6-6.5c0.9-0.7,1.6-1.5,2.5-2.2c0.7-0.6,1.5-1.3,2.3-1.8c1.8,2.8,3.6,4.5,7.4,4.4l1.8-0.1l0.3-1.8
	c0.1-0.6,0.1-1.2,0-1.8c0.9,0.2,1.8,0.2,2.8-0.1l1.9-0.6l-0.4-1.9l0,0c0.7,0,1.5-0.1,2.2-0.4l2.3-0.8l-1.1-2.2
	c-0.9-1.8-1.5-3.6-2.6-5.3c0.5-0.4,1.1-0.7,1.7-1c4.3-2.6,6.7-5,6.2-10.3l-0.2-2.3l-2.3,0.4c-1,0.2-1.7,0-2.6-0.3
	c0-2.3,0.5-4.7,2.2-6.4c2.5-2.5,7.1-2.9,10.6-2.8c0.7,4.1,1.9,7.9,4.2,11.4c0.6,0.9,1.2,1.8,1.9,2.5c0,0,0.1,0.1,0.1,0.1l0.1,0.2
	l0.2,0.1c3.4,3.3,7.5,5.9,11.5,8.3c5.4,3.1,10.1,4.9,11.2,11.8c0.6,3.9,0.8,10.1-2.2,13.2l-1.6,0.8l0,0.1l-0.1,0l0.2,0.4
	c-1.6,1-3.4,1.2-5.3,0.9l0.3-0.3l-3.5-0.6c-0.2,0-0.4-0.1-0.6-0.1l-0.7-0.2l-0.6,0.2c-4.7,1.5-8.3,3.7-8.4,9.2l0,2.5l0,0
	c0,1.9,0.9,3.9,1.8,5.3l1,1.5l1.6-0.8l0,1.8l2.2-3.6c0.7,2.1,1.9,3.8,4.6,4.1l2.3,0.3l0.1-2.3l0-0.3l0.8,0.9l0.3-0.9
	c0.3,1,0.8,1.9,1.2,3.1l0.9,2.6l2.3-1.5c1.2-0.8,2.2-1.9,2.9-3.2l0.5-0.2c2.3-1.1,3.5-2.9,4.7-5c0.3,0.1,0.5,0.3,0.7,0.5l0.1,0.1
	l0.2,0.2l0.3,0.2c0.3,0.2,0.7,0.6,0.9,0.8c1.3,1.3,2.5,1.9,4.3,1.9c0.2,0.4,0.4,0.9,0.6,1.2l0.9,1.3l1.5-0.4
	c3.1-0.8,4.3-4.6,3.7-7.6c0.2-0.2,0.4-0.4,0.5-0.6l0.4-0.6l0-0.7c-0.1-3.3,0.4-6.9-0.3-10.1c0.8-0.1,1.8-0.1,2.4-0.1
	c1.2-0.1,2.5-0.3,3.6-1c0.5-0.3,0.9-0.7,1.2-1.2l0.8-1.2l-0.8-1.2c-0.2-0.3-0.5-0.6-0.7-0.8c0.9-0.3,1.6-0.9,2.2-1.8l1-1.6l-1.4-1.3
	l-0.2-0.2c0.5-0.3,0.9-0.8,1.3-1.3l2.2-3l-3.7-0.4c-0.7-0.1-1.3-0.3-1.9-0.6c-1.7-0.9-2.8-2.2-4.6-3c0.9-4.3,2.1-9.1,0.2-13.2
	l-1-2.3l-2.1,1.4c-2.8,1.8-6.5,0.3-8.2-2.4c0-4.4-0.2-8.7-0.6-13.1c4.9,1.5,10.4,1,14.5-1.9l1.2,1.2c2.3,2.2,6.7,1.6,8.7-0.6
	l0.3-0.3l0.2-0.4l0.2-0.5l0.1-0.2l0-0.3c0.2-1.4,0.2-2.6-0.3-3.7c1.3-0.1,2.7-0.4,3.9-0.8l0.5-0.2l0.4-0.4c4.4-5.3,0.8-13.2-6.2-13
	l-2.9,0.1c-0.8-2.4-1.9-4.8-3.6-7c-5.5-7.2-14.2-11-19.5-18.2c0,0,0,0-0.3-0.4l-0.2-0.2l0,0c-0.8-0.9-1.7-2.2-1.9-3.4l0-0.1l0.1,0.2
	c0.7,1,1.8,1.5,3,1.5c0.7,0,1.3-0.1,2-0.4c0.1-0.1,0.6-0.3,0.7-0.3l2,0.3l0.4-2.1c0.3-1.7,0.3-3.6-0.4-5.2c1-0.2,1.9-0.6,2.6-1.3
	c1.9-1.8,1.7-4.6,1-7l0.9-0.1l0.5-0.7c1.9-2.5,2.2-5.8,1.9-8.8l-0.3-2.7l-0.4,0.1c0.9-1.2,1.6-2.5,2.1-3.9
	c1.9-5.3-0.2-10.5-3.3-14.8l-3.8-5.3c1.1-8.1,3.4-19.6-0.1-27.4c0.2,0,0.5-0.1,0.7-0.2l2.9-1l-1.9-2.4c-6.5-8.2-7.6-20.3-16.1-27.2
	l1-1.9l-2.7-0.7c-3.3-0.8-6.3-2.6-9.5-3.7c-0.7-2.5-1.1-5.2-3.9-6.3l-0.4-0.2h-0.4c-3.6,0-4.4,2.5-5.2,3.8l-0.7-1.8l-2.4,3.3
	c-2.9,3.9-13.3,1.7-16.8,8.2l0,0.1c-4.5,1.3-9.3,2.4-10.3,7.8l-0.5,2.7l1.1,0c0.1,1.5,0.6,2.8,1.4,4.3c0.3,0.6,0.7,1.2,0.8,1.9
	l0.3,1.3l-1,0.3c-0.6,0.2-1.3,0.3-1.9,0.4c-1.8,0.2-5.3,0.7-6.9-0.5c-0.8-0.6-1.1-1.5-1.3-2.4l-0.1-0.3l-0.2-0.3
	c-0.4-0.8-0.5-1.7-0.2-2.6l0.1-0.4l0-0.4c0-0.2,0-0.1,0-0.3l-0.3-1.5l-1.5-0.3c-3-0.5-4.5,2.4-5,4.9c-0.3,1.3-0.4,3-0.1,4.3
	c0.1,0.6,0.4,1.3,0.7,1.9l0.1,0.2l0.1,0.2c1.4,1.8,3.3,3.2,5.4,4.1c0.1,0,0.2,0.1,0.3,0.1l0.2,0.1l0.2,0c4,1,9.2,0.5,13.4-0.5
	c0.2,1.4,0.8,2.8,0.1,4.1l-1.8,3.7l4-0.6c0.3,0.2,0.8,0.8,1.1,1c0.3,0.2,0.6,0.3,0.9,0.4c-1.3,0.1-2.6,0.2-3.8,0.3
	c-3.7,0.3-8,0.8-11.3,2.6c-1.3,0.7-2.6,1.7-3.6,2.8c-1.3,1.4-1.9,3.1-2.3,4.9c-1-1-2.2-1.8-3.5-2.5c-1.3-0.7-2.9-1.5-3.9-2.5
	c-0.1-0.2-0.3-0.3-0.4-0.5l-1.1-1.4L577,86c-0.8-2-0.9-4.3-0.8-6.5l0-1l-0.7-0.7c-4.3-4.3-9.2-7.9-13.9-11.7l-1.4-1.1l-1.4,1.1
	c-0.6,0.5-1.2,0.9-1.8,1.2c-1.1-1-2.4-1.6-3.8-1.4c-0.9,0.1-1.7,0.4-2.4,0.8c-0.4-0.2-0.8-0.4-1.3-0.4c-0.1,0-0.3,0-0.5,0l-0.6-1.4
	l-2,0.9c-3.7,1.7-6.4,4.4-8.2,8l-0.3,0.3c-0.3-2.7-2.6-5-5.4-5.7l-0.6-0.2l0.5-1.8l1.1-3.8l0.3-1.1l0.1-0.1
	c8.1-9.1,17.1-17.4,26.2-25.5c1.4-1.2,0.7-3.3-1-3.8l-0.4-0.1c-0.4-0.1-0.8-0.1-1.2-0.2c-1.3-0.1-2.6,0-3.8,0.3
	c-2.4,0.5-4.4,1.7-6.1,3.3c-0.1-0.3-0.2-0.6-0.5-0.9l-0.2-0.2c-0.2-0.2-0.4-0.3-0.6-0.5c-0.6-0.5-1.3-0.8-2-1.1c-2.5-0.8-5,0-7,1.5
	c-1.8,1.3-2.1,3.1-1.6,4.9c-0.6-0.9-1.6-1.6-2.8-1.8c-1.1-0.2-2.3,0-3.3,0.7v0c0.3-3-1.3-4.7-3.9-5.1c3.5-2.5,1.6-5.5-0.6-8.3
	c-0.7-0.9-1.7-2.1-2-3.2c-0.1-0.4-0.1-0.7-0.1-1.1l0.2-1.9c0.1-1.1-0.7-2.1-1.4-2.8c-0.9,0.4-1.7,0.6-2.4,1.9l-0.7,1.8
	c-0.9,2.6-4.8,2.9-6.8,5.3c-1.4,1.8-1.4,4-0.8,6.1c-0.4-0.1-0.8-0.1-1.2-0.1c-1.9-0.1-4,0.2-5.5,1.5c-0.5,0.4-0.9,0.9-1.1,1.4
	c-0.4-0.3-0.8-0.4-1.2-0.6c1.6-0.8,3-2.1,3.9-3.9c1.9-3.9-0.6-7-3.9-8.9c-1.3-0.7-2.6-1.3-4-1.8c-2.5-0.9-6-0.8-4.3,2.7
	c0.3,0.7,1,2.1,1,2.8c-0.3,0.1-0.9,0.1-1.2,0.1c-0.4,0-2.2-0.2-2.4-0.7c-0.1-0.3-0.1-0.9,0.1-1.5l0.1-0.3c0.1-0.3,0.2-0.6,0.2-0.8
	c0.6-1.9,1.3-3.7,1.8-5.6c0.4-1.7,0.7-3.4,0.6-5.2c-0.3-4.2-2.9-7.1-6.4-9l-1.2-0.5l-1-0.5l-1.4,0.6L483.5,1
	c-5.6,3.2-7.5,7.8-5.8,14.2c0.5,1.9,1.3,3.7,1.8,5.6c0.2,0.5,0.6,2.1,0.4,2.6c-0.2,0.5-2,0.6-2.4,0.7c-0.2,0-0.9,0-1.1,0
	c-0.4-2.1,4-8.1-3.3-5.6c-1.4,0.5-2.7,1.1-4,1.8c-1.9,1.1-3.7,2.6-4.3,4.8c-0.4,1.4-0.2,2.9,0.4,4.2c0.9,1.8,2.2,3.1,3.8,3.9
	c-0.4,0.1-0.9,0.3-1.2,0.6c-1.3-2.4-4.1-3-6.7-2.9c-0.4,0-0.8,0-1.1,0.1c0.6-2.1,0.7-4.3-0.8-6.1c-1.9-2.4-5.8-2.7-6.8-5.3l-0.7-1.8
	c-0.6-1.7-1.6-1.3-2.5-1.9c-0.4,0.9-1.6,1-1.3,2.7l0.2,1.9c0.3,3-4.9,5.6-4.6,9.4c0.1,1.4,0.9,2.4,1.9,3.1c-0.8,0.1-1.6,0.4-2.3,0.9
	c-1.3,1-1.7,2.6-1.5,4.2l0,0.1c-0.9-0.6-2.1-0.9-3.3-0.7c-1.1,0.2-2.1,0.8-2.7,1.7c0.2-0.8,0.3-1.6,0.1-2.4c-0.3-1-0.8-1.8-1.6-2.4
	c-2-1.5-4.5-2.3-7-1.5c-0.7,0.2-1.4,0.6-2,1.1c-0.2,0.1-0.4,0.3-0.6,0.5l-0.2,0.2l-0.1,0.1c-0.2,0.2-0.3,0.5-0.4,0.7
	c-1.7-1.6-3.7-2.7-6.1-3.3c-1.3-0.3-2.5-0.3-3.8-0.3c-0.4,0-0.8,0.1-1.2,0.2l-0.4,0.1c-1.7,0.4-2.4,2.6-1,3.8
	c9.3,7.9,18.1,16.3,26.2,25.5l0.1,0.1l0.3,1.1l1.1,3.8L439.6,68.4z M546.3,40.8c4.3-8.6,12.3-6.5,12.3-6.5
	c-9.7,8.1-18.5,16.7-26.4,25.7c-30.5-6.3-62.3-6.3-92.9,0c-7.9-9-16.8-17.6-26.4-25.7c0,0,7.9-2.1,12.3,6.5c0,0,7.9-2.5,0.9-4.7
	c0,0,2.6-3,6.9,0c2.6,1.9-1.1,6.2-3.8,6.4c0,0,7.7,1.1,7.7,5.6c0,0,3.7,0.3,7.4-0.1c-1.6-2-3.2-3.9-4.8-5.8l0.1,0
	c-0.9,0.1-1.8-0.3-2-1c-0.2-0.7,0.5-1.4,1.5-1.6c1-0.2,1.9,0.3,2.1,1c0.1,0.4-0.1,0.8-0.4,1.1c1.7,2,3.4,4.1,5.1,6.2
	c2.7-0.5,5.2-1.5,6.3-3.5c3-5.3-6.4-7.7-3.5-1.7c0,0-4-0.3-4.5-4.8c-0.5-4.5,6-2,5.9-2c0,0,1.8-1.5-2.6-4.4c-4.5-2.8,3.8-6,3.3-11.2
	c2.2,6.1,11.8,2.5,5.9,13.7c0,0,8.1-2.8,9.7,1.1c1.6,3.9-1.2,5.3-1.1,5.4c0,0,0.4-5-3.9-3.3c-3.4,1.4,0.5,8.4,9.1,7.8l-0.6-7.2
	c-0.6-0.2-1-0.6-1.1-1.1c-0.1-0.7,0.7-1.4,1.7-1.4c1-0.1,1.9,0.5,1.9,1.2c0,0.6-0.4,1.1-1.1,1.3l0.5,7.1c1.8-0.3,3.8-0.8,6.1-1.8
	c0.1,0-7.3-3.2,0.8-10.7c0,0-8.7,1.4-11.2-4c-2.7-5.5,8.3-8.3,8.4-8.2c0,0-4.1,6.8,2.1,6.3c13.1-0.8-8.1-16.2,8-23.9h0
	c16.2,7.8-5.1,23.2,8,23.9c6.3,0.5,2.2-6.3,2.1-6.3c0-0.1,11,2.7,8.4,8.2c-2.6,5.4-11.2,3.9-11.2,4c8.1,7.5,0.7,10.7,0.8,10.7
	c2.3,1,4.3,1.5,6.1,1.8l0.6-7.1c-0.7-0.2-1.1-0.7-1.1-1.3c0-0.7,0.9-1.3,1.9-1.2c1,0.1,1.8,0.7,1.7,1.4c0,0.5-0.5,0.9-1.1,1.1
	l-0.6,7.2c8.6,0.6,12.5-6.4,9.1-7.8c-4.3-1.7-3.8,3.3-3.8,3.3c0,0-2.8-1.5-1.2-5.4c1.7-3.9,9.8-1.1,9.7-1.1
	c-5.9-11.2,3.7-7.6,5.9-13.7c-0.5,5.2,7.8,8.4,3.3,11.2c-4.4,2.8-2.6,4.4-2.6,4.4c0,0,6.4-2.5,5.9,2c-0.5,4.5-4.5,4.8-4.5,4.8
	c2.9-6-6.5-3.6-3.5,1.7c1.1,2.1,3.6,3,6.3,3.5c1.6-2.1,3.3-4.2,5.1-6.2c-0.3-0.3-0.5-0.7-0.4-1.1c0.2-0.7,1.1-1.2,2.1-1
	c1,0.2,1.6,0.9,1.5,1.6c-0.2,0.7-1,1.1-2,1l0.1,0c-1.7,1.9-3.3,3.9-4.8,5.8c3.7,0.4,7.4,0.1,7.4,0.1c-0.1-4.5,7.6-5.7,7.7-5.6
	c-2.7-0.3-6.4-4.5-3.8-6.4c4.3-3,6.9,0,6.9,0C538.4,38.3,546.3,40.8,546.3,40.8z M530.2,65.9c-29.3-5.9-59.8-5.9-89,0l-1.1-3.8
	c30-6.1,61.2-6.1,91.2,0L530.2,65.9z M531.9,70.6c2.8,0.7,4.4,3.1,3.6,5.3c-0.8,2.2-3.7,3.4-6.3,2.7c-28.4-7.1-58.6-7.1-87,0
	c-2.6,0.7-5.4-0.5-6.3-2.7c-0.8-2.2,0.7-4.6,3.6-5.3C469.7,63.1,501.7,63.1,531.9,70.6z M357.6,66c-4.7-0.9-11.4-2.9-13.8,1.5
	C340.4,54.8,354.7,60.1,357.6,66z M363.6,68.6c0.7,0.2,1.4,0.4,2.2,0.4c5.3,0.9,9.6,0.5,10.6-4.7c0.7-1.2,0.9-2.7,0.4-4.2l0-0.1
	c2.1-0.4,3.1,4.2,2.6,6.6c-0.1,0.5-0.3,1-0.5,1.4c-1,1.3-2.6,2.5-4.4,3.3c-0.1,0-0.3,0.1-0.4,0.2c-6.4,1.6-16.7-1.2-21.5-3.4
	c-2.4,0-2.8,2.1-2.9,4.3c-2.6-1-6-1.3-5.8-5.1C347.9,64.1,356.3,67.1,363.6,68.6z M403.3,140.6c-0.3,2.5,0.2,4.1,2.9,3.6
	c-4.2,3.3,1.3,11.8-2,16c1.5,0.6,2.7,1.5,2.7,3.5c-2.3,0.4-4.1-1.1-3.5-2.8c-0.3,0.2-0.5,0.4-0.9,0.6c-0.5,2.4,1.2,2.6,2.9,2.9
	c-4.5,2.1-7.5-3.6-8-8c-2.9,5.4,6.5,7.6,4.3,12.3c-3.6,0.4-3.9-2.4-3.6-5.8c-1.6,0.1-0.3,3.1-0.7,4.3c0.9,3,5,2.7,8,3.6
	c-1.6,1.3-4.5,1.3-3.6,5.1c-8.6-5.6-7.1-16.9-7.3-28.3c-0.8,1.5,0.7,6.7-0.7,9.4c-4.9-3.8-11.8-5.6-18.8-7.3
	c-1.4,5.6-7.4,6.6-13.8,7.3c-2.3-4.5,6.5-4.1,7.3-8c-1-0.5-4.4,2.8-6.5,3.6c-1.7-1.8,2.3-4,2.9-5.8c-2.7,0.4-4.9,4.5-5.1,1.4
	c-3.1,0.1,0-1.1,0.7-1.4c-0.6-3.9-5.1-4-6.5-7.2c-0.5-2.5,2.7-1.2,2.9-2.9c-1.4-3.7-4.9-5.3-7.2-8c-0.2-2.7,0.8-4,1.4-5.8
	c5.1,1.1,7.1,5.4,10.9,8c7.9-2.4,4.8-14.7,0-18.1c1.6,3.2,7.6,13.1,0.7,17.4c-6.3-6-14.9-9.8-18.8-18.1c1.2,4.3,4,7.1,6.5,10.2
	c-3.7,8.4-1,23.2-10.9,25.4c-2-6-3-12.9-8-15.9c-0.1,6.9-2.4,11.7-7.3,13.8c-0.9-7.4-3.7-15.6-2.9-22.5c-2.5,4.2-1,12.5-6.5,13.8
	c-2.1-6.6-4.2-14.7-2.2-23.2c-3.1,3.2-1.7,10.8-7.3,11.6c-2.4-9.8,0.9-17.9-0.7-27.5c-0.7,3.4-1,6.5-1.1,9.5
	c-0.4-0.4-0.7-0.9-1.1-1.3c-1.2-8.6-4.9-25.9,3.7-31.4c-1.6-2.1-2.8,2.5-5.8,1.4c6.5-8.2,8-21.4,16.7-27.5c6.4,1.8,8,12.3,16.7,9.4
	c-1.4,7.7,1.3,18,11.6,18.1c0.2,2.7,1.3,4.5,3,5.7c-0.1-0.1,1,0.7,1.5,0.9c5.6,2.6,15.2,1.3,21,4.2c1.1,0.7,2.1,1.5,3.1,2.3
	c0.9,1.1,1.6,2.5,1.8,4.3c-4.9-0.9-8.5-3.1-11.6-5.8c5.7,7.4,16.2,6.4,21.7,13.8c3.8,5.1,4.4,11.1,7.8,17.2l0,0.3
	c-4.5-3.2-9.5-6.1-12.9-10.2c5.1,11.5,28.2,12.2,20.3,31.9c-0.7-0.1-1.1,0.1-1.3,0.5c-0.9,0-1.7,0-2.6-0.1c-1.8-0.9-2.6-2.8-5.5-2.5
	c5-10.3-7-14.2-11.6-19.6c2.8,6.6,15.8,9,10.9,18.8c-7-2.9-11.2-8.6-15.9-13.8c3.4,6,12.3,15.7,22.2,17c0.6,0.3,1.4,0.5,2.4,0.4
	c0-0.1,0.1-0.2,0.1-0.3C400.9,141.1,402.1,140.9,403.3,140.6z M351.1,50c0.5,0.6,0.9,1.3,0,1.5c-1,4.2-5.2,0.8-8,0.7
	c1.4,1.3,2.9,2.4,5.8,2.2c2.9-0.2,3.1-3.2,5.1-4.4c4.2,1.3,9.3,1.8,10.1,6.5c-4.5-0.1-5-4.2-9.4-4.3c2.6,2,5,4.2,8.7,5.1
	c0.4,3.6-1.6,4.6-2.2,7.3c-5.9-1.1-9.1-4.9-14.5-6.5c-11,5.6-0.6,20.4,12.3,14.5c-0.3,2.6-1.1,3.5,0,5.8c-2.3-0.3-1.6,2.2-4.3,1.5
	c-0.4-2.3,2.2-1.6,1.4-4.3c-14,4.3-26.5-6.7-19.5-18.8c-3.8,2-8.5,1.5-10.9-1.5c0.5-1.7,4.5,0.1,5.1-1.5c-1.8-1.8-7.7,0.5-8.7-2.2
	c0.6-1.1,2.3-1,3.6-1.5c-0.8-0.4-1.8-0.6-2.9-0.8c-2.3-0.3-4.9-0.4-5.8-2.1c4.1-1,7-3.2,10.9-4.4C331.8,50.8,340.9,54.1,351.1,50z
	 M330.8,37c3.1,0,2.9,3.4,5.1,4.3c-0.4,3-5.6,2.4-8,1.5C328.6,40.6,328.8,37.9,330.8,37z M354,49.3c-7.1,0.4-19.3,3.8-23.2-3.6
	c2.2-1.4,5.5-1.7,6.5-4.4C340.8,46.1,351.2,44,354,49.3z M350.8,72.6c-1.5-5.3,5.9-4,5.8-0.7C355.6,73,352.9,72.6,350.8,72.6z
	 M352.8,81.3c-0.8-0.2-1.5-0.4-2.1-0.7c-0.1-0.1-0.3-0.1-0.4-0.2l-0.5-0.3l-0.2-0.2l-0.1,0c-0.6-0.4-1-0.9-1.3-1.5
	c1.5,0.1,3,0.1,4.5-0.1c-0.1,0.5-0.1,1.1-0.1,1.7L352.8,81.3z M391,97.2c-4,4.4-5.8,2.3-12.3-2.2c2.1-3,6.5-3.7,8.7-6.5
	c1.4,0.7-1.9,2.9-2.2,4.4c4-2.3,6.1-6.4,5.8-13c4.3-4.2,9.1-7.8,13.8-11.6c3.5,2.8,8.9,3.7,10.9,8c-3.1-0.9-4.5,4.1-2.2,4.4
	c-3.2,2.4-7.3-0.4-8.7-2.2c-0.1,1.8,1.1,2.3,2.2,2.9c-0.2,1-1.8,0.6-2.9,0.7c-1,4.6,2.9,4.4,2.9,8c-3,0.6-4.6-2.5-2.9-4.3
	c-2.6-1.1-0.4,2.5-2.2,2.2c-3.5-0.5-4.8-7.5-1.4-8.7c-0.5-1.6-2.4,1.4-2.9,2.2c-0.1,3.7,1.2,6,3.6,7.2c-1.2,2.9-5.3,2.9-6.5,5.8
	c2.3,0.7,5.8-6.2,9.4-4.3c-2.3,4.3-0.5,9.2,1.5,13c-1.6,2-3.6-1.7-5.1-2.2c-0.8,1.6,2.1,5.6,3.6,7.2c-2.8,1.3-7.1-2-8-5.1
	c-1.8,3,2,6.7,3.6,8.7c-1.6,1.5-5.5-0.8-6.5-2.2c-1,0.2-0.6,1.8-0.7,2.9c-2.5-2.8-3.3-7.3-5.8-10.1C387.6,100.1,390,99.3,391,97.2z
	 M413.4,77.6c0.6-0.4,1.2-0.8,2.2-0.7c0.6,1.6,1.9,2.5,1.5,5.1C415.4,80.9,413,80.7,413.4,77.6z M419.2,76.1
	c2.5-0.8,4.6,4.9,1.5,5.1C419.9,79.7,417.5,78,419.2,76.1z M419.9,74c0.3,2.5-3.2,1.1-2.2,4.3c-1.4-4.4-4.7-6.9-8.7-8.7
	C413.1,65.4,415.9,73.5,419.9,74z M401.8,102.9c1.3,1.1,3.6,1.2,2.9,4.3C403.3,106.3,402.3,104.9,401.8,102.9z M425,75.4
	c-1.5-0.3-2.3,0.1-2.2,1.4c-1.9-3.2-5-5.1-8-7.3c0.1-1.3,2.5-0.4,2.9-1.4C421.1,69.7,423.5,72.1,425,75.4z M425.7,76.1
	c1,0.9,0.7,3.2,0.7,5.1c-1.7-1.5-4.4-2.4-2.9-5.1H425.7z M406.2,84c0.8-0.1,1.5-0.3,2-0.8c1.9,0.6,3.9,0.5,5.7-0.4
	c0.4,0.2,0.8,0.4,1.2,0.6c0.3,0.1,0.6,0.3,0.9,0.4l1.6,1l-1.2,0.4c-1.3,0.5-2.5,0.9-3.7,1.4c-0.3,0.1-0.7,0.3-1.1,0.4l-3.6-0.9
	l0.3,0.9C407.6,85.8,406.6,85,406.2,84z M409,88.7l0.5,1.3c4.6,12.3,3.4,33.9,2.2,47c-0.1,1.4-0.3,2.7-0.4,4.1l-0.7,0.1
	c0-0.2,0-0.3,0-0.5l0.1-2.3h-4.9l0.1-0.7l-1.6,0.4c1.1-4.2,1-8.5-1.4-12.4c-1.7-2.8-4.2-4.9-6.9-6.7l0-0.2l0-0.3l0-0.5l-0.2-0.4
	c-0.5-0.8-0.9-1.7-1.3-2.6l0.2-1.7c2.1,1.1,4.9,1.7,6.7-0.1l1.5-1.4l-1.2-1.4c1.1,0.2,2.3,0.1,3.4-0.4l1.3,0.8l0.4-1.6l1-0.5
	l-0.7-0.8l0-0.1c0.2-1,0.3-2.1,0-3.1c0.1-0.1,0.2-0.2,0.3-0.4l0.9-1.1l-0.6-1.2c-1.4-2.9-3-6.6-2-9.9c0.6,0.1,1.3,0.1,1.9,0l1.8-0.3
	l0-1.8C409.1,89.4,409,89,409,88.7z M406.2,248.6c-1.3-1.1-1.8-3-3.6-3.6c1.4,1.8,2.7,3.6,2.2,7.3c-1.5-1.7-2.6-3.6-5.1-4.4
	c-2,2-3.6,3.6-2.2,7.3c-3.4-1-5.4-3.3-5.8-7.3c-0.4,3-3.2,3.5-5.1,5.1c-0.7-2.4-2.9-3.3-4.4-5.1c-1.7,0.2-1.3,2.5-3.6,2.2
	c-0.4-3.1,0.5-4.8,0.7-7.3c-2.1-1.3-4.1-4.4-8-5.8c-1.5,2.4-2.6,5.2-6.5,5.1c-0.5-2.9,1.9-2.9,1.4-5.8c-1.2-1.4-2.6,3.1-5.8,2.2
	c0.5-2.4,2.3-3.5,2.9-5.8c-1.5-1.2-2.4,4.4-6.5,2.9c1.1-2.3,1.9-4.9,3.6-6.5c-3.1-3.4-9.4-3.6-8.7-10.9c2.4,0.4,3.4-0.5,5.1-0.7
	c0.7-10.6-6.2-13.6-16.7-13c1.3-1.6,0.3-5.4,1.4-7.3c6.3-0.5,8.9,2.7,13,4.4c-3.1-2.9-6.8-5.3-12.3-5.8c2.9-6.3,6.8-11.5,11.6-15.9
	c15.8,1.6,28.4,6.4,26.8,25.4c-4.9,4.2-6.3,8.3-5.8,12.2c-0.1,0.8-0.1,1.5,0,2.3c0.6,3.3,9.7,12.8,14.5,16.2
	c-0.2,1.2-2.6,0.1-3.6,0.5c9.5,5.1,21.9-1.6,23.9,10.9C408.4,247.5,405.4,246.1,406.2,248.6z M346.8,176.9
	c-10.7,10-2.3,26.7-10.9,39.8c-0.5,0.8-1.1,1.5-1.6,2.2c-0.1,0.1-0.2,0.2-0.3,0.4c-3.3,3.1-7.3,5.5-11.1,8c-5.8,3-11,5.5-12.2,13.3
	c-0.9,5.9-0.1,11.7,2.9,15.1l0,0c0,0.1,0.1,0.1,0.2,0.2l-0.1,0c2.3,2.5,5.8,3.6,10.8,2.1c1.5,3.1,4.5,4.7,4.4,9.4
	c-3.1-5.2-6.3,1-7.2,2.2c-1.2-3.4-2.1-7.1-5.8-8c-1.1,1.4,4.5,2.2,3.6,5.8c0.3,3-2.2-0.3-2.9-0.7c-1.6,1.1-3.4,1.9-2.9,5.1
	c-2.1-1-3.2-3.1-4.4-5.1H309c-0.1-0.1-0.2-0.2-0.3-0.2c-1.3-0.2-2.3,0.4-3.2,1.3l-0.1,0.1c-1.4,0.9-1.9,2.6-4.3,2.4
	c0-1.9,0.3-4.1-0.7-5.1c-2.2-1.9-3.6,1.2-4.3,0c0.2-4-0.5-8.7,0.7-11.6c-1.8-1.5-6.7-0.1-8-2.2c1.3-1.8,4.5-1.8,5.8-3.6
	c-1.3-0.9-5.7,0.9-7.3-1.4c2-1.8,6.4-1.4,7.3-4.3c-2.4,0.9-6.1,2.6-8,0c3.9-0.5,5-3.7,8.7-4.4c-0.7-3.8-2.6-9.7-0.7-13.8
	c4.4,2.8,9.6,0.1,11.6-3.6c0-19.1,3.3-34.9,10.9-46.4c-6.7,6.8-9.1,17.9-10.9,29.7c-7.5,3.7-16.3,1-18.8-5.8c-3.7,1.2-1.3,4.6,0,6.5
	c-1.5,1.4-4.5,0.6-5.6-0.6l-0.2-0.5c-0.5-3.1,1.3-3.9,2.2-5.5c-2.8,0.1-5.3,0-7.2-0.7c-3.1-3.7-0.7-9.6,4.5-9.4
	c-0.9,1.7-1.4,3.5-1,5.4c0.5,2,2.2,2.7,4.1,2.4c0.3,0.1,0.6,0,1.1-0.5c-1.7-18.3,15.3-22.1,23.6-33.2c0.1,0,0.1-0.1,0.2-0.2l0.1-0.1
	c0.1-0.1,0.1-0.1,0.1-0.2c1.3-1.4,2.2-2.9,2.5-4.5c0.5-1.2,0.9-2.4,1.1-3.8c-0.2-1.7-3.2-0.7-3.6-2.2c-1.4,1.3-0.3,5-2.9,5.1
	c-1.3,0.1-1.5-0.9-2.9-0.7c-0.7-4.1,1-5.7,3.6-6.5c3.6-0.5,3.6,2.7,6.5,2.9c1.4-7.5-7.8-10.5-15.2-11.6c-1.3-1.6-1.8-4-1.5-7.3
	c7,2.2,15.7,8.9,18.8,17.4c-0.6-14-31.3-18.1-17.4-37.7c0.3,21.5,21.4,22,18.8,46.4c-2.4,11.9-23,17.3-25.3,29
	c-2.6,13.3,12.3,14.6,15.2,6.5c2.7-7.6,2.4-16.3,9.4-24.6c0.1-0.1,0.3-0.3,0.4-0.5c1.4-1.6,3-3.1,4.5-4.6
	c5.2-4.9,10.8-9.5,11.8-14.5c1.1-5.5-1.8-12.2-0.7-15.9c13.1,11.5-0.2,23.5-8,30.4c4.4-3,11.8-9.4,15.2-15.9
	c6.9-2.3,9.6-8.8,9.4-18.1c3.4,0.9,5,3.7,7.2,5.8c0.4,2.3-3.3,0.6-3.6,2.2c1.1,3.7,4,5.7,7.3,7.2c-0.4,1.8-2.7,1.6-4.4,2.2
	c0.5,1,1.5,1.4,2.9,1.5c-0.2,1.5-2.7,0.7-2.9,2.2c0.6,1.7,3.7,0,4.4-0.7c1.7,1.3-1,4.3,0,7.2c1.4-1,11.5,0.4,13-2.9
	c-0.1,4.5-7,8.5-10.1,12.3c6.1-3.8,11.4-8.4,13.8-15.9c2.6,0.1,4.2,1.1,6.5,1.4c-4.4,16.1-26.7,14.4-36.2,25.4
	C345.7,178,346.9,177.7,346.8,176.9z M403.3,166.7c2.1,0.3,3.3,1.5,3.6,3.6C404.4,170.4,402.7,169.7,403.3,166.7z M403.3,173.2
	c2.4,0,2.8,2.1,2.9,4.4C404.5,176.9,401.3,175.4,403.3,173.2z M383.7,153.7c3.7-0.1,4.7,2.6,8,2.9c-1.9,3.7-3.3,9.8,0,13.1
	C384.8,171.3,379.5,161.1,383.7,153.7z M342.4,194.2c-1.1-9.6,3.1-20,15.2-18.8C354.2,180.5,344.4,185.4,342.4,194.2z M405.5,143.5
	c-1.3-0.2-1.7-1.3-1.5-2.9h4.4C408.3,142.5,405.5,141.7,405.5,143.5z M426,273.6c0.7-5.6-1.5-11.7-6.2-15c-4-2.8-8.9-3.5-13.4-2.4
	l0.4-2.7c0.8,0.6,1.8,0.9,3,0.9l2.2,0.1l0.1-2.2c0-0.5,0.1-1.1,0-1.6c0.5,0.4,1.1,0.7,1.8,0.8l4.2,0.6l-1.9-3.8l0.8-0.4l-0.4-1.7
	c-0.1-0.7-0.3-1.3-0.7-1.9l-0.3-0.4l0-0.6l-0.7-0.7c-0.4-0.4-0.9-1.4-1.3-1.9c-0.8-1.3-1.9-2.6-3.5-3c-1.2-0.3-2.4,0-3.4,0.7
	c-2.9-1.7-6.7-1.8-10-2c-1.7-0.1-3.5-0.2-5.2-0.5l0.2-1.2l-1.1-0.8c-2.5-1.8-4.9-4.1-7-6.3c-1.4-1.5-6.3-6.7-6.6-8.5
	c-0.1-0.5-0.1-1.1,0-1.6l0-0.3l0-0.3c-0.6-4.2,2.1-7.6,5.1-10.3l0.7-0.6l0.1-0.9c0.6-7-0.6-14.2-5.7-19.4
	c-4.9-4.9-12.1-6.9-18.9-7.8c0.4-0.5,0.8-1,1.1-1.5l2-3l-3.3-0.3c7.5-3.3,16-5.2,21.9-11.1l0.2-0.2c0.1,0.7,0.3,1.3,0.5,2
	c1.1,3.3,3.5,6.5,6.9,7.6c1.5,0.5,3,0.5,4.5,0.1l2.5-0.6c0.3,0.6,0.5,1.1,0.8,1.6c1.3,2.1,3,3.9,5.1,5.2l3.6,2.3l-0.3,0.9
	c-1.9,6.6-2.9,13-2.5,20c0.5,9.7,3.5,19.4,7.2,28.3c2,4.9,4.3,9.5,8,13.4c2.5,2.6,5.3,4.6,8.4,6.5c4,2.5,8.2,4.6,12.3,6.8
	c6.1,3.3,12.3,6.7,18.3,10.2l1.5,0.9c-7-0.8-15.1,0.6-20.9,2.4C432.7,270.7,429.4,272.2,426,273.6z M300.4,106.3L300.4,106.3
	l0.1,0.9l0.6,0.5c0.3,0.3,0.6,0.8,0.9,1.1l0.8,0.9l-0.1,1.2c-0.3,3.9-0.5,7.5,0,11.3c-1.4-2.8-2.2-6-2.3-9.8L300.4,106.3z
	 M306.1,127.5c1.7-0.3,3-1,3.9-2.1c0.3,3,1,6.1,1.8,9C309.9,132.1,307.9,129.9,306.1,127.5z M315.4,139.1c2.4-0.5,3.9-2,4.8-3.8
	c0.7,3.5,1.5,7.1,2,10.6l0.4,2.9l2.7-1.1c2.4-1,4.2-2.6,5.6-4.5c0.1,0.5,0.1,0.9,0.2,1.4c0.2,1.6,0.3,3.4,0,5.1
	c-0.9,4.5-7.9,10.2-11.2,13.4c-1.6,1.5-3.1,3.1-4.6,4.7c-0.2,0.2-0.3,0.3-0.4,0.5c-3.5,4-5.5,8.4-6.8,13.5c-1.1,3.9-1.6,8-3,11.9
	c-2.1,5.7-13.1,5.1-11-5.4c2.1-10.8,23.3-15.7,25.4-29.1C320.6,150,318.6,144,315.4,139.1z M411,143.3c-0.7,5.9-1.5,11.8-2.6,17.7
	c-0.3-0.6-0.8-1.1-1.3-1.6c0.6-1.8,0.5-3.8,0.2-5.7c-0.2-1.7-1.1-5.9-0.1-7.3c0.1-0.2,0.2-0.3,0.4-0.4L411,143.3z M413.4,244.2
	c-0.1,1.4-2.4,0.5-2.2,2.2c-1.6-1.5-1.3-5-3.6-5.8C410.6,237.9,412.1,242.9,413.4,244.2z M399.6,248.6c1.4,0,0.9,2,2.9,1.4
	c0.1,2.8,0,5.3-0.7,7.2C397.8,256.4,396.6,250.8,399.6,248.6z M406.9,247.9h2.2c0.8,0.9,0.8,2.6,0.7,4.4
	C407.5,252.1,406.6,250.6,406.9,247.9z M333,264.5c-1.6-0.2-2.7,0.2-2.9,1.5c-1.5-2.9-3-5.9-4.8-8.4c0.3,0,0.6-0.1,0.9-0.2
	C329.7,258.5,332.9,260,333,264.5z M414.4,246.7c-0.7,0.4-1,1.1-0.3,2.6c-1.5-0.2-1.4-2-2.9-2.2c0.9-0.8,1.7-1.4,2.8-1.6
	C414.3,245.9,414.3,246.3,414.4,246.7z M313.5,150.8c-3.6-5.9-17.3,2.7-13-9.4C306.9,142.3,312.2,144.5,313.5,150.8z M323.6,273.2
	c-0.1-3-0.3-6,1.4-7.2c0.6,0.4,1.2,0.8,2.2,0.7C326.6,269.5,326.7,272.9,323.6,273.2z M297.5,266c1.5-0.3,1.9,0.5,2.9,0.7
	c-0.8,1.7-0.5,4.4-1.5,5.8C296.9,272,296,267.8,297.5,266z M381.5,249.3c2.3-0.3,1.9,1.9,3.6,2.2c-0.4,2.1-1.8,3.1-2.2,5.1
	C380.3,255.4,379.5,251.4,381.5,249.3z M314.9,268.1c2.3-0.6,2.2,1.1,3.6,1.5c0.2,2.6-0.8,4-1.5,5.8C315,274,313.5,271,314.9,268.1z
	 M331.6,265.3c2.8,0.7,0.9,4.5,0,5.8C329.4,270,330,266.4,331.6,265.3z M283.3,187.9c-0.3,1.7-0.5,3.6-0.4,5.4
	c-0.4-0.1-0.7-0.3-0.8-0.8c-0.3-1.3,0.2-2.7,0.8-3.9L283.3,187.9z M393.8,168.6l-0.6-0.6c-1.8-1.8-1.5-4.9-0.7-7.6
	C392.6,163.2,393,166,393.8,168.6z M483.1,289.8c-0.9-3.4-2.5-6.5-4.7-9.1l3.5,2.3l1.2,0.8l1.2-0.8c1.2-0.8,2.3-1.5,3.5-2.3
	C485.6,283.3,484,286.3,483.1,289.8z M448.2,299.4c-2.1-1.8-3.5-4.5-3.8-7.2c1.5-1.3,3-2.8,4.3-4.3c-0.5,0.7-0.9,1.5-1.2,2.4
	c-1.3,3.6,3.6,5.4,5,1.8c1.1-3.1,5.4-3.3,7.4-0.9c2.8,3.4,0.9,8.5-3.1,9.9c-1.1,0.4-2.3,0.6-3.5,0.5c0.3-0.9,0.7-1.6,1.3-2.4
	c2.1-3-1.7-6-4.3-3.2c-0.2,0.2-0.3,0.4-0.5,0.6C449.2,297.5,448.6,298.4,448.2,299.4z M450,286.4c0.3-0.4,0.7-0.9,1-1.3
	c0.7-1,0.7-2.4-0.1-3.3c-0.1-0.1-0.2-0.2-0.3-0.3c4.4-2.6,10.1-2.7,14.8,0.1c7,4.3,10.3,12.6,8,20.5c-0.7,2.2,1,3.7,2.7,3.5
	c-1.8,3.7-4.8,6.6-9.1,7.7c-4.6,1.1-10.9-1.2-13.2-5.6c0.6,0,1.1-0.1,1.7-0.1c4.9-0.8,9-4,10.7-8.8c1.9-5.3,0-11.7-5.4-14.1
	C456.8,282.9,452.8,283.7,450,286.4z M419.7,275.9c-1,0.2-2.1,0.4-3.2,0.3l-0.9-4.2c-0.1-0.7-0.6-1.3-1.1-1.8l0.2-3.6l-2.6-0.1
	c-6.4-0.4-11.3,7-8.5,12.8c2.5,5.1,9,7.5,14.3,5.4c2-0.8,3.7-2,5-3.6c2.1-0.6,4.2-1.4,6.2-2.2c-1.6,1.5-3,3-4.3,4.7
	c-2.4,3,1.5,6.3,4.1,3.4c0.1-0.1,0.2-0.2,0.3-0.4c4.8-6.1,12.2-9.8,19.9-10.8c-2.3,1.3-4.3,3.2-6.2,5.2c-2.1,2.3-4.7,3.9-7.2,5.6
	c-4,2.6-8.5,4.6-13.1,5.7c-5,1.1-10.4,1-15.3-0.7c-3-1.1-6.5-3.1-8.3-5.8c-2-2.9-3-6.6-2.9-10.1c0.1,0.2,0.2,0.3,0.4,0.5
	c1.1,1.1,3,0.1,4.1-0.6c1-0.6,1.4-0.9,1.9-1.9c1.6-3.1,0.3-6-2.4-7.5c4.3-4.7,12.4-6.6,17.5-2C420.7,266.8,421.5,272.1,419.7,275.9z
	 M396.5,272.8c0.1-0.4,0.2-0.7,0.3-1.1l0.2,0.1c0,0.1-0.1,0.2-0.1,0.2C396.7,272.3,396.6,272.5,396.5,272.8z M550.5,241.7
	c-0.2,0.3-0.3,0.5-0.5,0.7l-0.7,0.7l0,0.5l-0.3,0.4c-0.4,0.6-0.5,1.2-0.7,1.9l-0.3,1.6l0.8,0.4l-1.9,3.8l4.2-0.6
	c0.7-0.1,1.3-0.4,1.8-0.8c0,0.5,0,1.1,0.1,1.6l0.1,2.2l2.2-0.1c1.2-0.1,2.2-0.4,3-0.9l0.4,2.8c-4.3-0.7-8.6,0.1-12.3,2.7
	c-4.7,3.3-6.9,9.4-6.2,15c-3.4-1.4-6.6-3-10.1-4c-5.8-1.7-13.9-3.2-20.9-2.4l1.5-0.9c6-3.5,12.1-6.9,18.3-10.2
	c4.1-2.2,8.3-4.4,12.3-6.8c3-1.9,5.9-3.9,8.4-6.5C549.9,242.5,550.2,242.1,550.5,241.7z M546.5,275.9c-1.8-3.8-1-9.1,2.1-11.9
	c5-4.5,13.2-2.6,17.5,2c-2.7,1.5-4,4.3-2.4,7.5c0.5,1,0.9,1.4,1.9,1.9c2.4,1.4,4.1,1.1,4.4-0.4c0.3,3.7-0.8,7.6-2.8,10.6
	c-1.8,2.7-5.3,4.7-8.3,5.8c-4.9,1.7-10.2,1.8-15.3,0.7c-4.7-1.1-9.1-3.1-13.1-5.7c-2.5-1.7-5.1-3.3-7.2-5.6c-1.8-2-3.8-3.8-6.2-5.2
	c7.7,0.9,15.1,4.7,19.9,10.8c0.1,0.1,0.2,0.2,0.3,0.4c2.6,2.9,6.5-0.4,4.1-3.4c-1.3-1.7-2.8-3.3-4.4-4.7c2,0.8,4.1,1.6,6.2,2.2
	c1.3,1.6,3.1,2.8,5,3.6c5.3,2.1,11.8-0.3,14.3-5.4c2.8-5.8-2.1-13.1-8.5-12.8l-2.6,0.1l0.2,3.6c-0.5,0.5-1,1.1-1.1,1.8l-0.9,4.2
	C548.6,276.3,547.5,276.1,546.5,275.9z M569.7,273c-0.1-0.3-0.2-0.6-0.4-0.9c0-0.1-0.1-0.2-0.1-0.3l0.2-0.1
	C569.5,272.1,569.7,272.6,569.7,273z M490.1,305.5c1.7,0.2,3.4-1.3,2.7-3.5c-2.4-7.9,1-16.2,8-20.5c4.6-2.8,10.4-2.7,14.8-0.1
	c-0.1,0.1-0.2,0.2-0.3,0.3c-0.8,0.9-0.9,2.3-0.1,3.3c0.3,0.5,0.7,0.9,1,1.3c-2.7-2.7-6.8-3.5-10.7-1.8c-5.4,2.4-7.2,8.8-5.4,14.1
	c1.6,4.7,5.8,8,10.7,8.8c0.5,0.1,1.1,0.1,1.7,0.1c-2.3,4.4-8.5,6.7-13.2,5.6C495,312.1,491.9,309.2,490.1,305.5z M517.5,287.9
	c1.3,1.5,2.8,3,4.3,4.3c-0.3,2.8-1.7,5.4-3.8,7.2c-0.4-1-1-1.9-1.6-2.8c-0.1-0.2-0.3-0.4-0.5-0.6c-2.6-2.8-6.3,0.2-4.3,3.2
	c0.5,0.8,0.9,1.5,1.3,2.4c-1.2,0.1-2.4-0.1-3.5-0.5c-4-1.4-5.9-6.5-3.1-9.9c2-2.4,6.3-2.2,7.4,0.9c1.3,3.6,6.3,1.8,5-1.8
	C518.4,289.4,518,288.6,517.5,287.9z M558.8,248.6c0.7-2.4-2.3-1.1-3.6-1.4c2-12.5,14.4-5.7,23.9-10.9c-1-0.4-3.5,0.7-3.6-0.5
	c4.8-3.4,13.9-12.9,14.5-16.2c0.1-0.8,0.1-1.5,0-2.3c0.5-3.9-1-8-5.8-12.2c-1.6-19,11-23.8,26.8-25.4c4.8,4.4,8.7,9.6,11.6,15.9
	c-5.5,0.6-9.2,2.9-12.3,5.8c4.2-1.6,6.7-4.9,13-4.4c1.1,1.8,0.2,5.6,1.5,7.3c-10.5-0.6-17.4,2.4-16.7,13c1.7,0.2,2.7,1.1,5.1,0.7
	c0.7,7.2-5.6,7.4-8.7,10.9c1.7,1.7,2.5,4.3,3.6,6.5c-4.2,1.5-5.1-4.1-6.5-2.9c0.7,2.3,2.4,3.4,2.9,5.8c-3.2,1-4.5-3.6-5.8-2.2
	c-0.5,2.9,1.9,2.9,1.5,5.8c-4,0.1-5.1-2.7-6.5-5.1c-3.8,1.4-5.8,4.5-8,5.8c0.2,2.5,1.2,4.2,0.7,7.3c-2.3,0.3-1.9-2-3.6-2.2
	c-1.4,1.7-3.6,2.6-4.3,5.1c-1.9-1.5-4.7-2.1-5.1-5.1c-0.4,3.9-2.4,6.3-5.8,7.3c1.4-3.6-0.2-5.3-2.2-7.3c-2.4,0.7-3.6,2.7-5.1,4.4
	c-0.5-3.7,0.8-5.5,2.2-7.3C560.6,245.6,560.2,247.5,558.8,248.6z M551.6,244.2c1.3-1.3,2.8-6.4,5.8-3.6c-2.3,0.8-2,4.3-3.6,5.8
	C554,244.7,551.7,245.6,551.6,244.2z M565.3,248.6c3,2.2,1.9,7.8-2.2,8.7c-0.8-1.9-0.9-4.4-0.7-7.2
	C564.4,250.6,563.9,248.6,565.3,248.6z M558.1,247.9c0.3,2.7-0.6,4.3-2.9,4.4c-0.1-1.8-0.1-3.5,0.7-4.4H558.1z M632,264.5
	c0.1-4.6,3.3-6,6.9-7.1c0.3,0.1,0.6,0.2,0.9,0.2c-1.9,2.5-3.3,5.5-4.8,8.4C634.7,264.7,633.6,264.3,632,264.5z M618.2,176.9
	c-0.1,0.8,1.1,1.1,0,1.4c-9.5-11-31.8-9.2-36.2-25.4c2.3-0.3,3.9-1.4,6.5-1.4c2.3,7.6,7.7,12.1,13.8,15.9
	c-3.2-3.8-10.1-7.8-10.1-12.3c1.6,3.3,11.6,1.9,13,2.9c1-3-1.8-5.9,0-7.2c0.6,0.7,3.7,2.4,4.3,0.7c-0.2-1.5-2.7-0.7-2.9-2.2
	c1.3-0.1,2.4-0.5,2.9-1.5c-1.6-0.6-3.9-0.4-4.3-2.2c3.3-1.6,6.1-3.5,7.2-7.2c-0.3-1.6-4,0.1-3.6-2.2c2.3-2.1,3.8-4.9,7.2-5.8
	c-0.2,9.4,2.5,15.9,9.4,18.1c3.4,6.5,10.8,12.9,15.2,15.9c-7.7-6.9-21.1-18.9-8-30.4c1.1,3.8-1.9,10.5-0.7,15.9
	c1,5,6.6,9.6,11.8,14.5c1.5,1.5,3,3,4.5,4.6c0.1,0.2,0.3,0.3,0.4,0.5c7,8.3,6.7,17.1,9.4,24.6c2.9,8,17.8,6.8,15.2-6.5
	c-2.3-11.7-22.9-17.1-25.4-29c-2.6-24.4,18.6-24.9,18.8-46.4c14,19.6-16.8,23.6-17.4,37.7c3.1-8.5,11.8-15.2,18.8-17.4
	c0.3,3.2-0.2,5.6-1.5,7.3c-7.4,1.1-16.6,4.1-15.2,11.6c2.9-0.2,2.9-3.4,6.5-2.9c2.6,0.8,4.3,2.4,3.6,6.5c-1.4-0.2-1.6,0.8-2.9,0.7
	c-2.6,0-1.5-3.8-2.9-5.1c-0.5,1.5-3.4,0.5-3.6,2.2c0.3,1.4,0.6,2.6,1.1,3.8c0.2,1.6,1.2,3.1,2.4,4.5c0,0.1,0.1,0.1,0.2,0.2l0.1,0.1
	c0,0.1,0.1,0.2,0.2,0.2c8.3,11.1,25.2,14.9,23.5,33.2c0.5,0.5,0.8,0.6,1.1,0.5c1.8,0.3,3.6-0.4,4.1-2.4c0.5-1.9-0.1-3.7-0.9-5.4
	c5.2-0.2,7.6,5.7,4.5,9.4c-1.9,0.8-4.4,0.9-7.2,0.7c1,1.6,2.8,2.4,2.2,5.5l-0.2,0.5c-1.1,1.2-4.1,2-5.6,0.6c1.3-1.9,3.7-5.4,0-6.5
	c-2.6,6.8-11.4,9.5-18.8,5.8c-1.8-11.8-4.2-22.9-10.9-29.7c7.6,11.5,10.9,27.3,10.9,46.4c2,3.7,7.2,6.4,11.6,3.6
	c1.9,4,0,9.9-0.7,13.8c3.6,0.7,4.8,3.9,8.7,4.4c-1.9,2.6-5.6,0.9-8,0c0.9,3,5.2,2.5,7.2,4.3c-1.5,2.3-6,0.5-7.2,1.4
	c1.3,1.8,4.5,1.8,5.8,3.6c-1.3,2.1-6.1,0.7-8,2.2c1.2,2.9,0.6,7.6,0.7,11.6c-0.8,1.2-2.2-1.9-4.3,0c-1,0.9-0.7,3.1-0.7,5.1
	c-2.4,0.1-2.9-1.6-4.3-2.4l-0.1-0.1c-0.9-0.8-2-1.4-3.2-1.3c-0.1,0-0.2,0.1-0.3,0.2h-0.1c-1.2,2-2.2,4.1-4.4,5.1
	c0.5-3.1-1.3-4-2.9-5.1c-0.7,0.4-3.2,3.8-2.9,0.7c-0.9-3.6,4.7-4.4,3.6-5.8c-3.7,0.9-4.6,4.6-5.8,8c-1-1.1-4.1-7.3-7.3-2.2
	c-0.1-4.7,2.8-6.4,4.3-9.4c4.9,1.4,8.5,0.4,10.8-2.1l0,0c0.1,0,0.1-0.1,0.2-0.2l0.1,0c2.9-3.4,3.8-9.2,2.8-15.1
	c-1.2-7.9-6.4-10.4-12.2-13.3c-3.8-2.5-7.9-4.9-11.1-8c-0.1-0.1-0.2-0.3-0.3-0.4c-0.6-0.7-1.1-1.4-1.6-2.2
	C620.5,203.6,628.9,186.9,618.2,176.9z M550.6,246.7c0.1-0.4,0.1-0.8,0.4-1.2c1.1,0.2,2,0.8,2.8,1.6c-1.5,0.2-1.4,2-2.9,2.2
	C551.6,247.8,551.3,247.1,550.6,246.7z M641.4,273.2c-3.1-0.3-3-3.7-3.6-6.5c1,0,1.6-0.3,2.2-0.7
	C641.7,267.2,641.5,270.2,641.4,273.2z M667.5,266c1.5,1.9,0.6,6-1.4,6.5c-1-1.4-0.7-4.1-1.5-5.8C665.6,266.5,666,265.7,667.5,266z
	 M583.5,249.3c2.1,2.1,1.3,6.1-1.5,7.3c-0.4-2-1.8-3-2.2-5.1C581.5,251.3,581.2,249,583.5,249.3z M650.1,268.1
	c1.4,2.8-0.1,5.9-2.2,7.2c-0.6-1.8-1.7-3.1-1.5-5.8C647.8,269.3,647.8,267.5,650.1,268.1z M633.4,265.3c1.6,1.1,2.1,4.8,0,5.8
	C632.6,269.8,630.6,265.9,633.4,265.3z M606.7,177.8c-6.8,1-14,2.9-18.9,7.8c-5.2,5.2-6.3,12.4-5.7,19.4l0.1,0.9l0.7,0.6
	c3,2.6,5.6,6,5.1,10.3l0,0.3l0,0.3c0.1,0.5,0.1,1.1,0,1.6c-0.3,1.8-5.2,7.1-6.6,8.5c-2.1,2.2-4.5,4.5-7,6.3l-1.1,0.8l0.2,1.2
	c-1.7,0.3-3.5,0.4-5.2,0.5c-3.3,0.2-7,0.3-10,2c-1-0.7-2.2-1-3.4-0.7c-0.6,0.2-1.2,0.5-1.7,0.9c1.8-2.8,3.2-5.7,4.5-8.8
	c3.7-9,6.7-18.6,7.2-28.3c0.4-6.9-0.6-13.3-2.5-20c-0.2-0.6-0.3-1.2-0.5-1.8l2.6-1.7c2.1-1.3,3.8-3.1,5.1-5.2
	c0.3-0.5,0.6-1.1,0.9-1.6l2.5,0.6c1.5,0.4,3.1,0.3,4.5-0.1c3.5-1.1,5.9-4.3,6.9-7.6c0.2-0.6,0.4-1.3,0.5-2l0.2,0.2
	c5.9,5.9,14.4,7.8,21.9,11.1l-3.3,0.3l2,3C605.9,176.8,606.3,177.3,606.7,177.8z M559.5,256.1l0.9-1c0.1,0.4,0.2,0.9,0.3,1.3
	C560.3,256.3,559.9,256.2,559.5,256.1z M405.5,256.4c-0.4,0.1-0.8,0.2-1.2,0.4c0.1-0.5,0.2-0.9,0.3-1.4L405.5,256.4z M574,97.2
	c1,2.1,3.3,2.9,4.4,5.1c-2.5,2.8-3.3,7.3-5.8,10.1c-0.1-1.1,0.3-2.7-0.7-2.9c-1.1,1.4-5,3.7-6.5,2.2c1.7-2,5.4-5.7,3.6-8.7
	c-0.8,3.1-5.2,6.4-8,5.1c1.5-1.7,4.4-5.7,3.6-7.2c-1.5,0.5-3.5,4.2-5.1,2.2c1.9-3.9,3.8-8.8,1.5-13c3.7-1.9,7.1,5,9.4,4.3
	c-1.3-2.9-5.3-2.9-6.5-5.8c2.4-1.2,3.7-3.5,3.6-7.2c-0.5-0.8-2.4-3.8-2.9-2.2c3.3,1.2,2,8.2-1.4,8.7c-1.7,0.3,0.4-3.3-2.2-2.2
	c1.7,1.9,0.1,4.9-2.9,4.3c0.1-3.6,3.9-3.4,2.9-8c-1.1-0.1-2.7,0.3-2.9-0.7c1.1-0.6,2.3-1.1,2.2-2.9c-1.4,1.7-5.6,4.6-8.7,2.2
	c2.3-0.2,0.9-5.2-2.2-4.4c2-4.3,7.4-5.2,10.9-8c4.6,3.8,9.5,7.4,13.8,11.6c-0.3,6.6,1.8,10.8,5.8,13c-0.3-1.4-3.5-3.6-2.2-4.4
	c2.2,2.8,6.6,3.5,8.7,6.5C579.8,99.4,578.1,101.5,574,97.2z M563.9,140.6c-7.9-19.7,15.2-20.4,20.3-31.9c-3.5,4.1-8.5,7-12.9,10.2
	l0-0.3c3.5-6.1,4-12.1,7.8-17.2c5.5-7.3,16.1-6.3,21.7-13.8c-3.1,2.7-6.7,4.8-11.6,5.8c0.3-1.8,0.9-3.2,1.8-4.3
	c0.9-0.9,2-1.7,3.1-2.3c5.8-2.8,15.4-1.5,21-4.2c0.5-0.2,1.6-0.9,1.5-0.9c1.7-1.2,2.8-3,3-5.7c10.3-0.1,13-10.4,11.6-18.1
	c8.7,2.9,10.3-7.6,16.7-9.4c8.6,6.1,10.2,19.3,16.7,27.5c-3,1-4.2-3.5-5.8-1.4c8.6,5.5,4.8,22.8,3.7,31.4c-0.4,0.4-0.7,0.8-1.1,1.3
	c-0.1-3-0.4-6.1-1.2-9.5c-1.6,9.7,1.7,17.7-0.7,27.5c-5.5-0.8-4.1-8.4-7.2-11.6c2,8.5-0.1,16.6-2.2,23.2c-5.5-1.3-4-9.6-6.5-13.8
	c0.8,6.8-2,15.1-2.9,22.5c-4.9-2.1-7.1-6.9-7.3-13.8c-4.9,3-6,9.9-8,15.9c-9.9-2.2-7.2-17-10.9-25.4c2.5-3.1,5.3-5.8,6.5-10.2
	c-4,8.3-12.5,12.1-18.8,18.1c-6.9-4.3-0.9-14.2,0.7-17.4c-4.8,3.4-7.9,15.7,0,18.1c3.7-2.5,5.7-6.8,10.9-8c0.6,1.8,1.7,3.1,1.5,5.8
	c-2.4,2.7-5.9,4.3-7.3,8c0.2,1.7,3.4,0.4,2.9,2.9c-1.4,3.2-5.9,3.3-6.5,7.2c0.7,0.3,3.8,1.6,0.7,1.4c-0.1,3.1-2.3-1-5.1-1.4
	c0.6,1.8,4.6,4,2.9,5.8c-2.1-0.8-5.5-4.1-6.5-3.6c0.8,3.8,9.5,3.5,7.3,8c-6.4-0.6-12.4-1.6-13.8-7.3c-7,1.7-13.9,3.5-18.8,7.3
	c-1.4-2.7,0-7.9-0.7-9.4c-0.1,11.4,1.4,22.7-7.2,28.3c0.8-3.7-2-3.8-3.6-5.1c3-0.9,7.1-0.7,8-3.6c-0.4-1.3,0.9-4.3-0.7-4.3
	c0.3,3.4-0.1,6.2-3.6,5.8c-2.2-4.8,7.2-7,4.3-12.3c-0.4,4.4-3.5,10.1-8,8c1.7-0.3,3.4-0.5,2.9-2.9c-0.3-0.2-0.6-0.4-0.9-0.6
	c0.7,1.7-1.1,3.2-3.5,2.8c0-2.1,1.2-3,2.7-3.5c-3.3-4.3,2.2-12.7-2-16c2.7,0.5,3.2-1.1,2.9-3.6c1.2,0.3,2.3,0.5,3.5,0.5
	c0,0.1,0.1,0.2,0.1,0.3c1,0.1,1.8-0.1,2.4-0.4c9.9-1.3,18.8-10.9,22.2-17c-4.8,5.1-9,10.8-15.9,13.8c-5-9.8,8-12.2,10.9-18.8
	c-4.6,5.3-16.6,9.3-11.6,19.6c-2.9-0.3-3.7,1.6-5.5,2.5c-0.8,0.1-1.7,0.2-2.6,0.1C565,140.7,564.6,140.5,563.9,140.6z M651.5,150.8
	c1.3-6.3,6.5-8.4,13-9.4C668.8,153.5,655.1,144.9,651.5,150.8z M622.6,194.2c-2-8.9-11.8-13.8-15.2-18.8
	C619.4,174.2,623.7,184.7,622.6,194.2z M559.5,143.5c-0.1-1.9-2.8-1-2.9-2.9h4.3C561.2,142.3,560.8,143.4,559.5,143.5z M649.6,138.8
	c-3.2,4.9-5.2,10.9-3.8,19.9c2.1,13.4,23.3,18.3,25.4,29.1c2.1,10.5-9,11-11,5.4c-1.4-3.8-1.9-7.9-3-11.9c-1.4-5.1-3.3-9.4-6.8-13.4
	c-0.1-0.2-0.3-0.3-0.4-0.5c-1.5-1.6-3-3.2-4.6-4.7c-3.3-3.2-10.2-8.9-11.2-13.4c-0.3-1.6-0.2-3.4,0-5.1c0.1-0.5,0.1-0.9,0.2-1.4
	c1.4,2,3.2,3.5,5.5,4.5l2.7,1.1l0.4-2.9c0.4-3.6,1.3-7.1,2-10.6C645.7,136.9,647.2,138.3,649.6,138.8z M556.2,91.5l1.5,0.3
	c0.6,0.1,1.3,0.1,1.9,0c1,3.2-0.5,7-2,9.9l-0.6,1.2l0.9,1.1c0.1,0.1,0.2,0.3,0.3,0.4c-0.3,1-0.3,2.1,0,3.1l0,0.1l-0.7,0.8l1,0.5
	l0.4,1.6l1.3-0.8c1.1,0.5,2.3,0.6,3.4,0.4l-1.2,1.4l1.5,1.4c1.8,1.7,4.5,1.2,6.7,0.1l0.2,1.7c-0.4,0.9-0.8,1.8-1.3,2.6l-0.2,0.4
	l0,0.5l0,0.3l0,0.2c-2.6,1.8-5.2,4-6.9,6.7c-2.4,3.9-2.5,8.2-1.4,12.4l-1.6-0.4l0.1,0.7h-4.6l-0.1-1.2
	C553.4,124.4,552.2,104,556.2,91.5z M555.3,144l2.1,1.7c1.6,1.2,0.4,6,0.2,7.7c-0.2,1.9-0.3,3.9,0.2,5.7c-0.1,0.1-0.3,0.2-0.4,0.4
	C556.7,154.3,555.9,149.1,555.3,144z M561.7,166.7c0.6,3-1.1,3.7-3.6,3.6C558.4,168.2,559.6,167,561.7,166.7z M561.7,173.2
	c1.9,2.1-1,3.5-2.8,4.3c0.4,1.5,0.8,2.9,1.2,4.3c3.2,11.6,4.3,24-4.6,46.9c-9.6,22.3-16.7,15.3-72.4,52.4
	c-55.8-37.1-62.8-30.2-72.4-52.4c-8.9-22.9-7.8-35.3-4.6-46.9c6.5-22,13-72.2,5.5-92.5c1.3,0.3,22.6-12.1,71.6-12.5
	c48.6-1.2,70.2,12.8,71.6,12.5c-7.1,19-1.8,64,4.2,87.8C559,175,559.5,173.3,561.7,173.2z M581.3,153.7c4.2,7.4-1.1,17.7-8,15.9
	c3.3-3.3,1.9-9.4,0-13.1C576.6,156.2,577.6,153.6,581.3,153.7z M664.6,106l-0.1,6c0,3.8-0.9,7-2.3,9.8c0.5-3.7,0.3-7.4,0-11.3
	l-0.1-1.2l0.8-0.9c0.3-0.3,0.6-0.8,0.9-1.1l0.6-0.5L664.6,106L664.6,106z M658.9,127.2c-1.8,2.4-3.8,4.6-5.8,6.9c0.8-3,1.5-6,1.8-9
	C655.9,126.2,657.2,126.9,658.9,127.2z M558.8,83.7c-0.3,0.9-1.3,1.6-2,2.7l-2.2,0.6c-0.4-0.1-0.8-0.3-1.1-0.5
	c-1.3-0.5-2.5-1.1-3.8-1.6c-0.6-0.3-1.3-0.5-1.9-0.7l1.2-0.7c0.3-0.2,0.6-0.3,0.9-0.4c0.4-0.2,0.8-0.4,1.2-0.6
	c1.8,0.9,3.8,1,5.7,0.4C557.3,83.4,558,83.6,558.8,83.7z M418.9,84.3l0.2-1.4l0.2,0.5l1.5-0.1c1.1-0.1,2-0.5,2.6-1.2l0.3,0.6
	C422.1,83.3,420.5,83.8,418.9,84.3z M434.2,41.9c0.4-0.4,0.7-0.9,1-1.5c-0.1,0.4-0.1,0.9,0.1,1.4c0.1,0.3,0.2,0.7,0.4,0.9
	c-0.2-0.2-0.5-0.3-0.7-0.5C434.7,42.1,434.4,42,434.2,41.9z M437.2,44c0.3,0.1,0.6,0.3,1,0.3l1.5,1.8c-0.4,0-0.8,0-1.2,0
	C438.2,45.3,437.8,44.6,437.2,44z M445.1,43.8c0.7,0.5,1.6,0.8,2.5,1l0.3,0.2c-0.5,0.2-1,0.4-1.5,0.5L445.1,43.8z M526.2,43.8
	l-1.3,1.6c-0.5-0.1-0.9-0.3-1.4-0.5l0.3-0.3C524.8,44.5,525.5,44.2,526.2,43.8z M536.2,40.3c0.3,0.5,0.6,1.1,1,1.5
	c-0.3,0.1-0.5,0.3-0.8,0.4c-0.3,0.1-0.5,0.3-0.7,0.4c0.2-0.3,0.3-0.6,0.4-0.9C536.3,41.3,536.3,40.8,536.2,40.3z M534.2,44
	c-0.4,0.4-0.7,0.8-0.9,1.3c-0.1,0.3-0.3,0.5-0.4,0.8l-0.5,0h-0.6l1.5-1.8C533.5,44.2,533.9,44.1,534.2,44z M467.6,40.8l0.2,1.9
	c-0.5-0.1-1-0.2-1.5-0.3l0.3-0.5C466.9,41.6,467.3,41.2,467.6,40.8z M462.7,40.2c-0.3-0.4-0.7-0.9-0.7-1.2c0.2-0.1,0.4-0.1,0.6-0.1
	C462.7,39.2,462.7,39.8,462.7,40.2z M503.8,40.8c0.3,0.5,0.8,0.9,1.2,1.2l0.3,0.3c-0.5,0.2-1.1,0.3-1.7,0.3L503.8,40.8z M508.7,40.2
	L508.7,40.2c0-0.3,0-1,0.2-1.3c0.2,0,0.4,0.1,0.6,0.2C509.3,39.4,509,39.8,508.7,40.2z M607.4,66c3-5.9,17.3-11.2,13.8,1.5
	C618.8,63.1,612,65,607.4,66z M615.3,72.5c-0.1-2.3-0.5-4.3-2.9-4.3c-4.8,2.2-15.1,5.1-21.5,3.4c-0.1-0.1-0.3-0.1-0.4-0.2
	c-1.9-0.9-3.4-2-4.4-3.3c-0.2-0.4-0.4-0.9-0.5-1.4c-0.5-2.4,0.5-6.9,2.6-6.6l0,0.1c-0.4,1.5-0.3,3,0.4,4.2c1,5.1,5.3,5.5,10.6,4.7
	c0.8-0.1,1.5-0.2,2.2-0.4c7.3-1.5,15.7-4.5,19.7-1.2C621.3,71.2,618,71.5,615.3,72.5z M551.6,77.6c0.4,3.1-2,3.4-3.6,4.3
	c-0.4-2.6,0.8-3.5,1.4-5.1C550.4,76.8,551,77.2,551.6,77.6z M545.8,76.1c1.8,1.9-0.7,3.5-1.4,5.1C541.2,81,543.3,75.3,545.8,76.1z
	 M545.1,74c4-0.4,6.9-8.6,10.9-4.3c-4,1.8-7.3,4.3-8.7,8.7C548.3,75.1,544.8,76.4,545.1,74z M563.2,102.9c-0.5,2-1.4,3.4-2.9,4.3
	C559.5,104.1,561.9,104.1,563.2,102.9z M540,75.4c1.5-3.3,3.9-5.7,7.2-7.3c0.4,1,2.8,0.1,2.9,1.4c-3,2.1-6.1,4.1-8,7.3
	C542.3,75.6,541.5,75.2,540,75.4z M539.3,76.1h2.2c1.5,2.7-1.2,3.6-2.9,5.1C538.6,79.3,538.3,77.1,539.3,76.1z M647.9,47.2
	c-1.3,2.5-6.2,1.6-8.7,2.9c1.3,0.4,3,0.4,3.6,1.5c-1,2.6-6.9,0.3-8.7,2.2c0.6,1.6,4.6-0.3,5.1,1.5c-2.4,3-7.1,3.4-10.9,1.5
	c6.9,12.2-5.5,23.1-19.5,18.8c-0.8,2.7,1.8,2.1,1.5,4.3c-2.7,0.8-2.1-1.8-4.4-1.5c1.1-2.3,0.3-3.2,0-5.8
	c12.9,5.9,23.3-8.9,12.3-14.5c-5.4,1.6-8.5,5.5-14.5,6.5c-0.5-2.6-2.6-3.7-2.2-7.3c3.7-0.9,6.1-3.1,8.7-5.1c-4.5,0.1-5,4.2-9.4,4.3
	c0.9-4.7,5.9-5.2,10.1-6.5c1.9,1.2,2.1,4.1,5.1,4.4c2.9,0.2,4.4-0.9,5.8-2.2c-2.8,0.1-7,3.5-8-0.7c-0.9-0.2-0.5-0.8,0-1.5
	c10.2,4.1,19.4,0.7,23.2-7.3C640.9,44,643.8,46.2,647.9,47.2z M629.1,41.3c2.2-0.9,1.9-4.3,5.1-4.3c2,0.9,2.2,3.6,2.9,5.8
	C634.7,43.7,629.5,44.4,629.1,41.3z M611,49.3c2.9-5.4,13.2-3.2,16.7-8c1,2.7,4.3,2.9,6.5,4.4C630.2,53.1,618.1,49.7,611,49.3z
	 M614.2,72.6c-2.1-0.1-4.7,0.4-5.8-0.7C608.3,68.7,615.7,67.4,614.2,72.6z M536.3,78.6c0,0.7,0,1.3,0,1.9l-0.2-0.1l-1.6-0.4
	C535.2,79.7,535.8,79.2,536.3,78.6z M612.2,81l0.2-1.2c0.1-0.6,0.1-1.2-0.1-1.7c1.5,0.2,3,0.2,4.5,0.1c-0.3,0.6-0.7,1.1-1.3,1.5
	l-0.1,0l-0.2,0.1l-0.5,0.3c-0.1,0.1-0.3,0.2-0.4,0.2C613.7,80.6,613,80.8,612.2,81z M546.1,83.6l-1.2-0.4l0.8,0.1l0.2-0.5
	L546.1,83.6z M681.7,187.6l0.4,0.8c0.6,1.2,1.1,2.5,0.8,3.9c-0.1,0.5-0.4,0.7-0.8,0.8C682.1,191.1,682,189.4,681.7,187.6z
	 M571.2,168.3c0.8-2.6,1.2-5.4,1.3-8.1c0.8,2.6,1,5.8-0.7,7.6L571.2,168.3z M473.5,34.4l0.2,0l-0.1,0.1L473.5,34.4z M497.8,34.4
	l-0.1,0.2l-0.1-0.1L497.8,34.4z M541.7,82.1l-0.2-0.1l0.1-0.1L541.7,82.1z M407.5,166l-0.1,0.4l-0.3-0.2L407.5,166z M544.5,279.1
	c-5.3-1.4-10.3-4.2-15.6-5.6c-5.4-1.5-11.5-3.1-17.2-3.1c-2.6,0-5.1,0.6-7.5,1.4l-2.2,0.8l-0.3-0.7l0.4-0.2
	c7.2-4.1,19.7-2.2,27.4,0.1c4.9,1.4,9.3,3.9,14.1,5.5c-2.7-5.6-0.9-13.3,4.2-16.8c7.6-5.3,18.3-1.7,23.1,5.7
	c0.3,0.4,0.5,0.8,0.8,1.2c0.8,0.1,1.7,0.4,2.3,0.9c1.8,1.3,3.2,2.9,4.2,4.9c5.1,11.3-2.6,20.6-12.9,24.7
	c-13.5,5.4-28.5,3.1-39.9-5.7c0,1.7-0.4,3.4-1,4.9c-1.4,3.2-4,6-7.2,7.4c0.1,2.8-0.8,5.5-2.4,7.7c-3.8,5-11.2,6.1-16.9,4.4
	c-9.6-2.9-14.1-14.6-12.9-23.9c1.8-13.2,15.1-20.8,27.4-21.4c10.8-0.5,21,5,27.5,13.4c0.7,0.9,0,1.4-0.8,0.6l-0.2-0.2
	c-12.2-15.8-40.7-16.7-50.4,2.3c-5.1,10-1.4,25,10.4,27.9c6.9,1.7,15.9-2.9,16.7-10.3c-1.4,0.4-2.9,0.5-4.4,0.3
	c-4.1-0.7-7.6-3.4-9-7.3c-1.5-4.3-0.2-9.4,4.2-11.4c4.3-1.9,8.7,0,10.3,4.5c0.3,0.9-0.5,1.3-0.9,0.3c-1.7-4.7-8-5.3-11.2-1.6
	c-3.9,4.6-1.4,11.5,4,13.4c2.2,0.8,4.6,0.8,6.8,0.1c-0.2-1.9-0.9-3.7-2-5.3c-0.5-0.8,0.1-1.3,0.9-0.5c0.1,0.1,0.2,0.2,0.3,0.4
	c1,1.5,1.8,3.2,2.2,4.9c4.3-2,7.3-6.8,7.3-11.6c-2.7-2.2-5-4.7-7.1-7.5c-0.1-0.2-0.1-0.4,0-0.6c0.3-0.3,0.6-0.1,0.8,0.1l0.3,0.3
	c0.1,0.1,0.3,0.3,0.5,0.5c1.6,2.1,3.4,4.1,5.4,5.8c-0.2-1.4-0.6-2.7-1.3-4c-4.4-8.4-15-11-23-6.1c-7.9,4.8-11.6,14.1-8.9,23
	c0.3,0.9-0.7,1-1-0.1c-1.1-3.6-1.4-7.5-0.4-11.2c2.6-10.3,13.7-18.8,24.4-14.9c3.1,1.1,5.7,3.5,7.9,5.9c2.3,2.4,4.9,4.1,7.6,5.9
	c4.3,2.8,8.9,4.9,13.9,6c5.4,1.2,11.2,1.1,16.5-0.8c3.5-1.2,7.3-3.5,9.4-6.6c3.5-5.2,4.4-12.2,1.7-18c-0.6,0-1.3,0.2-1.8,0.6
	c-1.6,0.9-2.3,1.7-1.5,3.6l0.6,1.3l-1.2-0.8c-0.6-0.4-0.8-0.4-1.1-1.1c-1.6-3.2,1.3-5.1,4.1-5.3c-0.5-0.8-1-1.5-1.6-2.2
	c-5-5.9-14.8-8.2-21-2.7c-4.1,3.7-5,10.7-2.1,15.3c2.6,0.7,5.2,0.9,7.7,0c1.6-0.6,4.2-2.8,3.4-4.7c-0.1-0.2-0.2-0.4-0.4-0.5
	c-0.8-0.7-1.7-0.6-2.3,0.3l-1.3,1.8l0.5-2.2c0.1-0.4,0.8-0.9,1.1-1.1c0.9-0.5,1.8-0.2,2.6,0.4c0.3,0.2,0.5,0.5,0.6,0.8
	c1.2,2.5-1.6,5.4-3.8,6.2c-2.2,0.9-4.5,1-6.9,0.6c1.1,1.1,2.4,1.9,3.9,2.4c3.7,1.1,8.2-0.8,9.7-4.4c1.5-3.6-1.7-8.2-5.6-8l-0.4,0
	l0-0.9l0.4,0c4.8-0.3,8.5,5.3,6.4,9.6c-2,4.1-7.3,6-11.5,4.4C547.3,281.8,545.7,280.6,544.5,279.1z M421.6,279.1
	c-1.2,1.6-2.7,2.8-4.6,3.5c-4.2,1.7-9.5-0.2-11.5-4.4c-2.1-4.3,1.6-9.9,6.4-9.6l0.4,0l0,0.9l-0.4,0c-3.9-0.2-7.1,4.3-5.6,8
	c1.5,3.6,6,5.5,9.7,4.4c1.5-0.5,2.8-1.3,3.9-2.4c-2.3,0.4-4.6,0.3-6.8-0.6c-2.2-0.8-5-3.7-3.8-6.2c0.1-0.3,0.4-0.6,0.6-0.8
	c0.8-0.6,1.7-0.9,2.6-0.4c0.3,0.2,1,0.7,1.1,1.1l0.5,2.2l-1.3-1.8c-0.6-0.8-1.5-1-2.3-0.3c-0.2,0.2-0.3,0.3-0.4,0.5
	c-0.8,2,1.7,4.1,3.4,4.7c2.6,0.9,5.2,0.7,7.7,0c2.8-4.7,2-11.7-2.1-15.3c-6.1-5.5-16-3.3-20.9,2.7c-0.6,0.7-1.1,1.4-1.6,2.2
	c2.8,0.3,5.7,2.1,4.1,5.3c-0.3,0.7-0.5,0.7-1.1,1.1l-1.2,0.8l0.6-1.3c0.9-1.9,0.1-2.6-1.5-3.6c-0.6-0.3-1.2-0.5-1.8-0.6
	c-2.7,5.7-1.8,12.8,1.7,18c2.1,3.1,5.9,5.4,9.4,6.6c5.3,1.9,11,2,16.5,0.8c5-1.1,9.6-3.3,13.9-6c2.8-1.8,5.4-3.5,7.6-5.9
	c2.2-2.4,4.8-4.7,7.9-5.9c10.7-3.9,21.8,4.6,24.4,14.9c0.9,3.7,0.6,7.6-0.4,11.2c-0.3,1.1-1.3,0.9-1,0.1c2.6-8.8-1.1-18.2-8.9-23
	c-8-4.9-18.6-2.3-23,6.1c-0.7,1.3-1.1,2.6-1.3,4c2-1.7,3.8-3.7,5.4-5.8c0.1-0.2,0.3-0.3,0.5-0.5l0.3-0.3c0.2-0.2,0.5-0.4,0.8-0.1
	c0.1,0.2,0.1,0.4,0,0.6c-2.1,2.8-4.5,5.3-7.1,7.5c0,4.8,2.9,9.5,7.3,11.6c0.4-1.8,1.1-3.4,2.1-4.9c0.1-0.1,0.2-0.2,0.3-0.4
	c0.8-0.8,1.4-0.3,0.9,0.5c-1.1,1.6-1.9,3.4-2,5.3c2.3,0.7,4.6,0.7,6.8-0.1c5.5-1.9,7.9-8.8,4-13.4c-3.1-3.7-9.4-3.1-11.1,1.6
	c-0.4,0.9-1.2,0.6-0.9-0.3c1.6-4.4,6-6.4,10.3-4.5c4.4,1.9,5.7,7.1,4.2,11.4c-1.4,4-4.9,6.7-9,7.3c-1.5,0.2-2.9,0.1-4.3-0.3
	c0.8,7.4,9.8,12,16.7,10.3c11.8-2.9,15.6-17.9,10.5-27.9c-9.8-19-38.2-18.1-50.4-2.3l-0.2,0.2c-0.8,0.8-1.4,0.3-0.8-0.6
	c6.6-8.4,16.7-13.9,27.5-13.4c12.3,0.6,25.6,8.2,27.4,21.4c1.3,9.3-3.3,21-12.9,23.9c-5.7,1.7-13.2,0.6-16.9-4.4
	c-1.7-2.3-2.6-4.9-2.4-7.7c-3.2-1.4-5.8-4.2-7.2-7.4c-0.7-1.6-1-3.2-1-4.9c-11.4,8.8-26.4,11.1-39.9,5.7
	c-10.3-4.1-18-13.5-12.9-24.7c0.9-2,2.4-3.6,4.2-4.9c0.7-0.5,1.5-0.8,2.3-0.9c0.2-0.4,0.5-0.8,0.7-1.2c4.8-7.4,15.5-11,23.1-5.7
	c5.1,3.6,6.9,11.3,4.2,16.8c4.8-1.6,9.2-4.1,14.1-5.5c7.7-2.3,20.2-4.2,27.4-0.1l0.3,0.2l-0.3,0.7l-2.2-0.8
	c-2.5-0.8-4.9-1.4-7.5-1.4c-5.6,0-11.8,1.6-17.2,3.1C431.9,274.9,427,277.7,421.6,279.1z"/>
<linearGradient id="SVGID_1_logo" gradientUnits="userSpaceOnUse" x1="184.42" y1="497.3371" x2="827.98" y2="497.3371">
	<stop  offset="0" style="stop-color:#000000;stop-opacity:0.4"/>
	<stop  offset="0.2315" style="stop-color:#2B2625;stop-opacity:0.75"/>
	<stop  offset="0.5041" style="stop-color:#2B2625;stop-opacity:0.4"/>
	<stop  offset="0.7438" style="stop-color:#2B2625;stop-opacity:0.75"/>
	<stop  offset="1" style="stop-color:#000000;stop-opacity:0.4"/>
</linearGradient>
<path style="fill:url(#SVGID_1_logo);fill-opacity:0.5;" d="M483.5,495.8c0.6-0.4,1.2-0.9,1.7-1.2
	c5.8-4.5,10.9-10,15.6-15.6c0.9-1,1.7-2.1,2.5-3.1l-0.6,0.4c-5.9,3.4-11.7,6.9-17.3,10.8c-3,2.2-6.6,4.9-8.8,7.9
	c-0.5,0.7-1.1,1.5-1.5,2.4L483.5,495.8z M519.7,472c-2.1,3.2-4.4,6.3-6.7,9.4c-2.8,3.6-5.8,7.1-9,10.5c27.5-5.4,46.4-9.6,84.2-17.4
	c11.6-1.5,21.5-3.5,33-4.7c-5.6-1.9-10.9-4.6-15.7-8.1c-2.1,0.1-4.2,0.3-6.3,0.4l-16.6,1.6c-8,0.9-16.2,1.9-24.6,3
	C545.2,468.3,532.4,470.1,519.7,472z M678.8,466c-1.5,0.8-3,1.5-4.6,2.1c-1.4,0.6-2.9,1.2-4.4,1.7c7.4,0,15.6,0.4,25.2,1.4
	C689.8,469.1,684.4,467.3,678.8,466z M678.1,478.2c-45.1,3.5-73.6,6.6-133.9,17.5c-24.2,4.4-40.6,7.6-56.5,10.9
	c-5.1,3.6-11.2,6.8-17.4,6.8c-2.3,0-4.4-0.6-6.2-1.9c-11.3,2.4-23.9,5-39.8,8.3c-24.2,3.1-41.1,8.4-79.2,4.5
	c31.8,13.4,67.8,8.7,109.4,3.4c41.6-5.3,82.7-12.6,121.3-18.4c63.1-9.6,67.8-11.9,138.1-14.3c43.3-1.5,79.6,2.6,114.2,13.4
	C804.7,480.8,702.8,476.2,678.1,478.2z M184.4,486c62.6,47,204.6,30,275.1,14.2c2.6-9.4,9.6-16.6,17.8-21.5
	C383.7,492.6,276.9,514.8,184.4,486z"/>
<path style="fill-opacity:0.9;" d="M594.6,533.8l-0.2-0.1c-1.8-1.2-5.8-4-5.8-6.4
	c0-1.1,0.4-2,1.3-2.7c0.9-0.8,2.1-1.1,3.3-1.1c1.4,0,2.7,0.4,3.8,1.3c1.3,1,2.1,2.4,2.7,3.9l0.2,0.4l1.9-0.1l-1-7.3l-0.7,0.3
	c-0.2,0.1-0.5,0.2-0.7,0.2c-0.2,0-0.4,0.1-0.5,0.1c-0.4,0-1.8-0.4-2.2-0.5c-1.2-0.4-2.5-0.6-3.7-0.6c-2.3,0-4.6,0.5-6.5,2
	c-1.7,1.4-2.5,3.2-2.5,5.3c0,0.8,0.1,1.5,0.3,2.2c0.2,0.8,0.6,1.5,1,2.1c1.1,1.8,4.9,4.3,6.7,5.4c0.1,0.1,0.2,0.1,0.3,0.2l0,0
	l0.7,0.5c1.9,1.2,5.5,3.8,5.5,6.4c0,1.3-0.6,2.4-1.6,3.2c-1.2,1-2.6,1.4-4.1,1.4c-1.6,0-3.1-0.5-4.4-1.5c-1.4-1.1-2.2-2.7-2.7-4.4
	l-0.1-0.3l-2.1-0.3l1.1,8.3l0.6-0.2c0.3-0.1,0.5-0.1,0.8-0.2c0.3,0,0.5-0.1,0.8-0.1c0.6,0,1.8,0.4,2.4,0.5c1.1,0.3,2.3,0.6,3.4,0.6
	c2.7,0,5.4-0.5,7.5-2.3c2-1.6,2.8-3.8,2.8-6.3c0-1-0.2-1.9-0.6-2.8c-0.4-0.9-0.9-1.8-1.6-2.5c-1.5-1.6-3.7-3.1-5.6-4.3
	C595,534,594.8,533.9,594.6,533.8z M756.6,525.5v21.9c0,0.5,0,1.4-0.4,1.7c-0.4,0.3-1.3,0.4-1.8,0.4l-0.5,0v2h10l-0.2-2l-0.5,0
	c-0.5,0-1.3-0.1-1.7-0.4c-0.4-0.3-0.4-1.3-0.4-1.7v-27.8h-1l-6.2,2.2v1.7l0.4,0.1c0.5,0.1,1.6,0.4,2,0.8
	C756.5,524.7,756.6,525.2,756.6,525.5z M768.2,525.5v21.9c0,0.5,0,1.4-0.4,1.7c-0.4,0.3-1.3,0.4-1.8,0.4l-0.5,0v2h10l-0.2-2l-0.5,0
	c-0.5,0-1.3-0.1-1.7-0.4c-0.4-0.3-0.4-1.3-0.4-1.7v-27.8h-1l-6.2,2.2v1.7l0.4,0.1c0.5,0.1,1.6,0.4,2,0.8
	C768.2,524.7,768.2,525.2,768.2,525.5z M784.2,536.8c1-0.6,2.1-1.3,3.3-1.8c0.7-0.3,1.5-0.6,2.2-0.6c0.9,0,1.7,0.2,2.1,1
	c0.6,1.1,0.7,3.3,0.7,4.5c0,0.3,0,0.5,0,0.8c0,0.3,0,0.5,0,0.8l-0.1,3.1c0,1-0.1,3.3-0.7,4.1c-0.4,0.6-1.1,0.8-1.8,0.8H789v2H800
	l0-2h-0.5c-0.6,0-1.8-0.1-2.3-0.4c-0.4-0.3-0.5-1.2-0.5-1.6c0-0.6,0-1.2,0.1-1.8c0-0.2,0-0.4,0-0.6l0.2-3.6c0-0.3,0-0.6,0.1-0.9
	c0-0.4,0-0.9,0-1.3c0-1.8-0.2-4.4-1.2-5.9c-1-1.4-2.5-1.8-4.2-1.8c-1.2,0-2.4,0.3-3.5,0.8c-1.3,0.5-2.6,1.3-3.9,2v-3.1h-1l-6.2,2
	v1.7l0.4,0.1c0.5,0.1,1.6,0.4,2,0.8c0.3,0.3,0.3,0.7,0.3,1.1v10.6c0,0.5,0,1.4-0.4,1.7c-0.4,0.3-1.3,0.4-1.8,0.4l-0.5,0v2h9.9v-2
	l-0.5,0c-0.5,0-1.4-0.1-1.8-0.4c-0.4-0.3-0.4-1.3-0.4-1.7V536.8z M823,551.3L823,551.3c0.4,0,1,0.2,1.5,0.3c1,0.2,2,0.3,3,0.3
	c1.8,0,3.3-0.5,4.7-1.7c1.3-1.2,1.9-2.6,1.9-4.3c0-3.3-4.5-5.7-7-6.8l-0.8-0.4c-0.5-0.2-1-0.6-1.3-1.1c-0.3-0.4-0.5-0.9-0.5-1.4
	c0-0.7,0.2-1.2,0.7-1.6c0.6-0.5,1.3-0.7,2-0.7c0.9,0,1.8,0.2,2.5,0.8c0.8,0.7,1.2,1.6,1.4,2.6l0.1,0.4h1.8v-4.9l-0.3-0.2
	c-0.8-0.3-1.6-0.6-2.5-0.8c-0.8-0.2-1.6-0.3-2.4-0.3c-1.8,0-3.6,0.4-5.1,1.5c-1.3,1-2.1,2.3-2.1,4c0,1.1,0.3,2.1,0.9,3
	c0.7,1,1.8,1.7,2.8,2.3c0.7,0.4,1.5,0.8,2.3,1.2c1,0.5,3.5,1.8,3.5,3.2c0,0.8-0.3,1.5-0.9,2c-0.7,0.6-1.5,0.8-2.4,0.8
	c-1,0-1.9-0.3-2.7-1c-0.8-0.7-1.4-1.7-1.7-2.8l-0.1-0.4h-1.9l0.6,6.4l1.7-0.1l0.1-0.3C822.9,551.5,823,551.4,823,551.3z
	 M838.9,551.3L838.9,551.3c0.4,0,1,0.2,1.5,0.3c1,0.2,2,0.3,3,0.3c1.8,0,3.3-0.5,4.6-1.7c1.3-1.2,1.9-2.6,1.9-4.3
	c0-3.3-4.4-5.7-7-6.8l-0.8-0.4c-0.5-0.2-1-0.6-1.3-1.1c-0.3-0.4-0.5-0.9-0.5-1.4c0-0.7,0.2-1.2,0.7-1.6c0.6-0.5,1.3-0.7,2-0.7
	c0.9,0,1.8,0.2,2.5,0.8c0.8,0.7,1.2,1.6,1.4,2.6l0.1,0.4h1.8v-4.9l-0.3-0.2c-0.8-0.3-1.6-0.6-2.5-0.8c-0.8-0.2-1.6-0.3-2.4-0.3
	c-1.8,0-3.6,0.4-5.1,1.5c-1.3,1-2.1,2.3-2.1,4c0,1.1,0.3,2.1,0.9,3c0.7,1,1.8,1.7,2.8,2.3c0.7,0.4,1.5,0.8,2.3,1.2
	c1,0.5,3.5,1.8,3.5,3.2c0,0.8-0.3,1.5-0.9,2c-0.7,0.6-1.5,0.8-2.4,0.8c-1,0-1.9-0.3-2.7-1c-0.9-0.7-1.4-1.7-1.7-2.8l-0.1-0.4h-1.9
	l0.6,6.4l1.7-0.1l0.2-0.3C838.8,551.5,838.9,551.4,838.9,551.3z M890.1,530.4l0.2,0.4l2.2-0.1l-0.5-8.1l-0.7,0.2
	c-0.1,0-0.3,0.1-0.4,0.1c-0.1,0-0.3,0-0.4,0c-0.4,0-0.8-0.1-1.2-0.2c-0.2,0-0.3-0.1-0.5-0.1c-1.8-0.5-3.6-0.9-5.5-1.2
	c-1.2-0.2-2.4-0.3-3.6-0.3c-2.6,0-5.1,0.6-7.5,1.7c-2.3,1.2-4.3,2.8-5.8,4.8c-1,1.4-1.9,2.9-2.4,4.6c-0.5,1.6-0.8,3.3-0.8,5
	c0,2.2,0.4,4.3,1.4,6.3c0.9,2,2.3,3.6,3.9,5c1.6,1.3,3.4,2.3,5.3,2.9c2.2,0.7,4.4,1,6.7,1c1.6,0,3.3-0.3,4.8-0.6
	c1.3-0.3,3-0.6,4.3-0.6h0.9l3.3-7.7l-2.1-0.3l-0.2,0.3c-1.2,1.9-2.7,3.6-4.7,4.8c-1.8,1.1-3.9,1.6-6,1.6c-3.6,0-6.5-1.3-8.8-4
	c-2.5-3-3.5-6.6-3.5-10.5c0-1.7,0.3-3.3,0.9-4.9c0.6-1.5,1.4-2.8,2.5-3.9c1-1,2.3-1.8,3.7-2.4c1.4-0.6,2.9-0.9,4.5-0.9
	c2.1,0,4.1,0.6,5.8,1.8C887.8,526.4,889.2,528.3,890.1,530.4z M898.2,525.5v21.9c0,0.5,0,1.4-0.4,1.7c-0.4,0.3-1.3,0.4-1.8,0.4
	l-0.5,0v2h10l-0.1-2l-0.5,0c-0.5,0-1.3-0.1-1.7-0.4c-0.4-0.3-0.4-1.3-0.4-1.7v-27.8h-1l-6.2,2.2v1.7l0.4,0.1c0.5,0.1,1.6,0.4,2,0.8
	C898.1,524.7,898.2,525.2,898.2,525.5z M922.3,549.5v2.8h1l6.2-2.3l-0.1-1.6l-0.4-0.1c-0.4-0.1-1.6-0.5-2-0.8
	c-0.2-0.2-0.3-0.8-0.3-1.1v-15.2h-1l-7.3,2l0,1.8l0.5,0c0.7,0.1,2.3,0.2,2.8,0.6c0.4,0.3,0.4,0.8,0.4,1.2V547
	c-1,0.7-2.1,1.3-3.2,1.8c-0.7,0.3-1.5,0.6-2.2,0.6c-0.8,0-1.7-0.2-2.1-0.9c-0.6-1-0.6-3.9-0.6-5v-12.1h-0.9l-6.2,2v1.7l0.4,0.1
	c0.5,0.1,1.6,0.4,2,0.8c0.3,0.3,0.3,0.7,0.3,1.1v7.2c0,1.8,0.1,4.7,1.1,6.3c0.9,1.4,2.5,1.9,4.1,1.9c1.2,0,2.5-0.4,3.6-0.8
	C919.7,550.9,921,550.2,922.3,549.5z M612.5,534.3v-3h-1l-6.3,2l0.1,1.7l0.4,0.1c0.5,0.1,1.6,0.4,1.9,0.8c0.3,0.3,0.3,0.8,0.3,1.1
	v21c0,0.5,0,1.4-0.4,1.7c-0.4,0.3-1.3,0.4-1.7,0.4l-0.5,0l-0.1,2h10v-2l-0.6,0c-0.5,0-1.4-0.1-1.8-0.4c-0.4-0.4-0.4-1.2-0.4-1.7
	v-6.5c0.5,0.1,1.1,0.3,1.6,0.4c0.6,0.1,1.3,0.2,1.9,0.2c2.9,0,5.3-1.1,7.2-3.2c2-2.2,2.9-4.9,2.9-7.9c0-2.3-0.6-4.5-2.1-6.4
	c-1.4-1.7-3.1-2.6-5.3-2.6c-1.2,0-2.3,0.3-3.4,0.8C614.4,533,613.5,533.6,612.5,534.3z M612.5,547.1v-10.2c0.7-0.5,1.5-1,2.3-1.3
	c0.6-0.3,1.3-0.4,2-0.4c1.6,0,2.8,0.8,3.7,2c1.2,1.5,1.6,3.2,1.6,5c0,1.8-0.3,3.7-1.4,5.2c-0.9,1.2-2.1,1.8-3.6,1.8
	c-0.8,0-1.6-0.2-2.3-0.6C614,548.3,613.2,547.8,612.5,547.1z M638,550c0.2,0.4,0.4,0.9,0.7,1.2c0.5,0.6,1.3,0.9,2.1,0.9
	c0.8,0,1.5-0.3,2.2-0.7c0.9-0.6,1.8-1.3,2.6-2.1l0.3-0.3l-0.6-1.7l-0.6,0.4c-0.3,0.2-0.7,0.4-1.1,0.6c-0.2,0.1-0.5,0.2-0.8,0.2
	c-0.1,0-0.3,0-0.4-0.2c-0.2-0.3-0.2-1.4-0.2-1.7v-8.2c0-1,0-2.5-0.4-3.5c-0.3-0.8-0.9-1.4-1.5-2c-0.5-0.4-1.2-0.8-1.8-1
	c-0.7-0.2-1.4-0.3-2.1-0.3c-1.9,0-3.6,0.7-5.1,1.9c-1.3,1.1-2.3,2.5-2.3,4.3v1l4.4-1.8l-0.1-0.5l0-0.2v-0.4c0-0.5,0.1-1,0.5-1.4
	c0.4-0.4,1-0.5,1.5-0.5c0.8,0,1.6,0.1,2,0.8c0.6,0.8,0.6,2.3,0.6,3.3v2.9c-1.3,0.6-2.6,1.1-4,1.5c-0.9,0.3-1.9,0.6-2.7,1
	c-0.8,0.3-1.5,0.8-2,1.6c-0.5,0.7-0.7,1.5-0.7,2.4c0,1.2,0.4,2.3,1.3,3.2c0.9,0.9,2.1,1.2,3.4,1.2c1,0,2-0.3,3-0.7
	C636.8,551,637.4,550.6,638,550z M637.8,543.6v4.1c-0.6,0.5-1.2,0.9-1.8,1.2c-0.5,0.2-1,0.4-1.5,0.4c-0.5,0-1-0.2-1.3-0.5
	c-0.4-0.4-0.5-0.8-0.5-1.4c0-0.4,0.1-0.8,0.3-1.1c0.2-0.3,0.4-0.5,0.7-0.7c0.3-0.1,0.6-0.3,0.8-0.3
	C635.5,544.7,636.7,544.2,637.8,543.6z M674.3,547.3c0.8,1.3,1.8,2.8,2.9,3.8c1,0.8,2.1,1.3,3.4,1.3c0.9,0,1.9-0.3,2.7-0.6
	c1.1-0.5,2.2-1.1,3.1-1.8l0.4-0.3l-1-1.7l-0.5,0.3c-0.6,0.4-1.3,0.8-2,1c-0.4,0.2-0.9,0.3-1.3,0.3c-1,0-3-3.3-3.5-4.1
	c-0.4-0.6-0.7-1.2-1.1-1.8c1.9-2.4,3.7-4.9,5.3-7.5l0.8-1.2c0.3-0.4,0.7-0.9,1.2-1.1c0.6-0.3,2-0.3,2.7-0.3l0.5,0l0.1-2.1l-9.1,0
	l-0.1,2.1l0.6,0c0.5,0,1.1,0.1,1.5,0.3c0.1,0,0.3,0.1,0.3,0.2c0,0.6-1.2,2.5-1.5,3c-1.1,1.7-2.3,3.3-3.6,4.8c-0.7-1-1.5-2-2.3-2.9
	c-1.3-1.4-2.8-2.7-4.3-4c1.2-0.7,2.4-1.6,3.2-2.6c0.8-0.9,1.2-2,1.2-3.2c0-1.6-0.6-2.9-1.8-3.9c-1.3-1-2.9-1.4-4.6-1.4
	c-1.8,0-3.5,0.5-4.9,1.6c-1.3,1.1-1.9,2.5-1.9,4.2c0,1.1,0.3,2.2,0.8,3.1c0.5,1,1.2,1.9,1.9,2.7c-2,0.8-4.1,1.9-5.5,3.4
	c-1.4,1.5-2,3.3-2,5.3c0,2.2,0.7,4.2,2.3,5.8c1.6,1.6,3.6,2.3,5.8,2.3c1.8,0,3.5-0.5,5.1-1.4C671.1,550,672.8,548.7,674.3,547.3z
	 M673.1,545.3c-1.1,1-2.2,1.9-3.5,2.5c-1.1,0.6-2.3,0.9-3.5,0.9c-1.4,0-2.6-0.4-3.6-1.4c-1-1-1.4-2.2-1.4-3.6c0-1.4,0.4-2.6,1.2-3.8
	c0.8-1.2,2-2.2,3.3-2.9c1.7,1.3,3.4,2.7,4.9,4.2C671.4,542.5,672.3,543.9,673.1,545.3z M667.9,533.3c-0.8-0.6-1.5-1.3-2-2.2
	c-0.5-0.8-0.7-1.6-0.7-2.5c0-0.7,0.2-1.4,0.7-2c0.5-0.5,1.1-0.7,1.8-0.7c0.8,0,1.4,0.3,1.9,0.8c0.6,0.7,0.8,1.6,0.8,2.5
	s-0.2,1.7-0.7,2.4C669.1,532.4,668.5,532.9,667.9,533.3z M720.5,534.5l3.2-7.8c0.3-0.7,0.8-1.8,1.5-2.3c0.7-0.4,1.8-0.5,2.6-0.5
	l0.5,0v-2.1h-32.9v2.1h0.6c1,0,2,0.2,2.7,0.8c0.9,0.8,1.7,2.6,2.1,3.7l9,23.9h3.3l4.9-11.9l4.7,11.9h3.3l9.4-24.7
	c0-0.2,0.1-0.3,0.1-0.4c0.6-1.6,1.6-3.1,3.5-3.3l0.5,0l-0.1-2.1h-9.9v2.1h0.6c0.7,0,1.5,0,2.2,0.3c0.2,0.1,0.5,0.2,0.5,0.5
	c0,0.6-0.4,1.7-0.6,2.3l-7.1,18.9L720.5,534.5z M712.3,545.9l-6.9-18.4c-0.2-0.5-0.3-0.9-0.4-1.4c-0.1-0.3-0.1-0.7-0.1-1
	c0-0.4,0.2-0.6,0.5-0.8c0.6-0.3,1.5-0.4,2.2-0.4c0.9,0,2.3,0.1,3.1,0.6c0.8,0.5,1.4,1.9,1.7,2.7l3.7,9.3L712.3,545.9z M718.8,530.9
	l-1.5-3.7c-0.2-0.5-0.4-1-0.5-1.5c-0.1-0.3-0.2-0.6-0.2-0.9c0-0.2,0.2-0.4,0.4-0.5c0.5-0.3,1.1-0.3,1.6-0.3c0.6,0,1.3,0.1,1.9,0.3
	c0.2,0.1,0.4,0.3,0.4,0.5c0,0.3-0.1,0.7-0.2,1c-0.1,0.5-0.3,1-0.5,1.5L718.8,530.9z M751.8,537.8c-1.7-3-4.2-6.1-7.9-6.1
	c-2.7,0-4.9,1-6.7,3c-1.9,2.1-2.6,4.7-2.6,7.5c0,2.7,0.7,5.1,2.4,7.2c1.6,1.9,3.7,2.9,6.2,2.9c1.6,0,3-0.4,4.3-1.2
	c1.5-0.9,2.8-2.3,3.9-3.7l0.3-0.4l-1.1-1.3l-0.4,0.4c-0.8,0.8-1.7,1.5-2.7,2c-0.8,0.4-1.7,0.6-2.6,0.6c-1.8,0-3.3-0.7-4.4-2.1
	c-1.3-1.6-1.7-3.6-1.7-5.7c0-0.3,0-0.6,0-0.9l0-0.4h13.2v-1.5l-0.1-0.1L751.8,537.8z M739.1,537.6c0.2-0.9,0.6-1.9,1.3-2.6
	c0.7-0.7,1.5-1.1,2.5-1.1c1,0,1.9,0.4,2.5,1.1c0.7,0.7,1,1.6,1.2,2.5H739.1z M818.3,537.8c-1.7-3-4.2-6.1-7.9-6.1
	c-2.7,0-4.9,1-6.7,3c-1.9,2.1-2.6,4.7-2.6,7.5c0,2.7,0.7,5.1,2.4,7.2c1.6,1.9,3.7,2.9,6.2,2.9c1.5,0,3-0.4,4.3-1.2
	c1.5-0.9,2.8-2.3,3.9-3.7l0.3-0.4l-1.1-1.3l-0.4,0.4c-0.8,0.8-1.7,1.5-2.7,2c-0.8,0.4-1.7,0.6-2.6,0.6c-1.8,0-3.3-0.7-4.4-2.1
	c-1.3-1.6-1.7-3.6-1.7-5.7c0-0.3,0-0.6,0-0.9l0-0.4h13.2v-1.5l-0.1-0.1L818.3,537.8z M805.7,537.6c0.2-0.9,0.6-1.9,1.3-2.6
	c0.7-0.7,1.5-1.1,2.5-1.1c1,0,1.9,0.4,2.5,1.1c0.7,0.7,1,1.6,1.2,2.5H805.7z M937.3,534.3v-14.6h-1l-6.3,2.2l0.1,1.7l0.4,0.1
	c0.5,0.1,1.6,0.4,1.9,0.8c0.3,0.3,0.3,0.8,0.3,1.1V551l0.4,0.1c1.1,0.3,2.1,0.5,3.2,0.7c1,0.2,2,0.2,3,0.2c1.7,0,3.6-0.1,5.3-0.7
	c1.4-0.5,2.6-1.3,3.6-2.3c1-1,1.8-2.2,2.3-3.6c0.5-1.4,0.8-2.9,0.8-4.4c0-2.4-0.7-4.7-2.2-6.6c-1.5-1.7-3.4-2.7-5.6-2.7
	c-1.2,0-2.3,0.3-3.4,0.8C939.2,533,938.2,533.6,937.3,534.3z M937.3,536.9c0.7-0.5,1.5-0.9,2.3-1.3c0.8-0.3,1.5-0.5,2.3-0.5
	c1.6,0,2.8,0.7,3.8,1.9c1.1,1.5,1.5,3.3,1.5,5.1c0,1.9-0.4,3.9-1.6,5.4c-1.1,1.3-2.5,2-4.2,2c-1.2,0-2.3-0.3-3.1-1.2
	c-0.9-1-1.1-2.5-1.1-3.8V536.9z"/>
<path d="M815.1,400.3l3.8-2.5l-4-2.1c-1.3-0.7-2.7-1.1-4.2-1.1c-3.7,0-7.3,3-9.8,5.5
	l0,0c-1.7,1.8-4.7,5.1-4.7,7.7c0,2.1,1.6,3.4,3.4,4l1.6,0.6l1.6-1.6l0,0c2.6-2.8,5.6-5.3,8.7-7.6l3.1-2.3l0.1-0.1
	C814.8,400.5,815,400.4,815.1,400.3z M493,443.7c-0.1,0.6-0.1,1.1-0.1,1.7c0,3.3,1,6.4,3.3,8.8c2.3,2.5,5.2,3.7,8.6,3.7
	c5.4,0,10.3-2.8,14.4-6.5c-0.9,2.2-1.8,4.6-3,6.7c-1.2,0.7-2.3,1.4-3.5,2.1c-0.7,0.4-1.3,0.8-2,1.1l-0.2,0.1l-0.2,0.1
	c-1.2,0.8-2.6,1.5-3.9,2.3l-10.7,6.1c-4.4,2.4-8.8,4.8-13.1,7.4l0,0l0,0c-3.9,2.6-7.8,5.2-11.3,8.3c-4.9,4.2-10.1,10.2-10.1,17
	c0,2.5,0.9,4.7,2.6,6.4c1.8,1.8,4,2.7,6.5,2.7c6.5,0,13-3.8,18-7.7c8.8-6.8,16.6-14.8,23.4-23.6c3.2-4.2,6.3-8.5,9-13.1l2.5-4.3
	c0.3-0.3,0.5-0.6,0.7-1l0.1-0.2l0.1-0.2c4.3-3.1,8.7-6.1,12.8-9.4l0,0c5.9-5,11.7-10.2,17-15.8l4.6-5l1.8-1.9
	c0.8-0.8,1.4-1.8,1.4-3.1c0-2.1-1.6-3.5-3.7-3.5c-1.4,0-2.5,0.8-3.3,1.8l0,0l0,0.1c-4.8,5.9-10.3,11.2-16,16.3
	c-2.5,2.3-5.1,4.6-7.8,6.7c2.1-5.1,3.8-10.4,5.3-15.6c1.6-5.5,2.9-11.4,2.9-17.2c0-1.6-0.1-3.3-0.3-4.9l-0.6-4.1l-8.9,5.6v2.7
	c0,5.6-1.5,11-3.8,16c-2.3,5.1-5.3,10.1-9.3,14.1c-2.5,2.5-6,5.2-9.6,5.2c-0.9,0-1.6-0.3-2.2-1l0,0l0,0c-0.7-0.7-0.9-1.6-0.9-2.6
	c0-7.3,8.6-18.8,13-24.4l3.6-4.5l-5.8,0.1c-2.5,0-5.3,0.3-7.6,1.3l-0.6,0.2l-0.4,0.5c-1.5,1.7-2.9,3.5-4.2,5.3
	c-0.3,0.3-0.6,0.6-0.8,1c-2.6,2.9-5.4,5.9-8.2,8.7c-3.8,3.8-16,15.7-21.3,15.7c-0.5,0-0.9-0.2-1.2-0.6c-0.5-0.6-0.7-1.4-0.7-2.2
	c0-1.3,0.2-2.7,0.5-4c0.4-2.5,0.9-5,1.4-7.4c0.6-2.7,1.4-5.8,1.4-8.5c0-3.8-2.1-6.6-6.1-6.6c-2,0-4.4,0.8-6.3,1.6l-0.1,0
	c-2.9,1.3-5.6,2.6-8.3,4.2c-3.4,1.9-6.8,4-10,6.2c-4.1,2.8-8.1,5.7-12.1,8.7l0.6-1.2c3.3-6.9,7.1-13.6,11.2-20.1l3.4-5.5l-6.3,1.4
	c-2.5,0.5-5.1,1.3-7.4,2.4l-0.6,0.3l-0.4,0.6c-1.3,1.8-2.4,3.7-3.6,5.6c-3.4,3.7-7.6,5.6-12.7,5.6c-2.1,0-4.1-0.4-6.1-1
	c-1.6-2.6-4-5-7.3-5c-2.5,0-4.6,1.5-4.6,4.2c0,3.5,3.5,5.3,6.3,6.4l0.1,0c0.2,1,0.3,2,0.3,3c0,4.2-1.3,7.7-4.1,10.9
	c-2.5,2.7-5.4,4.5-9.2,4.5c-2.5,0-4.5-0.9-6.1-2.7c-1.9-2.2-2.6-4.7-2.6-7.5c0-5.4,2-10.1,5.5-14.1c3.2-3.6,7.2-6.2,12.2-6.2
	c1.3,0,2.8,0.7,3.9,1.4l0.3,0.2l0.3,0.1l0.1,0c0.5,0.3,1,0.4,1.5,0.4c1.3,0,2.5-0.8,3.4-1.6l0,0l0,0c1.1-1.1,2.1-2.4,2.1-3.9
	c0-2.3-2-3.6-4-4.2l0,0c-1.7-0.5-3.5-0.7-5.3-0.7c-5.4,0-10.3,1.9-14.7,5c-3.8,2.5-7,5.6-9.7,9.4c-3.1,3.3-6.3,6.4-9.6,9.5
	c-3.5,3.3-7.3,6.6-11.3,9.2c-1.5,1-4.2,2.5-6,2.5c-0.5,0-0.9-0.2-1.2-0.6c-0.5-0.6-0.6-1.5-0.6-2.3c0-1.3,0.4-3,0.7-4.3
	c0.6-3.1,1.4-6.2,2.1-9.3c0.4-1.6,0.8-3.3,0.8-5c0-4.1-2.7-6.3-6.7-6.3c-3.1,0-6.7,1.3-9.6,2.6c-4.1,1.8-7.9,4.3-11.6,6.8
	c-4.5,3.1-8.7,6.5-12.8,10.1l0,0c0.3-1.1,0.6-2.2,1-3.4c0.6-2.1,1.3-4.2,1.8-6.3c0.3-1.3,0.6-2.8,0.6-4.1c0-1.7-0.5-3.4-1.6-4.6
	l-0.1-0.1l-0.1-0.1c-1.2-1.2-2.8-1.8-4.5-1.8c-5.8,0-17.2,7.1-22.3,10.3c-3.7,2.3-7.3,4.8-10.8,7.5c0.6-1.3,1.2-2.6,1.8-3.9
	c2.1-4.5,4.5-8.9,7-13.2l4.7-7.5L281,416c-2.4,0.7-4.7,1.6-6.9,2.6l-0.7,0.3l-0.4,0.6c-1.4,2.2-2.8,4.5-4.1,6.9l-1.3,1.4
	c-3.6,4-7.4,7.8-11.3,11.5c-3.8,3.6-7.8,7.3-12.2,10.1c-2.3,1.5-5,2.7-7.8,2.7c-1.5,0-2.7-0.4-3.7-1.5l-0.1-0.1l0,0
	c-1.1-1.1-1.5-2.4-1.5-4c0-6.2,5.2-13.5,8.9-18.2l3.2-4c0.9-1,1.5-2.3,1.5-3.7c0-1.2-0.4-2.4-1.3-3.3l-0.2-0.2l-0.2-0.1
	c-1-0.8-2.1-1.1-3.3-1.1c-1.7,0-4.6,1.5-6.2,2.3c-1.8,0.9-3.8,1.7-5.8,2.1c1.6-2.3,3.1-5,3.1-7.3c0-3.1-1.9-5.2-5-5.2
	c-2.9,0-5.2,1.9-6.8,4.1c-1.8,2.3-2.9,5-2.9,8c0,1,0.2,1.9,0.5,2.9l-0.8,1c-1.1,0.8-1.9,1.8-2.8,2.8l-2.3,2.6
	c-4.3,4.7-8.9,9.1-13.7,13.3c-2.8,2.5-10.6,9-14.4,9c-0.6,0-1.1-0.1-1.5-0.6l0,0l0-0.1c-0.6-0.6-0.7-1.7-0.7-2.5
	c0-5.5,2.8-11.6,5.6-16.5l0.7,2.3l2.7-1.1c6.3-2.5,12.7-6.9,12.7-14.5c0-3.5-1.5-6.4-4.4-8.3c-3.1-2-7.2-2.4-10.8-2.4
	c-5,0-10.1,1.4-14.8,3.2c-5.5,2.1-10.7,5-15.5,8.5c-3.8,2.7-7.2,5.9-10.3,9.3c-1.5,1.6-2.8,3.4-4.1,5.2c-5.9,6-12.2,11.8-19,16.7
	c-5.2,3.8-13.9,9.5-20.5,9.5c-1.5,0-2.8-0.4-3.8-1.6c-1.2-1.5-1.6-3.4-1.6-5.3c0-3.5,0.9-7.3,1.9-10.7c1.5-5,3.5-9.9,5.6-14.7
	c3.2-7.1,6.8-14.1,10.5-20.9l0.1-0.2c4.9,0.3,9.8,0.9,14.5,2l1.8,0.4l1.1-1.5c0.7-1,1.2-2.1,1.2-3.3c0-2.5-2.2-3.9-4.4-4.4l-0.1,0
	l-0.1,0c-1.8-0.4-3.6-0.5-5.4-0.6c-1.4-0.1-2.9-0.2-4.3-0.2c2.5-4.5,5.2-8.9,8-13.3c3.7-5.7,7.6-11.3,11.7-16.8
	c2-2.8,4.1-5.5,6.3-8.1c2.3-2.9,4.6-5.9,7-8.7l0.1-0.1l0.1-0.1c0.7-0.9,1.6-1.8,2.3-2.7l6.6-7.6l6-6.9l-8.8,2.5
	c-2,0.6-3.9,1.5-5.7,2.7l-0.1,0l-0.1,0c-2.4,1.8-4.7,4.6-6.6,6.9l-8.7,10.1c-6,7.2-11.7,14.7-17.1,22.3c-4.6,6.4-9,13-13.2,19.8
	c-4.5,0.1-9,0.5-13.5,0.9c-2.4,0.3-4.8,0.6-7.2,0.9c3.5-4.9,7-9.9,10.3-15l0,0c2.2-3.5,4.4-7.1,6.5-10.7l2.6-4.6
	c1.2-2.1,3.3-5.9,3.3-8.3c0-2.2-1.6-3.7-3.7-3.7c-1.1,0-2.3,0.6-3.2,1l-1.4,0.6l-0.2,1.5c-0.3,2.7-1.4,5.4-2.7,7.8
	C96.2,374,93.5,378,91,382c-3.8,5.9-7.7,11.7-11.7,17.5l0,0c-0.9,1.4-1.8,2.7-2.8,3.9l-0.3,0.1c-0.2,0-0.4,0.1-0.6,0.2l-1.3,0.3
	c-5.5,1.5-11,3.2-16.3,5.1l0,0c-5.5,2.1-10.9,4.5-16.1,7.1l0,0c-4.8,2.6-9.6,5.3-14.1,8.4c-3.8,2.6-7.4,5.5-10.9,8.5
	c-3.3,2.8-6.4,5.9-9.1,9.3c-2.3,2.8-4.2,5.9-5.7,9.2c-1.2,2.7-2,5.6-2,8.6c0,3,0.8,5.7,2.8,8c2.1,2.3,4.9,3.2,8,3.2
	c4.4,0,9-1.8,12.8-3.9c5.3-2.9,10.2-6.6,14.9-10.6c2.9-2.4,5.6-5,8.3-7.7c2.9-2.9,5.7-5.8,8.3-8.9l0,0L57,438l6.6-7.4
	c0.4-0.4,0.8-0.9,1.2-1.4l2.6-3l0,0l5.2-6.4c0.5-0.5,0.9-1,1.3-1.6c0.1-0.2,0.2-0.4,0.4-0.5l0.3-0.3l0.1-0.2
	c0.3-0.3,0.5-0.5,0.7-0.8l3.5-4.6c0.3-0.3,0.5-0.5,0.7-0.9l0.1-0.1l0.1-0.2c0.1-0.1,0.2-0.2,0.3-0.3c0.2-0.2,0.3-0.4,0.5-0.6
	c4.1-0.8,8.2-1.4,12.3-2c3.4-0.4,6.8-0.7,10.2-0.8l-2.2,3.7C93.4,423.3,83,442.7,83,457.5c0,3.9,1,7.7,3.6,10.7
	c2.5,3,5.9,4.4,9.9,4.4c3.8,0,8-1.4,11.5-2.9c4.7-2,9.1-4.6,13.2-7.6c3.3-2.3,6.4-4.8,9.5-7.3c1.8-1.5,3.6-3,5.3-4.6v0
	c0,3,0.8,5.8,2.9,7.9c2,2.2,4.7,3.1,7.6,3.1c8.1,0,16.6-6.5,22.8-12.3v0.6c0,3.1,0.8,5.9,2.7,8.3c1.9,2.4,4.5,3.6,7.5,3.6
	c3.3,0,6.9-1.8,9.7-3.4c4.4-2.6,8.4-5.9,12.1-9.4c4.9-4.5,9.6-9.2,14.2-14.1c1.4-1.5,2.9-3,4.2-4.7c0.5-0.5,1-1,1.5-1.6l0.7-0.8
	c1.1,0.2,2.1,0.4,3.2,0.4c0.9,0,1.7-0.1,2.6-0.3c-4.3,6-8.3,13.3-8.3,20.3c0,3.7,1.2,7,3.8,9.6c2.6,2.6,5.9,3.7,9.6,3.7
	c6.5,0,12.9-3.6,18-7.4c3.1-2.3,6-4.9,8.8-7.5c-0.9,2.4-2.1,5.9-2.1,8.1c0,2.4,1.5,4.4,4,4.4c1.7,0,2.9-1.1,4-2.3
	c3.3-3.7,7.1-7,11-10.1c4.8-3.9,9.9-7.4,15.1-10.8c1.6-1,8.1-5,10.8-6c-0.1,0.7-0.4,1.6-0.6,2.1l-1.6,4.7l0,0.1
	c-1,3.2-1.9,6.4-2.6,9.7c-0.5,2-0.9,4.1-0.9,6.1c0,3.2,1.5,6.2,5.1,6.2c2,0,3.7-1.7,5-3.1l0,0l0,0c2.2-2.5,4.6-4.9,7-7.2
	c4.3-4.3,9.1-8.1,14.1-11.5c2.1-1.4,8.7-5.8,11.4-6.2c0,0.4-0.2,1.1-0.3,1.5c-0.3,1.4-0.7,2.9-1,4.3c-0.9,3.6-1.8,7.6-1.8,11.4
	c0,2.8,0.8,5.4,2.7,7.6c1.8,2.1,4.3,3.2,7.1,3.2c6.1,0,12.8-4.5,17.5-8.1c2.2-1.7,4.2-3.6,6.3-5.5c-0.1,0.7-0.1,1.3-0.1,2
	c0,4.5,1.3,8.7,4.4,12.1c3,3.3,6.9,5,11.4,5c4.3,0,8.2-1.6,11.7-4c3.8-2.6,6.8-5.9,9.1-9.8c2.3-3.8,3.5-8,3.5-12.4
	c0-0.4,0-0.7,0-1.1c1.3,0.2,2.7,0.4,4,0.4c2.3,0,4.5-0.3,6.6-0.9l-0.7,1.7c-1.9,4.4-4.8,11-4.8,15.8c0,2.7,1.1,5.6,4.2,5.6
	c2.3,0,4.7-2.7,6.2-4.3c7.8-8.2,18-15,27.6-20.9c1.6-1,6.2-3.8,8.3-4.2c0,0.8-0.2,1.7-0.4,2.5c-0.8,3.6-1.6,7.1-2.3,10.7
	c-0.3,1.7-0.4,3.4-0.4,5.1c0,2.7,0.7,5.3,2.5,7.4c1.8,2,4.2,3,6.9,3c4.9,0,10-2.6,14.1-5.3C485.6,450.6,489.4,447.3,493,443.7z
	 M186.2,427.4c-1.1-1.2-2.4-2.2-4.2-2.2c-1.2,0-2.5,0.5-3.6,1l-0.8,0.4l-0.4,0.7c-3.7,6.3-8.2,12.3-13.7,17.2
	c-2.9,2.6-7.7,6.3-11.8,6.3c-1.2,0-2.2-0.3-3.1-1.1l-0.1-0.1l-0.1,0c-0.9-0.8-1.1-1.8-1.1-3c0-2.1,1.2-4.9,2.2-6.7
	c1.7-3.3,3.9-6.2,6.3-9c3.9-4.4,8.7-7.9,13.9-10.7c4.4-2.3,9.5-4.2,14.5-4.2c1.9,0,4.6,0.2,6.2,1.3c1.1,0.8,1.5,1.7,1.5,3
	c0,3.2-3.1,5.5-5.6,6.9L186.2,427.4z M509.6,470.3c-2.2,3.5-4.7,6.8-7.4,10c-4.8,5.7-10,11.3-15.9,15.8c-2.7,2.1-7.9,5.8-11.5,5.8
	c-0.6,0-1-0.2-1.5-0.6c-0.4-0.4-0.6-0.8-0.6-1.3c0-2.1,1.2-4.3,2.4-5.9c2.4-3.1,6-6,9.2-8.3c5.6-4,11.6-7.4,17.5-10.9L509.6,470.3z
	 M69,412.9c-5.2,6.5-10.6,12.8-16.2,19.1c-2.4,2.7-4.8,5.3-7.2,7.9c-1.5,1.6-3.1,3.2-4.7,4.8c-1.6,1.6-3.2,3.1-4.9,4.7
	c-3.9,3.5-8.3,7.1-12.9,9.5l0,0c-2.7,1.5-6.2,3.1-9.3,3.1c-1.2,0-2.1-0.4-2.9-1.2c-0.8-0.9-1.2-1.8-1.2-3c0-5.8,4.7-11.8,8.5-15.8
	c6.7-7.1,15.1-12.8,23.6-17.5c5.9-3.3,12.1-6.1,18.4-8.6C63,414.9,66,413.8,69,412.9z M702.2,373.1c2.5,1.5,5.4,2.1,8.4,2.1
	c3.5,0,6.9-1,9.5-3.4c2.6-2.3,3.9-5.3,3.9-8.7c0-3.5-1.1-6.7-3.1-9.5c-2.2-3-5-5.3-8.2-7c-3.7-2.1-7.6-3.5-11.7-4.5
	c-4.6-1.1-9.3-1.7-14-1.7c-7.3,0-14.7,1.1-21.6,3.7c-5.9,2.3-11.1,5.6-15.1,10.6c-3.7,4.7-5.6,10-5.6,16c0,2.7,0.4,5.4,1.2,8
	c0.9,2.9,2.5,5.5,4.3,7.9c2.1,2.9,4.5,5.6,7.1,8.1c3.2,3,6.5,5.8,10,8.5l6.8,5.3c5.2,3.9,10.7,8.5,14.4,13.7c2.4,3.4,4,7.2,4,11.4
	c0,5.9-2.7,11-6.5,15.4l0,0c-1.6,1.9-3.5,3.9-5.5,5.3c-1.1,0.7-2.5,1.5-3.4,2.4c-0.1,0.1-0.2,0.2-0.3,0.3c-0.9,0.4-1.8,1-2.7,1.5
	c-3.4,1.9-7.3,3.2-11.1,4.1l0,0c-4.1,1.1-8.4,1.7-12.6,1.7c-11.3,0-21.9-3.5-31.6-9.1c-5.8-3.3-11.1-7.7-14.9-13.3
	c-3.3-4.9-5.1-10.3-5.1-16.2c0-5.2,1.6-9.8,5.1-13.6c3.3-3.6,7.2-5.5,12-5.5c4.5,0,8.5,2.2,11.9,5l3.1,2.6l1.2-3.9
	c0.3-0.8,0.6-1.8,0.6-2.6c0-3.3-3.2-5.2-5.8-6.4c-3.2-1.3-6.5-2-10-2c-4.9,0-9.5,1.3-13.7,3.9c-4.3,2.7-7.4,6.5-9.7,10.9
	c-2.4,4.7-3.5,9.9-3.5,15.2c0,6.1,1.4,11.9,4.3,17.2c2.9,5.5,7,10,12,13.7c5.4,4,11.5,6.9,18,8.9c7,2.1,14.3,3.2,21.7,3.2
	c9.6,0,18.9-1.8,27.7-5.6c8.1-3.5,15.2-8.4,20.7-15.3c4.9-6.2,7.8-13.3,7.8-21.2c0-5.4-1.5-10.4-4.2-15c-3.1-5.3-7.7-9.9-12.4-13.7
	L670,388.7c-4.2-3.4-8.7-7.5-11.6-12c-2-3-3.4-6.3-3.4-9.9c0-2.7,0.7-5.2,2-7.5c1.5-2.4,3.5-4.4,5.9-5.9c2.9-1.8,6.2-3.1,9.5-3.9
	c4-1,8.2-1.5,12.4-1.5c5.1,0,10,0.9,14.8,2.6c4.1,1.5,8.3,3.7,11.5,6.8c2,1.9,3.9,4.4,3.9,7.4c0,0.8-0.2,1.6-0.8,2.2
	c-0.7,0.7-1.6,0.9-2.6,0.9c-2.1,0-4-0.6-5.7-1.8l-4.8-3.8v4.4c-0.8,0.8-1.4,1.7-1.4,2.9C699.7,371.2,700.8,372.4,702.2,373.1z
	 M914.4,420c-0.2,0.2-0.4,0.5-0.6,0.7c-0.3,0.3-0.5,0.6-0.8,0.9l-0.1,0.1l-0.1,0.1l-1.1,1.3c-0.6,0.3-1,0.7-1.5,1.2
	c-0.2,0.1-0.3,0.2-0.4,0.4c-0.4,0.4-0.7,0.8-1.1,1.3l-2.2,2.4c-4.4,4.9-9,9.7-14,14.1c-3.4,3-7.2,6.1-11.2,8.2
	c-2.6,1.3-5.5,2.3-8.4,2.3c-2.2,0-4-0.6-5.5-2.2c-1.5-1.6-2.1-3.6-2.1-5.8c0-1.4,0.2-2.9,0.5-4.3c0.6,0,1.3,0.1,1.9,0.1
	c4.5,0,8.9-1.3,13-3.2c4.1-2,7.8-4.6,10.8-8c2.6-3,4.6-6.5,4.6-10.6c0-2.3-0.8-4.4-2.6-5.8c-1.8-1.4-4-1.9-6.2-1.9
	c-5.5,0-10.9,3.3-15.1,6.6c-4.2,3.4-7.9,7.3-10.9,11.8c-2.2,2.3-4.4,4.6-6.7,6.9c-2.6,2.6-5.3,5.1-8.1,7.4
	c-3.7,3.1-10.1,7.8-15.2,7.8c-1.2,0-2.2-0.3-3-1.2c-0.9-1.1-1.2-2.5-1.2-3.9c0-6,4.5-15.4,7.5-21.1l0.2,0c3.3-0.1,6.6-0.1,10-0.1
	c2.8,0,5.6,0,8.4,0.1l3.9,0.1l5-8.1l-23.7,1c2.8-5,5.8-9.9,8.8-14.8l5.6-8.8l-13.9,2.3l-1.5,2.4l-1.9,3.1l-3,4.9
	c-2.2,3.6-4.4,7.3-6.4,11l-0.1,0.1l-10.3-0.1l-7.5,8.1l13.4-0.8l-0.7,0.7c-4,4.4-8.3,8.6-12.8,12.5c-3.7,3.3-7.7,6.4-12,8.9
	c-2,1.2-5.2,2.9-7.5,2.9c-0.3,0-0.7,0-0.9-0.3c-0.3-0.4-0.4-1.4-0.4-1.9c0-3.4,1.2-7,2.6-10.1c2.5-5.6,5.9-11,9.2-16.2l4-5.8
	l-5.4,0.2c-2.4,0.1-4.8,0.7-7.1,1.4l-0.9,0.3l-0.5,0.8c-1.4,2.1-2.8,4.1-4.1,6.3c-1,1-2,2-3,3c-5.8,6.1-11.9,12-18.6,17.1
	c-2.2,1.7-7.7,5.6-10.4,5.6c-0.2,0-0.4,0-0.6-0.2c-0.3-0.3-0.4-1.3-0.4-1.7v-0.3c0-6,5.8-17.4,8.7-22.8l1.7-3.3l-9.2-1.7l-1,1.3
	c-3,3.7-6.2,7.3-9.6,10.7c-3.6,3.6-7.3,7-11.2,10.3c-3,2.5-9.2,7.4-13.2,7.4c-0.3,0-0.8,0-1-0.3c-0.3-0.4-0.4-1.4-0.4-1.9
	c0-5.7,4.8-14.4,7.6-19.3c2.2-3.8,4.6-7.5,7.4-11l3.9-4.9l-6.3,0.5c-2.5,0.2-5,0.7-7.4,1.7l-0.7,0.3l-0.5,0.6
	c-4.2,5.5-8,11.5-10.8,17.9c-2.1,4.6-4.1,10.1-4.1,15.2c0,5.7,2.8,9.9,8.9,9.9c9.5,0,20-8.6,26.8-15.1c-0.3,1.6-0.5,3.3-0.5,4.9
	c0,2.7,0.6,5.3,2.4,7.4c1.7,2,3.8,3.2,6.5,3.2c5.7,0,12.3-4.2,16.8-7.5c2.6-1.8,5.1-3.9,7.4-6.1l2.2-2c-0.5,2.1-0.8,4.2-0.8,6.3
	c0,2.6,0.8,5.1,2.6,7.1c1.8,2,4.2,2.9,6.9,2.9c3.6,0,7.6-1.8,10.7-3.5c4.8-2.6,9.2-5.9,13.3-9.4c2.4-2,4.7-4.1,6.9-6.2
	c-0.4,1.8-0.6,3.7-0.6,5.6c0,3.6,1.1,7,3.6,9.7c2.5,2.7,5.7,3.9,9.3,3.9c8.4,0,18.5-7.8,25.5-14.1c0,0.6-0.1,1.3-0.1,1.9
	c0,4.1,1.3,7.8,4.2,10.8c2.8,2.9,6.4,4.3,10.5,4.3c7.1,0,14.6-4.6,20.1-8.7c8.8-6.6,16.7-14.9,24-23.1l0.7-0.8
	c0.7-0.4,1.4-1,1.9-1.6l2.3-2.8c1.4,2.1,2.9,4.6,3.7,6.9c0.6,1.9,0.9,3.9,0.9,5.9c0,3.3-0.9,6.3-2.8,9.1c-1.6,2.3-3.6,4-6.3,4.8
	c-2.8-0.5-5.6-1.3-8.4-2.2c-1.5-0.5-3.3-1-4.8-1c-3,0-5.1,1.8-5.1,4.8c0,2.7,2.1,4.4,4.4,5.4l0,0c2.5,1.1,5.2,1.4,7.9,1.4
	c2.4,0,5-0.5,7.4-1l0.3-0.1l0.2-0.1c0.4,0,0.8-0.1,1.2-0.2c3.6-0.2,7.1-0.9,10.5-2c3.6-1.2,7-2.9,10.2-4.9c3.8-2.4,7.3-5.2,10.6-8.2
	c4.3-3.9,8.2-8.1,12.1-12.3c0.5-0.5,0.9-1,1.3-1.5c0.2-0.3,0.5-0.6,0.8-0.9l0.1-0.1l0.1-0.1c0.2-0.3,0.5-0.6,0.8-0.8l0,0l0.1-0.1
	c1-1,2-2.3,2-3.8c0-2-1.5-3.4-3.5-3.4c-1.6,0-2.7,1.1-3.7,2.3c-4.3,5.1-8.9,10.1-13.9,14.5c-3.8,3.5-7.9,6.7-12.3,9.3
	c1.4-2.7,2.1-5.7,2.1-8.8c0-3.1-0.5-6.2-2-9c-1.7-3.3-4.4-6.4-6.9-9.1c-0.5-0.6-1-1.1-1.5-1.7c1.9-2.3,3.3-5.1,3.3-8.2
	c0-3.1-1.7-5.5-5-5.5c-2.4,0-4.3,1.4-5.7,3.3c-1.5,1.9-2.2,4.1-2.2,6.5C913.7,417.5,914,418.8,914.4,420z M868.9,433.5
	c1.1-2.1,2.5-4.1,4-5.9c2.8-3.1,7.8-8,12.2-8c1,0,1.5,0,1.5,1.1c0,1.9-1.4,3.9-2.6,5.3c-2,2.2-4.7,4-7.4,5.3
	C874.2,432.6,871.6,433.4,868.9,433.5z"/>
</svg>
