<svg xmlns="http://www.w3.org/2000/svg" width="100" viewBox="0 0 419.2 319.5"><path fill="#b3975e" fill-rule="evenodd" clip-rule="evenodd" d="M166.7 68.3l-.5-1.8c-.4-1.3-.7-2.5-1.1-3.8l-.3-1.1-.1-.1c-8.1-9.1-16.9-17.6-26.2-25.5-1.4-1.2-.7-3.4 1-3.8.1 0 .3-.1.4-.1.4-.1.8-.1 1.2-.2 1.3-.1 2.6 0 3.8.3 2.4.5 4.4 1.7 6.1 3.2.1-.3.2-.5.4-.7l.1-.1.2-.2c.2-.2.4-.3.6-.5.6-.5 1.3-.8 2-1.1 2.5-.8 4.9 0 7 1.5.8.6 1.4 1.4 1.7 2.4.2.8.2 1.6-.1 2.4.6-.9 1.6-1.5 2.7-1.7 1.1-.2 2.3 0 3.3.7V38c-.2-1.6.2-3.2 1.5-4.2.7-.5 1.5-.8 2.3-.9-1-.8-1.8-1.8-1.9-3.1-.3-3.7 4.9-6.3 4.6-9.4l-.2-1.9c-.3-1.7.9-1.8 1.3-2.7.8.6 1.8.2 2.5 1.9l.7 1.8c1 2.6 4.8 2.9 6.8 5.3 1.4 1.8 1.4 4 .8 6.1.4-.1.8-.1 1.2-.1 2.6-.1 5.4.5 6.7 2.9.4-.3.8-.4 1.2-.6-1.6-.8-3-2.1-3.8-3.9-.6-1.3-.8-2.8-.4-4.2.6-2.1 2.4-3.7 4.3-4.8 1.3-.7 2.6-1.3 4-1.8 7.3-2.5 3 3.4 3.3 5.6.2.1.9.1 1.1.1.4 0 2.2-.2 2.4-.7.2-.5-.2-2.1-.4-2.6-.6-1.9-1.3-3.7-1.8-5.6-1.7-6.4.2-11 5.8-14.2l.8-.5 1.4-.6 1 .5.9.6c3.5 2 6 4.8 6.4 9 .1 1.7-.1 3.5-.6 5.2-.5 1.9-1.3 3.7-1.8 5.6-.1.2-.1.5-.2.8l-.1.3c-.1.6-.2 1.2-.1 1.5.2.5 2 .6 2.4.7.2 0 .9 0 1.2-.1.1-.7-.6-2.1-1-2.8-1.8-3.6 1.8-3.6 4.3-2.7 1.4.5 2.7 1.1 4 1.8 3.3 1.9 5.7 5.1 3.9 8.9-.9 1.8-2.2 3.1-3.8 3.9.4.1.9.3 1.2.6.3-.5.7-1 1.1-1.4 1.5-1.3 3.6-1.6 5.5-1.5.4 0 .8.1 1.1.1-.6-2.1-.7-4.3.8-6.1 1.9-2.4 5.8-2.7 6.8-5.3l.7-1.8c.6-1.4 1.4-1.6 2.4-1.9.7.7 1.5 1.7 1.4 2.8l-.2 1.9c0 .4 0 .7.1 1.1.3 1 1.4 2.3 2 3.2 2.2 2.8 4 5.8.6 8.3 2.5.3 4.2 2.1 3.9 5.1.9-.6 2.1-.9 3.3-.7 1.1.2 2.2.9 2.8 1.8-.5-1.7-.3-3.6 1.5-4.9 2-1.5 4.5-2.2 7-1.4.7.2 1.4.6 2 1.1.2.2.4.3.6.5l.2.2c.2.3.4.6.5.9 1.7-1.6 3.7-2.7 6.1-3.3 1.3-.3 2.6-.4 3.8-.3.4 0 .8.1 1.2.2.1 0 .3.1.4.1 1.7.4 2.3 2.6 1 3.8-9.1 8.1-18.2 16.4-26.2 25.5l-.1.1-.3 1.1c-.4 1.3-.7 2.5-1.1 3.8l-.5 1.8c.2.1.4.1.6.2 2.8.7 5.2 2.9 5.4 5.7l.3-.3c1.7-3.6 4.5-6.3 8.2-8l2-.9.6 1.4h.5c.5.1.9.2 1.3.4.7-.4 1.5-.8 2.4-.8 1.5-.1 2.8.5 3.8 1.4.6-.4 1.3-.8 1.9-1.2l1.4-1.1 1.4 1.1c4.7 3.9 9.6 7.4 13.9 11.7l.7.7v1c-.1 2.1 0 4.4.8 6.5l1.2-.6 1.1 1.4c.1.2.3.3.4.5 1.1 1.1 2.6 1.8 3.9 2.5 1.3.7 2.5 1.5 3.5 2.5.3-1.8 1-3.6 2.3-4.9 1-1.1 2.3-2 3.6-2.8 3.3-1.8 7.6-2.3 11.3-2.6 1.2-.1 2.5-.2 3.8-.3-.3-.1-.6-.2-.9-.4-.4-.3-.9-.8-1.1-1l-4 .6 1.8-3.7c.6-1.3.1-2.7-.1-4.1-4.2.9-9.4 1.5-13.4.5h-.2l-.2-.1c-.1 0-.2-.1-.3-.1-2.1-.8-4-2.3-5.4-4l-.1-.2-.1-.2c-.3-.6-.5-1.2-.7-1.9-.3-1.3-.2-3 .1-4.3.5-2.5 2-5.4 5-4.9l1.5.3.3 1.5v.7l-.1.4c-.3.9-.2 1.7.2 2.6l.2.3.1.3c.2.9.5 1.8 1.3 2.4 1.6 1.2 5 .7 6.9.5.6-.1 1.3-.2 1.9-.4.3-.1.7-.2 1-.3l-.3-1.3c-.1-.7-.5-1.3-.8-1.9-.8-1.5-1.3-2.7-1.4-4.3h-1.1l.5-2.7c1-5.4 5.8-6.5 10.3-7.8 3.5-6.6 14-4.3 16.8-8.2l2.4-3.3.7 1.8c.8-1.3 1.6-3.8 5.2-3.8h.4l.4.2c2.8 1.1 3.2 3.8 3.9 6.3 3.2 1.2 6.2 2.9 9.5 3.7l2.7.7-1 1.9c8.6 6.9 9.6 19 16.1 27.2l1.9 2.4-2.9 1c-.2.1-.5.1-.7.2 3.5 7.8 1.3 19.3.1 27.4l3.8 5.3c3.1 4.4 5.2 9.5 3.3 14.8-.5 1.4-1.2 2.7-2.1 3.9l.4-.1.3 2.7c.3 3 0 6.3-1.9 8.8l-.5.7-.9.1c.7 2.4.9 5.1-1 7-.7.7-1.7 1.1-2.6 1.3.7 1.6.7 3.5.4 5.2l-.3 2-2.1-.2c-.1 0-.6.3-.7.3-.7.3-1.3.5-2 .4-1.2-.1-2.3-.5-3-1.5 0-.1-.1-.1-.1-.2v.1c.2 1.2 1.1 2.5 1.9 3.4l.2.2.3.4c5.3 7.1 14 11 19.5 18.2 1.7 2.2 2.9 4.5 3.6 7l2.9-.1c6.9-.2 10.6 7.8 6.2 13l-.4.4-.5.2c-1.2.5-2.6.7-3.9.8.5 1.1.5 2.3.3 3.7v.3l-.1.2c-.1.2-.1.3-.2.5l-.1.3-.6-.1c-2.1 2.2-6.4 2.8-8.7.6l-1.2-1.2c-4.1 2.8-9.7 3.4-14.5 1.8.4 4.3.6 8.7.6 13.1 1.7 2.6 5.4 4.2 8.2 2.4l2.1-1.4 1.1 2.3c1.9 4.1.7 8.9-.2 13.2 1.7.8 2.9 2.1 4.6 3 .6.3 1.2.5 1.8.6l3.7.4-2.2 3c-.4.5-.8.9-1.2 1.3l.2.2 1.4 1.3-1 1.6c-.6.9-1.4 1.4-2.2 1.8.3.2.5.5.7.8l.9 1.2-.8 1.2c-.3.5-.7.9-1.2 1.2-1.1.7-2.3.9-3.6 1-.6 0-1.6 0-2.4.1.6 3.3.1 6.9.3 10.1v.7l-.4.6c-.1.2-.3.4-.5.6.6 2.9-.6 6.8-3.7 7.6l-1.5.4-.9-1.2c-.3-.4-.5-.8-.6-1.2-1.7 0-3-.7-4.3-1.9-.3-.3-.6-.6-.9-.8l-.3-.2-.2-.2-.1-.1c-.2-.2-.4-.4-.7-.5-1.2 2.1-2.4 3.9-4.7 5l-.5.2c-.6 1.3-1.6 2.4-2.9 3.2l-2.3 1.5-.9-2.6c-.5-1.3-.9-2.2-1.2-3.1l-.3.9-.8-.9v.3l-.1 2.3-2.3-.2c-2.7-.3-4-2-4.6-4.1l-2.2 3.6-.1-1.8-1.6.8-1-1.5c-.9-1.4-1.9-3.4-1.8-5.3h-.1l.1-2.5c.1-5.5 3.7-7.7 8.4-9.2l.6-.2.6.2c.2.1.4.1.6.1l3.5.6-.2.3c1.8.3 3.7.1 5.3-.9l-.2-.4h.1v-.1l1.6-.8c3-3 2.8-9.2 2.2-13.2-1.1-6.8-5.8-8.7-11.2-11.8-4.1-2.4-8.1-5-11.6-8.3l-.1-.1-.1-.2s-.1-.1-.1-.2c-.7-.8-1.3-1.6-1.9-2.5-2.3-3.5-3.5-7.3-4.2-11.4-3.5-.1-8.1.3-10.6 2.8-1.7 1.7-2.2 4.1-2.2 6.4.8.3 1.5.5 2.6.3l2.3-.4.2 2.3c.5 5.4-1.9 7.8-6.2 10.3-.6.3-1.1.7-1.7 1 1.1 1.7 1.7 3.5 2.6 5.3l1.1 2.2-2.3.8c-.7.3-1.5.4-2.2.4l.4 1.9-1.9.6c-1 .3-1.9.3-2.8.1.1.6.1 1.2 0 1.8l-.3 1.8h-1.8c-3.9.1-5.6-1.6-7.4-4.4-.8.5-1.6 1.1-2.3 1.8-.8.7-1.6 1.5-2.5 2.2.4 2.3.9 3.8.6 6.5l-.2 1.6-1.5.2c.1 2.7-1.4 5.3-3.9 6.4l-2.4 1-.5-2.6c0-.2-.1-.4-.2-.7l-.1.4-2.6-2.1c-.9-.7-2-1.3-2.9-1.9-1.3 2.3-3.3 3.8-6 4.5l-1 .3c-.5.5-1 .9-1.5 1.2 2.8 1.6 5.3 3.8 7 6.5.1.1.2.3.3.4.8.2 1.6.6 2.3 1.1 2.1 1.6 3.8 3.4 4.8 5.8 5.7 12.4-2.7 23.1-14.1 27.7-12.9 5.2-27.4 3.6-39.1-3.9-.2.7-.4 1.3-.7 2-1.4 3.2-3.9 6.1-7 7.9-.2 2.8-1.2 5.4-2.9 7.7-4.3 5.8-12.7 7.2-19.3 5.2-7.4-2.2-12.1-9-13.9-16.4-1.8 7.4-6.5 14.2-13.9 16.4-6.6 2-15 .6-19.3-5.2-1.7-2.2-2.7-4.9-2.9-7.7-3.1-1.7-5.6-4.6-7-7.9-.3-.6-.5-1.3-.7-2-11.6 7.5-26.1 9.1-39.1 3.9-11.4-4.6-19.7-15.2-14.1-27.7 1.1-2.4 2.8-4.2 4.8-5.8.7-.5 1.5-.9 2.3-1.1.1-.1.2-.3.3-.4 1.6-2.4 3.8-4.5 6.2-6-.7-.3-1.3-.8-1.9-1.4l-1-.3c-2.6-.7-4.7-2.2-6-4.5-1 .7-2 1.2-2.9 1.9l-2.6 2.1-.1-.4c-.1.2-.2.4-.2.7l-.5 2.6-2.4-1c-2.5-1.1-4-3.7-3.9-6.4l-1.5-.2-.2-1.6c-.4-2.7.2-4.2.6-6.5-.9-.7-1.6-1.5-2.5-2.2-.7-.7-1.5-1.3-2.3-1.8-1.8 2.8-3.6 4.5-7.4 4.4h-1.8l-.3-1.8c-.1-.6-.1-1.2 0-1.8-.9.2-1.8.2-2.8-.1l-1.9-.6.4-1.9c-.7 0-1.5-.1-2.2-.4l-2.3-.8 1.1-2.2c.9-1.8 1.5-3.6 2.6-5.3-.5-.4-1.1-.7-1.7-1-4.3-2.5-6.7-5-6.2-10.3l.2-2.3 2.3.4c1 .2 1.7 0 2.6-.3 0-2.3-.5-4.7-2.2-6.4-2.5-2.5-7.1-2.9-10.6-2.8-.7 4.1-1.9 7.9-4.2 11.4-.6.9-1.2 1.7-1.9 2.5 0 0-.1.1-.1.2l-.1.2-.1.1c-3.4 3.3-7.5 5.9-11.6 8.3-5.4 3.1-10.1 4.9-11.2 11.8-.6 3.9-.8 10.1 2.2 13.2l1.6.8v.1h.1l-.2.4c1.6 1 3.4 1.2 5.3.9l-.2-.3 3.5-.6c.2 0 .4-.1.6-.1l.6-.2.6.2c4.7 1.5 8.3 3.7 8.4 9.2l.1 2.5h-.1c0 1.9-.9 3.9-1.8 5.3l-1 1.5-1.6-.8-.1 1.8-2.2-3.6c-.7 2.1-1.9 3.8-4.6 4.1l-2.3.2-.1-2.3v-.3l-.8.9-.3-.9c-.3.9-.8 1.9-1.2 3.1l-.9 2.6-2.3-1.5c-1.2-.8-2.2-1.9-2.9-3.2l-.5-.2c-2.3-1.1-3.5-2.9-4.7-5-.3.1-.5.3-.7.5 0 0 0 .1-.1.1l-.2.2-.3.2c-.3.2-.6.6-.9.8-1.3 1.3-2.5 1.9-4.3 1.9l-.6 1.2-.9 1.2-1.5-.4c-3.1-.8-4.3-4.7-3.7-7.6-.2-.2-.4-.4-.5-.6l-.4-.6v-.7c.1-3.3-.4-6.9.3-10.1-.8-.1-1.8-.1-2.4-.1-1.9-.1-3.7-.6-4.8-2.3l-.8-1.2.9-1.2c.2-.3.5-.6.7-.8-.9-.3-1.6-.9-2.2-1.8l-1-1.6 1.4-1.3.2-.2c-.5-.3-.9-.8-1.2-1.3l-2.2-3 3.7-.4c.7-.1 1.3-.3 1.8-.6 1.7-.9 2.8-2.2 4.6-3-.9-4.3-2.1-9.1-.2-13.2l1.1-2.3 2.1 1.4c2.8 1.8 6.5.3 8.2-2.4 0-4.4.2-8.7.6-13.1-4.9 1.5-10.4 1-14.5-1.8l-1.2 1.2c-2.3 2.2-6.6 1.6-8.7-.6L7 205l-.2-.3c-.1-.2-.1-.3-.2-.5l-.1-.2v-.3c-.2-1.4-.2-2.6.3-3.7-1.4-.1-2.7-.4-3.9-.8l-.5-.2-.4-.4c-4.4-5.2-.7-13.2 6.2-13l2.9.1c.8-2.4 1.9-4.8 3.6-7 5.5-7.2 14.2-11 19.5-18.2l.3-.4.2-.2c.8-.9 1.7-2.2 1.9-3.4v-.2c-.7 1-1.7 1.7-3.2 1.7-.7 0-1.4-.1-2-.4-.1-.1-.6-.3-.7-.3l-2.1.2-.3-2c-.3-1.7-.3-3.6.4-5.2-1-.2-1.9-.6-2.6-1.3-1.9-1.8-1.7-4.6-1-7l-.9-.1-.5-.7c-1.9-2.5-2.2-5.8-1.9-8.8l.3-2.7.4.1c-.9-1.2-1.6-2.5-2.1-3.9-1.9-5.3.2-10.5 3.3-14.8l3.8-5.3c-1.1-8.1-3.4-19.6.1-27.4-.2 0-.5-.1-.7-.2l-2.9-1 1.9-2.4c6.5-8.2 7.6-20.3 16.1-27.2l-1-1.9 2.7-.7c3.3-.8 6.3-2.6 9.5-3.7.7-2.5 1.1-5.2 3.9-6.3l.4-.2h.4c3.6 0 4.4 2.5 5.2 3.8l.7-1.8 2.4 3.3c2.9 3.9 13.3 1.7 16.8 8.2 4.5 1.3 9.3 2.4 10.3 7.8l.5 2.7h-1.1c-.1 1.5-.6 2.8-1.4 4.3-.3.6-.7 1.2-.8 1.9l-.3 1.3c.3.1.7.2 1 .3.6.2 1.3.3 1.9.4 1.8.2 5.3.6 6.9-.5.8-.6 1.1-1.5 1.3-2.4l.1-.3.2-.3c.4-.8.5-1.7.2-2.6l-.1-.4v-.7l.3-1.5 1.5-.3c.7-.1 1.5 0 2.2.3 2.7 1.3 3.5 6.3 2.9 8.9-.1.6-.4 1.3-.7 1.9l-.1.2-.1.2c-1.4 1.8-3.2 3.2-5.4 4-.1 0-.2.1-.3.1l-.2.1h-.2c-4 1-9.2.5-13.4-.5-.2 1.4-.8 2.8-.1 4.1l1.8 3.7-4-.6c-.3.2-.7.8-1.1 1-.3.2-.6.3-.9.4 1.3.1 2.6.2 3.8.3 3.7.3 8 .8 11.3 2.6 1.3.7 2.6 1.7 3.6 2.8 1.3 1.4 1.9 3.1 2.3 4.9 1-1 2.2-1.8 3.5-2.5 1.3-.7 2.9-1.5 3.9-2.5.1-.1.3-.3.4-.5l1.1-1.4 1.2.6c.8-2 .9-4.3.8-6.5v-1l.7-.7c4.3-4.3 9.2-7.9 13.9-11.7l1.4-1.1 1.4 1.1c.6.5 1.2.9 1.9 1.2 1.1-1 2.4-1.6 3.8-1.4.9.1 1.7.4 2.4.8.4-.2.8-.4 1.3-.4h.5l.6-1.4 2 .9c3.7 1.7 6.4 4.4 8.2 8l.4.4c1.8 1.7 1.4 4.4 1.4 6.7v.2c.4-.1.9-.2 1.3-.3 2.1-.5 4.1-1 6.2-1.5-1-.7-1.8-1.7-2.2-2.8-1.5-3.8 1.5-7.3 5.1-8.2.2 0 .4 0 .6-.1zm-18 210.7c5.3-1.4 10.3-4.2 15.7-5.6 5.4-1.4 11.6-3.1 17.2-3.1 2.6 0 5.1.6 7.5 1.4l2.2.8.3-.7-.3-.2c-7.2-4.1-19.7-2.2-27.4.1-4.9 1.4-9.3 3.9-14.1 5.5 2.7-5.6.9-13.3-4.2-16.8-7.6-5.3-18.3-1.7-23.1 5.7-.3.4-.5.8-.7 1.2-.8.1-1.7.4-2.3.9-1.8 1.3-3.2 2.9-4.2 4.9-5.1 11.3 2.6 20.6 12.9 24.7 13.5 5.4 28.5 3.1 39.9-5.7 0 1.7.4 3.4 1.1 4.9 1.4 3.2 4 6 7.2 7.4-.1 2.8.8 5.5 2.4 7.7 3.7 5 11.2 6.1 16.9 4.4 9.6-2.9 14.2-14.6 12.9-23.9-1.8-13.2-15.1-20.8-27.4-21.4-10.8-.5-21 5-27.5 13.4-.7.8 0 1.4.8.6l.2-.2c12.2-15.8 40.7-16.7 50.4 2.3 5.1 10 1.4 24.9-10.4 27.9-6.9 1.7-15.9-2.9-16.7-10.3 1.4.4 2.9.5 4.4.3 4.1-.7 7.6-3.4 9-7.3 1.5-4.3.2-9.4-4.2-11.4-4.3-1.9-8.7.1-10.3 4.5-.3.9.5 1.3.9.3 1.7-4.7 8-5.3 11.1-1.6 3.9 4.6 1.4 11.5-4 13.4-2.2.8-4.6.8-6.8.1.2-1.9.9-3.7 2-5.3.5-.8-.1-1.3-.9-.5l-.3.3c-1 1.5-1.8 3.2-2.2 4.9-4.3-2-7.2-6.8-7.3-11.6 2.7-2.2 5-4.7 7.1-7.5.1-.2.1-.4 0-.6-.3-.3-.6-.1-.8.1l-.3.3-.5.5c-1.6 2.1-3.4 4.1-5.4 5.8.2-1.4.6-2.7 1.2-4 4.4-8.4 15-11 23-6.1 7.9 4.8 11.6 14.1 8.9 23-.3.9.7 1 1-.1 1.1-3.6 1.4-7.5.4-11.2-2.6-10.3-13.7-18.7-24.4-14.9-3.1 1.1-5.7 3.5-7.9 5.9-2.2 2.4-4.9 4.1-7.6 5.9-4.2 2.8-8.9 4.9-13.9 6-5.4 1.2-11.2 1.1-16.5-.8-3.5-1.2-7.3-3.5-9.4-6.6-3.5-5.2-4.4-12.2-1.7-18 .6 0 1.2.2 1.8.6 1.6.9 2.3 1.7 1.5 3.5l-.6 1.3 1.2-.8c.6-.4.8-.4 1.1-1.1 1.6-3.2-1.3-5-4.1-5.3.5-.8 1-1.5 1.6-2.2 5-5.9 14.8-8.2 20.9-2.7 4.1 3.7 5 10.7 2.1 15.3-2.6.7-5.2.9-7.7 0-1.6-.6-4.2-2.8-3.4-4.7.1-.2.2-.4.4-.5.8-.7 1.7-.6 2.3.3l1.3 1.8-.5-2.2c-.1-.4-.8-.9-1.1-1.1-.9-.5-1.8-.2-2.6.4-.3.2-.5.5-.7.8-1.2 2.5 1.6 5.4 3.8 6.2 2.2.9 4.5 1 6.9.6-1.1 1.1-2.4 1.9-3.9 2.4-3.7 1.1-8.2-.8-9.7-4.4-1.5-3.6 1.7-8.2 5.6-8h.4v-.9h-.4c-4.8-.3-8.5 5.3-6.4 9.6 2 4.1 7.3 6 11.5 4.3 2.1-.2 3.7-1.3 4.8-2.9zm-27.9-9.9c-1.6.6-3 2-3.8 3.4-1.7 3.1-1.9 6.9-1.2 10.3 1.3 6.8 7.8 10.6 13.7 13.2 12.7 5.6 27.9 3.2 38.6-5.3.2-1.6.6-3.2 1.3-4.7-1.3 1.3-2.8 2.2-4.3 3.2-4 2.8-8.4 5.1-13 6.5-5.3 1.7-11.1 2.1-16.5.7-3.9-1-7.8-3.1-10.6-6.1-5.3-5.5-7.2-14.1-4.2-21.2zm150.8 9.9c1.2 1.6 2.7 2.8 4.6 3.5 4.2 1.7 9.5-.2 11.5-4.3 2.1-4.3-1.6-9.9-6.4-9.6h-.4v.9h.4c4-.2 7.1 4.3 5.6 8-1.5 3.6-6 5.5-9.7 4.4-1.5-.5-2.8-1.3-3.9-2.4 2.3.4 4.6.3 6.9-.6 2.2-.8 5-3.7 3.8-6.2-.2-.3-.4-.6-.7-.8-.8-.6-1.7-.9-2.6-.4-.3.2-1 .7-1.1 1.1l-.5 2.2 1.3-1.8c.6-.8 1.5-1 2.3-.3.2.2.3.3.4.5.8 1.9-1.7 4.1-3.4 4.7-2.6.9-5.2.7-7.7 0-2.9-4.7-2-11.7 2.1-15.3 6.1-5.5 16-3.3 20.9 2.7.6.7 1.1 1.4 1.6 2.2-2.8.3-5.7 2.1-4.1 5.3.4.7.5.7 1.1 1.1l1.2.8-.6-1.3c-.8-1.9-.1-2.6 1.5-3.5.6-.3 1.2-.5 1.8-.6 2.7 5.7 1.8 12.8-1.7 18-2.1 3.1-5.9 5.4-9.4 6.6-5.3 1.9-11 2-16.5.8-5-1.1-9.6-3.2-13.9-6-2.7-1.8-5.4-3.5-7.6-5.9-2.2-2.4-4.8-4.7-7.9-5.9-10.7-3.9-21.8 4.6-24.4 14.9-1 3.7-.6 7.6.4 11.2.3 1.1 1.3.9 1 .1-2.6-8.8 1.1-18.2 8.9-23 8-4.9 18.6-2.3 23 6.1.7 1.3 1.1 2.6 1.2 4-2-1.7-3.8-3.7-5.4-5.8-.1-.2-.3-.3-.5-.5l-.3-.3c-.2-.2-.5-.4-.8-.1-.1.2-.1.4 0 .6 2.1 2.8 4.5 5.3 7.1 7.5 0 4.8-2.9 9.5-7.3 11.6-.4-1.8-1.1-3.4-2.2-4.9l-.3-.3c-.7-.8-1.4-.3-.9.5 1.1 1.6 1.9 3.4 2 5.3-2.2.7-4.6.7-6.8-.1-5.5-1.9-7.9-8.8-4-13.4 3.1-3.7 9.4-3.2 11.1 1.6.3.9 1.2.6.9-.3-1.6-4.4-6-6.4-10.3-4.5-4.4 2-5.7 7.1-4.2 11.4 1.4 4 4.9 6.7 9 7.3 1.5.2 2.9.1 4.4-.3-.8 7.4-9.8 12-16.7 10.3-11.8-2.9-15.6-17.9-10.4-27.9 9.7-19 38.2-18.1 50.4-2.3l.2.2c.8.8 1.4.3.8-.6-6.6-8.4-16.7-13.9-27.5-13.4-12.3.6-25.6 8.2-27.4 21.4-1.3 9.3 3.3 21 12.9 23.9 5.7 1.7 13.2.6 16.9-4.4 1.7-2.3 2.6-4.9 2.4-7.7 3.2-1.4 5.8-4.2 7.2-7.4.7-1.6 1-3.2 1.1-4.9 11.4 8.8 26.4 11.1 39.9 5.7 10.3-4.1 18-13.5 12.9-24.7-.9-2-2.4-3.6-4.2-4.9-.7-.5-1.5-.8-2.3-.9-.2-.4-.5-.8-.7-1.2-4.8-7.3-15.5-11-23.1-5.7-5.1 3.6-6.9 11.3-4.2 16.8-4.7-1.6-9.2-4.1-14.1-5.5-7.7-2.3-20.2-4.2-27.4-.1l-.3.2.3.7 2.2-.8c2.4-.8 4.9-1.4 7.5-1.4 5.6 0 11.8 1.6 17.2 3.1 5.7.8 10.6 3.6 15.9 5zm28-9.9c3 7.1 1.1 15.7-4.1 21.3-2.8 3-6.7 5-10.6 6.1-5.4 1.4-11.2 1-16.5-.7-4.7-1.4-9-3.8-13-6.5-1.5-1-3-2-4.3-3.2.7 1.5 1.1 3.1 1.3 4.7 10.8 8.5 26 10.8 38.6 5.3 5.8-2.6 12.3-6.4 13.7-13.2.7-3.4.6-7.2-1.2-10.3-.9-1.5-2.3-2.9-3.9-3.5zm-166.3-20.6c-.7-2.4 2.3-1.1 3.6-1.4-2-12.5-14.4-5.7-23.9-10.9 1-.4 3.4.7 3.6-.5-4.8-3.4-13.9-12.8-14.5-16.2-.1-.8-.1-1.5 0-2.3-.5-3.9 1-8 5.8-12.2 1.6-19-11-23.8-26.8-25.4-4.7 4.4-8.7 9.6-11.6 15.9 5.5.5 9.2 2.9 12.3 5.8-4.2-1.6-6.7-4.9-13-4.3-1.1 1.8-.2 5.6-1.4 7.2 10.5-.6 17.4 2.4 16.7 13-1.7.2-2.7 1.1-5.1.7-.7 7.2 5.6 7.4 8.7 10.9-1.7 1.7-2.5 4.3-3.6 6.5 4.2 1.5 5.1-4.1 6.5-2.9-.6 2.3-2.4 3.4-2.9 5.8 3.2 1 4.5-3.6 5.8-2.2.5 2.9-1.9 2.9-1.4 5.8 4 .1 5.1-2.6 6.5-5.1 3.8 1.4 5.8 4.5 8 5.8-.2 2.5-1.2 4.2-.7 7.2 2.3.3 1.9-2 3.6-2.2 1.4 1.7 3.6 2.6 4.3 5.1 1.9-1.5 4.6-2.1 5.1-5.1.4 3.9 2.4 6.3 5.8 7.2-1.4-3.6.2-5.3 2.2-7.2 2.4.7 3.6 2.7 5.1 4.3.5-3.7-.8-5.5-2.2-7.2 1.6.9 2.1 2.8 3.5 3.9zM84.7 66c-3-5.9-17.3-11.2-13.8 1.4-.2 3.8 3.2 4.1 5.8 5.1.1-2.3.5-4.3 2.9-4.3 4.8 2.2 15.1 5.1 21.5 3.4.1-.1.3-.1.4-.2 1.8-.9 3.4-2 4.4-3.3.2-.4.4-.9.5-1.4.5-2.4-.5-6.9-2.6-6.6v.1c.5 1.6.3 3-.4 4.2-.9 5.1-5.3 5.5-10.6 4.6-.8-.1-1.5-.2-2.2-.4-7.2-1.5-15.6-4.5-19.6-1.2C73.3 63 80 65 84.7 66zm55.8 178.2c-1.3-1.3-2.8-6.3-5.8-3.6 2.3.8 2 4.3 3.6 5.8-.2-1.7 2.1-.9 2.2-2.2zm-13.8 4.3c-3 2.2-1.9 7.8 2.2 8.7.7-1.9.9-4.4.7-7.2-1.9.5-1.4-1.5-2.9-1.5zm7.3-.7c-.3 2.7.6 4.3 2.9 4.3.1-1.8.1-3.5-.7-4.3H134zm6.5-170.2c-.4 3.1 2 3.4 3.6 4.3.4-2.6-.8-3.5-1.4-5.1-1 0-1.6.4-2.2.8zM118 97.1c-1 2.1-3.3 2.9-4.3 5.1 2.5 2.8 3.3 7.3 5.8 10.1.1-1.1-.3-2.7.7-2.9 1.1 1.4 4.9 3.7 6.5 2.2-1.7-2-5.4-5.7-3.6-8.7.8 3.1 5.2 6.4 8 5.1-1.5-1.7-4.4-5.7-3.6-7.2 1.5.5 3.5 4.2 5.1 2.2-1.9-3.9-3.8-8.8-1.4-13-3.6-1.9-7.1 5-9.4 4.3 1.2-2.9 5.3-2.9 6.5-5.8-2.4-1.2-3.7-3.5-3.6-7.2.5-.8 2.4-3.8 2.9-2.2-3.3 1.2-2 8.2 1.4 8.7 1.7.3-.4-3.3 2.2-2.2-1.7 1.9-.1 4.9 2.9 4.3 0-3.6-3.9-3.4-2.9-8 1.1-.1 2.7.3 2.9-.7-1.1-.6-2.3-1.1-2.2-2.9 1.4 1.7 5.5 4.6 8.7 2.2-2.3-.2-1-5.2 2.2-4.3-2-4.3-7.4-5.2-10.9-8-4.6 3.8-9.5 7.4-13.8 11.6.3 6.6-1.8 10.7-5.8 13 .3-1.4 3.5-3.6 2.2-4.3-2.2 2.8-6.6 3.5-8.7 6.5 6.5 4.4 8.2 6.5 12.2 2.1zm28.3-21c-1.8 1.8.7 3.5 1.4 5.1 3.2-.2 1.1-5.9-1.4-5.1zm.7-2.2c-4-.4-6.9-8.6-10.9-4.3 4 1.8 7.3 4.3 8.7 8.7-1-3.2 2.5-1.9 2.2-4.4zm-18.1 29c.4 2 1.4 3.4 2.9 4.3.7-3.1-1.6-3.2-2.9-4.3zm23.2-27.5c-1.5-3.3-3.9-5.7-7.2-7.2-.4 1-2.8.1-2.9 1.4 3 2.1 6.1 4 8 7.2-.2-1.3.6-1.7 2.1-1.4zm.7.7h-2.2c-1.5 2.7 1.2 3.6 2.9 5.1 0-1.9.3-4.2-.7-5.1zm-125.3 0c3 1 4.1-3.5 5.8-1.4-8.6 5.5-4.8 22.8-3.7 31.4.4.4.7.8 1.1 1.3.1-3 .4-6.1 1.1-9.5 1.6 9.7-1.7 17.7.7 27.5 5.5-.8 4.1-8.4 7.2-11.6-2 8.5.1 16.6 2.2 23.2 5.5-1.2 4-9.6 6.5-13.8-.8 6.8 2 15.1 2.9 22.5 4.9-2.1 7.1-6.9 7.2-13.8 4.9 3 6 9.9 8 15.9 9.9-2.2 7.2-17 10.9-25.4-2.5-3.1-5.3-5.8-6.5-10.1 4 8.3 12.5 12.1 18.8 18.1 6.9-4.3.9-14.2-.7-17.4 4.8 3.4 7.9 15.7 0 18.1-3.7-2.5-5.7-6.8-10.9-8-.6 1.8-1.7 3.1-1.4 5.8 2.4 2.7 5.9 4.3 7.2 8-.2 1.7-3.4.4-2.9 2.9 1.4 3.2 5.9 3.3 6.5 7.2-.7.3-3.8 1.6-.7 1.4.1 3.1 2.3-1 5.1-1.4-.6 1.8-4.6 4-2.9 5.8 2.1-.8 5.5-4.1 6.5-3.6-.7 3.8-9.5 3.5-7.2 8 6.4-.6 12.4-1.6 13.8-7.2 7 1.7 13.9 3.5 18.8 7.2 1.4-2.7 0-7.9.7-9.4.2 11.4-1.4 22.7 7.2 28.3-.8-3.7 2-3.8 3.6-5.1-3-.9-7.1-.7-8-3.6.4-1.3-.9-4.3.7-4.3-.3 3.4.1 6.2 3.6 5.8 2.2-4.7-7.2-7-4.3-12.3.4 4.4 3.4 10.1 8 8-1.7-.2-3.4-.5-2.9-2.9l.9-.6c-.7 1.7 1.1 3.2 3.5 2.8 0-2.1-1.2-3-2.7-3.5 3.3-4.3-2.2-12.7 2-16-2.7.5-3.2-1.1-2.9-3.6-1.2.3-2.3.4-3.5.5 0 .1-.1.2-.1.3-1 .1-1.8-.1-2.4-.4-9.9-1.3-18.8-10.9-22.2-17 4.8 5.1 9 10.8 15.9 13.8 5-9.8-8-12.2-10.9-18.8 4.6 5.3 16.6 9.3 11.6 19.6 2.9-.3 3.7 1.6 5.5 2.5.8.1 1.7.2 2.6.1.2-.4.6-.6 1.3-.5 7.9-19.7-15.2-20.4-20.3-31.9 3.4 4.1 8.5 7 12.9 10.2v-.3c-3.5-6.1-4.1-12.1-7.9-17.2-5.5-7.3-16.1-6.3-21.7-13.8 3.1 2.7 6.7 4.9 11.6 5.8-.3-1.8-.9-3.2-1.8-4.4-.9-.9-2-1.7-3.1-2.3-5.8-2.8-15.4-1.5-21-4.1-.5-.2-1.6-.9-1.5-.9-1.7-1.2-2.8-3-3-5.7C62.1 76 59.4 65.7 60.8 58c-8.7 2.9-10.3-7.6-16.7-9.4-8.6 6.1-10.1 19.3-16.6 27.5zm72.4 67.4c5 3.2 13.1 7.2 18.1 8-5.7-3.1-11.6-5.8-18.1-8zM66.6 92.8c8.1 3 13.9 12.2 22.5 12.3-8.9-2.3-14.6-11.5-22.5-12.3zM55.7 68.1c1.1 9.3 7.8 13 15.9 15.2 3.4.4 1.8-1.3-.7-.7-7.7-2.1-12.4-7.3-15.2-14.5zM47 92.8c4.8 3.6 11 9.8 15.9 10.9-5.1-3.3-11.3-9.4-15.9-10.9zm.8-9.4c-11.7-2.5-5.8-18.8-3.6-22.5-8 6.2-6.2 22.3 3.6 22.5zm12.3 181.1c-.1-4.6-3.3-6-6.9-7.1-.3.1-.6.2-.9.2 1.9 2.5 3.4 5.4 4.8 8.4.3-1.4 1.3-1.7 3-1.5zm13.8-87.7c.1.8-1.1 1.1 0 1.4 9.5-11 31.8-9.2 36.2-25.4-2.3-.3-3.9-1.4-6.5-1.4-2.3 7.6-7.7 12.1-13.8 15.9 3.2-3.9 10.1-7.8 10.1-12.3-1.6 3.3-11.6 1.9-13 2.9-1-3 1.7-5.9 0-7.2-.6.7-3.7 2.4-4.3.7.2-1.5 2.7-.7 2.9-2.2-1.3-.1-2.4-.5-2.9-1.4 1.6-.6 3.9-.4 4.3-2.2-3.3-1.6-6.1-3.5-7.2-7.2.3-1.6 4 .1 3.6-2.2-2.3-2.1-3.8-4.9-7.2-5.8.2 9.4-2.5 15.9-9.4 18.1-3.4 6.5-10.8 12.9-15.2 15.9 7.7-6.9 21.1-18.9 8-30.4-1.1 3.7 1.8 10.5.7 15.9-1 5-6.6 9.6-11.8 14.5-1.5 1.5-3 3-4.5 4.6-.1.1-.3.3-.4.5-7.1 8.3-6.7 17.1-9.4 24.6-2.9 8-17.8 6.8-15.2-6.5 2.3-11.7 22.9-17 25.4-29 2.6-24.3-18.6-24.9-18.8-46.4-14 19.6 16.8 23.6 17.4 37.7-3.1-8.5-11.8-15.2-18.8-17.4-.3 3.2.2 5.6 1.4 7.2 7.4 1.1 16.6 4.1 15.2 11.6-2.9-.2-2.9-3.4-6.5-2.9-2.6.8-4.3 2.4-3.6 6.5 1.4-.2 1.6.8 2.9.7 2.6 0 1.5-3.8 2.9-5.1.5 1.5 3.4.5 3.6 2.2-.3 1.4-.7 2.6-1.1 3.8-.2 1.6-1.2 3.1-2.5 4.5 0 .1-.1.1-.2.2 0 0 0 .1-.1.1 0 .1-.1.2-.2.2-8.3 11.1-25.2 14.9-23.6 33.2-.5.5-.8.6-1.1.5-1.8.3-3.6-.4-4.1-2.4-.5-1.9.1-3.7 1-5.4-5.2-.2-7.6 5.7-4.5 9.4 1.9.8 4.4.9 7.2.7-.9 1.6-2.8 2.4-2.2 5.5.1.2.1.3.2.5 1.1 1.2 4.1 2 5.6.5-1.3-1.9-3.7-5.3 0-6.5 2.6 6.8 11.4 9.5 18.8 5.8 1.8-11.8 4.2-22.9 10.9-29.7-7.6 11.5-10.9 27.2-10.9 46.4-2 3.7-7.2 6.4-11.6 3.6-1.9 4 0 9.9.7 13.8-3.6.7-4.8 3.9-8.7 4.3 1.9 2.6 5.6.9 8 0-.9 3-5.2 2.5-7.2 4.3 1.5 2.3 6 .5 7.2 1.4-1.3 1.8-4.5 1.8-5.8 3.6 1.3 2.1 6.1.6 8 2.2-1.2 2.9-.6 7.6-.7 11.6.8 1.2 2.2-1.8 4.3 0 1 .9.7 3.1.7 5.1 2.4.1 2.9-1.6 4.3-2.4l.1-.1c.9-.8 2-1.4 3.2-1.3.1 0 .2.1.3.2h.1c1.2 2 2.2 4.1 4.3 5.1-.5-3.2 1.3-4 2.9-5.1.7.4 3.2 3.8 2.9.7.9-3.6-4.7-4.4-3.6-5.8 3.7.9 4.6 4.6 5.8 8 1-1.1 4.1-7.3 7.2-2.2.1-4.7-2.8-6.4-4.3-9.4-4.9 1.4-8.5.4-10.8-2.1h.1c-.1 0-.1-.1-.2-.2h-.1c-2.9-3.4-3.8-9.2-2.8-15.1 1.2-7.9 6.4-10.4 12.2-13.3 3.8-2.5 7.9-4.9 11.1-8 .1-.1.2-.3.3-.4.6-.7 1.1-1.4 1.7-2.2 8.8-12.8.4-29.5 11.1-39.5zm-13.1 29c-1.6 3.3-3.2 10.3-3.6 12.3 2.8-2 4.1-9.4 3.6-12.3zm80.7 40.8c-.1-.4-.2-.8-.4-1.2-1.1.2-2 .8-2.8 1.6 1.5.2 1.4 2 2.9 2.2-.7-1.4-.4-2.2.3-2.6zm-11.1-79.9c-.6 3 1.1 3.7 3.6 3.6-.3-2.1-1.6-3.3-3.6-3.6zM44.2 47.1c.9 1.7 3.5 1.8 5.8 2.1 1.1.1 2.1.3 2.9.8-1.3.4-3 .4-3.6 1.4 1 2.6 6.9.4 8.7 2.2-.6 1.6-4.6-.3-5.1 1.4 2.4 3 7.1 3.4 10.9 1.4-6.9 12.2 5.5 23.1 19.6 18.8.8 2.7-1.8 2.1-1.4 4.3 2.7.8 2.1-1.8 4.3-1.4-1.1-2.3-.3-3.2 0-5.8-13.1 6.1-23.4-8.7-12.4-14.3 5.4 1.6 8.5 5.5 14.5 6.5.5-2.6 2.6-3.7 2.2-7.2-3.7-.9-6.1-3.1-8.7-5.1 4.5.1 5 4.2 9.4 4.3-.9-4.7-5.9-5.2-10.1-6.5-1.9 1.2-2.1 4.1-5.1 4.3-2.9.2-4.4-.9-5.8-2.2 2.8.1 7 3.5 8-.7.9-.2.4-.8 0-1.4-10.3 4.1-19.5.7-23.3-7.2.7-2.2.9-4.9 2.9-5.8 3.1 0 2.9 3.4 5.1 4.3-.4 3-5.6 2.4-8 1.4-3.9 1.3-6.8 3.5-10.8 4.4zm23.1 16c-.5-3.4 4-5.6 2.9-7.2-1.1 1.7-4.9 4.6-2.9 7.2zm13.8-13.8c-2.8-5.4-13.2-3.2-16.7-8-1 2.6-4.3 2.9-6.5 4.3 3.9 7.5 16.1 4.1 23.2 3.7zM40.5 150.7c-1.2-6.2-6.5-8.4-13-9.4-4.3 12.1 9.5 3.6 13 9.4zm10.2 122.4c3.1-.3 3-3.7 3.6-6.5-1 0-1.6-.3-2.2-.7-1.7 1.2-1.5 4.2-1.4 7.2zm-26.1-7.2c-1.5 1.9-.6 6 1.4 6.5 1-1.4.7-4.1 1.4-5.8-.9-.2-1.3-1-2.8-.7zm84-16.7c-2.1 2.1-1.3 6.1 1.4 7.2.4-2 1.8-3 2.2-5.1-1.7-.1-1.3-2.4-3.6-2.1zM42 268.1c-1.4 2.8.1 5.9 2.2 7.2.6-1.8 1.7-3.1 1.4-5.8-1.4-.3-1.3-2-3.6-1.4zm16.6-2.9c-1.6 1.1-2.1 4.8 0 5.8.9-1.3 2.9-5.1 0-5.8zm71.8-92c-2 2.2 1.2 3.6 2.9 4.3-.2-2.3-.6-4.3-2.9-4.3zm-19.6-19.6c-4.2 7.4 1.1 17.7 8 15.9-3.3-3.3-1.9-9.4 0-13-3.3-.3-4.3-2.9-8-2.9zm-32.9-81c2.1-.1 4.7.4 5.8-.7.1-3.2-7.3-4.6-5.8.7zm-8.4 121.6c2-8.9 11.8-13.8 15.2-18.8-12-1.2-16.3 9.2-15.2 18.8zm63-50.7c.1-1.9 2.8-1 2.9-2.9h-4.3c-.2 1.6.2 2.7 1.4 2.9zm-41.3 83.3c-2.5-.9-4.1-2.6-5.1-5.1 2.8-.9.6-10.9.7-2.9-.8 1.1-2.1 1.8-2.2 3.6 1.4 1.9 4.8 5.5 6.6 4.4zm10.9-28.3c1.2 3.6.9-1.6 0-5.1-.5-2-8.6-6.3-6.5-4.3 4.8 2.2 5.3 5.8 6.5 9.4zM273.4 40.8s-7.9-2.5-.9-4.7c0 0-2.6-3-6.9 0-2.6 1.9 1.1 6.2 3.8 6.4 0 0-7.7 1.1-7.7 5.6 0 0-3.7.3-7.4-.1 1.6-2 3.2-3.9 4.8-5.8h-.1c.9.1 1.8-.3 2-1 .2-.7-.5-1.4-1.4-1.6-1-.2-1.9.3-2.1 1-.1.4.1.8.4 1.1-1.7 2.1-3.4 4.1-5.1 6.2-2.7-.5-5.2-1.5-6.3-3.5-3-5.4 6.5-7.7 3.5-1.7 0 0 4-.3 4.5-4.8s-6-2-5.9-2c0 0-1.8-1.5 2.6-4.4 4.5-2.8-3.8-6-3.3-11.2-2.2 6.1-11.8 2.5-5.9 13.7 0 0-8.1-2.8-9.7 1.1-1.6 3.9 1.2 5.3 1.1 5.3 0 0-.4-4.9 3.8-3.3 3.4 1.4-.5 8.4-9.1 7.8l.6-7.2c.6-.2 1-.6 1.1-1.1.1-.7-.7-1.4-1.7-1.4-1-.1-1.9.5-1.9 1.2 0 .6.4 1.1 1.1 1.3-.2 2.4-.4 4.7-.6 7.1-1.8-.3-3.8-.8-6-1.8-.1 0 7.3-3.2-.8-10.7 0 0 8.7 1.4 11.2-4 2.7-5.5-8.3-8.3-8.4-8.2 0 0 4.1 6.7-2.1 6.3-13.1-.8 8.1-16.1-8-23.9-16.2 7.8 5.1 23.2-8 23.9-6.2.5-2.2-6.2-2.1-6.3 0-.1-11.1 2.7-8.4 8.2 2.6 5.4 11.2 3.9 11.2 4-8.1 7.5-.7 10.7-.8 10.7-2.3 1-4.3 1.5-6.1 1.8-.2-2.4-.4-4.7-.6-7.1.7-.2 1.1-.7 1.1-1.3-.1-.7-.9-1.3-1.9-1.2-1 .1-1.8.7-1.7 1.4 0 .5.5.9 1.1 1.1l.6 7.2c-8.6.6-12.5-6.4-9.1-7.8 4.3-1.7 3.8 3.3 3.8 3.3s2.8-1.5 1.2-5.3c-1.7-3.9-9.8-1.1-9.7-1.1 5.9-11.2-3.7-7.6-5.9-13.7.5 5.2-7.8 8.4-3.3 11.2 4.4 2.8 2.6 4.4 2.7 4.4 0 0-6.4-2.5-5.9 2s4.5 4.8 4.5 4.8c-2.9-6 6.5-3.7 3.5 1.7-1.1 2.1-3.6 3-6.3 3.5-1.6-2.1-3.3-4.2-5.1-6.2.3-.3.5-.7.4-1.1-.2-.7-1.1-1.2-2.1-1-1 .2-1.6.9-1.4 1.6.2.7 1 1.1 2 1h-.1c1.6 1.9 3.3 3.9 4.8 5.8-3.7.4-7.4.1-7.4.1.1-4.5-7.6-5.7-7.7-5.6 2.7-.3 6.4-4.5 3.8-6.4-4.3-3-6.9 0-6.9 0 7 2.2-.9 4.7-.9 4.7-4.3-8.6-12.3-6.5-12.3-6.4 9.7 8.1 18.5 16.7 26.4 25.7 30.5-6.2 62.3-6.2 92.9 0 7.9-9 16.8-17.5 26.4-25.7.4 0-7.6-2.1-11.9 6.4zm-16.1 25.1c.4-1.3.7-2.5 1.1-3.8-30-6.1-61.2-6.1-91.2 0 .4 1.3.7 2.5 1.1 3.8 29.2-5.9 59.7-5.9 89 0zm1.7 4.7c-30.2-7.5-62.2-7.5-92.4 0-2.8.7-4.4 3.1-3.6 5.3.9 2.2 3.7 3.4 6.3 2.7 28.4-7 58.6-7 87 0 2.6.6 5.4-.5 6.3-2.7.8-2.2-.8-4.6-3.6-5.3zm-90.6 6.2c1.4-.3 2.2-1.5 1.8-2.7-.4-1.1-1.8-1.8-3.2-1.4-1.4.3-2.2 1.6-1.8 2.7.4 1.1 1.8 1.7 3.2 1.4zm8.7-2c1.4-.3 2.3-1.4 2-2.6-.3-1.2-1.7-1.9-3.1-1.6-1.4.3-2.3 1.5-2 2.6.4 1.2 1.8 1.9 3.1 1.6zm8.9-1.5c1.4-.2 2.4-1.3 2.2-2.5-.2-1.2-1.6-2-3-1.8-1.5.2-2.4 1.4-2.2 2.5.2 1.3 1.6 2 3 1.8zm8.9-1.1c1.4-.1 2.5-1.2 2.3-2.4-.1-1.2-1.4-2-2.9-1.9-1.5.1-2.5 1.2-2.3 2.4.2 1.2 1.5 2.1 2.9 1.9zm8.9-.6c1.4-.1 2.5-1.1 2.5-2.2 0-1.2-1.3-2.1-2.8-2-1.5.1-2.6 1.1-2.5 2.3.2 1.1 1.4 1.9 2.8 1.9zm9-.2c1.4 0 2.6-.9 2.6-2.1 0-1.2-1.2-2.2-2.6-2.2-1.5 0-2.6 1-2.6 2.2 0 1.1 1.2 2.1 2.6 2.1zm8.9.2c1.4.1 2.6-.8 2.7-2 .1-1.2-1-2.2-2.5-2.3-1.5-.1-2.7.9-2.8 2 .1 1.2 1.2 2.2 2.6 2.3zm9 .6c1.4.1 2.7-.7 2.9-1.9.2-1.2-.9-2.3-2.3-2.4-1.5-.1-2.8.7-2.9 1.9-.2 1.2.9 2.3 2.3 2.4zm8.9 1.1c1.4.2 2.7-.6 3-1.7.3-1.2-.7-2.3-2.2-2.5-1.5-.2-2.8.6-3 1.8-.2 1.1.8 2.2 2.2 2.4zm8.8 1.5c1.4.3 2.8-.4 3.1-1.6.3-1.2-.5-2.3-2-2.6-1.4-.3-2.8.4-3.1 1.6-.3 1.2.6 2.3 2 2.6zm8.7 2c1.4.3 2.8-.3 3.2-1.4.4-1.1-.4-2.4-1.8-2.7-1.4-.4-2.9.3-3.2 1.4-.4 1.1.5 2.3 1.8 2.7zm28.8 171.7c1.3-1.1 1.8-3 3.6-3.6-1.4 1.8-2.7 3.6-2.2 7.2 1.5-1.7 2.6-3.6 5.1-4.3 2 2 3.6 3.6 2.2 7.2 3.4-1 5.4-3.3 5.8-7.2.4 3 3.2 3.5 5.1 5.1.7-2.4 2.9-3.3 4.3-5.1 1.7.2 1.3 2.5 3.6 2.2.4-3.1-.5-4.8-.7-7.2 2.1-1.3 4.1-4.4 8-5.8 1.4 2.4 2.6 5.2 6.5 5.1.5-2.9-1.9-2.9-1.4-5.8 1.2-1.4 2.6 3.1 5.8 2.2-.5-2.4-2.3-3.5-2.9-5.8 1.5-1.2 2.4 4.4 6.5 2.9-1.1-2.2-1.9-4.9-3.6-6.5 3.1-3.5 9.4-3.6 8.7-10.9-2.4.4-3.4-.5-5.1-.7-.7-10.6 6.2-13.6 16.7-13-1.3-1.6-.3-5.4-1.4-7.2-6.3-.5-8.9 2.7-13 4.3 3.1-2.9 6.8-5.2 12.3-5.8-2.9-6.3-6.8-11.5-11.6-15.9-15.8 1.5-28.4 6.4-26.8 25.4 4.9 4.2 6.3 8.3 5.8 12.2.1.8.1 1.5 0 2.3-.6 3.3-9.7 12.8-14.5 16.2.2 1.2 2.6.1 3.6.5-9.5 5.1-21.9-1.6-23.9 10.9 1.3 0 4.3-1.3 3.5 1.1zM334.5 66c4.7-.9 11.4-2.9 13.8 1.4-4.1-3.3-12.5-.4-19.7 1.2-.7.2-1.4.4-2.2.4-5.3.9-9.6.5-10.6-4.6-.7-1.2-.8-2.7-.4-4.2v-.1c-2.1-.4-3.1 4.2-2.6 6.6.1.5.3 1 .5 1.4 1 1.3 2.6 2.5 4.4 3.3.1 0 .3.1.4.2 6.4 1.6 16.7-1.2 21.5-3.4 2.4 0 2.8 2.1 2.9 4.3 2.6-1 6-1.3 5.8-5.1 3.4-12.6-10.9-7.3-13.8-1.4zm-55.8 178.2c.1 1.4 2.4.5 2.2 2.2 1.6-1.5 1.3-5 3.6-5.8-3-2.8-4.5 2.2-5.8 3.6zm13.7 4.3c-1.4 0-.9 2-2.9 1.4-.1 2.8 0 5.3.7 7.2 4.1-.8 5.3-6.4 2.2-8.6zm-7.2-.7H283c-.8.9-.8 2.6-.7 4.3 2.3-.1 3.2-1.6 2.9-4.3zm-6.5-170.2c-.6-.4-1.2-.8-2.2-.7-.6 1.6-1.9 2.5-1.4 5.1 1.6-1.1 4-1.4 3.6-4.4zm22.4 19.5c4 4.4 5.8 2.3 12.3-2.2-2.1-3-6.5-3.7-8.7-6.5-1.4.7 1.8 2.9 2.2 4.3-4-2.3-6.1-6.4-5.8-13-4.2-4.2-9.1-7.8-13.8-11.6-3.5 2.8-8.9 3.7-10.9 8 3.1-.9 4.5 4.1 2.2 4.3 3.1 2.4 7.3-.4 8.7-2.2.1 1.8-1.1 2.3-2.2 2.9.2 1 1.8.6 2.9.7 1 4.6-2.9 4.4-2.9 8 3 .6 4.6-2.5 2.9-4.3 2.6-1.1.4 2.5 2.2 2.2 3.5-.5 4.7-7.5 1.4-8.7.5-1.6 2.4 1.4 2.9 2.2.1 3.7-1.2 6-3.6 7.2 1.2 2.9 5.3 2.9 6.5 5.8-2.3.7-5.8-6.2-9.4-4.3 2.3 4.3.5 9.2-1.4 13 1.6 2 3.6-1.7 5.1-2.2.8 1.6-2.1 5.6-3.6 7.2 2.8 1.3 7.1-2 8-5.1 1.8 3-1.9 6.7-3.6 8.7 1.6 1.5 5.5-.8 6.5-2.2 1 .2.6 1.8.7 2.9 2.5-2.8 3.3-7.3 5.8-10.1-1-2-3.4-2.8-4.4-5zm-28.2-21c-2.5-.8-4.6 4.9-1.4 5.1.7-1.6 3.1-3.2 1.4-5.1zm-.7-2.2c-.3 2.5 3.2 1.1 2.2 4.3 1.4-4.4 4.7-6.9 8.7-8.7-4.1-4.1-6.9 4-10.9 4.4zm18.1 29c-1.3 1.1-3.6 1.2-2.9 4.3 1.4-.9 2.4-2.3 2.9-4.3zm-23.2-27.5c1.5-.2 2.3.1 2.2 1.4 1.9-3.2 5-5.1 8-7.2-.1-1.3-2.5-.4-2.9-1.4-3.4 1.5-5.8 3.9-7.3 7.2zm-.7.7c-1 .9-.7 3.1-.7 5.1 1.7-1.5 4.4-2.4 2.9-5.1h-2.2zm125.3 0c-6.5-8.2-8-21.4-16.7-27.5-6.4 1.8-8 12.3-16.7 9.4 1.4 7.7-1.3 18-11.6 18.1-.2 2.7-1.3 4.5-3 5.7.1-.1-1 .7-1.5.9-5.6 2.6-15.2 1.3-21 4.1-1.1.7-2.1 1.5-3.1 2.3-.9 1.1-1.5 2.5-1.8 4.4 4.9-.9 8.5-3.1 11.6-5.8-5.7 7.4-16.2 6.4-21.7 13.8-3.8 5.1-4.4 11.1-7.9 17.2v.3c4.5-3.2 9.5-6.1 12.9-10.2-5.1 11.5-28.2 12.2-20.3 31.9.7-.1 1.1.1 1.3.5.9 0 1.7 0 2.6-.1 1.8-.9 2.6-2.8 5.5-2.5-5-10.3 7-14.2 11.6-19.6-2.8 6.6-15.8 9-10.9 18.8 7-2.9 11.2-8.6 15.9-13.8-3.4 6.1-12.3 15.7-22.2 17-.6.3-1.4.5-2.4.4 0-.1-.1-.2-.1-.3-1.2 0-2.3-.2-3.5-.5.3 2.5-.2 4.1-2.9 3.6 4.2 3.3-1.3 11.8 2 16-1.5.6-2.7 1.5-2.7 3.5 2.3.4 4.1-1.1 3.5-2.8.3.2.5.4.9.6.5 2.4-1.2 2.6-2.9 2.9 4.5 2.1 7.5-3.6 8-8 2.9 5.3-6.5 7.6-4.3 12.3 3.6.4 3.9-2.4 3.6-5.8 1.6.1.3 3.1.7 4.3-.9 3-5 2.7-8 3.6 1.6 1.3 4.5 1.3 3.6 5.1 8.6-5.6 7.1-16.9 7.2-28.3.8 1.5-.7 6.7.7 9.4 4.9-3.8 11.8-5.6 18.8-7.2 1.4 5.6 7.4 6.6 13.8 7.2 2.3-4.5-6.5-4.1-7.2-8 1-.5 4.4 2.8 6.5 3.6 1.7-1.8-2.3-4-2.9-5.8 2.7.4 4.9 4.5 5.1 1.4 3.1.1 0-1.1-.7-1.4.6-4 5.1-4 6.5-7.2.5-2.5-2.7-1.2-2.9-2.9 1.4-3.7 4.9-5.3 7.2-8 .2-2.7-.8-4-1.4-5.8-5.1 1.1-7.1 5.4-10.9 8-7.9-2.4-4.8-14.7 0-18.1-1.6 3.2-7.6 13.1-.7 17.4 6.3-6 14.9-9.8 18.8-18.1-1.2 4.3-4 7.1-6.5 10.1 3.7 8.4 1 23.1 10.9 25.4 2-6 3-12.9 8-15.9.1 6.9 2.3 11.7 7.2 13.8.9-7.4 3.7-15.6 2.9-22.5 2.5 4.2 1 12.5 6.5 13.8 2.1-6.6 4.2-14.7 2.2-23.2 3.1 3.2 1.7 10.8 7.2 11.6 2.4-9.8-.9-17.9.7-27.5.7 3.4 1 6.5 1.1 9.5.4-.4.7-.9 1.1-1.3 1.2-8.6 4.9-25.9-3.7-31.4 1.8-1.9 3 2.6 6 1.6zm-72.5 67.4c-6.5 2.2-12.4 5-18.1 8 5-.9 13.1-4.8 18.1-8zm33.4-50.7c-7.9.8-13.6 10-22.5 12.3 8.6-.1 14.4-9.3 22.5-12.3zm10.8-24.7c-2.8 7.1-7.5 12.3-15.2 14.5-2.5-.6-4.1 1.1-.7.7 8.2-2.1 14.8-5.9 15.9-15.2zm8.7 24.7c-4.5 1.5-10.8 7.6-15.9 10.9 4.9-1.2 11.1-7.3 15.9-10.9zm-.7-9.4c9.8-.2 11.6-16.3 3.6-22.5 2.2 3.6 8.1 20-3.6 22.5zm-12.3 181.1c1.6-.2 2.7.2 2.9 1.4 1.5-2.9 3-5.9 4.8-8.4-.3 0-.6-.1-.9-.2-3.5 1.1-6.7 2.6-6.8 7.2zm-13.8-87.7c10.7 10 2.2 26.7 10.9 39.8.5.8 1.1 1.5 1.7 2.2.1.1.2.2.3.4 3.3 3.1 7.3 5.5 11.1 8 5.8 3 11 5.5 12.2 13.3.9 5.9.1 11.7-2.8 15.1h-.1c0 .1-.1.1-.2.2h.1c-2.3 2.5-5.8 3.6-10.8 2.1-1.5 3.1-4.5 4.7-4.3 9.4 3.1-5.2 6.3 1 7.2 2.2 1.2-3.4 2.1-7.1 5.8-8 1.1 1.4-4.5 2.2-3.6 5.8-.3 3 2.2-.3 2.9-.7 1.6 1.1 3.4 1.9 2.9 5.1 2.1-1 3.2-3.1 4.3-5.1h.1c.1-.1.2-.2.3-.2 1.2-.2 2.3.4 3.2 1.3l.1.1c1.4.8 1.9 2.6 4.3 2.4 0-1.9-.3-4.1.7-5.1 2.1-1.9 3.6 1.2 4.3 0-.2-3.9.5-8.7-.7-11.6 1.9-1.5 6.7-.1 8-2.2-1.3-1.8-4.5-1.8-5.8-3.6 1.2-.9 5.7.9 7.2-1.4-2-1.8-6.4-1.4-7.2-4.3 2.4.9 6.1 2.6 8 0-3.9-.4-5-3.6-8.7-4.3.7-3.8 2.6-9.7.7-13.8-4.4 2.8-9.6 0-11.6-3.6 0-19.1-3.3-34.9-10.9-46.4 6.7 6.8 9.1 17.9 10.9 29.7 7.5 3.7 16.3 1 18.8-5.8 3.7 1.2 1.3 4.6 0 6.5 1.5 1.4 4.5.6 5.6-.5.1-.2.1-.3.2-.5.5-3.1-1.3-3.9-2.2-5.5 2.8.1 5.3 0 7.2-.7 3.1-3.7.7-9.6-4.5-9.4.9 1.7 1.4 3.5 1 5.4-.5 2-2.2 2.6-4.1 2.4-.3.1-.6 0-1.1-.5 1.7-18.3-15.3-22.1-23.6-33.2-.1 0-.1-.1-.2-.2 0 0 0-.1-.1-.1s-.1-.1-.2-.2c-1.2-1.4-2.2-2.9-2.5-4.5-.5-1.2-.9-2.4-1.1-3.8.2-1.7 3.2-.7 3.6-2.2 1.4 1.3.3 5 2.9 5.1 1.3.1 1.5-.9 2.9-.7.7-4.1-1-5.7-3.6-6.5-3.7-.5-3.6 2.7-6.5 2.9-1.4-7.5 7.8-10.5 15.2-11.6 1.3-1.6 1.7-4 1.4-7.2-7 2.2-15.7 8.9-18.8 17.4.6-14 31.3-18.1 17.4-37.7-.3 21.5-21.4 22-18.8 46.4 2.4 11.9 23 17.3 25.4 29 2.6 13.3-12.3 14.5-15.2 6.5-2.7-7.6-2.4-16.3-9.4-24.6-.1-.2-.3-.3-.4-.5-1.4-1.6-3-3.1-4.5-4.6-5.2-4.9-10.8-9.5-11.8-14.5-1.1-5.5 1.8-12.2.7-15.9-13.1 11.5.2 23.5 8 30.4-4.4-3-11.8-9.4-15.2-15.9-6.9-2.3-9.6-8.7-9.4-18.1-3.4.9-5 3.7-7.2 5.8-.4 2.3 3.3.5 3.6 2.2-1.1 3.7-4 5.7-7.2 7.2.4 1.8 2.7 1.6 4.3 2.2-.5 1-1.5 1.3-2.9 1.4.2 1.5 2.7.7 2.9 2.2-.6 1.7-3.7 0-4.3-.7-1.7 1.3 1 4.3 0 7.2-1.5-1-11.5.4-13-2.9.1 4.5 7 8.5 10.1 12.3-6.1-3.8-11.4-8.4-13.8-15.9-2.6.1-4.2 1.1-6.5 1.4 4.4 16.1 26.7 14.4 36.2 25.4 1.3-.6.1-.9.2-1.7zm13.1 29c-.5 2.9.8 10.3 3.6 12.3-.4-2.1-2.1-9.1-3.6-12.3zm-80.7 40.8c.7.4 1 1.1.3 2.6 1.5-.2 1.4-2 2.9-2.2-.8-.8-1.7-1.3-2.8-1.6-.3.4-.4.9-.4 1.2zm11.1-79.9c-2.1.3-3.3 1.5-3.6 3.6 2.5.1 4.2-.6 3.6-3.6zM375 47.1c-4.1-1-7-3.1-10.9-4.3-2.3.9-7.5 1.6-8-1.4 2.2-.9 1.9-4.3 5.1-4.3 2 .9 2.2 3.6 2.9 5.8-3.8 7.9-13 11.3-23.2 7.2-.4.6-.9 1.3 0 1.4 1 4.2 5.2.8 8 .7-1.4 1.3-2.9 2.4-5.8 2.2-2.9-.2-3.1-3.1-5.1-4.3-4.2 1.3-9.3 1.8-10.1 6.5 4.5-.1 5-4.2 9.4-4.3-2.6 2-5 4.2-8.7 5.1-.4 3.6 1.6 4.6 2.2 7.2 5.9-1.1 9.1-4.9 14.5-6.5 10.9 5.6.6 20.4-12.3 14.5.3 2.6 1.1 3.5 0 5.8 2.3-.4 1.6 2.2 4.3 1.4.3-2.3-2.2-1.6-1.4-4.3 14 4.2 26.5-6.6 19.6-18.8 3.8 2 8.5 1.5 10.9-1.5-.5-1.7-4.5.1-5.1-1.4 1.8-1.8 7.7.5 8.7-2.2-.6-1.1-2.3-1-3.6-1.4 2.5-1.5 7.3-.5 8.6-3.1zm-23.2 16c2.1-2.6-1.8-5.4-2.9-7.2-1.1 1.6 3.5 3.7 2.9 7.2zm-13.7-13.8c7.1.4 19.3 3.8 23.2-3.6-2.2-1.4-5.5-1.7-6.5-4.3-3.5 4.7-13.9 2.5-16.7 7.9zm40.5 101.4c3.6-5.9 17.3 2.7 13-9.4-6.4 1-11.7 3.2-13 9.4zm-10.1 122.4c.1-3 .3-6-1.4-7.2-.6.4-1.2.8-2.2.7.6 2.8.5 6.2 3.6 6.5zm26.1-7.2c-1.5-.3-1.9.5-2.9.7.8 1.7.5 4.4 1.4 5.8 2.1-.5 3-4.6 1.5-6.5zm-84-16.7c-2.3-.3-1.9 2-3.6 2.2.4 2 1.8 3.1 2.2 5.1 2.6-1.1 3.4-5.1 1.4-7.3zm66.6 18.9c-2.3-.6-2.2 1.1-3.6 1.4-.2 2.7.8 4 1.4 5.8 2.1-1.3 3.6-4.4 2.2-7.2zm-16.7-2.9c-2.8.7-.9 4.5 0 5.8 2.2-1 1.6-4.7 0-5.8zm-71.7-92c-2.2 0-2.7 1.8-2.9 3.9-6-23.8-11.3-68.9-4.2-87.8-1.4.3-23-13.7-71.6-12.5-49 .4-70.3 12.8-71.6 12.5 7.6 20.3 1 70.5-5.4 92.5-3.2 11.6-4.3 23.9 4.6 46.9 9.6 22.3 16.7 15.3 72.4 52.4 55.8-37.1 62.8-30.2 72.4-52.4 8.9-22.9 7.8-35.3 4.6-46.9-.4-1.3-.8-2.8-1.2-4.3 1.9-.8 4.8-2.2 2.9-4.3zm19.6-19.6c-3.7-.1-4.7 2.6-8 2.9 1.9 3.7 3.3 9.8 0 13 6.9 1.8 12.2-8.4 8-15.9zm32.9-81c1.5-5.3-5.9-4-5.8-.7 1 1.1 3.7.6 5.8.7zm8.4 121.6c1.1-9.6-3.2-20-15.2-18.8 3.4 5 13.2 9.9 15.2 18.8zm-63.1-50.7c1.3-.2 1.7-1.2 1.4-2.9h-4.3c.1 1.8 2.9 1 2.9 2.9zm41.3 83.3c1.8 1.1 5.2-2.5 6.5-4.3-.1-1.9-1.3-2.5-2.2-3.6.1-8-2.1 2 .7 2.9-.8 2.4-2.5 4.1-5 5zm-10.8-28.3c1.2-3.6 1.7-7.2 6.5-9.4 2.1-1.9-6 2.4-6.5 4.3-.9 3.5-1.3 8.7 0 5.1zm-164 75.1c3.4-1.4 6.6-3 10.2-4 5.8-1.7 13.9-3.2 20.9-2.4l-1.5-.9c-6-3.5-12.1-6.9-18.3-10.2-4.1-2.2-8.3-4.4-12.3-6.8-3-1.9-5.9-3.9-8.4-6.5-3.7-3.8-6-8.5-8-13.4-3.7-9-6.7-18.6-7.2-28.3-.4-6.9.6-13.3 2.5-20l.3-.9-3.6-2.3c-2.1-1.3-3.8-3.1-5.1-5.2-.3-.5-.6-1.1-.9-1.6l-2.5.6c-1.5.4-3.1.3-4.5-.1-3.5-1.1-5.9-4.3-6.9-7.6-.2-.6-.4-1.3-.5-2l-.2.2c-5.9 5.9-14.4 7.8-21.9 11.1l3.3.3-2 3c-.3.5-.7 1-1.1 1.4 6.8 1 14 3 18.9 7.8 5.2 5.2 6.3 12.4 5.7 19.4l-.1.9-.7.6c-3 2.6-5.6 6-5.1 10.3v.6c-.1.5-.1 1.1 0 1.6.3 1.8 5.2 7.1 6.6 8.5 2.1 2.2 4.5 4.5 7 6.3l1.1.8-.2 1.2c1.7.3 3.5.4 5.2.5 3.3.2 7 .3 10 2 1-.7 2.2-1 3.4-.7 1.6.4 2.6 1.7 3.5 3 .3.5.8 1.5 1.2 1.9l.7.7v.6l.3.4c.4.6.5 1.2.7 1.9l.3 1.6-.8.4 1.9 3.8-4.2-.6c-.7-.1-1.3-.4-1.8-.8v1.6l-.1 2.2-2.2-.1c-1.2 0-2.2-.4-3-.9l-.4 2.7c4.6-1 9.4-.4 13.4 2.4 4.9 3.2 7.1 9.4 6.4 15zm-32.2-105c-.8-2.6-1.2-5.4-1.3-8.1-.8 2.6-1.1 5.8.7 7.6l.6.5zm11.7 87.7l-.9-1.1c-.1.5-.2 1-.3 1.4.4 0 .8-.2 1.2-.3zM10.4 187.8l-.4.8c-.6 1.2-1.1 2.5-.8 3.9.1.5.4.7.8.8-.1-1.9.1-3.7.4-5.5zm17-81.5l.1 6c0 3.8.9 7 2.3 9.8-.5-3.7-.3-7.4 0-11.3 0-.4.1-.8.1-1.2l-.8-.9c-.3-.4-.6-.8-.9-1.1l-.6-.5-.2-.8zm5.7 21.2c1.8 2.4 3.8 4.6 5.8 6.9-.8-3-1.5-6-1.8-9-1 1-2.2 1.8-4 2.1zm9.4 11.6c3.2 4.9 5.2 10.9 3.8 19.9-2.1 13.4-23.2 18.3-25.4 29.1-2.1 10.5 9 11 11 5.4 1.4-3.8 1.9-7.9 3-11.9 1.4-5.1 3.4-9.4 6.8-13.4.1-.2.3-.3.4-.5 1.5-1.6 3-3.2 4.6-4.7 3.3-3.2 10.2-8.9 11.2-13.4.3-1.6.2-3.4 0-5.1-.1-.5-.1-.9-.2-1.4-1.4 2-3.2 3.5-5.5 4.5l-2.7 1.1-.4-2.9c-.4-3.6-1.3-7.1-2-10.6-.8 1.9-2.2 3.3-4.6 3.9zm37.4-57.8l-.2-1.2c-.1-.6-.1-1.2.1-1.7-1.5.2-3 .2-4.5.1.3.6.7 1.1 1.3 1.5h.1c.1 0 .2.1.2.1.2.1.4.2.5.3.1.1.3.2.4.2.6.3 1.3.5 2.1.7zm183.5-2.7c-.5.6-1.1 1.1-1.8 1.4.5.1 1.1.3 1.6.4.1 0 .2 0 .2.1v-1.9zm75.9 2.4c.7-.2 1.5-.4 2.1-.7.1-.1.3-.1.4-.2.2-.1.4-.2.5-.3.1 0 .2-.1.2-.1h.1c.6-.4 1-.9 1.3-1.5-1.5.1-3 .1-4.5-.1.1.5.2 1.1.1 1.7l-.2 1.2zm52.4 25s0 .1 0 0l-.1.9-.6.5c-.3.3-.6.8-.9 1.1l-.8.9c0 .4.1.8.1 1.2.3 3.9.4 7.5 0 11.3 1.3-2.8 2.2-6 2.3-9.8V106zm-5.7 21.2c-1.7-.3-3-1.1-3.9-2.1-.3 3-1 6.1-1.8 9 1.9-2.3 3.9-4.5 5.7-6.9zm-9.3 11.6c-2.4-.6-3.9-2-4.8-3.8-.7 3.5-1.5 7.1-2 10.6l-.4 2.9-2.7-1.1c-2.4-1-4.2-2.5-5.5-4.5-.1.5-.1.9-.2 1.4-.2 1.6-.3 3.4 0 5.1.9 4.5 7.9 10.2 11.2 13.4 1.6 1.5 3.1 3.1 4.6 4.7.1.2.3.3.4.5 3.5 4 5.5 8.4 6.8 13.4 1.1 3.9 1.6 8 3 11.9 2.1 5.7 13.1 5.1 11-5.4-2.1-10.8-23.3-15.7-25.4-29.1-1.2-9.1.8-15.1 4-20zm32.1 48.7c.3 1.7.5 3.6.4 5.4.4-.1.7-.3.8-.8.3-1.3-.2-2.7-.8-3.9l-.4-.7zM210.2 289.7c.9-3.4 2.5-6.5 4.7-9.1-1.2.8-2.3 1.5-3.4 2.3l-1.2.8-1.2-.8c-1.2-.8-2.3-1.5-3.5-2.3 2.1 2.6 3.7 5.6 4.6 9.1zM161.3 41.9c.3.1.5.2.8.4.2.1.5.3.7.5-.2-.3-.3-.6-.4-.9-.1-.5-.1-.9-.1-1.4-.3.4-.6.9-1 1.4zm3 2.1c.6.6 1 1.3 1.3 2.1h1.2l-1.5-1.8c-.4-.1-.7-.2-1-.3zm7.9-.3c.4.6.9 1.1 1.3 1.7.5-.1 1-.3 1.5-.5l-.3-.2c-.9-.2-1.8-.5-2.5-1zm28.4-9.3c0 .1.1.1.1.2l.1-.1c-.1-.1-.1-.1-.2-.1zm24.3 0h-.2l.1.1.1-.1zm28.4 9.4c-.7.4-1.5.7-2.4.9l-.4.3c.5.2.9.3 1.4.5.5-.6 1-1.2 1.4-1.7zm10-3.5c.1.5.1.9 0 1.5-.1.3-.2.7-.4.9.2-.2.5-.3.7-.4.2-.1.5-.3.8-.4-.5-.5-.9-1-1.1-1.6zm-2 3.7c-.3.1-.6.2-1 .3l-1.5 1.8h1.2c.1-.3.2-.5.4-.8.2-.5.5-.9.9-1.3zm24.6 39.7c-.8-.1-1.5-.3-2-.8-1.9.6-3.9.5-5.7-.4l-1.2.6c-.3.1-.6.3-.9.4l-1.2.7c.6.2 1.3.5 1.9.7 1.3.5 2.5 1 3.8 1.6.3.1.7.3 1.1.5l2.2-.6c.7-1.1 1.6-1.8 2-2.7zm-12.7-.1l-.1-.9-.2.5-.8-.1c.2.2.6.3 1.1.5zm-4.4-1.5l-.2-.2-.1.1c.2 0 .3.1.3.1zm14.5 9.4c-4 12.5-2.8 32.9-1.6 45.5 0 .4.1.8.1 1.2h4.6l-.1-.7 1.6.4c-1.1-4.2-1-8.5 1.4-12.4 1.7-2.7 4.2-4.9 6.9-6.7v-1l.2-.4c.5-.9.9-1.7 1.3-2.6l-.2-1.7c-2.1 1.1-4.9 1.7-6.7-.1l-1.5-1.4 1.2-1.4c-1.1.2-2.3.1-3.4-.4l-1.3.8-.4-1.6-1-.5.7-.8v-.1c-.2-1.1-.3-2.1 0-3.1-.1-.1-.2-.2-.3-.4l-.9-1.1.6-1.2c1.4-2.9 3-6.6 2-9.9-.6.1-1.2.1-1.9 0l-1.3-.4zm-.9 52.4c.6 5.2 1.4 10.3 2.2 15.5.1-.1.3-.2.4-.4-.6-1.8-.5-3.8-.2-5.7.2-1.7 1.3-6.5-.2-7.7l-2.2-1.7zM175.3 299.3c.4-1 1-1.9 1.6-2.8.1-.2.3-.4.5-.6 2.6-2.8 6.3.2 4.3 3.2-.5.7-1 1.5-1.3 2.4 1.2.1 2.4-.1 3.5-.5 4-1.4 5.9-6.5 3.1-9.9-2-2.4-6.3-2.2-7.4.9-1.3 3.6-6.3 1.8-5-1.8.3-.9.7-1.7 1.2-2.4-1.3 1.5-2.8 3-4.3 4.3.3 2.8 1.7 5.4 3.8 7.2zm1.8-13c2.7-2.7 6.8-3.5 10.7-1.8 5.4 2.4 7.2 8.8 5.4 14.1-1.6 4.7-5.8 8-10.7 8.7-.6.1-1.1.1-1.7.1 2.3 4.4 8.6 6.7 13.2 5.6 4.3-1.1 7.4-4 9.1-7.7-1.7.2-3.4-1.3-2.7-3.5 2.4-7.9-1-16.2-8-20.5-4.6-2.8-10.4-2.7-14.8-.1l.3.3c.8.9.9 2.3.1 3.3-.2.6-.6 1-.9 1.5zm-30.3-10.5c1.8-3.7 1-9.1-2.1-11.9-5-4.5-13.2-2.6-17.5 2 2.7 1.5 4 4.3 2.4 7.5-.5 1.1-.9 1.4-1.9 1.9-1.1.6-3 1.6-4.1.6-.2-.1-.3-.3-.4-.5-.1 3.6.9 7.2 2.9 10.1 1.8 2.7 5.3 4.7 8.3 5.8 4.9 1.7 10.2 1.8 15.3.7 4.7-1 9.1-3.1 13.1-5.7 2.6-1.7 5.1-3.3 7.2-5.6 1.8-2 3.8-3.8 6.2-5.2-7.7.9-15.2 4.7-19.9 10.8-.1.1-.2.2-.3.4-2.6 2.8-6.5-.4-4.1-3.4 1.3-1.7 2.8-3.3 4.3-4.7-2 .8-4.1 1.6-6.2 2.2-1.4 1.6-3.1 2.8-5 3.6-5.3 2.1-11.8-.3-14.3-5.4-2.8-5.8 2.1-13.1 8.5-12.8l2.6.1-.2 3.6c.5.5 1 1.1 1.1 1.8l.9 4.2c1.1.3 2.1.2 3.2-.1zm-23.2-3.1c.1-.2.2-.5.4-.7 0-.1.1-.2.1-.2-.1 0-.1-.1-.2-.1-.2.3-.2.6-.3 1zm-5.9 8.5c.1.4.1.9.2 1.3.3 1.3.8 2.5 1.4 3.6-.6-1.6-1.2-3.3-1.6-4.9zm216.1-103.5c-.4-.5-.8-.9-1.1-1.4l-2-3 3.3-.3c-7.5-3.3-16-5.2-21.9-11.1l-.2-.2c-.1.7-.3 1.3-.5 2-1.1 3.4-3.5 6.5-6.9 7.6-1.5.5-3 .5-4.5.1l-2.5-.6c-.3.6-.5 1.1-.9 1.6-1.3 2.1-3 3.9-5.1 5.2l-2.6 1.7c.2.6.3 1.2.5 1.8 1.9 6.6 2.9 13 2.5 20-.5 9.7-3.5 19.4-7.2 28.3-1.3 3.1-2.7 6.1-4.5 8.8.5-.4 1-.7 1.7-.9 1.2-.3 2.4 0 3.4.7 3-1.7 6.7-1.8 10-2 1.7-.1 3.5-.2 5.2-.5l-.2-1.2 1.1-.8c2.5-1.8 4.9-4.1 7-6.3 1.4-1.4 6.3-6.7 6.6-8.5.1-.5.1-1.1 0-1.6v-.6c.6-4.2-2.1-7.6-5.1-10.3l-.7-.6-.1-.9c-.6-7 .6-14.2 5.7-19.4 4.9-4.6 12.2-6.6 19-7.6zm-35.5-9.4l.6-.6c1.8-1.8 1.5-5 .7-7.6-.1 2.8-.5 5.6-1.3 8.2zm-20.7 73.4c-.3.4-.7.8-1 1.1-2.5 2.6-5.4 4.6-8.4 6.5-4 2.5-8.2 4.6-12.3 6.8-6.1 3.3-12.2 6.7-18.3 10.2l-1.5.9c7-.8 15.1.6 20.9 2.4 3.5 1 6.8 2.6 10.2 4-.7-5.6 1.5-11.7 6.2-15 3.7-2.6 8-3.3 12.3-2.7l-.4-2.8c-.8.6-1.8.9-3 .9l-2.2.1-.1-2.2c0-.5-.1-1.1 0-1.6-.5.4-1.1.7-1.8.8l-4.2.6 1.9-3.8-.8-.4.3-1.6c.1-.7.3-1.3.7-1.9l.3-.4v-.6l.7-.7c.2-.1.4-.4.5-.6zm9 14.3l1.2.3c-.1-.4-.2-.9-.3-1.3l-.9 1zm-13 19.8c1 .2 2.1.4 3.2.3l.9-4.2c.1-.7.6-1.3 1.1-1.8l-.2-3.6 2.6-.1c6.4-.3 11.3 7 8.5 12.8-2.5 5.2-9.1 7.5-14.3 5.4-2-.8-3.7-2-5-3.6-2.1-.6-4.2-1.4-6.2-2.2 1.6 1.4 3 3 4.3 4.7 2.4 3-1.5 6.3-4.1 3.4-.1-.1-.2-.2-.3-.4-4.8-6.1-12.2-9.8-19.9-10.8 2.3 1.4 4.3 3.2 6.2 5.2 2.1 2.2 4.7 3.9 7.2 5.6 4 2.6 8.5 4.7 13.1 5.7 5 1.1 10.4 1 15.3-.7 3-1.1 6.5-3.1 8.3-5.8 2.1-3.1 3.1-6.9 2.8-10.6-.3 1.5-2 1.8-4.4.4-1-.6-1.4-.9-1.9-1.9-1.6-3.1-.3-6 2.4-7.5-4.3-4.7-12.4-6.6-17.5-2-3.1 2.7-3.9 8-2.1 11.7zm23.2-2.9c-.1-.4-.2-.9-.3-1.3-.1 0-.1.1-.2.1 0 .1.1.2.1.3.2.4.3.7.4.9zm-79.6 32.5c1.8 3.7 4.8 6.6 9.2 7.7 4.6 1.1 10.9-1.2 13.2-5.6-.6 0-1.1-.1-1.7-.1-4.9-.8-9-4-10.7-8.7-1.9-5.3 0-11.7 5.4-14.1 3.9-1.7 8-.9 10.7 1.8-.4-.4-.7-.9-1-1.3-.7-1-.7-2.4.1-3.3l.3-.3c-4.4-2.6-10.1-2.7-14.8.1-7 4.3-10.3 12.6-8 20.5.7 2.1-1 3.5-2.7 3.3zm27.4-17.6c.5.7.9 1.5 1.2 2.4 1.3 3.6-3.7 5.4-5 1.8-1.2-3.1-5.4-3.3-7.4-.9-2.8 3.4-.9 8.5 3.1 9.9 1.1.4 2.3.6 3.5.5-.3-.9-.7-1.7-1.3-2.4-2.1-3 1.7-6 4.3-3.2.2.2.3.4.5.6.6.9 1.1 1.8 1.6 2.8 2.1-1.8 3.5-4.5 3.8-7.2-1.6-1.3-3-2.8-4.3-4.3zm58-6.6c-.4 1.7-.9 3.3-1.6 4.9.7-1.1 1.2-2.3 1.4-3.6.1-.5.2-.9.2-1.3zM133.3 84c.4 1 1.4 1.8 2.2 3l-.3-.9 3.6.9c.4-.1.8-.3 1.1-.4 1.2-.5 2.5-.9 3.7-1.4.4-.1.8-.3 1.2-.4l-1.6-1c-.3-.2-.6-.3-.9-.4l-1.2-.6c-1.8 1-3.8 1-5.7.4-.6.5-1.4.7-2.1.8zm2.7 4.7c.1.4.1.8.1 1.2v1.8l-1.8.3c-.6.1-1.2.1-1.9 0-1 3.2.5 7 2 9.9l.6 1.2-.9 1.1c-.1.1-.2.3-.3.4.3 1 .3 2.1 0 3.1v.1l.7.8-1 .5-.4 1.6-1.1-.7c-1.1.5-2.3.6-3.4.4l1.2 1.4-1.5 1.4c-1.8 1.7-4.5 1.2-6.7.1l-.2 1.7c.4.9.8 1.8 1.3 2.6l.2.4v1c2.6 1.8 5.2 4 6.9 6.7 2.4 3.9 2.5 8.2 1.4 12.4l1.6-.4-.1.7h4.9l-.1 2.3v.5l.7-.1c.1-1.4.3-2.7.4-4.1 1.2-13 2.5-34.6-2.2-46.9l-.4-1.4zm2 54.5l-3.4 2.7c-.1.1-.3.2-.4.4-1 1.5-.1 5.6.1 7.3.2 1.9.3 3.9-.2 5.7.6.5 1 1 1.3 1.6 1.1-5.9 1.9-11.8 2.6-17.7zm7.9-58.9c1.6-.6 3.3-1.1 4.9-1.6l-.3-.5c-.6.7-1.5 1.1-2.6 1.2l-1.5.1-.2-.5-.3 1.3zM134.5 166l-.3.2c.1.1.2.2.3.2v-.4zm60.2-125.2c-.3.4-.7.8-1.1 1.1l-.3.5 1.5.3c0-.7-.1-1.3-.1-1.9zm-4.9-.6c0-.4 0-1.1-.1-1.3-.2 0-.4.1-.6.1 0 .3.4.8.7 1.2zm41.1.6c-.1.6-.1 1.2-.2 1.9.6-.1 1.1-.2 1.7-.3l-.3-.3c-.5-.5-.9-.9-1.2-1.3zm4.8-.6c.3-.4.7-.9.7-1.2-.2-.1-.4-.1-.6-.2 0 .4-.1 1.1-.1 1.4zM275.9 91c-.4-.2-.8-.3-1.2-.5-4.1-1.7-8.4-3.1-12.7-4.3-16.8-4.7-34.9-6.2-52.3-5.9-17.5.3-35.6 2-52.6 6.5-4.3 1.1-8.5 2.5-12.7 4-.3.1-.6.2-1 .4 5.9 23.5-.7 69.9-6.7 91-1.7 6-2.6 11.6-2.3 17.8.5 8.9 3.3 18 6.7 26.2 1.7 4.1 3.6 8.1 6.7 11.3 2.1 2.2 4.5 3.9 7.1 5.4 3.9 2.4 8 4.5 12 6.6 6.2 3.3 12.4 6.8 18.5 10.3 8.2 4.8 16.3 9.9 24.2 15.1 7.9-5.2 16-10.3 24.2-15.1 6.1-3.6 12.3-7 18.5-10.3 4-2.2 8.1-4.3 12-6.6 2.5-1.6 5-3.3 7.1-5.4 3.1-3.2 5-7.2 6.7-11.3 3.4-8.2 6.2-17.3 6.7-26.2.3-6.3-.6-11.8-2.3-17.8-6-21.2-12.6-67.7-6.6-91.2zm-66.3 178.8c-7.2-4.7-14.6-9.3-22-13.7-6.1-3.6-12.4-7-18.6-10.4-3.9-2.1-7.9-4.2-11.7-6.5-2.2-1.4-4.4-2.9-6.2-4.7-2.7-2.8-4.4-6.4-5.8-10-3.2-7.8-5.9-16.3-6.4-24.8-.3-5.7.6-10.9 2.1-16.4 1.9-6.8 3.4-13.9 4.6-20.9 1.5-8.6 2.7-17.2 3.5-25.9.8-8.3 1.2-16.6 1-24.9-.1-5.8-.5-11.9-1.6-17.6 3.2-1.1 6.4-2.1 9.7-2.9 16.7-4.4 34.3-6.1 51.6-6.4 17-.3 34.6 1.2 51 5.8 3.4.9 6.7 2 10 3.3-1.1 5.8-1.5 12-1.6 17.8-.2 8.3.3 16.7 1 25 .8 8.7 2 17.3 3.5 25.9 1.2 7 2.7 14.1 4.6 20.9 1.6 5.5 2.4 10.7 2.1 16.4-.5 8.4-3.2 17-6.4 24.8-1.4 3.5-3.2 7.2-5.8 10-1.8 1.9-4 3.4-6.2 4.7-3.8 2.3-7.8 4.4-11.7 6.5-6.3 3.4-12.5 6.8-18.6 10.4-7.5 4.3-14.8 8.9-22.1 13.6zm50.7-96.9l.8-.8 1 .8c1 .8 2.2 1.1 3.4 1.1 1.6 0 2.4-.6 2.4-2.2 0-4.6-5.4-7.1-9-8.5-2.7-1-5.6-1.5-8.5-1.5-4.4 0-9 .7-12.7 3.2-2.9 1.9-4.6 4.5-4.6 8 0 5 5.1 9.9 8.6 12.8l8.8 7.2c4.9 4 9.2 9.3 9.2 16 0 4.8-1.8 8.9-4.9 12.5-3 3.5-6.7 6-10.9 7.8-4.9 2.1-10.1 3.1-15.5 3.1-8 0-15.7-1.9-22.1-6.8-5.8-4.3-9-10-9-17.2 0-6 2.1-11.1 7.2-14.4 2.3-1.5 4.8-2.2 7.5-2.2 1.6 0 3.1.3 4.6.8 1.6.5 3.9 1.5 3.9 3.5 0 .4-.2 1-.3 1.4l-.5 1.5-1.2-1c-2-1.6-4.4-3-7-3-3 0-5.4 1.2-7.3 3.4-1.9 2.3-2.8 4.9-2.8 7.9 0 7.9 4.9 13.3 11.5 17.1 5.5 3.2 11.6 5.2 18 5.2 4.8 0 9.4-1 13.7-3.4.5-.3 1-.5 1.4-.8.1 0 .2-.1.3-.2l.1-.1.1-.1c1.8-1.2 3.5-2.7 4.9-4.3 2.4-2.5 3.7-5.5 3.7-9 0-5.7-6.4-11.4-10.5-14.6l-3.8-3c-3.4-2.7-7-5.8-9.5-9.3-1.9-2.6-3-5.6-3-8.8 0-7.5 4.7-12.1 11.4-14.7 3.8-1.5 7.9-2.1 12-2.1 3.4 0 6.8.5 10.1 1.6s6.6 2.8 8.7 5.7c1.1 1.5 1.7 3.3 1.7 5.1 0 1.9-.7 3.5-2.2 4.7-1.4 1.2-3.1 1.7-5 1.7-1.6 0-3.1-.4-4.5-1.1-.6-.3-1.2-.9-1.2-1.6v-.2c.1-.5.4-.9.7-1.2l.1-.1.2.1zm-49.5-25.1c2.8.2 5.8.5 8.5 1.2l.8.2.4-.7c.3-.5.5-1 .5-1.6 0-1.2-1.1-1.9-2.2-2.1-1.6-.4-4.1-.5-6.2-.5 3.1-6.1 7.5-12.3 11.5-17.8 2.4-3.3 4.9-6.5 7.5-9.6l7.6-8.9-3.7 1.2c-1.4.5-2.8 1.1-3.9 2.2-.9.9-2 2.2-2.8 3.1l-4.9 5.8c-3.4 4-6.6 8.4-9.6 12.6-2.7 3.7-5.2 7.5-7.6 11.4-4.3.1-8.7.4-12.9 1.2 2.2-3.1 4.5-6.2 6.4-9.4 1.3-2 2.5-4 3.6-6.1l1.5-2.6c.6-1.1 1.8-3.2 1.8-4.5 0-1-.7-1.7-1.7-1.7-.6 0-1.2.3-1.7.6l-.5.3-.1.6c-.2 1.6-.8 3.1-1.6 4.5-3.3 5.9-6.9 11.4-10.8 17-.6.8-1.1 1.7-1.8 2.4-.1 0-.3.1-.4.1l-.9.2c-3.1.7-6.2 1.8-9.2 2.9-6 2.3-11.7 5.2-16.9 8.8-4.1 2.8-8.1 6.1-11.2 10-2.1 2.7-4.3 6.2-4.3 9.8 0 3.7 1.9 5.9 5.7 5.9 5.3 0 11.5-4.9 15.3-8.1 3.3-2.9 6.6-6 9.4-9.4l1.1-1.3 3.8-4.2 2.1-2.4c1.5-1.8 3-3.6 4.4-5.5l2.1-2.8c.3-.4.7-.8 1-1.2 4.5-.9 9.1-1.6 13.7-1.6l-1.6 2.8c-4 6.9-10 18.2-10 26.4 0 2 .5 4 1.8 5.6 1.4 1.7 3.2 2.5 5.4 2.5 4.7 0 10-3.2 13.7-5.9 7.6-5.4 14.4-11.8 20.2-19.1l.6-.7-2.1-2.3-1.4 1.5c-2.9 3-5.8 6.1-8.9 9-2.1 2.1-4.4 4.1-6.8 5.9-3 2.2-8 5.5-11.8 5.5-2.8 0-3.5-1.8-3.5-4.4 0-2 .5-4.2 1.1-6.2 1-3.5 2.5-7 4.1-10.3 1.6-3.4 3.3-6.7 5.1-10l.3-.3zm-24.7 2.9c-3.2 4.1-6.6 8.1-10.1 12.1-3 3.4-6.2 6.8-9.5 9.9-3 2.8-8.5 7.3-12.9 7.3-2 0-2.7-.9-2.7-2.8 0-4.2 3.9-8.4 6.8-11.1 3.5-3.2 7.5-5.9 11.6-8.2 5.2-2.9 11-5.6 16.8-7.2z"/></svg>