<?xml version="1.0" encoding="utf-8"?>
<!-- Generator: Adobe Illustrator 18.1.1, SVG Export Plug-In . SVG Version: 6.00 Build 0)  -->
<svg version="1.1" id="tm-logo" xmlns="http://www.w3.org/2000/svg" width="200px" xmlns:xlink="http://www.w3.org/1999/xlink" x="0px" y="0px" viewBox="0 0 1430.9 322.8" xml:space="preserve">
<path fill="#b3975e" fill-rule="evenodd" clip-rule="evenodd" d="M166.7,68.3l-0.5-1.8c-0.4-1.3-0.7-2.5-1.1-3.8l-0.3-1.1l-0.1-0.1
	c-8.1-9.1-16.9-17.6-26.2-25.5c-1.4-1.2-0.7-3.4,1-3.8c0.1,0,0.3-0.1,0.4-0.1c0.4-0.1,0.8-0.1,1.2-0.2c1.3-0.1,2.6,0,3.8,0.3
	c2.4,0.5,4.4,1.7,6.1,3.2c0.1-0.3,0.2-0.5,0.4-0.7c0,0,0.1-0.1,0.1-0.1c0.1-0.1,0.1-0.1,0.2-0.2c0.2-0.2,0.4-0.3,0.6-0.5
	c0.6-0.5,1.3-0.8,2-1.1c2.5-0.8,4.9,0,7,1.5c0.8,0.6,1.4,1.4,1.7,2.4c0.2,0.8,0.2,1.6-0.1,2.4c0.6-0.9,1.6-1.5,2.7-1.7
	c1.1-0.2,2.3,0,3.3,0.7c0,0,0,0,0-0.1c-0.2-1.6,0.2-3.2,1.5-4.2c0.7-0.5,1.5-0.8,2.3-0.9c-1-0.8-1.8-1.8-1.9-3.1
	c-0.3-3.7,4.9-6.3,4.6-9.4l-0.2-1.9c-0.3-1.7,0.9-1.8,1.3-2.7c0.8,0.6,1.8,0.2,2.5,1.9l0.7,1.8c1,2.6,4.8,2.9,6.8,5.3
	c1.4,1.8,1.4,4,0.8,6.1c0.4-0.1,0.8-0.1,1.2-0.1c2.6-0.1,5.4,0.5,6.7,2.9c0.4-0.3,0.8-0.4,1.2-0.6c-1.6-0.8-3-2.1-3.8-3.9
	c-0.6-1.3-0.8-2.8-0.4-4.2c0.6-2.1,2.4-3.7,4.3-4.8c1.3-0.7,2.6-1.3,4-1.8c7.3-2.5,3,3.4,3.3,5.6c0.2,0.1,0.9,0.1,1.1,0.1
	c0.4,0,2.2-0.2,2.4-0.7c0.2-0.5-0.2-2.1-0.4-2.6c-0.6-1.9-1.3-3.7-1.8-5.6c-1.7-6.4,0.2-11,5.8-14.2l0.8-0.5l1.4-0.6l1,0.5L215,1
	c3.5,2,6,4.8,6.4,9c0.1,1.7-0.1,3.5-0.6,5.2c-0.5,1.9-1.3,3.7-1.8,5.6c-0.1,0.2-0.1,0.5-0.2,0.8l0,0l-0.1,0.3l0,0l0,0
	c-0.1,0.6-0.2,1.2-0.1,1.5c0.2,0.5,2,0.6,2.4,0.7c0.2,0,0.9,0,1.2-0.1c0.1-0.7-0.6-2.1-1-2.8c-1.8-3.6,1.8-3.6,4.3-2.7
	c1.4,0.5,2.7,1.1,4,1.8c3.3,1.9,5.7,5.1,3.9,8.9c-0.9,1.8-2.2,3.1-3.8,3.9c0.4,0.1,0.9,0.3,1.2,0.6c0.3-0.5,0.7-1,1.1-1.4
	c1.5-1.3,3.6-1.6,5.5-1.5c0.4,0,0.8,0.1,1.1,0.1c-0.6-2.1-0.7-4.3,0.8-6.1c1.9-2.4,5.8-2.7,6.8-5.3l0.7-1.8c0.6-1.4,1.4-1.6,2.4-1.9
	c0.7,0.7,1.5,1.7,1.4,2.8l-0.2,1.9c0,0.4,0,0.7,0.1,1.1c0.3,1,1.4,2.3,2,3.2c2.2,2.8,4,5.8,0.6,8.3c2.5,0.3,4.2,2.1,3.9,5.1
	c0,0,0,0,0,0c0.9-0.6,2.1-0.9,3.3-0.7c1.1,0.2,2.2,0.9,2.8,1.8c-0.5-1.7-0.3-3.6,1.5-4.9c2-1.5,4.5-2.2,7-1.4c0.7,0.2,1.4,0.6,2,1.1
	c0.2,0.2,0.4,0.3,0.6,0.5c0.1,0.1,0.1,0.1,0.2,0.2c0.2,0.3,0.4,0.6,0.5,0.9c1.7-1.6,3.7-2.7,6.1-3.3c1.3-0.3,2.6-0.4,3.8-0.3
	c0.4,0,0.8,0.1,1.2,0.2c0.1,0,0.3,0.1,0.4,0.1c1.7,0.4,2.3,2.6,1,3.8c-9.1,8.1-18.2,16.4-26.2,25.5l-0.1,0.1l-0.3,1.1
	c-0.4,1.3-0.7,2.5-1.1,3.8l-0.5,1.8c0.2,0.1,0.4,0.1,0.6,0.2c2.8,0.7,5.2,2.9,5.4,5.7l0.3-0.3c1.7-3.6,4.5-6.3,8.2-8l2-0.9l0.6,1.4
	c0.2,0,0.4,0,0.5,0c0.5,0.1,0.9,0.2,1.3,0.4c0.7-0.4,1.5-0.8,2.4-0.8c1.5-0.1,2.8,0.5,3.8,1.4c0.6-0.4,1.3-0.8,1.9-1.2l1.4-1.1
	l1.4,1.1c4.7,3.9,9.6,7.4,13.9,11.7l0.7,0.7l0,1c-0.1,2.1,0,4.4,0.8,6.5l1.2-0.6l1.1,1.4c0.1,0.2,0.3,0.3,0.4,0.5
	c1.1,1.1,2.6,1.8,3.9,2.5c1.3,0.7,2.5,1.5,3.5,2.5c0.3-1.8,1-3.6,2.3-4.9c1-1.1,2.3-2,3.6-2.8c3.3-1.8,7.6-2.3,11.3-2.6
	c1.2-0.1,2.5-0.2,3.8-0.3c-0.3-0.1-0.6-0.2-0.9-0.4c-0.4-0.3-0.9-0.8-1.1-1l-4,0.6l1.8-3.7c0.6-1.3,0.1-2.7-0.1-4.1
	c-4.2,0.9-9.4,1.5-13.4,0.5l-0.2,0l-0.2-0.1c-0.1,0-0.2-0.1-0.3-0.1c-2.1-0.8-4-2.3-5.4-4l-0.1-0.2l-0.1-0.2
	c-0.3-0.6-0.5-1.2-0.7-1.9c-0.3-1.3-0.2-3,0.1-4.3c0.5-2.5,2-5.4,5-4.9l1.5,0.3l0.3,1.5c0,0.2,0,0.1,0,0.3l0,0.4l-0.1,0.4
	c-0.3,0.9-0.2,1.7,0.2,2.6l0.2,0.3l0.1,0.3c0.2,0.9,0.5,1.8,1.3,2.4c1.6,1.2,5,0.7,6.9,0.5c0.6-0.1,1.3-0.2,1.9-0.4
	c0.3-0.1,0.7-0.2,1-0.3l-0.3-1.3c-0.1-0.7-0.5-1.3-0.8-1.9c-0.8-1.5-1.3-2.7-1.4-4.3l-1.1,0l0.5-2.7c1-5.4,5.8-6.5,10.3-7.8l0,0
	c3.5-6.6,14-4.3,16.8-8.2l2.4-3.3l0.7,1.8c0.8-1.3,1.6-3.8,5.2-3.8l0.4,0l0.4,0.2c2.8,1.1,3.2,3.8,3.9,6.3c3.2,1.2,6.2,2.9,9.5,3.7
	l2.7,0.7l-1,1.9c8.6,6.9,9.6,19,16.1,27.2l1.9,2.4l-2.9,1c-0.2,0.1-0.5,0.1-0.7,0.2c3.5,7.8,1.3,19.3,0.1,27.4l3.8,5.3
	c3.1,4.4,5.2,9.5,3.3,14.8c-0.5,1.4-1.2,2.7-2.1,3.9l0.4-0.1l0.3,2.7c0.3,3,0,6.3-1.9,8.8l-0.5,0.7l-0.9,0.1c0.7,2.4,0.9,5.1-1,7
	c-0.7,0.7-1.7,1.1-2.6,1.3c0.7,1.6,0.7,3.5,0.4,5.2l-0.3,2l-2.1-0.2c-0.1,0-0.6,0.3-0.7,0.3c-0.7,0.3-1.3,0.5-2,0.4
	c-1.2-0.1-2.3-0.5-3-1.5c0-0.1-0.1-0.1-0.1-0.2l0,0.1c0.2,1.2,1.1,2.5,1.9,3.4l0,0l0.2,0.2l0,0l0.3,0.4c5.3,7.1,14,11,19.5,18.2
	c1.7,2.2,2.9,4.5,3.6,7l2.9-0.1c6.9-0.2,10.6,7.8,6.2,13l-0.4,0.4l-0.5,0.2c-1.2,0.5-2.6,0.7-3.9,0.8c0.5,1.1,0.5,2.3,0.3,3.7l0,0.3
	l-0.1,0.2c-0.1,0.2-0.1,0.3-0.2,0.5l-0.1,0.3L412,205c-2.1,2.2-6.4,2.8-8.7,0.6l-1.2-1.2c-4.1,2.8-9.7,3.4-14.5,1.8
	c0.4,4.3,0.6,8.7,0.6,13.1c1.7,2.6,5.4,4.2,8.2,2.4l2.1-1.4l1.1,2.3c1.9,4.1,0.7,8.9-0.2,13.2c1.7,0.8,2.9,2.1,4.6,3
	c0.6,0.3,1.2,0.5,1.8,0.6l3.7,0.4l-2.2,3c-0.4,0.5-0.8,0.9-1.2,1.3c0.1,0.1,0.1,0.1,0.2,0.2l1.4,1.3l-1,1.6
	c-0.6,0.9-1.4,1.4-2.2,1.8c0.3,0.2,0.5,0.5,0.7,0.8l0.9,1.2l-0.8,1.2c-0.3,0.5-0.7,0.9-1.2,1.2c-1.1,0.7-2.3,0.9-3.6,1
	c-0.6,0-1.6,0-2.4,0.1c0.6,3.3,0.1,6.9,0.3,10.1l0,0.7l-0.4,0.6c-0.1,0.2-0.3,0.4-0.5,0.6c0.6,2.9-0.6,6.8-3.7,7.6l-1.5,0.4
	l-0.9-1.2c-0.3-0.4-0.5-0.8-0.6-1.2c-1.7,0-3-0.7-4.3-1.9c-0.3-0.3-0.6-0.6-0.9-0.8l-0.3-0.2l-0.2-0.2c0,0,0,0-0.1-0.1
	c-0.2-0.2-0.4-0.4-0.7-0.5c-1.2,2.1-2.4,3.9-4.7,5l-0.5,0.2c-0.6,1.3-1.6,2.4-2.9,3.2l-2.3,1.5l-0.9-2.6c-0.5-1.3-0.9-2.2-1.2-3.1
	l-0.3,0.9l-0.8-0.9c0,0.1,0,0.2,0,0.3l-0.1,2.3l-2.3-0.2c-2.7-0.3-4-2-4.6-4.1l-2.2,3.6l-0.1-1.8l-1.6,0.8l-1-1.5
	c-0.9-1.4-1.9-3.4-1.8-5.3l-0.1,0l0.1-2.5c0.1-5.5,3.7-7.7,8.4-9.2l0.6-0.2l0.6,0.2c0.2,0.1,0.4,0.1,0.6,0.1l3.5,0.6l-0.2,0.3
	c1.8,0.3,3.7,0.1,5.3-0.9l-0.2-0.4l0.1,0l0-0.1l1.6-0.8c3-3,2.8-9.2,2.2-13.2c-1.1-6.8-5.8-8.7-11.2-11.8c-4.1-2.4-8.1-5-11.6-8.3
	l-0.1-0.1l-0.1-0.2c0,0-0.1-0.1-0.1-0.2c-0.7-0.8-1.3-1.6-1.9-2.5c-2.3-3.5-3.5-7.3-4.2-11.4c-3.5-0.1-8.1,0.3-10.6,2.8
	c-1.7,1.7-2.2,4.1-2.2,6.4c0.8,0.3,1.5,0.5,2.6,0.3l2.3-0.4l0.2,2.3c0.5,5.4-1.9,7.8-6.2,10.3c-0.6,0.3-1.1,0.7-1.7,1
	c1.1,1.7,1.7,3.5,2.6,5.3l1.1,2.2l-2.3,0.8c-0.7,0.3-1.5,0.4-2.2,0.4c0,0,0,0,0,0l0.4,1.9l-1.9,0.6c-1,0.3-1.9,0.3-2.8,0.1
	c0.1,0.6,0.1,1.2,0,1.8l-0.3,1.8l-1.8,0c-3.9,0.1-5.6-1.6-7.4-4.4c-0.8,0.5-1.6,1.1-2.3,1.8c-0.8,0.7-1.6,1.5-2.5,2.2
	c0.4,2.3,0.9,3.8,0.6,6.5l-0.2,1.6l-1.5,0.2c0.1,2.7-1.4,5.3-3.9,6.4l-2.4,1l-0.5-2.6c0-0.2-0.1-0.4-0.2-0.7l-0.1,0.4l-2.6-2.1
	c-0.9-0.7-2-1.3-2.9-1.9c-1.3,2.3-3.3,3.8-6,4.5l-1,0.3c-0.5,0.5-1,0.9-1.5,1.2c2.8,1.6,5.3,3.8,7,6.5c0.1,0.1,0.2,0.3,0.3,0.4
	c0.8,0.2,1.6,0.6,2.3,1.1c2.1,1.6,3.8,3.4,4.8,5.8c5.7,12.4-2.7,23.1-14.1,27.7c-12.9,5.2-27.4,3.6-39.1-3.9c-0.2,0.7-0.4,1.3-0.7,2
	c-1.4,3.2-3.9,6.1-7,7.9c-0.2,2.8-1.2,5.4-2.9,7.7c-4.3,5.8-12.7,7.2-19.3,5.2c-7.4-2.2-12.1-9-13.9-16.4
	c-1.8,7.4-6.5,14.2-13.9,16.4c-6.6,2-15,0.6-19.3-5.2c-1.7-2.2-2.7-4.9-2.9-7.7c-3.1-1.7-5.6-4.6-7-7.9c-0.3-0.6-0.5-1.3-0.7-2
	c-11.6,7.5-26.1,9.1-39.1,3.9c-11.4-4.6-19.7-15.2-14.1-27.7c1.1-2.4,2.8-4.2,4.8-5.8c0.7-0.5,1.5-0.9,2.3-1.1
	c0.1-0.1,0.2-0.3,0.3-0.4c1.6-2.4,3.8-4.5,6.2-6c-0.7-0.3-1.3-0.8-1.9-1.4l-1-0.3c-2.6-0.7-4.7-2.2-6-4.5c-1,0.7-2,1.2-2.9,1.9
	l-2.6,2.1l-0.1-0.4c-0.1,0.2-0.2,0.4-0.2,0.7l-0.5,2.6l-2.4-1c-2.5-1.1-4-3.7-3.9-6.4l-1.5-0.2l-0.2-1.6c-0.4-2.7,0.2-4.2,0.6-6.5
	c-0.9-0.7-1.6-1.5-2.5-2.2c-0.7-0.7-1.5-1.3-2.3-1.8c-1.8,2.8-3.6,4.5-7.4,4.4l-1.8,0l-0.3-1.8c-0.1-0.6-0.1-1.2,0-1.8
	c-0.9,0.2-1.8,0.2-2.8-0.1l-1.9-0.6l0.4-1.9c0,0,0,0,0,0c-0.7,0-1.5-0.1-2.2-0.4l-2.3-0.8l1.1-2.2c0.9-1.8,1.5-3.6,2.6-5.3
	c-0.5-0.4-1.1-0.7-1.7-1c-4.3-2.5-6.7-5-6.2-10.3l0.2-2.3l2.3,0.4c1,0.2,1.7,0,2.6-0.3c0-2.3-0.5-4.7-2.2-6.4
	c-2.5-2.5-7.1-2.9-10.6-2.8c-0.7,4.1-1.9,7.9-4.2,11.4c-0.6,0.9-1.2,1.7-1.9,2.5c0,0-0.1,0.1-0.1,0.2l-0.1,0.2l-0.1,0.1
	c-3.4,3.3-7.5,5.9-11.6,8.3c-5.4,3.1-10.1,4.9-11.2,11.8c-0.6,3.9-0.8,10.1,2.2,13.2l1.6,0.8l0,0.1l0.1,0l-0.2,0.4
	c1.6,1,3.4,1.2,5.3,0.9l-0.2-0.3l3.5-0.6c0.2,0,0.4-0.1,0.6-0.1l0.6-0.2l0.6,0.2c4.7,1.5,8.3,3.7,8.4,9.2l0.1,2.5l-0.1,0
	c0,1.9-0.9,3.9-1.8,5.3l-1,1.5l-1.6-0.8l-0.1,1.8l-2.2-3.6c-0.7,2.1-1.9,3.8-4.6,4.1l-2.3,0.2l-0.1-2.3c0-0.1,0-0.2,0-0.3l-0.8,0.9
	l-0.3-0.9c-0.3,0.9-0.8,1.9-1.2,3.1l-0.9,2.6l-2.3-1.5c-1.2-0.8-2.2-1.9-2.9-3.2l-0.5-0.2c-2.3-1.1-3.5-2.9-4.7-5
	c-0.3,0.1-0.5,0.3-0.7,0.5c0,0,0,0.1-0.1,0.1l-0.2,0.2l-0.3,0.2c-0.3,0.2-0.6,0.6-0.9,0.8c-1.3,1.3-2.5,1.9-4.3,1.9
	c-0.2,0.4-0.4,0.8-0.6,1.2l-0.9,1.2l-1.5-0.4c-3.1-0.8-4.3-4.7-3.7-7.6c-0.2-0.2-0.4-0.4-0.5-0.6l-0.4-0.6l0-0.7
	c0.1-3.3-0.4-6.9,0.3-10.1c-0.8-0.1-1.8-0.1-2.4-0.1c-1.9-0.1-3.7-0.6-4.8-2.3l-0.8-1.2l0.9-1.2c0.2-0.3,0.5-0.6,0.7-0.8
	c-0.9-0.3-1.6-0.9-2.2-1.8l-1-1.6l1.4-1.3c0.1-0.1,0.1-0.1,0.2-0.2c-0.5-0.3-0.9-0.8-1.2-1.3l-2.2-3l3.7-0.4
	c0.7-0.1,1.3-0.3,1.8-0.6c1.7-0.9,2.8-2.2,4.6-3c-0.9-4.3-2.1-9.1-0.2-13.2l1.1-2.3l2.1,1.4c2.8,1.8,6.5,0.3,8.2-2.4
	c0-4.4,0.2-8.7,0.6-13.1c-4.9,1.5-10.4,1-14.5-1.8l-1.2,1.2c-2.3,2.2-6.6,1.6-8.7-0.6L7,205l-0.2-0.3c-0.1-0.2-0.1-0.3-0.2-0.5
	l-0.1-0.2l0-0.3c-0.2-1.4-0.2-2.6,0.3-3.7c-1.4-0.1-2.7-0.4-3.9-0.8l-0.5-0.2l-0.4-0.4c-4.4-5.2-0.7-13.2,6.2-13l2.9,0.1
	c0.8-2.4,1.9-4.8,3.6-7c5.5-7.2,14.2-11,19.5-18.2l0.3-0.4l0,0l0.2-0.2l0,0c0.8-0.9,1.7-2.2,1.9-3.4l0-0.2c-0.7,1-1.7,1.7-3.2,1.7
	c-0.7,0-1.4-0.1-2-0.4c-0.1-0.1-0.6-0.3-0.7-0.3l-2.1,0.2l-0.3-2c-0.3-1.7-0.3-3.6,0.4-5.2c-1-0.2-1.9-0.6-2.6-1.3
	c-1.9-1.8-1.7-4.6-1-7l-0.9-0.1l-0.5-0.7c-1.9-2.5-2.2-5.8-1.9-8.8l0.3-2.7l0.4,0.1c-0.9-1.2-1.6-2.5-2.1-3.9
	c-1.9-5.3,0.2-10.5,3.3-14.8l3.8-5.3c-1.1-8.1-3.4-19.6,0.1-27.4c-0.2,0-0.5-0.1-0.7-0.2l-2.9-1l1.9-2.4c6.5-8.2,7.6-20.3,16.1-27.2
	l-1-1.9l2.7-0.7c3.3-0.8,6.3-2.6,9.5-3.7c0.7-2.5,1.1-5.2,3.9-6.3l0.4-0.2l0.4,0c3.6,0,4.4,2.5,5.2,3.8l0.7-1.8l2.4,3.3
	c2.9,3.9,13.3,1.7,16.8,8.2l0,0c4.5,1.3,9.3,2.4,10.3,7.8l0.5,2.7l-1.1,0c-0.1,1.5-0.6,2.8-1.4,4.3c-0.3,0.6-0.7,1.2-0.8,1.9
	l-0.3,1.3c0.3,0.1,0.7,0.2,1,0.3c0.6,0.2,1.3,0.3,1.9,0.4c1.8,0.2,5.3,0.6,6.9-0.5c0.8-0.6,1.1-1.5,1.3-2.4l0.1-0.3l0.2-0.3
	c0.4-0.8,0.5-1.7,0.2-2.6l-0.1-0.4l0-0.4c0-0.2,0-0.1,0-0.3l0.3-1.5l1.5-0.3c0.7-0.1,1.5,0,2.2,0.3c2.7,1.3,3.5,6.3,2.9,8.9
	c-0.1,0.6-0.4,1.3-0.7,1.9l-0.1,0.2l-0.1,0.2c-1.4,1.8-3.2,3.2-5.4,4c-0.1,0-0.2,0.1-0.3,0.1l-0.2,0.1l-0.2,0c-4,1-9.2,0.5-13.4-0.5
	c-0.2,1.4-0.8,2.8-0.1,4.1l1.8,3.7l-4-0.6c-0.3,0.2-0.7,0.8-1.1,1c-0.3,0.2-0.6,0.3-0.9,0.4c1.3,0.1,2.6,0.2,3.8,0.3
	c3.7,0.3,8,0.8,11.3,2.6c1.3,0.7,2.6,1.7,3.6,2.8c1.3,1.4,1.9,3.1,2.3,4.9c1-1,2.2-1.8,3.5-2.5c1.3-0.7,2.9-1.5,3.9-2.5
	c0.1-0.1,0.3-0.3,0.4-0.5l1.1-1.4l1.2,0.6c0.8-2,0.9-4.3,0.8-6.5l0-1l0.7-0.7c4.3-4.3,9.2-7.9,13.9-11.7l1.4-1.1l1.4,1.1
	c0.6,0.5,1.2,0.9,1.9,1.2c1.1-1,2.4-1.6,3.8-1.4c0.9,0.1,1.7,0.4,2.4,0.8c0.4-0.2,0.8-0.4,1.3-0.4c0.1,0,0.3,0,0.5,0l0.6-1.4l2,0.9
	c3.7,1.7,6.4,4.4,8.2,8l0.4,0.4c1.8,1.7,1.4,4.4,1.4,6.7l0,0.2c0.4-0.1,0.9-0.2,1.3-0.3c2.1-0.5,4.1-1,6.2-1.5
	c-1-0.7-1.8-1.7-2.2-2.8c-1.5-3.8,1.5-7.3,5.1-8.2C166.3,68.4,166.5,68.4,166.7,68.3L166.7,68.3z M148.7,279
	c5.3-1.4,10.3-4.2,15.7-5.6c5.4-1.4,11.6-3.1,17.2-3.1c2.6,0,5.1,0.6,7.5,1.4l2.2,0.8l0.3-0.7l-0.3-0.2c-7.2-4.1-19.7-2.2-27.4,0.1
	c-4.9,1.4-9.3,3.9-14.1,5.5c2.7-5.6,0.9-13.3-4.2-16.8c-7.6-5.3-18.3-1.7-23.1,5.7c-0.3,0.4-0.5,0.8-0.7,1.2
	c-0.8,0.1-1.7,0.4-2.3,0.9c-1.8,1.3-3.2,2.9-4.2,4.9c-5.1,11.3,2.6,20.6,12.9,24.7c13.5,5.4,28.5,3.1,39.9-5.7
	c0,1.7,0.4,3.4,1.1,4.9c1.4,3.2,4,6,7.2,7.4c-0.1,2.8,0.8,5.5,2.4,7.7c3.7,5,11.2,6.1,16.9,4.4c9.6-2.9,14.2-14.6,12.9-23.9
	c-1.8-13.2-15.1-20.8-27.4-21.4c-10.8-0.5-21,5-27.5,13.4c-0.7,0.8,0,1.4,0.8,0.6c0.1-0.1,0.1-0.1,0.2-0.2
	c12.2-15.8,40.7-16.7,50.4,2.3c5.1,10,1.4,24.9-10.4,27.9c-6.9,1.7-15.9-2.9-16.7-10.3c1.4,0.4,2.9,0.5,4.4,0.3
	c4.1-0.7,7.6-3.4,9-7.3c1.5-4.3,0.2-9.4-4.2-11.4c-4.3-1.9-8.7,0.1-10.3,4.5c-0.3,0.9,0.5,1.3,0.9,0.3c1.7-4.7,8-5.3,11.1-1.6
	c3.9,4.6,1.4,11.5-4,13.4c-2.2,0.8-4.6,0.8-6.8,0.1c0.2-1.9,0.9-3.7,2-5.3c0.5-0.8-0.1-1.3-0.9-0.5c-0.1,0.1-0.2,0.2-0.3,0.3
	c-1,1.5-1.8,3.2-2.2,4.9c-4.3-2-7.2-6.8-7.3-11.6c2.7-2.2,5-4.7,7.1-7.5c0.1-0.2,0.1-0.4,0-0.6c-0.3-0.3-0.6-0.1-0.8,0.1
	c-0.1,0.1-0.2,0.2-0.3,0.3c-0.1,0.1-0.3,0.3-0.5,0.5c-1.6,2.1-3.4,4.1-5.4,5.8c0.2-1.4,0.6-2.7,1.2-4c4.4-8.4,15-11,23-6.1
	c7.9,4.8,11.6,14.1,8.9,23c-0.3,0.9,0.7,1,1-0.1c1.1-3.6,1.4-7.5,0.4-11.2c-2.6-10.3-13.7-18.7-24.4-14.9c-3.1,1.1-5.7,3.5-7.9,5.9
	c-2.2,2.4-4.9,4.1-7.6,5.9c-4.2,2.8-8.9,4.9-13.9,6c-5.4,1.2-11.2,1.1-16.5-0.8c-3.5-1.2-7.3-3.5-9.4-6.6c-3.5-5.2-4.4-12.2-1.7-18
	c0.6,0,1.2,0.2,1.8,0.6c1.6,0.9,2.3,1.7,1.5,3.5l-0.6,1.3l1.2-0.8c0.6-0.4,0.8-0.4,1.1-1.1c1.6-3.2-1.3-5-4.1-5.3
	c0.5-0.8,1-1.5,1.6-2.2c5-5.9,14.8-8.2,20.9-2.7c4.1,3.7,5,10.7,2.1,15.3c-2.6,0.7-5.2,0.9-7.7,0c-1.6-0.6-4.2-2.8-3.4-4.7
	c0.1-0.2,0.2-0.4,0.4-0.5c0.8-0.7,1.7-0.6,2.3,0.3l1.3,1.8l-0.5-2.2c-0.1-0.4-0.8-0.9-1.1-1.1c-0.9-0.5-1.8-0.2-2.6,0.4
	c-0.3,0.2-0.5,0.5-0.7,0.8c-1.2,2.5,1.6,5.4,3.8,6.2c2.2,0.9,4.5,1,6.9,0.6c-1.1,1.1-2.4,1.9-3.9,2.4c-3.7,1.1-8.2-0.8-9.7-4.4
	c-1.5-3.6,1.7-8.2,5.6-8l0.4,0l0-0.9l-0.4,0c-4.8-0.3-8.5,5.3-6.4,9.6c2,4.1,7.3,6,11.5,4.3C146,281.7,147.6,280.6,148.7,279
	L148.7,279z M120.8,269.1c-1.6,0.6-3,2-3.8,3.4c-1.7,3.1-1.9,6.9-1.2,10.3c1.3,6.8,7.8,10.6,13.7,13.2c12.7,5.6,27.9,3.2,38.6-5.3
	c0.2-1.6,0.6-3.2,1.3-4.7c-1.3,1.3-2.8,2.2-4.3,3.2c-4,2.8-8.4,5.1-13,6.5c-5.3,1.7-11.1,2.1-16.5,0.7c-3.9-1-7.8-3.1-10.6-6.1
	C119.7,284.8,117.8,276.2,120.8,269.1L120.8,269.1z M271.6,279c1.2,1.6,2.7,2.8,4.6,3.5c4.2,1.7,9.5-0.2,11.5-4.3
	c2.1-4.3-1.6-9.9-6.4-9.6l-0.4,0l0,0.9l0.4,0c4-0.2,7.1,4.3,5.6,8c-1.5,3.6-6,5.5-9.7,4.4c-1.5-0.5-2.8-1.3-3.9-2.4
	c2.3,0.4,4.6,0.3,6.9-0.6c2.2-0.8,5-3.7,3.8-6.2c-0.2-0.3-0.4-0.6-0.7-0.8c-0.8-0.6-1.7-0.9-2.6-0.4c-0.3,0.2-1,0.7-1.1,1.1
	l-0.5,2.2l1.3-1.8c0.6-0.8,1.5-1,2.3-0.3c0.2,0.2,0.3,0.3,0.4,0.5c0.8,1.9-1.7,4.1-3.4,4.7c-2.6,0.9-5.2,0.7-7.7,0
	c-2.9-4.7-2-11.7,2.1-15.3c6.1-5.5,16-3.3,20.9,2.7c0.6,0.7,1.1,1.4,1.6,2.2c-2.8,0.3-5.7,2.1-4.1,5.3c0.4,0.7,0.5,0.7,1.1,1.1
	l1.2,0.8l-0.6-1.3c-0.8-1.9-0.1-2.6,1.5-3.5c0.6-0.3,1.2-0.5,1.8-0.6c2.7,5.7,1.8,12.8-1.7,18c-2.1,3.1-5.9,5.4-9.4,6.6
	c-5.3,1.9-11,2-16.5,0.8c-5-1.1-9.6-3.2-13.9-6c-2.7-1.8-5.4-3.5-7.6-5.9c-2.2-2.4-4.8-4.7-7.9-5.9c-10.7-3.9-21.8,4.6-24.4,14.9
	c-1,3.7-0.6,7.6,0.4,11.2c0.3,1.1,1.3,0.9,1,0.1c-2.6-8.8,1.1-18.2,8.9-23c8-4.9,18.6-2.3,23,6.1c0.7,1.3,1.1,2.6,1.2,4
	c-2-1.7-3.8-3.7-5.4-5.8c-0.1-0.2-0.3-0.3-0.5-0.5c-0.1-0.1-0.2-0.2-0.3-0.3c-0.2-0.2-0.5-0.4-0.8-0.1c-0.1,0.2-0.1,0.4,0,0.6
	c2.1,2.8,4.5,5.3,7.1,7.5c0,4.8-2.9,9.5-7.3,11.6c-0.4-1.8-1.1-3.4-2.2-4.9c-0.1-0.1-0.2-0.2-0.3-0.3c-0.7-0.8-1.4-0.3-0.9,0.5
	c1.1,1.6,1.9,3.4,2,5.3c-2.2,0.7-4.6,0.7-6.8-0.1c-5.5-1.9-7.9-8.8-4-13.4c3.1-3.7,9.4-3.2,11.1,1.6c0.3,0.9,1.2,0.6,0.9-0.3
	c-1.6-4.4-6-6.4-10.3-4.5c-4.4,2-5.7,7.1-4.2,11.4c1.4,4,4.9,6.7,9,7.3c1.5,0.2,2.9,0.1,4.4-0.3c-0.8,7.4-9.8,12-16.7,10.3
	c-11.8-2.9-15.6-17.9-10.4-27.9c9.7-19,38.2-18.1,50.4-2.3c0.1,0.1,0.1,0.1,0.2,0.2c0.8,0.8,1.4,0.3,0.8-0.6
	c-6.6-8.4-16.7-13.9-27.5-13.4c-12.3,0.6-25.6,8.2-27.4,21.4c-1.3,9.3,3.3,21,12.9,23.9c5.7,1.7,13.2,0.6,16.9-4.4
	c1.7-2.3,2.6-4.9,2.4-7.7c3.2-1.4,5.8-4.2,7.2-7.4c0.7-1.6,1-3.2,1.1-4.9c11.4,8.8,26.4,11.1,39.9,5.7c10.3-4.1,18-13.5,12.9-24.7
	c-0.9-2-2.4-3.6-4.2-4.9c-0.7-0.5-1.5-0.8-2.3-0.9c-0.2-0.4-0.5-0.8-0.7-1.2c-4.8-7.3-15.5-11-23.1-5.7c-5.1,3.6-6.9,11.3-4.2,16.8
	c-4.7-1.6-9.2-4.1-14.1-5.5c-7.7-2.3-20.2-4.2-27.4-0.1l-0.3,0.2l0.3,0.7l2.2-0.8c2.4-0.8,4.9-1.4,7.5-1.4c5.6,0,11.8,1.6,17.2,3.1
	C261.4,274.8,266.3,277.6,271.6,279L271.6,279z M299.6,269.1c3,7.1,1.1,15.7-4.1,21.3c-2.8,3-6.7,5-10.6,6.1
	c-5.4,1.4-11.2,1-16.5-0.7c-4.7-1.4-9-3.8-13-6.5c-1.5-1-3-2-4.3-3.2c0.7,1.5,1.1,3.1,1.3,4.7c10.8,8.5,26,10.8,38.6,5.3
	c5.8-2.6,12.3-6.4,13.7-13.2c0.7-3.4,0.6-7.2-1.2-10.3C302.6,271.1,301.2,269.7,299.6,269.1L299.6,269.1z M133.3,248.5
	c-0.7-2.4,2.3-1.1,3.6-1.4c-2-12.5-14.4-5.7-23.9-10.9c1-0.4,3.4,0.7,3.6-0.5c-4.8-3.4-13.9-12.8-14.5-16.2c-0.1-0.8-0.1-1.5,0-2.3
	c-0.5-3.9,1-8,5.8-12.2c1.6-19-11-23.8-26.8-25.4c-4.7,4.4-8.7,9.6-11.6,15.9c5.5,0.5,9.2,2.9,12.3,5.8c-4.2-1.6-6.7-4.9-13-4.3
	c-1.1,1.8-0.2,5.6-1.4,7.2c10.5-0.6,17.4,2.4,16.7,13c-1.7,0.2-2.7,1.1-5.1,0.7c-0.7,7.2,5.6,7.4,8.7,10.9c-1.7,1.7-2.5,4.3-3.6,6.5
	c4.2,1.5,5.1-4.1,6.5-2.9c-0.6,2.3-2.4,3.4-2.9,5.8c3.2,1,4.5-3.6,5.8-2.2c0.5,2.9-1.9,2.9-1.4,5.8c4,0.1,5.1-2.6,6.5-5.1
	c3.8,1.4,5.8,4.5,8,5.8c-0.2,2.5-1.2,4.2-0.7,7.2c2.3,0.3,1.9-2,3.6-2.2c1.4,1.7,3.6,2.6,4.3,5.1c1.9-1.5,4.6-2.1,5.1-5.1
	c0.4,3.9,2.4,6.3,5.8,7.2c-1.4-3.6,0.2-5.3,2.2-7.2c2.4,0.7,3.6,2.7,5.1,4.3c0.5-3.7-0.8-5.5-2.2-7.2
	C131.4,245.5,131.9,247.4,133.3,248.5L133.3,248.5z M84.7,66c-3-5.9-17.3-11.2-13.8,1.4l0,0c-0.2,3.8,3.2,4.1,5.8,5.1
	c0.1-2.3,0.5-4.3,2.9-4.3c4.8,2.2,15.1,5.1,21.5,3.4c0.1-0.1,0.3-0.1,0.4-0.2c1.8-0.9,3.4-2,4.4-3.3c0.2-0.4,0.4-0.9,0.5-1.4
	c0.5-2.4-0.5-6.9-2.6-6.6c0,0,0,0,0,0.1c0.5,1.6,0.3,3-0.4,4.2c-0.9,5.1-5.3,5.5-10.6,4.6c-0.8-0.1-1.5-0.2-2.2-0.4
	C83.4,67.1,75,64.1,71,67.4C73.3,63,80,65,84.7,66L84.7,66z M140.5,244.2c-1.3-1.3-2.8-6.3-5.8-3.6c2.3,0.8,2,4.3,3.6,5.8
	C138.1,244.7,140.4,245.5,140.5,244.2L140.5,244.2z M126.7,248.5c-3,2.2-1.9,7.8,2.2,8.7c0.7-1.9,0.9-4.4,0.7-7.2
	C127.7,250.5,128.2,248.5,126.7,248.5L126.7,248.5z M134,247.8c-0.3,2.7,0.6,4.3,2.9,4.3c0.1-1.8,0.1-3.5-0.7-4.3L134,247.8
	L134,247.8z M140.5,77.6c-0.4,3.1,2,3.4,3.6,4.3c0.4-2.6-0.8-3.5-1.4-5.1C141.7,76.8,141.1,77.2,140.5,77.6L140.5,77.6z M118,97.1
	c-1,2.1-3.3,2.9-4.3,5.1c2.5,2.8,3.3,7.3,5.8,10.1c0.1-1.1-0.3-2.7,0.7-2.9c1.1,1.4,4.9,3.7,6.5,2.2c-1.7-2-5.4-5.7-3.6-8.7
	c0.8,3.1,5.2,6.4,8,5.1c-1.5-1.7-4.4-5.7-3.6-7.2c1.5,0.5,3.5,4.2,5.1,2.2c-1.9-3.9-3.8-8.8-1.4-13c-3.6-1.9-7.1,5-9.4,4.3
	c1.2-2.9,5.3-2.9,6.5-5.8c-2.4-1.2-3.7-3.5-3.6-7.2c0.5-0.8,2.4-3.8,2.9-2.2c-3.3,1.2-2,8.2,1.4,8.7c1.7,0.3-0.4-3.3,2.2-2.2
	c-1.7,1.9-0.1,4.9,2.9,4.3c0-3.6-3.9-3.4-2.9-8c1.1-0.1,2.7,0.3,2.9-0.7c-1.1-0.6-2.3-1.1-2.2-2.9c1.4,1.7,5.5,4.6,8.7,2.2
	c-2.3-0.2-1-5.2,2.2-4.3c-2-4.3-7.4-5.2-10.9-8c-4.6,3.8-9.5,7.4-13.8,11.6c0.3,6.6-1.8,10.7-5.8,13c0.3-1.4,3.5-3.6,2.2-4.3
	c-2.2,2.8-6.6,3.5-8.7,6.5C112.3,99.4,114,101.5,118,97.1L118,97.1z M146.3,76.1c-1.8,1.8,0.7,3.5,1.4,5.1
	C150.9,81,148.8,75.3,146.3,76.1L146.3,76.1z M147,73.9c-4-0.4-6.9-8.6-10.9-4.3c4,1.8,7.3,4.3,8.7,8.7
	C143.8,75.1,147.3,76.4,147,73.9L147,73.9z M128.9,102.9c0.4,2,1.4,3.4,2.9,4.3C132.5,104.1,130.2,104,128.9,102.9L128.9,102.9z
	 M152.1,75.4c-1.5-3.3-3.9-5.7-7.2-7.2c-0.4,1-2.8,0.1-2.9,1.4c3,2.1,6.1,4,8,7.2C149.8,75.5,150.6,75.1,152.1,75.4L152.1,75.4z
	 M152.8,76.1h-2.2c-1.5,2.7,1.2,3.6,2.9,5.1C153.5,79.3,153.8,77,152.8,76.1L152.8,76.1z M27.5,76.1c3,1,4.1-3.5,5.8-1.4
	c-8.6,5.5-4.8,22.8-3.7,31.4c0.4,0.4,0.7,0.8,1.1,1.3c0.1-3,0.4-6.1,1.1-9.5c1.6,9.7-1.7,17.7,0.7,27.5c5.5-0.8,4.1-8.4,7.2-11.6
	c-2,8.5,0.1,16.6,2.2,23.2c5.5-1.2,4-9.6,6.5-13.8c-0.8,6.8,2,15.1,2.9,22.5c4.9-2.1,7.1-6.9,7.2-13.8c4.9,3,6,9.9,8,15.9
	c9.9-2.2,7.2-17,10.9-25.4c-2.5-3.1-5.3-5.8-6.5-10.1c4,8.3,12.5,12.1,18.8,18.1c6.9-4.3,0.9-14.2-0.7-17.4c4.8,3.4,7.9,15.7,0,18.1
	c-3.7-2.5-5.7-6.8-10.9-8c-0.6,1.8-1.7,3.1-1.4,5.8c2.4,2.7,5.9,4.3,7.2,8c-0.2,1.7-3.4,0.4-2.9,2.9c1.4,3.2,5.9,3.3,6.5,7.2
	c-0.7,0.3-3.8,1.6-0.7,1.4c0.1,3.1,2.3-1,5.1-1.4c-0.6,1.8-4.6,4-2.9,5.8c2.1-0.8,5.5-4.1,6.5-3.6c-0.7,3.8-9.5,3.5-7.2,8
	c6.4-0.6,12.4-1.6,13.8-7.2c7,1.7,13.9,3.5,18.8,7.2c1.4-2.7,0-7.9,0.7-9.4c0.2,11.4-1.4,22.7,7.2,28.3c-0.8-3.7,2-3.8,3.6-5.1
	c-3-0.9-7.1-0.7-8-3.6c0.4-1.3-0.9-4.3,0.7-4.3c-0.3,3.4,0.1,6.2,3.6,5.8c2.2-4.7-7.2-7-4.3-12.3c0.4,4.4,3.4,10.1,8,8
	c-1.7-0.2-3.4-0.5-2.9-2.9c0.3-0.2,0.6-0.4,0.9-0.6c-0.7,1.7,1.1,3.2,3.5,2.8c0-2.1-1.2-3-2.7-3.5c3.3-4.3-2.2-12.7,2-16
	c-2.7,0.5-3.2-1.1-2.9-3.6c-1.2,0.3-2.3,0.4-3.5,0.5c0,0.1-0.1,0.2-0.1,0.3c-1,0.1-1.8-0.1-2.4-0.4c-9.9-1.3-18.8-10.9-22.2-17
	c4.8,5.1,9,10.8,15.9,13.8c5-9.8-8-12.2-10.9-18.8c4.6,5.3,16.6,9.3,11.6,19.6c2.9-0.3,3.7,1.6,5.5,2.5c0.8,0.1,1.7,0.2,2.6,0.1
	c0.2-0.4,0.6-0.6,1.3-0.5c7.9-19.7-15.2-20.4-20.3-31.9c3.4,4.1,8.5,7,12.9,10.2c0-0.1,0-0.2,0-0.3c-3.5-6.1-4.1-12.1-7.9-17.2
	c-5.5-7.3-16.1-6.3-21.7-13.8c3.1,2.7,6.7,4.9,11.6,5.8c-0.3-1.8-0.9-3.2-1.8-4.4c-0.9-0.9-2-1.7-3.1-2.3c-5.8-2.8-15.4-1.5-21-4.1
	c-0.5-0.2-1.6-0.9-1.5-0.9c-1.7-1.2-2.8-3-3-5.7C62.1,76,59.4,65.7,60.8,58c-8.7,2.9-10.3-7.6-16.7-9.4C35.5,54.7,34,67.9,27.5,76.1
	L27.5,76.1z M99.9,143.5c5,3.2,13.1,7.2,18.1,8C112.3,148.4,106.4,145.7,99.9,143.5L99.9,143.5z M66.6,92.8
	c8.1,3,13.9,12.2,22.5,12.3C80.2,102.8,74.5,93.6,66.6,92.8L66.6,92.8z M55.7,68.1c1.1,9.3,7.8,13,15.9,15.2
	c3.4,0.4,1.8-1.3-0.7-0.7C63.2,80.5,58.5,75.3,55.7,68.1L55.7,68.1z M47,92.8c4.8,3.6,11,9.8,15.9,10.9
	C57.8,100.4,51.6,94.3,47,92.8L47,92.8z M47.8,83.4c-11.7-2.5-5.8-18.8-3.6-22.5C36.2,67.1,38,83.2,47.8,83.4L47.8,83.4z
	 M60.1,264.5c-0.1-4.6-3.3-6-6.9-7.1c-0.3,0.1-0.6,0.2-0.9,0.2c1.9,2.5,3.4,5.4,4.8,8.4C57.4,264.6,58.4,264.3,60.1,264.5
	L60.1,264.5z M73.9,176.8c0.1,0.8-1.1,1.1,0,1.4c9.5-11,31.8-9.2,36.2-25.4c-2.3-0.3-3.9-1.4-6.5-1.4c-2.3,7.6-7.7,12.1-13.8,15.9
	c3.2-3.9,10.1-7.8,10.1-12.3c-1.6,3.3-11.6,1.9-13,2.9c-1-3,1.7-5.9,0-7.2c-0.6,0.7-3.7,2.4-4.3,0.7c0.2-1.5,2.7-0.7,2.9-2.2
	c-1.3-0.1-2.4-0.5-2.9-1.4c1.6-0.6,3.9-0.4,4.3-2.2c-3.3-1.6-6.1-3.5-7.2-7.2c0.3-1.6,4,0.1,3.6-2.2c-2.3-2.1-3.8-4.9-7.2-5.8
	c0.2,9.4-2.5,15.9-9.4,18.1c-3.4,6.5-10.8,12.9-15.2,15.9c7.7-6.9,21.1-18.9,8-30.4c-1.1,3.7,1.8,10.5,0.7,15.9
	c-1,5-6.6,9.6-11.8,14.5c-1.5,1.5-3,3-4.5,4.6c-0.1,0.1-0.3,0.3-0.4,0.5c-7.1,8.3-6.7,17.1-9.4,24.6c-2.9,8-17.8,6.8-15.2-6.5
	c2.3-11.7,22.9-17,25.4-29c2.6-24.3-18.6-24.9-18.8-46.4c-14,19.6,16.8,23.6,17.4,37.7c-3.1-8.5-11.8-15.2-18.8-17.4
	c-0.3,3.2,0.2,5.6,1.4,7.2c7.4,1.1,16.6,4.1,15.2,11.6c-2.9-0.2-2.9-3.4-6.5-2.9c-2.6,0.8-4.3,2.4-3.6,6.5c1.4-0.2,1.6,0.8,2.9,0.7
	c2.6,0,1.5-3.8,2.9-5.1c0.5,1.5,3.4,0.5,3.6,2.2c-0.3,1.4-0.7,2.6-1.1,3.8c-0.2,1.6-1.2,3.1-2.5,4.5c0,0.1-0.1,0.1-0.2,0.2
	c0,0,0,0.1-0.1,0.1c0,0.1-0.1,0.2-0.2,0.2c-8.3,11.1-25.2,14.9-23.6,33.2c-0.5,0.5-0.8,0.6-1.1,0.5c-1.8,0.3-3.6-0.4-4.1-2.4
	c-0.5-1.9,0.1-3.7,1-5.4c-5.2-0.2-7.6,5.7-4.5,9.4c1.9,0.8,4.4,0.9,7.2,0.7c-0.9,1.6-2.8,2.4-2.2,5.5c0.1,0.2,0.1,0.3,0.2,0.5
	c1.1,1.2,4.1,2,5.6,0.5c-1.3-1.9-3.7-5.3,0-6.5c2.6,6.8,11.4,9.5,18.8,5.8c1.8-11.8,4.2-22.9,10.9-29.7
	c-7.6,11.5-10.9,27.2-10.9,46.4c-2,3.7-7.2,6.4-11.6,3.6c-1.9,4,0,9.9,0.7,13.8c-3.6,0.7-4.8,3.9-8.7,4.3c1.9,2.6,5.6,0.9,8,0
	c-0.9,3-5.2,2.5-7.2,4.3c1.5,2.3,6,0.5,7.2,1.4c-1.3,1.8-4.5,1.8-5.8,3.6c1.3,2.1,6.1,0.6,8,2.2c-1.2,2.9-0.6,7.6-0.7,11.6
	c0.8,1.2,2.2-1.8,4.3,0c1,0.9,0.7,3.1,0.7,5.1c2.4,0.1,2.9-1.6,4.3-2.4c0,0,0.1-0.1,0.1-0.1c0.9-0.8,2-1.4,3.2-1.3
	c0.1,0,0.2,0.1,0.3,0.2c0,0,0,0,0.1,0c1.2,2,2.2,4.1,4.3,5.1c-0.5-3.2,1.3-4,2.9-5.1c0.7,0.4,3.2,3.8,2.9,0.7
	c0.9-3.6-4.7-4.4-3.6-5.8c3.7,0.9,4.6,4.6,5.8,8c1-1.1,4.1-7.3,7.2-2.2c0.1-4.7-2.8-6.4-4.3-9.4c-4.9,1.4-8.5,0.4-10.8-2.1
	c0,0,0,0,0.1,0c-0.1,0-0.1-0.1-0.2-0.2c0,0,0,0-0.1,0c-2.9-3.4-3.8-9.2-2.8-15.1c1.2-7.9,6.4-10.4,12.2-13.3c3.8-2.5,7.9-4.9,11.1-8
	c0.1-0.1,0.2-0.3,0.3-0.4c0.6-0.7,1.1-1.4,1.7-2.2C71.6,203.5,63.2,186.8,73.9,176.8L73.9,176.8z M60.8,205.8
	c-1.6,3.3-3.2,10.3-3.6,12.3C60,216.1,61.3,208.7,60.8,205.8L60.8,205.8z M141.5,246.6c-0.1-0.4-0.2-0.8-0.4-1.2
	c-1.1,0.2-2,0.8-2.8,1.6c1.5,0.2,1.4,2,2.9,2.2C140.5,247.8,140.8,247,141.5,246.6L141.5,246.6z M130.4,166.7
	c-0.6,3,1.1,3.7,3.6,3.6C133.7,168.2,132.4,167,130.4,166.7L130.4,166.7z M44.2,47.1c0.9,1.7,3.5,1.8,5.8,2.1
	c1.1,0.1,2.1,0.3,2.9,0.8c-1.3,0.4-3,0.4-3.6,1.4c1,2.6,6.9,0.4,8.7,2.2c-0.6,1.6-4.6-0.3-5.1,1.4c2.4,3,7.1,3.4,10.9,1.4
	c-6.9,12.2,5.5,23.1,19.6,18.8c0.8,2.7-1.8,2.1-1.4,4.3c2.7,0.8,2.1-1.8,4.3-1.4c-1.1-2.3-0.3-3.2,0-5.8
	C73.2,78.4,62.9,63.6,73.9,58c5.4,1.6,8.5,5.5,14.5,6.5c0.5-2.6,2.6-3.7,2.2-7.2c-3.7-0.9-6.1-3.1-8.7-5.1c4.5,0.1,5,4.2,9.4,4.3
	c-0.9-4.7-5.9-5.2-10.1-6.5c-1.9,1.2-2.1,4.1-5.1,4.3c-2.9,0.2-4.4-0.9-5.8-2.2c2.8,0.1,7,3.5,8-0.7c0.9-0.2,0.4-0.8,0-1.4
	C68,54.1,58.8,50.7,55,42.8c0.7-2.2,0.9-4.9,2.9-5.8c3.1,0,2.9,3.4,5.1,4.3c-0.4,3-5.6,2.4-8,1.4C51.1,44,48.2,46.2,44.2,47.1
	L44.2,47.1z M67.3,63.1c-0.5-3.4,4-5.6,2.9-7.2C69.1,57.6,65.3,60.5,67.3,63.1L67.3,63.1z M81.1,49.3c-2.8-5.4-13.2-3.2-16.7-8
	c-1,2.6-4.3,2.9-6.5,4.3C61.8,53.1,74,49.7,81.1,49.3L81.1,49.3z M40.5,150.7c-1.2-6.2-6.5-8.4-13-9.4
	C23.2,153.4,37,144.9,40.5,150.7L40.5,150.7z M50.7,273.1c3.1-0.3,3-3.7,3.6-6.5c-1,0-1.6-0.3-2.2-0.7
	C50.4,267.1,50.6,270.1,50.7,273.1L50.7,273.1z M24.6,265.9c-1.5,1.9-0.6,6,1.4,6.5c1-1.4,0.7-4.1,1.4-5.8
	C26.5,266.4,26.1,265.6,24.6,265.9L24.6,265.9z M108.6,249.2c-2.1,2.1-1.3,6.1,1.4,7.2c0.4-2,1.8-3,2.2-5.1
	C110.5,251.2,110.9,248.9,108.6,249.2L108.6,249.2z M42,268.1c-1.4,2.8,0.1,5.9,2.2,7.2c0.6-1.8,1.7-3.1,1.4-5.8
	C44.2,269.2,44.3,267.5,42,268.1L42,268.1z M58.6,265.2c-1.6,1.1-2.1,4.8,0,5.8C59.5,269.7,61.5,265.9,58.6,265.2L58.6,265.2z
	 M130.4,173.2c-2,2.2,1.2,3.6,2.9,4.3C133.1,175.2,132.7,173.2,130.4,173.2L130.4,173.2z M110.8,153.6c-4.2,7.4,1.1,17.7,8,15.9
	c-3.3-3.3-1.9-9.4,0-13C115.5,156.2,114.5,153.6,110.8,153.6L110.8,153.6z M77.9,72.6c2.1-0.1,4.7,0.4,5.8-0.7
	C83.8,68.7,76.4,67.3,77.9,72.6L77.9,72.6z M69.5,194.2c2-8.9,11.8-13.8,15.2-18.8C72.7,174.2,68.4,184.6,69.5,194.2L69.5,194.2z
	 M132.5,143.5c0.1-1.9,2.8-1,2.9-2.9h-4.3C130.9,142.2,131.3,143.3,132.5,143.5L132.5,143.5z M91.2,226.8c-2.5-0.9-4.1-2.6-5.1-5.1
	c2.8-0.9,0.6-10.9,0.7-2.9c-0.8,1.1-2.1,1.8-2.2,3.6C86,224.3,89.4,227.9,91.2,226.8L91.2,226.8z M102.1,198.5
	c1.2,3.6,0.9-1.6,0-5.1c-0.5-2-8.6-6.3-6.5-4.3C100.4,191.3,100.9,194.9,102.1,198.5L102.1,198.5z M273.4,40.8c0,0-7.9-2.5-0.9-4.7
	c0,0-2.6-3-6.9,0c-2.6,1.9,1.1,6.2,3.8,6.4c0,0-7.7,1.1-7.7,5.6c0,0-3.7,0.3-7.4-0.1c1.6-2,3.2-3.9,4.8-5.8c0,0,0,0-0.1,0
	c0.9,0.1,1.8-0.3,2-1c0.2-0.7-0.5-1.4-1.4-1.6c-1-0.2-1.9,0.3-2.1,1c-0.1,0.4,0.1,0.8,0.4,1.1c-1.7,2.1-3.4,4.1-5.1,6.2
	c-2.7-0.5-5.2-1.5-6.3-3.5c-3-5.4,6.5-7.7,3.5-1.7c0,0,4-0.3,4.5-4.8c0.5-4.5-6-2-5.9-2c0,0-1.8-1.5,2.6-4.4c4.5-2.8-3.8-6-3.3-11.2
	c-2.2,6.1-11.8,2.5-5.9,13.7c0,0-8.1-2.8-9.7,1.1c-1.6,3.9,1.2,5.3,1.1,5.3c0,0-0.4-4.9,3.8-3.3c3.4,1.4-0.5,8.4-9.1,7.8
	c0.2-2.4,0.4-4.8,0.6-7.2c0.6-0.2,1-0.6,1.1-1.1c0.1-0.7-0.7-1.4-1.7-1.4c-1-0.1-1.9,0.5-1.9,1.2c0,0.6,0.4,1.1,1.1,1.3
	c-0.2,2.4-0.4,4.7-0.6,7.1c-1.8-0.3-3.8-0.8-6-1.8c-0.1,0,7.3-3.2-0.8-10.7c0,0,8.7,1.4,11.2-4c2.7-5.5-8.3-8.3-8.4-8.2
	c0,0,4.1,6.7-2.1,6.3c-13.1-0.8,8.1-16.1-8-23.9c0,0,0,0,0,0c0,0,0,0,0,0c0,0,0,0,0,0c0,0,0,0,0,0c-16.2,7.8,5.1,23.2-8,23.9
	c-6.2,0.5-2.2-6.2-2.1-6.3c0-0.1-11.1,2.7-8.4,8.2c2.6,5.4,11.2,3.9,11.2,4c-8.1,7.5-0.7,10.7-0.8,10.7c-2.3,1-4.3,1.5-6.1,1.8
	c-0.2-2.4-0.4-4.7-0.6-7.1c0.7-0.2,1.1-0.7,1.1-1.3c-0.1-0.7-0.9-1.3-1.9-1.2c-1,0.1-1.8,0.7-1.7,1.4c0,0.5,0.5,0.9,1.1,1.1
	c0.2,2.4,0.4,4.8,0.6,7.2c-8.6,0.6-12.5-6.4-9.1-7.8c4.3-1.7,3.8,3.3,3.8,3.3c0,0,2.8-1.5,1.2-5.3c-1.7-3.9-9.8-1.1-9.7-1.1
	c5.9-11.2-3.7-7.6-5.9-13.7c0.5,5.2-7.8,8.4-3.3,11.2c4.4,2.8,2.6,4.4,2.7,4.4c0,0-6.4-2.5-5.9,2c0.5,4.5,4.5,4.8,4.5,4.8
	c-2.9-6,6.5-3.7,3.5,1.7c-1.1,2.1-3.6,3-6.3,3.5c-1.6-2.1-3.3-4.2-5.1-6.2c0.3-0.3,0.5-0.7,0.4-1.1c-0.2-0.7-1.1-1.2-2.1-1
	c-1,0.2-1.6,0.9-1.4,1.6c0.2,0.7,1,1.1,2,1c0,0,0,0-0.1,0c1.6,1.9,3.3,3.9,4.8,5.8c-3.7,0.4-7.4,0.1-7.4,0.1
	c0.1-4.5-7.6-5.7-7.7-5.6c2.7-0.3,6.4-4.5,3.8-6.4c-4.3-3-6.9,0-6.9,0c7,2.2-0.9,4.7-0.9,4.7c-4.3-8.6-12.3-6.5-12.3-6.4
	c9.7,8.1,18.5,16.7,26.4,25.7c30.5-6.2,62.3-6.2,92.9,0c7.9-9,16.8-17.5,26.4-25.7C285.7,34.4,277.7,32.3,273.4,40.8L273.4,40.8z
	 M257.3,65.9c0.4-1.3,0.7-2.5,1.1-3.8c-30-6.1-61.2-6.1-91.2,0c0.4,1.3,0.7,2.5,1.1,3.8C197.5,60,228,60,257.3,65.9L257.3,65.9z
	 M259,70.6c-30.2-7.5-62.2-7.5-92.4,0c-2.8,0.7-4.4,3.1-3.6,5.3c0.9,2.2,3.7,3.4,6.3,2.7c28.4-7,58.6-7,87,0
	c2.6,0.6,5.4-0.5,6.3-2.7C263.4,73.7,261.8,71.3,259,70.6L259,70.6z M168.4,76.8c1.4-0.3,2.2-1.5,1.8-2.7c-0.4-1.1-1.8-1.8-3.2-1.4
	c-1.4,0.3-2.2,1.6-1.8,2.7C165.6,76.5,167,77.1,168.4,76.8L168.4,76.8L168.4,76.8z M177.1,74.8c1.4-0.3,2.3-1.4,2-2.6
	c-0.3-1.2-1.7-1.9-3.1-1.6c-1.4,0.3-2.3,1.5-2,2.6C174.4,74.4,175.8,75.1,177.1,74.8L177.1,74.8L177.1,74.8z M186,73.3
	c1.4-0.2,2.4-1.3,2.2-2.5c-0.2-1.2-1.6-2-3-1.8c-1.5,0.2-2.4,1.4-2.2,2.5C183.2,72.8,184.6,73.5,186,73.3L186,73.3L186,73.3z
	 M194.9,72.2c1.4-0.1,2.5-1.2,2.3-2.4c-0.1-1.2-1.4-2-2.9-1.9c-1.5,0.1-2.5,1.2-2.3,2.4C192.2,71.5,193.5,72.4,194.9,72.2
	L194.9,72.2L194.9,72.2z M203.8,71.6c1.4-0.1,2.5-1.1,2.5-2.2c0-1.2-1.3-2.1-2.8-2c-1.5,0.1-2.6,1.1-2.5,2.3
	C201.2,70.8,202.4,71.6,203.8,71.6L203.8,71.6L203.8,71.6z M212.8,71.4c1.4,0,2.6-0.9,2.6-2.1c0-1.2-1.2-2.2-2.6-2.2
	c-1.5,0-2.6,1-2.6,2.2C210.2,70.4,211.4,71.4,212.8,71.4L212.8,71.4L212.8,71.4z M221.7,71.6c1.4,0.1,2.6-0.8,2.7-2
	c0.1-1.2-1-2.2-2.5-2.3c-1.5-0.1-2.7,0.9-2.8,2C219.2,70.5,220.3,71.5,221.7,71.6L221.7,71.6L221.7,71.6z M230.7,72.2
	c1.4,0.1,2.7-0.7,2.9-1.9c0.2-1.2-0.9-2.3-2.3-2.4c-1.5-0.1-2.8,0.7-2.9,1.9C228.2,71,229.3,72.1,230.7,72.2L230.7,72.2L230.7,72.2z
	 M239.6,73.3c1.4,0.2,2.7-0.6,3-1.7c0.3-1.2-0.7-2.3-2.2-2.5c-1.5-0.2-2.8,0.6-3,1.8C237.2,72,238.2,73.1,239.6,73.3L239.6,73.3
	L239.6,73.3z M248.4,74.8c1.4,0.3,2.8-0.4,3.1-1.6c0.3-1.2-0.5-2.3-2-2.6c-1.4-0.3-2.8,0.4-3.1,1.6C246.1,73.4,247,74.5,248.4,74.8
	L248.4,74.8L248.4,74.8z M257.1,76.8c1.4,0.3,2.8-0.3,3.2-1.4c0.4-1.1-0.4-2.4-1.8-2.7c-1.4-0.4-2.9,0.3-3.2,1.4
	C254.9,75.2,255.8,76.4,257.1,76.8L257.1,76.8L257.1,76.8z M285.9,248.5c1.3-1.1,1.8-3,3.6-3.6c-1.4,1.8-2.7,3.6-2.2,7.2
	c1.5-1.7,2.6-3.6,5.1-4.3c2,2,3.6,3.6,2.2,7.2c3.4-1,5.4-3.3,5.8-7.2c0.4,3,3.2,3.5,5.1,5.1c0.7-2.4,2.9-3.3,4.3-5.1
	c1.7,0.2,1.3,2.5,3.6,2.2c0.4-3.1-0.5-4.8-0.7-7.2c2.1-1.3,4.1-4.4,8-5.8c1.4,2.4,2.6,5.2,6.5,5.1c0.5-2.9-1.9-2.9-1.4-5.8
	c1.2-1.4,2.6,3.1,5.8,2.2c-0.5-2.4-2.3-3.5-2.9-5.8c1.5-1.2,2.4,4.4,6.5,2.9c-1.1-2.2-1.9-4.9-3.6-6.5c3.1-3.5,9.4-3.6,8.7-10.9
	c-2.4,0.4-3.4-0.5-5.1-0.7c-0.7-10.6,6.2-13.6,16.7-13c-1.3-1.6-0.3-5.4-1.4-7.2c-6.3-0.5-8.9,2.7-13,4.3c3.1-2.9,6.8-5.2,12.3-5.8
	c-2.9-6.3-6.8-11.5-11.6-15.9c-15.8,1.5-28.4,6.4-26.8,25.4c4.9,4.2,6.3,8.3,5.8,12.2c0.1,0.8,0.1,1.5,0,2.3
	c-0.6,3.3-9.7,12.8-14.5,16.2c0.2,1.2,2.6,0.1,3.6,0.5c-9.5,5.1-21.9-1.6-23.9,10.9C283.7,247.4,286.7,246.1,285.9,248.5
	L285.9,248.5z M334.5,66c4.7-0.9,11.4-2.9,13.8,1.4c-4.1-3.3-12.5-0.4-19.7,1.2c-0.7,0.2-1.4,0.4-2.2,0.4c-5.3,0.9-9.6,0.5-10.6-4.6
	c-0.7-1.2-0.8-2.7-0.4-4.2c0,0,0,0,0-0.1c-2.1-0.4-3.1,4.2-2.6,6.6c0.1,0.5,0.3,1,0.5,1.4c1,1.3,2.6,2.5,4.4,3.3
	c0.1,0,0.3,0.1,0.4,0.2c6.4,1.6,16.7-1.2,21.5-3.4c2.4,0,2.8,2.1,2.9,4.3c2.6-1,6-1.3,5.8-5.1l0,0C351.7,54.8,337.4,60.1,334.5,66
	L334.5,66z M278.7,244.2c0.1,1.4,2.4,0.5,2.2,2.2c1.6-1.5,1.3-5,3.6-5.8C281.5,237.8,280,242.8,278.7,244.2L278.7,244.2z
	 M292.4,248.5c-1.4,0-0.9,2-2.9,1.4c-0.1,2.8,0,5.3,0.7,7.2C294.3,256.3,295.5,250.7,292.4,248.5L292.4,248.5z M285.2,247.8l-2.2,0
	c-0.8,0.9-0.8,2.6-0.7,4.3C284.6,252,285.5,250.5,285.2,247.8L285.2,247.8z M278.7,77.6c-0.6-0.4-1.2-0.8-2.2-0.7
	c-0.6,1.6-1.9,2.5-1.4,5.1C276.7,80.9,279.1,80.6,278.7,77.6L278.7,77.6z M301.1,97.1c4,4.4,5.8,2.3,12.3-2.2
	c-2.1-3-6.5-3.7-8.7-6.5c-1.4,0.7,1.8,2.9,2.2,4.3c-4-2.3-6.1-6.4-5.8-13c-4.2-4.2-9.1-7.8-13.8-11.6c-3.5,2.8-8.9,3.7-10.9,8
	c3.1-0.9,4.5,4.1,2.2,4.3c3.1,2.4,7.3-0.4,8.7-2.2c0.1,1.8-1.1,2.3-2.2,2.9c0.2,1,1.8,0.6,2.9,0.7c1,4.6-2.9,4.4-2.9,8
	c3,0.6,4.6-2.5,2.9-4.3c2.6-1.1,0.4,2.5,2.2,2.2c3.5-0.5,4.7-7.5,1.4-8.7c0.5-1.6,2.4,1.4,2.9,2.2c0.1,3.7-1.2,6-3.6,7.2
	c1.2,2.9,5.3,2.9,6.5,5.8c-2.3,0.7-5.8-6.2-9.4-4.3c2.3,4.3,0.5,9.2-1.4,13c1.6,2,3.6-1.7,5.1-2.2c0.8,1.6-2.1,5.6-3.6,7.2
	c2.8,1.3,7.1-2,8-5.1c1.8,3-1.9,6.7-3.6,8.7c1.6,1.5,5.5-0.8,6.5-2.2c1,0.2,0.6,1.8,0.7,2.9c2.5-2.8,3.3-7.3,5.8-10.1
	C304.5,100.1,302.1,99.3,301.1,97.1L301.1,97.1z M272.9,76.1c-2.5-0.8-4.6,4.9-1.4,5.1C272.2,79.6,274.6,78,272.9,76.1L272.9,76.1z
	 M272.2,73.9c-0.3,2.5,3.2,1.1,2.2,4.3c1.4-4.4,4.7-6.9,8.7-8.7C279,65.4,276.2,73.5,272.2,73.9L272.2,73.9z M290.3,102.9
	c-1.3,1.1-3.6,1.2-2.9,4.3C288.8,106.3,289.8,104.9,290.3,102.9L290.3,102.9z M267.1,75.4c1.5-0.2,2.3,0.1,2.2,1.4
	c1.9-3.2,5-5.1,8-7.2c-0.1-1.3-2.5-0.4-2.9-1.4C271,69.7,268.6,72.1,267.1,75.4L267.1,75.4z M266.4,76.1c-1,0.9-0.7,3.1-0.7,5.1
	c1.7-1.5,4.4-2.4,2.9-5.1H266.4L266.4,76.1z M391.7,76.1c-6.5-8.2-8-21.4-16.7-27.5c-6.4,1.8-8,12.3-16.7,9.4
	c1.4,7.7-1.3,18-11.6,18.1c-0.2,2.7-1.3,4.5-3,5.7c0.1-0.1-1,0.7-1.5,0.9c-5.6,2.6-15.2,1.3-21,4.1c-1.1,0.7-2.1,1.5-3.1,2.3
	c-0.9,1.1-1.5,2.5-1.8,4.4c4.9-0.9,8.5-3.1,11.6-5.8c-5.7,7.4-16.2,6.4-21.7,13.8c-3.8,5.1-4.4,11.1-7.9,17.2c0,0.1,0,0.2,0,0.3
	c4.5-3.2,9.5-6.1,12.9-10.2c-5.1,11.5-28.2,12.2-20.3,31.9c0.7-0.1,1.1,0.1,1.3,0.5c0.9,0,1.7,0,2.6-0.1c1.8-0.9,2.6-2.8,5.5-2.5
	c-5-10.3,7-14.2,11.6-19.6c-2.8,6.6-15.8,9-10.9,18.8c7-2.9,11.2-8.6,15.9-13.8c-3.4,6.1-12.3,15.7-22.2,17
	c-0.6,0.3-1.4,0.5-2.4,0.4c0-0.1-0.1-0.2-0.1-0.3c-1.2,0-2.3-0.2-3.5-0.5c0.3,2.5-0.2,4.1-2.9,3.6c4.2,3.3-1.3,11.8,2,16
	c-1.5,0.6-2.7,1.5-2.7,3.5c2.3,0.4,4.1-1.1,3.5-2.8c0.3,0.2,0.5,0.4,0.9,0.6c0.5,2.4-1.2,2.6-2.9,2.9c4.5,2.1,7.5-3.6,8-8
	c2.9,5.3-6.5,7.6-4.3,12.3c3.6,0.4,3.9-2.4,3.6-5.8c1.6,0.1,0.3,3.1,0.7,4.3c-0.9,3-5,2.7-8,3.6c1.6,1.3,4.5,1.3,3.6,5.1
	c8.6-5.6,7.1-16.9,7.2-28.3c0.8,1.5-0.7,6.7,0.7,9.4c4.9-3.8,11.8-5.6,18.8-7.2c1.4,5.6,7.4,6.6,13.8,7.2c2.3-4.5-6.5-4.1-7.2-8
	c1-0.5,4.4,2.8,6.5,3.6c1.7-1.8-2.3-4-2.9-5.8c2.7,0.4,4.9,4.5,5.1,1.4c3.1,0.1,0-1.1-0.7-1.4c0.6-4,5.1-4,6.5-7.2
	c0.5-2.5-2.7-1.2-2.9-2.9c1.4-3.7,4.9-5.3,7.2-8c0.2-2.7-0.8-4-1.4-5.8c-5.1,1.1-7.1,5.4-10.9,8c-7.9-2.4-4.8-14.7,0-18.1
	c-1.6,3.2-7.6,13.1-0.7,17.4c6.3-6,14.9-9.8,18.8-18.1c-1.2,4.3-4,7.1-6.5,10.1c3.7,8.4,1,23.1,10.9,25.4c2-6,3-12.9,8-15.9
	c0.1,6.9,2.3,11.7,7.2,13.8c0.9-7.4,3.7-15.6,2.9-22.5c2.5,4.2,1,12.5,6.5,13.8c2.1-6.6,4.2-14.7,2.2-23.2
	c3.1,3.2,1.7,10.8,7.2,11.6c2.4-9.8-0.9-17.9,0.7-27.5c0.7,3.4,1,6.5,1.1,9.5c0.4-0.4,0.7-0.9,1.1-1.3c1.2-8.6,4.9-25.9-3.7-31.4
	C387.5,72.6,388.7,77.1,391.7,76.1L391.7,76.1z M319.2,143.5c-6.5,2.2-12.4,5-18.1,8C306.1,150.6,314.2,146.7,319.2,143.5
	L319.2,143.5z M352.6,92.8c-7.9,0.8-13.6,10-22.5,12.3C338.7,105,344.5,95.8,352.6,92.8L352.6,92.8z M363.4,68.1
	c-2.8,7.1-7.5,12.3-15.2,14.5c-2.5-0.6-4.1,1.1-0.7,0.7C355.7,81.2,362.3,77.4,363.4,68.1L363.4,68.1z M372.1,92.8
	c-4.5,1.5-10.8,7.6-15.9,10.9C361.1,102.5,367.3,96.4,372.1,92.8L372.1,92.8z M371.4,83.4c9.8-0.2,11.6-16.3,3.6-22.5
	C377.2,64.5,383.1,80.9,371.4,83.4L371.4,83.4z M359.1,264.5c1.6-0.2,2.7,0.2,2.9,1.4c1.5-2.9,3-5.9,4.8-8.4c-0.3,0-0.6-0.1-0.9-0.2
	C362.4,258.4,359.2,259.9,359.1,264.5L359.1,264.5z M345.3,176.8c10.7,10,2.2,26.7,10.9,39.8c0.5,0.8,1.1,1.5,1.7,2.2
	c0.1,0.1,0.2,0.2,0.3,0.4c3.3,3.1,7.3,5.5,11.1,8c5.8,3,11,5.5,12.2,13.3c0.9,5.9,0.1,11.7-2.8,15.1c0,0,0,0-0.1,0
	c0,0.1-0.1,0.1-0.2,0.2c0,0,0,0,0.1,0c-2.3,2.5-5.8,3.6-10.8,2.1c-1.5,3.1-4.5,4.7-4.3,9.4c3.1-5.2,6.3,1,7.2,2.2
	c1.2-3.4,2.1-7.1,5.8-8c1.1,1.4-4.5,2.2-3.6,5.8c-0.3,3,2.2-0.3,2.9-0.7c1.6,1.1,3.4,1.9,2.9,5.1c2.1-1,3.2-3.1,4.3-5.1
	c0,0,0,0,0.1,0c0.1-0.1,0.2-0.2,0.3-0.2c1.2-0.2,2.3,0.4,3.2,1.3c0,0,0.1,0.1,0.1,0.1c1.4,0.8,1.9,2.6,4.3,2.4
	c0-1.9-0.3-4.1,0.7-5.1c2.1-1.9,3.6,1.2,4.3,0c-0.2-3.9,0.5-8.7-0.7-11.6c1.9-1.5,6.7-0.1,8-2.2c-1.3-1.8-4.5-1.8-5.8-3.6
	c1.2-0.9,5.7,0.9,7.2-1.4c-2-1.8-6.4-1.4-7.2-4.3c2.4,0.9,6.1,2.6,8,0c-3.9-0.4-5-3.6-8.7-4.3c0.7-3.8,2.6-9.7,0.7-13.8
	c-4.4,2.8-9.6,0-11.6-3.6c0-19.1-3.3-34.9-10.9-46.4c6.7,6.8,9.1,17.9,10.9,29.7c7.5,3.7,16.3,1,18.8-5.8c3.7,1.2,1.3,4.6,0,6.5
	c1.5,1.4,4.5,0.6,5.6-0.5c0.1-0.2,0.1-0.3,0.2-0.5c0.5-3.1-1.3-3.9-2.2-5.5c2.8,0.1,5.3,0,7.2-0.7c3.1-3.7,0.7-9.6-4.5-9.4
	c0.9,1.7,1.4,3.5,1,5.4c-0.5,2-2.2,2.6-4.1,2.4c-0.3,0.1-0.6,0-1.1-0.5c1.7-18.3-15.3-22.1-23.6-33.2c-0.1,0-0.1-0.1-0.2-0.2
	c0,0,0-0.1-0.1-0.1c-0.1,0-0.1-0.1-0.2-0.2c-1.2-1.4-2.2-2.9-2.5-4.5c-0.5-1.2-0.9-2.4-1.1-3.8c0.2-1.7,3.2-0.7,3.6-2.2
	c1.4,1.3,0.3,5,2.9,5.1c1.3,0.1,1.5-0.9,2.9-0.7c0.7-4.1-1-5.7-3.6-6.5c-3.7-0.5-3.6,2.7-6.5,2.9c-1.4-7.5,7.8-10.5,15.2-11.6
	c1.3-1.6,1.7-4,1.4-7.2c-7,2.2-15.7,8.9-18.8,17.4c0.6-14,31.3-18.1,17.4-37.7c-0.3,21.5-21.4,22-18.8,46.4
	c2.4,11.9,23,17.3,25.4,29c2.6,13.3-12.3,14.5-15.2,6.5c-2.7-7.6-2.4-16.3-9.4-24.6c-0.1-0.2-0.3-0.3-0.4-0.5
	c-1.4-1.6-3-3.1-4.5-4.6c-5.2-4.9-10.8-9.5-11.8-14.5c-1.1-5.5,1.8-12.2,0.7-15.9c-13.1,11.5,0.2,23.5,8,30.4
	c-4.4-3-11.8-9.4-15.2-15.9c-6.9-2.3-9.6-8.7-9.4-18.1c-3.4,0.9-5,3.7-7.2,5.8c-0.4,2.3,3.3,0.5,3.6,2.2c-1.1,3.7-4,5.7-7.2,7.2
	c0.4,1.8,2.7,1.6,4.3,2.2c-0.5,1-1.5,1.3-2.9,1.4c0.2,1.5,2.7,0.7,2.9,2.2c-0.6,1.7-3.7,0-4.3-0.7c-1.7,1.3,1,4.3,0,7.2
	c-1.5-1-11.5,0.4-13-2.9c0.1,4.5,7,8.5,10.1,12.3c-6.1-3.8-11.4-8.4-13.8-15.9c-2.6,0.1-4.2,1.1-6.5,1.4
	c4.4,16.1,26.7,14.4,36.2,25.4C346.4,177.9,345.2,177.6,345.3,176.8L345.3,176.8z M358.4,205.8c-0.5,2.9,0.8,10.3,3.6,12.3
	C361.6,216,359.9,209,358.4,205.8L358.4,205.8z M277.7,246.6c0.7,0.4,1,1.1,0.3,2.6c1.5-0.2,1.4-2,2.9-2.2c-0.8-0.8-1.7-1.3-2.8-1.6
	C277.8,245.8,277.7,246.3,277.7,246.6L277.7,246.6z M288.8,166.7c-2.1,0.3-3.3,1.5-3.6,3.6C287.7,170.4,289.4,169.7,288.8,166.7
	L288.8,166.7z M375,47.1c-4.1-1-7-3.1-10.9-4.3c-2.3,0.9-7.5,1.6-8-1.4c2.2-0.9,1.9-4.3,5.1-4.3c2,0.9,2.2,3.6,2.9,5.8
	c-3.8,7.9-13,11.3-23.2,7.2c-0.4,0.6-0.9,1.3,0,1.4c1,4.2,5.2,0.8,8,0.7c-1.4,1.3-2.9,2.4-5.8,2.2c-2.9-0.2-3.1-3.1-5.1-4.3
	c-4.2,1.3-9.3,1.8-10.1,6.5c4.5-0.1,5-4.2,9.4-4.3c-2.6,2-5,4.2-8.7,5.1c-0.4,3.6,1.6,4.6,2.2,7.2c5.9-1.1,9.1-4.9,14.5-6.5
	c10.9,5.6,0.6,20.4-12.3,14.5c0.3,2.6,1.1,3.5,0,5.8c2.3-0.4,1.6,2.2,4.3,1.4c0.3-2.3-2.2-1.6-1.4-4.3c14,4.2,26.5-6.6,19.6-18.8
	c3.8,2,8.5,1.5,10.9-1.5c-0.5-1.7-4.5,0.1-5.1-1.4c1.8-1.8,7.7,0.5,8.7-2.2c-0.6-1.1-2.3-1-3.6-1.4C368.9,48.7,373.7,49.7,375,47.1
	L375,47.1z M351.8,63.1c2.1-2.6-1.8-5.4-2.9-7.2C347.8,57.5,352.4,59.6,351.8,63.1L351.8,63.1z M338.1,49.3
	c7.1,0.4,19.3,3.8,23.2-3.6c-2.2-1.4-5.5-1.7-6.5-4.3C351.3,46.1,340.9,43.9,338.1,49.3L338.1,49.3z M378.6,150.7
	c3.6-5.9,17.3,2.7,13-9.4C385.2,142.3,379.9,144.5,378.6,150.7L378.6,150.7z M368.5,273.1c0.1-3,0.3-6-1.4-7.2
	c-0.6,0.4-1.2,0.8-2.2,0.7C365.5,269.4,365.4,272.8,368.5,273.1L368.5,273.1z M394.6,265.9c-1.5-0.3-1.9,0.5-2.9,0.7
	c0.8,1.7,0.5,4.4,1.4,5.8C395.2,271.9,396.1,267.8,394.6,265.9L394.6,265.9z M310.6,249.2c-2.3-0.3-1.9,2-3.6,2.2
	c0.4,2,1.8,3.1,2.2,5.1C311.8,255.4,312.6,251.4,310.6,249.2L310.6,249.2z M377.2,268.1c-2.3-0.6-2.2,1.1-3.6,1.4
	c-0.2,2.7,0.8,4,1.4,5.8C377.1,274,378.6,270.9,377.2,268.1L377.2,268.1z M360.5,265.2c-2.8,0.7-0.9,4.5,0,5.8
	C362.7,270,362.1,266.3,360.5,265.2L360.5,265.2z M288.8,173.2c-2.2,0-2.7,1.8-2.9,3.9c-6-23.8-11.3-68.9-4.2-87.8
	c-1.4,0.3-23-13.7-71.6-12.5c-49,0.4-70.3,12.8-71.6,12.5c7.6,20.3,1,70.5-5.4,92.5c-3.2,11.6-4.3,23.9,4.6,46.9
	c9.6,22.3,16.7,15.3,72.4,52.4c55.8-37.1,62.8-30.2,72.4-52.4c8.9-22.9,7.8-35.3,4.6-46.9c-0.4-1.3-0.8-2.8-1.2-4.3
	C287.8,176.7,290.7,175.3,288.8,173.2L288.8,173.2z M308.4,153.6c-3.7-0.1-4.7,2.6-8,2.9c1.9,3.7,3.3,9.8,0,13
	C307.3,171.3,312.6,161.1,308.4,153.6L308.4,153.6z M341.3,72.6c1.5-5.3-5.9-4-5.8-0.7C336.5,73,339.2,72.5,341.3,72.6L341.3,72.6z
	 M349.7,194.2c1.1-9.6-3.2-20-15.2-18.8C337.9,180.4,347.7,185.3,349.7,194.2L349.7,194.2z M286.6,143.5c1.3-0.2,1.7-1.2,1.4-2.9
	h-4.3C283.8,142.4,286.6,141.6,286.6,143.5L286.6,143.5z M327.9,226.8c1.8,1.1,5.2-2.5,6.5-4.3c-0.1-1.9-1.3-2.5-2.2-3.6
	c0.1-8-2.1,2,0.7,2.9C332.1,224.2,330.4,225.9,327.9,226.8L327.9,226.8z M317.1,198.5c1.2-3.6,1.7-7.2,6.5-9.4
	c2.1-1.9-6,2.4-6.5,4.3C316.2,196.9,315.8,202.1,317.1,198.5L317.1,198.5z M153.1,273.6c3.4-1.4,6.6-3,10.2-4
	c5.8-1.7,13.9-3.2,20.9-2.4c-0.5-0.3-1-0.6-1.5-0.9c-6-3.5-12.1-6.9-18.3-10.2c-4.1-2.2-8.3-4.4-12.3-6.8c-3-1.9-5.9-3.9-8.4-6.5
	c-3.7-3.8-6-8.5-8-13.4c-3.7-9-6.7-18.6-7.2-28.3c-0.4-6.9,0.6-13.3,2.5-20c0.1-0.3,0.2-0.6,0.3-0.9l-3.6-2.3
	c-2.1-1.3-3.8-3.1-5.1-5.2c-0.3-0.5-0.6-1.1-0.9-1.6l-2.5,0.6c-1.5,0.4-3.1,0.3-4.5-0.1c-3.5-1.1-5.9-4.3-6.9-7.6
	c-0.2-0.6-0.4-1.3-0.5-2c-0.1,0.1-0.1,0.1-0.2,0.2c-5.9,5.9-14.4,7.8-21.9,11.1l3.3,0.3l-2,3c-0.3,0.5-0.7,1-1.1,1.4
	c6.8,1,14,3,18.9,7.8c5.2,5.2,6.3,12.4,5.7,19.4l-0.1,0.9l-0.7,0.6c-3,2.6-5.6,6-5.1,10.3l0,0.3l0,0.3c-0.1,0.5-0.1,1.1,0,1.6
	c0.3,1.8,5.2,7.1,6.6,8.5c2.1,2.2,4.5,4.5,7,6.3l1.1,0.8l-0.2,1.2c1.7,0.3,3.5,0.4,5.2,0.5c3.3,0.2,7,0.3,10,2c1-0.7,2.2-1,3.4-0.7
	c1.6,0.4,2.6,1.7,3.5,3c0.3,0.5,0.8,1.5,1.2,1.9l0.7,0.7l0,0.6l0.3,0.4c0.4,0.6,0.5,1.2,0.7,1.9l0.3,1.6l-0.8,0.4l1.9,3.8l-4.2-0.6
	c-0.7-0.1-1.3-0.4-1.8-0.8c0,0.5,0,1.1,0,1.6l-0.1,2.2l-2.2-0.1c-1.2,0-2.2-0.4-3-0.9l-0.4,2.7c4.6-1,9.4-0.4,13.4,2.4
	C151.6,261.8,153.8,268,153.1,273.6L153.1,273.6z M120.9,168.6c-0.8-2.6-1.2-5.4-1.3-8.1c-0.8,2.6-1.1,5.8,0.7,7.6L120.9,168.6
	L120.9,168.6z M132.6,256.3l-0.9-1.1c-0.1,0.5-0.2,1-0.3,1.4C131.8,256.6,132.2,256.4,132.6,256.3L132.6,256.3z M10.4,187.8
	l-0.4,0.8c-0.6,1.2-1.1,2.5-0.8,3.9c0.1,0.5,0.4,0.7,0.8,0.8C9.9,191.4,10.1,189.6,10.4,187.8L10.4,187.8z M27.4,106.3l0.1,6
	c0,3.8,0.9,7,2.3,9.8c-0.5-3.7-0.3-7.4,0-11.3c0-0.4,0.1-0.8,0.1-1.2l-0.8-0.9c-0.3-0.4-0.6-0.8-0.9-1.1l-0.6-0.5L27.4,106.3
	C27.4,106.3,27.4,106.3,27.4,106.3L27.4,106.3z M33.1,127.5c1.8,2.4,3.8,4.6,5.8,6.9c-0.8-3-1.5-6-1.8-9
	C36.1,126.4,34.9,127.2,33.1,127.5L33.1,127.5z M42.5,139.1c3.2,4.9,5.2,10.9,3.8,19.9c-2.1,13.4-23.2,18.3-25.4,29.1
	c-2.1,10.5,9,11,11,5.4c1.4-3.8,1.9-7.9,3-11.9c1.4-5.1,3.4-9.4,6.8-13.4c0.1-0.2,0.3-0.3,0.4-0.5c1.5-1.6,3-3.2,4.6-4.7
	c3.3-3.2,10.2-8.9,11.2-13.4c0.3-1.6,0.2-3.4,0-5.1c-0.1-0.5-0.1-0.9-0.2-1.4c-1.4,2-3.2,3.5-5.5,4.5l-2.7,1.1l-0.4-2.9
	c-0.4-3.6-1.3-7.1-2-10.6C46.3,137.1,44.9,138.5,42.5,139.1L42.5,139.1z M79.9,81.3l-0.2-1.2c-0.1-0.6-0.1-1.2,0.1-1.7
	c-1.5,0.2-3,0.2-4.5,0.1c0.3,0.6,0.7,1.1,1.3,1.5c0,0,0,0,0.1,0c0.1,0,0.2,0.1,0.2,0.1c0.2,0.1,0.4,0.2,0.5,0.3
	c0.1,0.1,0.3,0.2,0.4,0.2C78.4,80.9,79.1,81.1,79.9,81.3L79.9,81.3z M263.4,78.6c-0.5,0.6-1.1,1.1-1.8,1.4c0.5,0.1,1.1,0.3,1.6,0.4
	c0.1,0,0.2,0,0.2,0.1C263.4,79.9,263.4,79.2,263.4,78.6L263.4,78.6z M339.3,81c0.7-0.2,1.5-0.4,2.1-0.7c0.1-0.1,0.3-0.1,0.4-0.2
	c0.2-0.1,0.4-0.2,0.5-0.3c0.1,0,0.2-0.1,0.2-0.1c0,0,0,0,0.1,0c0.6-0.4,1-0.9,1.3-1.5c-1.5,0.1-3,0.1-4.5-0.1
	c0.1,0.5,0.2,1.1,0.1,1.7L339.3,81L339.3,81z M391.7,106C391.7,106,391.7,106.1,391.7,106l-0.1,0.9l-0.6,0.5
	c-0.3,0.3-0.6,0.8-0.9,1.1l-0.8,0.9c0,0.4,0.1,0.8,0.1,1.2c0.3,3.9,0.4,7.5,0,11.3c1.3-2.8,2.2-6,2.3-9.8L391.7,106L391.7,106z
	 M386,127.2c-1.7-0.3-3-1.1-3.9-2.1c-0.3,3-1,6.1-1.8,9C382.2,131.8,384.2,129.6,386,127.2L386,127.2z M376.7,138.8
	c-2.4-0.6-3.9-2-4.8-3.8c-0.7,3.5-1.5,7.1-2,10.6l-0.4,2.9l-2.7-1.1c-2.4-1-4.2-2.5-5.5-4.5c-0.1,0.5-0.1,0.9-0.2,1.4
	c-0.2,1.6-0.3,3.4,0,5.1c0.9,4.5,7.9,10.2,11.2,13.4c1.6,1.5,3.1,3.1,4.6,4.7c0.1,0.2,0.3,0.3,0.4,0.5c3.5,4,5.5,8.4,6.8,13.4
	c1.1,3.9,1.6,8,3,11.9c2.1,5.7,13.1,5.1,11-5.4c-2.1-10.8-23.3-15.7-25.4-29.1C371.5,149.7,373.5,143.7,376.7,138.8L376.7,138.8z
	 M408.8,187.5c0.3,1.7,0.5,3.6,0.4,5.4c0.4-0.1,0.7-0.3,0.8-0.8c0.3-1.3-0.2-2.7-0.8-3.9L408.8,187.5L408.8,187.5z M210.2,289.7
	c0.9-3.4,2.5-6.5,4.7-9.1c-1.2,0.8-2.3,1.5-3.4,2.3l-1.2,0.8l-1.2-0.8c-1.2-0.8-2.3-1.5-3.5-2.3
	C207.7,283.2,209.3,286.2,210.2,289.7L210.2,289.7z M161.3,41.9c0.3,0.1,0.5,0.2,0.8,0.4c0.2,0.1,0.5,0.3,0.7,0.5
	c-0.2-0.3-0.3-0.6-0.4-0.9c-0.1-0.5-0.1-0.9-0.1-1.4C162,40.9,161.7,41.4,161.3,41.9L161.3,41.9z M164.3,44c0.6,0.6,1,1.3,1.3,2.1
	c0.4,0,0.8,0,1.2,0c-0.5-0.6-1-1.2-1.5-1.8C164.9,44.2,164.6,44.1,164.3,44L164.3,44z M172.2,43.7c0.4,0.6,0.9,1.1,1.3,1.7
	c0.5-0.1,1-0.3,1.5-0.5l-0.3-0.2C173.8,44.5,172.9,44.2,172.2,43.7L172.2,43.7z M200.6,34.4c0,0.1,0.1,0.1,0.1,0.2
	c0,0,0.1-0.1,0.1-0.1C200.7,34.4,200.7,34.4,200.6,34.4L200.6,34.4z M224.9,34.4c-0.1,0-0.1,0-0.2,0c0,0,0.1,0.1,0.1,0.1
	C224.8,34.5,224.9,34.4,224.9,34.4L224.9,34.4z M253.3,43.8c-0.7,0.4-1.5,0.7-2.4,0.9l-0.4,0.3c0.5,0.2,0.9,0.3,1.4,0.5
	C252.4,44.9,252.9,44.3,253.3,43.8L253.3,43.8z M263.3,40.3c0.1,0.5,0.1,0.9,0,1.5c-0.1,0.3-0.2,0.7-0.4,0.9
	c0.2-0.2,0.5-0.3,0.7-0.4c0.2-0.1,0.5-0.3,0.8-0.4C263.9,41.4,263.5,40.9,263.3,40.3L263.3,40.3z M261.3,44c-0.3,0.1-0.6,0.2-1,0.3
	c-0.5,0.6-1,1.2-1.5,1.8c0.2,0,0.4,0,0.7,0c0.2,0,0.4,0,0.5,0c0.1-0.3,0.2-0.5,0.4-0.8C260.6,44.8,260.9,44.4,261.3,44L261.3,44z
	 M285.9,83.7c-0.8-0.1-1.5-0.3-2-0.8c-1.9,0.6-3.9,0.5-5.7-0.4c-0.4,0.2-0.8,0.4-1.2,0.6c-0.3,0.1-0.6,0.3-0.9,0.4l-1.2,0.7
	c0.6,0.2,1.3,0.5,1.9,0.7c1.3,0.5,2.5,1,3.8,1.6c0.3,0.1,0.7,0.3,1.1,0.5l2.2-0.6C284.6,85.3,285.5,84.6,285.9,83.7L285.9,83.7z
	 M273.2,83.6l-0.1-0.9l-0.2,0.5l-0.8-0.1C272.3,83.3,272.7,83.4,273.2,83.6L273.2,83.6z M268.8,82.1c-0.1-0.1-0.1-0.1-0.2-0.2
	l-0.1,0.1C268.7,82,268.8,82.1,268.8,82.1L268.8,82.1z M283.3,91.5c-4,12.5-2.8,32.9-1.6,45.5c0,0.4,0.1,0.8,0.1,1.2h4.6l-0.1-0.7
	l1.6,0.4c-1.1-4.2-1-8.5,1.4-12.4c1.7-2.7,4.2-4.9,6.9-6.7l0-0.2c0-0.1,0-0.2,0-0.3l0-0.5l0.2-0.4c0.5-0.9,0.9-1.7,1.3-2.6l-0.2-1.7
	c-2.1,1.1-4.9,1.7-6.7-0.1l-1.5-1.4l1.2-1.4c-1.1,0.2-2.3,0.1-3.4-0.4l-1.3,0.8l-0.4-1.6l-1-0.5l0.7-0.8l0-0.1
	c-0.2-1.1-0.3-2.1,0-3.1c-0.1-0.1-0.2-0.2-0.3-0.4l-0.9-1.1l0.6-1.2c1.4-2.9,3-6.6,2-9.9c-0.6,0.1-1.2,0.1-1.9,0L283.3,91.5
	L283.3,91.5z M282.4,143.9c0.6,5.2,1.4,10.3,2.2,15.5c0.1-0.1,0.3-0.2,0.4-0.4c-0.6-1.8-0.5-3.8-0.2-5.7c0.2-1.7,1.3-6.5-0.2-7.7
	L282.4,143.9L282.4,143.9z M175.3,299.3c0.4-1,1-1.9,1.6-2.8c0.1-0.2,0.3-0.4,0.5-0.6c2.6-2.8,6.3,0.2,4.3,3.2
	c-0.5,0.7-1,1.5-1.3,2.4c1.2,0.1,2.4-0.1,3.5-0.5c4-1.4,5.9-6.5,3.1-9.9c-2-2.4-6.3-2.2-7.4,0.9c-1.3,3.6-6.3,1.8-5-1.8
	c0.3-0.9,0.7-1.7,1.2-2.4c-1.3,1.5-2.8,3-4.3,4.3C171.8,294.9,173.2,297.5,175.3,299.3L175.3,299.3z M177.1,286.3
	c2.7-2.7,6.8-3.5,10.7-1.8c5.4,2.4,7.2,8.8,5.4,14.1c-1.6,4.7-5.8,8-10.7,8.7c-0.6,0.1-1.1,0.1-1.7,0.1c2.3,4.4,8.6,6.7,13.2,5.6
	c4.3-1.1,7.4-4,9.1-7.7c-1.7,0.2-3.4-1.3-2.7-3.5c2.4-7.9-1-16.2-8-20.5c-4.6-2.8-10.4-2.7-14.8-0.1c0.1,0.1,0.2,0.2,0.3,0.3
	c0.8,0.9,0.9,2.3,0.1,3.3C177.8,285.4,177.4,285.8,177.1,286.3L177.1,286.3z M146.8,275.8c1.8-3.7,1-9.1-2.1-11.9
	c-5-4.5-13.2-2.6-17.5,2c2.7,1.5,4,4.3,2.4,7.5c-0.5,1.1-0.9,1.4-1.9,1.9c-1.1,0.6-3,1.6-4.1,0.6c-0.2-0.1-0.3-0.3-0.4-0.5
	c-0.1,3.6,0.9,7.2,2.9,10.1c1.8,2.7,5.3,4.7,8.3,5.8c4.9,1.7,10.2,1.8,15.3,0.7c4.7-1,9.1-3.1,13.1-5.7c2.6-1.7,5.1-3.3,7.2-5.6
	c1.8-2,3.8-3.8,6.2-5.2c-7.7,0.9-15.2,4.7-19.9,10.8c-0.1,0.1-0.2,0.2-0.3,0.4c-2.6,2.8-6.5-0.4-4.1-3.4c1.3-1.7,2.8-3.3,4.3-4.7
	c-2,0.8-4.1,1.6-6.2,2.2c-1.4,1.6-3.1,2.8-5,3.6c-5.3,2.1-11.8-0.3-14.3-5.4c-2.8-5.8,2.1-13.1,8.5-12.8l2.6,0.1l-0.2,3.6
	c0.5,0.5,1,1.1,1.1,1.8l0.9,4.2C144.7,276.2,145.7,276.1,146.8,275.8L146.8,275.8z M123.6,272.7c0.1-0.2,0.2-0.5,0.4-0.7
	c0-0.1,0.1-0.2,0.1-0.2c-0.1,0-0.1-0.1-0.2-0.1C123.7,272,123.7,272.3,123.6,272.7L123.6,272.7z M117.7,281.2
	c0.1,0.4,0.1,0.9,0.2,1.3c0.3,1.3,0.8,2.5,1.4,3.6C118.7,284.5,118.1,282.8,117.7,281.2L117.7,281.2z M333.8,177.7
	c-0.4-0.5-0.8-0.9-1.1-1.4l-2-3l3.3-0.3c-7.5-3.3-16-5.2-21.9-11.1c-0.1-0.1-0.1-0.1-0.2-0.2c-0.1,0.7-0.3,1.3-0.5,2
	c-1.1,3.4-3.5,6.5-6.9,7.6c-1.5,0.5-3,0.5-4.5,0.1l-2.5-0.6c-0.3,0.6-0.5,1.1-0.9,1.6c-1.3,2.1-3,3.9-5.1,5.2l-2.6,1.7
	c0.2,0.6,0.3,1.2,0.5,1.8c1.9,6.6,2.9,13,2.5,20c-0.5,9.7-3.5,19.4-7.2,28.3c-1.3,3.1-2.7,6.1-4.5,8.8c0.5-0.4,1-0.7,1.7-0.9
	c1.2-0.3,2.4,0,3.4,0.7c3-1.7,6.7-1.8,10-2c1.7-0.1,3.5-0.2,5.2-0.5l-0.2-1.2l1.1-0.8c2.5-1.8,4.9-4.1,7-6.3
	c1.4-1.4,6.3-6.7,6.6-8.5c0.1-0.5,0.1-1.1,0-1.6l0-0.3l0-0.3c0.6-4.2-2.1-7.6-5.1-10.3l-0.7-0.6l-0.1-0.9c-0.6-7,0.6-14.2,5.7-19.4
	C319.7,180.7,327,178.7,333.8,177.7L333.8,177.7z M298.3,168.3l0.6-0.6c1.8-1.8,1.5-5,0.7-7.6C299.5,162.9,299.1,165.7,298.3,168.3
	L298.3,168.3z M277.6,241.7c-0.3,0.4-0.7,0.8-1,1.1c-2.5,2.6-5.4,4.6-8.4,6.5c-4,2.5-8.2,4.6-12.3,6.8c-6.1,3.3-12.2,6.7-18.3,10.2
	c-0.5,0.3-1,0.6-1.5,0.9c7-0.8,15.1,0.6,20.9,2.4c3.5,1,6.8,2.6,10.2,4c-0.7-5.6,1.5-11.7,6.2-15c3.7-2.6,8-3.3,12.3-2.7l-0.4-2.8
	c-0.8,0.6-1.8,0.9-3,0.9l-2.2,0.1l-0.1-2.2c0-0.5-0.1-1.1,0-1.6c-0.5,0.4-1.1,0.7-1.8,0.8l-4.2,0.6l1.9-3.8l-0.8-0.4l0.3-1.6
	c0.1-0.7,0.3-1.3,0.7-1.9l0.3-0.4l0-0.6l0.7-0.7C277.3,242.2,277.5,241.9,277.6,241.7L277.6,241.7z M286.6,256
	c0.4,0.1,0.8,0.2,1.2,0.3c-0.1-0.4-0.2-0.9-0.3-1.3L286.6,256L286.6,256z M273.6,275.8c1,0.2,2.1,0.4,3.2,0.3l0.9-4.2
	c0.1-0.7,0.6-1.3,1.1-1.8l-0.2-3.6l2.6-0.1c6.4-0.3,11.3,7,8.5,12.8c-2.5,5.2-9.1,7.5-14.3,5.4c-2-0.8-3.7-2-5-3.6
	c-2.1-0.6-4.2-1.4-6.2-2.2c1.6,1.4,3,3,4.3,4.7c2.4,3-1.5,6.3-4.1,3.4c-0.1-0.1-0.2-0.2-0.3-0.4c-4.8-6.1-12.2-9.8-19.9-10.8
	c2.3,1.4,4.3,3.2,6.2,5.2c2.1,2.2,4.7,3.9,7.2,5.6c4,2.6,8.5,4.7,13.1,5.7c5,1.1,10.4,1,15.3-0.7c3-1.1,6.5-3.1,8.3-5.8
	c2.1-3.1,3.1-6.9,2.8-10.6c-0.3,1.5-2,1.8-4.4,0.4c-1-0.6-1.4-0.9-1.9-1.9c-1.6-3.1-0.3-6,2.4-7.5c-4.3-4.7-12.4-6.6-17.5-2
	C272.6,266.8,271.8,272.1,273.6,275.8L273.6,275.8z M296.8,272.9c-0.1-0.4-0.2-0.9-0.3-1.3c-0.1,0-0.1,0.1-0.2,0.1
	c0,0.1,0.1,0.2,0.1,0.3C296.6,272.4,296.7,272.7,296.8,272.9L296.8,272.9z M217.2,305.4c1.8,3.7,4.8,6.6,9.2,7.7
	c4.6,1.1,10.9-1.2,13.2-5.6c-0.6,0-1.1-0.1-1.7-0.1c-4.9-0.8-9-4-10.7-8.7c-1.9-5.3,0-11.7,5.4-14.1c3.9-1.7,8-0.9,10.7,1.8
	c-0.4-0.4-0.7-0.9-1-1.3c-0.7-1-0.7-2.4,0.1-3.3c0.1-0.1,0.2-0.2,0.3-0.3c-4.4-2.6-10.1-2.7-14.8,0.1c-7,4.3-10.3,12.6-8,20.5
	C220.6,304.2,218.9,305.6,217.2,305.4L217.2,305.4z M244.6,287.8c0.5,0.7,0.9,1.5,1.2,2.4c1.3,3.6-3.7,5.4-5,1.8
	c-1.2-3.1-5.4-3.3-7.4-0.9c-2.8,3.4-0.9,8.5,3.1,9.9c1.1,0.4,2.3,0.6,3.5,0.5c-0.3-0.9-0.7-1.7-1.3-2.4c-2.1-3,1.7-6,4.3-3.2
	c0.2,0.2,0.3,0.4,0.5,0.6c0.6,0.9,1.1,1.8,1.6,2.8c2.1-1.8,3.5-4.5,3.8-7.2C247.3,290.8,245.9,289.3,244.6,287.8L244.6,287.8z
	 M302.6,281.2c-0.4,1.7-0.9,3.3-1.6,4.9c0.7-1.1,1.2-2.3,1.4-3.6C302.5,282,302.6,281.6,302.6,281.2L302.6,281.2z M133.3,84
	c0.4,1,1.4,1.8,2.2,3l-0.3-0.9l3.6,0.9c0.4-0.1,0.8-0.3,1.1-0.4c1.2-0.5,2.5-0.9,3.7-1.4c0.4-0.1,0.8-0.3,1.2-0.4l-1.6-1
	c-0.3-0.2-0.6-0.3-0.9-0.4c-0.4-0.2-0.8-0.4-1.2-0.6c-1.8,1-3.8,1-5.7,0.4C134.8,83.7,134,83.9,133.3,84L133.3,84z M136,88.7
	c0.1,0.4,0.1,0.8,0.1,1.2l0,1.8l-1.8,0.3c-0.6,0.1-1.2,0.1-1.9,0c-1,3.2,0.5,7,2,9.9l0.6,1.2l-0.9,1.1c-0.1,0.1-0.2,0.3-0.3,0.4
	c0.3,1,0.3,2.1,0,3.1l0,0.1l0.7,0.8l-1,0.5l-0.4,1.6L132,110c-1.1,0.5-2.3,0.6-3.4,0.4l1.2,1.4l-1.5,1.4c-1.8,1.7-4.5,1.2-6.7,0.1
	l-0.2,1.7c0.4,0.9,0.8,1.8,1.3,2.6l0.2,0.4l0,0.5c0,0.1,0,0.2,0,0.3l0,0.2c2.6,1.8,5.2,4,6.9,6.7c2.4,3.9,2.5,8.2,1.4,12.4l1.6-0.4
	l-0.1,0.7h4.9l-0.1,2.3c0,0.2,0,0.3,0,0.5l0.7-0.1c0.1-1.4,0.3-2.7,0.4-4.1c1.2-13,2.5-34.6-2.2-46.9L136,88.7L136,88.7z M138,143.2
	l-3.4,2.7c-0.1,0.1-0.3,0.2-0.4,0.4c-1,1.5-0.1,5.6,0.1,7.3c0.2,1.9,0.3,3.9-0.2,5.7c0.6,0.5,1,1,1.3,1.6
	C136.5,155,137.3,149.1,138,143.2L138,143.2z M145.9,84.3c1.6-0.6,3.3-1.1,4.9-1.6l-0.3-0.5c-0.6,0.7-1.5,1.1-2.6,1.2l-1.5,0.1
	l-0.2-0.5L145.9,84.3L145.9,84.3z M134.5,166l-0.3,0.2c0.1,0.1,0.2,0.2,0.3,0.2C134.5,166.2,134.5,166.1,134.5,166L134.5,166z
	 M194.7,40.8c-0.3,0.4-0.7,0.8-1.1,1.1l-0.3,0.5c0.5,0.1,1,0.2,1.5,0.3C194.8,42,194.7,41.4,194.7,40.8L194.7,40.8z M189.8,40.2
	c0-0.4,0-1.1-0.1-1.3c-0.2,0-0.4,0.1-0.6,0.1C189.1,39.3,189.5,39.8,189.8,40.2L189.8,40.2z M230.9,40.8c-0.1,0.6-0.1,1.2-0.2,1.9
	c0.6-0.1,1.1-0.2,1.7-0.3l-0.3-0.3C231.6,41.6,231.2,41.2,230.9,40.8L230.9,40.8z M235.7,40.2c0.3-0.4,0.7-0.9,0.7-1.2
	c-0.2-0.1-0.4-0.1-0.6-0.2C235.8,39.2,235.7,39.9,235.7,40.2L235.7,40.2z M275.9,91c-0.4-0.2-0.8-0.3-1.2-0.5
	c-4.1-1.7-8.4-3.1-12.7-4.3c-16.8-4.7-34.9-6.2-52.3-5.9c-17.5,0.3-35.6,2-52.6,6.5c-4.3,1.1-8.5,2.5-12.7,4c-0.3,0.1-0.6,0.2-1,0.4
	c5.9,23.5-0.7,69.9-6.7,91c-1.7,6-2.6,11.6-2.3,17.8c0.5,8.9,3.3,18,6.7,26.2c1.7,4.1,3.6,8.1,6.7,11.3c2.1,2.2,4.5,3.9,7.1,5.4
	c3.9,2.4,8,4.5,12,6.6c6.2,3.3,12.4,6.8,18.5,10.3c8.2,4.8,16.3,9.9,24.2,15.1c7.9-5.2,16-10.3,24.2-15.1c6.1-3.6,12.3-7,18.5-10.3
	c4-2.2,8.1-4.3,12-6.6c2.5-1.6,5-3.3,7.1-5.4c3.1-3.2,5-7.2,6.7-11.3c3.4-8.2,6.2-17.3,6.7-26.2c0.3-6.3-0.6-11.8-2.3-17.8
	C276.5,161,269.9,114.5,275.9,91L275.9,91z M209.6,269.8c-7.2-4.7-14.6-9.3-22-13.7c-6.1-3.6-12.4-7-18.6-10.4
	c-3.9-2.1-7.9-4.2-11.7-6.5c-2.2-1.4-4.4-2.9-6.2-4.7c-2.7-2.8-4.4-6.4-5.8-10c-3.2-7.8-5.9-16.3-6.4-24.8
	c-0.3-5.7,0.6-10.9,2.1-16.4c1.9-6.8,3.4-13.9,4.6-20.9c1.5-8.6,2.7-17.2,3.5-25.9c0.8-8.3,1.2-16.6,1-24.9
	c-0.1-5.8-0.5-11.9-1.6-17.6c3.2-1.1,6.4-2.1,9.7-2.9c16.7-4.4,34.3-6.1,51.6-6.4c17-0.3,34.6,1.2,51,5.8c3.4,0.9,6.7,2,10,3.3
	c-1.1,5.8-1.5,12-1.6,17.8c-0.2,8.3,0.3,16.7,1,25c0.8,8.7,2,17.3,3.5,25.9c1.2,7,2.7,14.1,4.6,20.9c1.6,5.5,2.4,10.7,2.1,16.4
	c-0.5,8.4-3.2,17-6.4,24.8c-1.4,3.5-3.2,7.2-5.8,10c-1.8,1.9-4,3.4-6.2,4.7c-3.8,2.3-7.8,4.4-11.7,6.5c-6.3,3.4-12.5,6.8-18.6,10.4
	C224.2,260.5,216.9,265.1,209.6,269.8z M260.3,172.9l0.8-0.8l1,0.8c1,0.8,2.2,1.1,3.4,1.1c1.6,0,2.4-0.6,2.4-2.2
	c0-4.6-5.4-7.1-9-8.5c-2.7-1-5.6-1.5-8.5-1.5c-4.4,0-9,0.7-12.7,3.2c-2.9,1.9-4.6,4.5-4.6,8c0,5,5.1,9.9,8.6,12.8l8.8,7.2
	c4.9,4,9.2,9.3,9.2,16c0,4.8-1.8,8.9-4.9,12.5c-3,3.5-6.7,6-10.9,7.8c-4.9,2.1-10.1,3.1-15.5,3.1c-8,0-15.7-1.9-22.1-6.8
	c-5.8-4.3-9-10-9-17.2c0-6,2.1-11.1,7.2-14.4c2.3-1.5,4.8-2.2,7.5-2.2c1.6,0,3.1,0.3,4.6,0.8c1.6,0.5,3.9,1.5,3.9,3.5
	c0,0.4-0.2,1-0.3,1.4l-0.5,1.5l-1.2-1c-2-1.6-4.4-3-7-3c-3,0-5.4,1.2-7.3,3.4c-1.9,2.3-2.8,4.9-2.8,7.9c0,7.9,4.9,13.3,11.5,17.1
	c5.5,3.2,11.6,5.2,18,5.2c4.8,0,9.4-1,13.7-3.4c0.5-0.3,1-0.5,1.4-0.8c0.1,0,0.2-0.1,0.3-0.2l0.1-0.1l0.1-0.1
	c1.8-1.2,3.5-2.7,4.9-4.3c2.4-2.5,3.7-5.5,3.7-9c0-5.7-6.4-11.4-10.5-14.6l-3.8-3c-3.4-2.7-7-5.8-9.5-9.3c-1.9-2.6-3-5.6-3-8.8
	c0-7.5,4.7-12.1,11.4-14.7c3.8-1.5,7.9-2.1,12-2.1c3.4,0,6.8,0.5,10.1,1.6c3.3,1.1,6.6,2.8,8.7,5.7c1.1,1.5,1.7,3.3,1.7,5.1
	c0,1.9-0.7,3.5-2.2,4.7c-1.4,1.2-3.1,1.7-5,1.7c-1.6,0-3.1-0.4-4.5-1.1c-0.6-0.3-1.2-0.9-1.2-1.6v-0.1l0-0.1
	c0.1-0.5,0.4-0.9,0.7-1.2l0.1-0.1L260.3,172.9L260.3,172.9z M210.8,147.8c2.8,0.2,5.8,0.5,8.5,1.2l0.8,0.2l0.4-0.7
	c0.3-0.5,0.5-1,0.5-1.6c0-1.2-1.1-1.9-2.2-2.1c-1.6-0.4-4.1-0.5-6.2-0.5c3.1-6.1,7.5-12.3,11.5-17.8c2.4-3.3,4.9-6.5,7.5-9.6
	l7.6-8.9l-3.7,1.2c-1.4,0.5-2.8,1.1-3.9,2.2c-0.9,0.9-2,2.2-2.8,3.1l-4.9,5.8c-3.4,4-6.6,8.4-9.6,12.6c-2.7,3.7-5.2,7.5-7.6,11.4
	c-4.3,0.1-8.7,0.4-12.9,1.2c2.2-3.1,4.5-6.2,6.4-9.4c1.3-2,2.5-4,3.6-6.1l1.5-2.6c0.6-1.1,1.8-3.2,1.8-4.5c0-1-0.7-1.7-1.7-1.7
	c-0.6,0-1.2,0.3-1.7,0.6l-0.5,0.3l-0.1,0.6c-0.2,1.6-0.8,3.1-1.6,4.5c-3.3,5.9-6.9,11.4-10.8,17c-0.6,0.8-1.1,1.7-1.8,2.4
	c-0.1,0-0.3,0.1-0.4,0.1l-0.9,0.2c-3.1,0.7-6.2,1.8-9.2,2.9c-6,2.3-11.7,5.2-16.9,8.8c-4.1,2.8-8.1,6.1-11.2,10
	c-2.1,2.7-4.3,6.2-4.3,9.8c0,3.7,1.9,5.9,5.7,5.9c5.3,0,11.5-4.9,15.3-8.1c3.3-2.9,6.6-6,9.4-9.4l1.1-1.3l3.8-4.2
	c0.7-0.8,1.4-1.6,2.1-2.4c1.5-1.8,3-3.6,4.4-5.5l2.1-2.8c0.3-0.4,0.7-0.8,1-1.2l0,0c4.5-0.9,9.1-1.6,13.7-1.6l-1.6,2.8
	c-4,6.9-10,18.2-10,26.4c0,2,0.5,4,1.8,5.6c1.4,1.7,3.2,2.5,5.4,2.5c4.7,0,10-3.2,13.7-5.9c7.6-5.4,14.4-11.8,20.2-19.1l0.6-0.7
	l-2.1-2.3l-1.4,1.5c-2.9,3-5.8,6.1-8.9,9c-2.1,2.1-4.4,4.1-6.8,5.9c-3,2.2-8,5.5-11.8,5.5c-2.8,0-3.5-1.8-3.5-4.4
	c0-2,0.5-4.2,1.1-6.2c1-3.5,2.5-7,4.1-10.3c1.6-3.4,3.3-6.7,5.1-10L210.8,147.8L210.8,147.8z M186.1,150.7
	c-3.2,4.1-6.6,8.1-10.1,12.1c-3,3.4-6.2,6.8-9.5,9.9c-3,2.8-8.5,7.3-12.9,7.3c-2,0-2.7-0.9-2.7-2.8c0-4.2,3.9-8.4,6.8-11.1
	c3.5-3.2,7.5-5.9,11.6-8.2C174.5,155,180.3,152.3,186.1,150.7z M649.2,218.1c34.6,10.8,70.9,14.8,114.2,13.4
	c70.3-2.4,75-4.7,138.1-14.3c13.3-2,26.8-4.2,40.6-6.4c-2.5,1.7-5,3.6-7.3,5.5c-4.7,4.1-9.5,9.5-10.5,15.9
	c-54.5,9.7-82.4,12.6-125.2,16C774.4,250.1,672.5,245.6,649.2,218.1L649.2,218.1z M948.3,227.9c0.6-0.5,1.2-0.9,1.7-1.2
	c5.8-4.5,10.9-10,15.6-15.6c0.9-1,1.7-2.1,2.5-3.1l-0.6,0.4c-5.9,3.4-11.7,6.9-17.3,10.8c-3,2.2-6.6,4.9-8.8,7.9
	c-0.5,0.7-1.1,1.5-1.5,2.4C942.8,228.9,945.6,228.4,948.3,227.9L948.3,227.9z M984.6,204.1c12.7-1.9,25.5-3.7,38.3-5.4
	c8.4-1.1,16.6-2.1,24.6-3c16.6-1.6,0,0,16.6-1.6c2.1-0.2,4.2-0.3,6.3-0.4c4.8,3.5,10.1,6.1,15.7,8.1c-11.4,1.2-21.3,3.2-33,4.7
	c-37.8,7.7-56.7,12-84.2,17.4c3.2-3.3,6.1-6.8,9-10.5C980.2,210.5,982.5,207.4,984.6,204.1L984.6,204.1z M1143.7,198.1
	c5.6,1.3,11,3.1,16.3,5.3c-9.6-1-17.8-1.4-25.2-1.4c1.5-0.5,2.9-1.1,4.4-1.7C1140.7,199.6,1142.2,198.9,1143.7,198.1z M1143,210.2
	c-45,3.5-73.6,6.6-134,17.5c-24.2,4.4-40.6,7.6-56.5,10.9c-5.1,3.6-11.2,6.8-17.4,6.8c-2.3,0-4.4-0.6-6.2-1.9
	c-11.3,2.4-23.9,5-39.8,8.3c-24.2,3.1-41.1,8.4-79.2,4.5c31.8,13.4,67.8,8.7,109.4,3.4c41.6-5.3,82.7-12.6,121.4-18.4
	c63.1-9.6,67.8-11.9,138.1-14.3c43.3-1.5,79.6,2.6,114.2,13.4C1269.6,212.9,1167.7,208.3,1143,210.2z M1059.5,265.8
	c0.2,0.1,0.4,0.2,0.6,0.4c1.8,1.2,4.1,2.7,5.6,4.3c0.7,0.7,1.2,1.6,1.6,2.5c0.4,0.9,0.6,1.9,0.6,2.8c0,2.5-0.8,4.7-2.8,6.3
	c-2.1,1.7-4.9,2.3-7.5,2.3c-1.1,0-2.3-0.3-3.4-0.6c-0.6-0.2-1.8-0.5-2.4-0.5c-0.3,0-0.5,0-0.8,0.1c-0.3,0-0.5,0.1-0.8,0.2l-0.6,0.2
	l-1.1-8.3l2.1,0.3l0.1,0.4c0.5,1.7,1.3,3.3,2.7,4.4c1.3,1.1,2.8,1.5,4.4,1.5c1.5,0,2.9-0.4,4.1-1.4c1-0.9,1.6-1.9,1.6-3.2
	c0-2.6-3.6-5.1-5.5-6.4c-0.2-0.2-0.5-0.3-0.7-0.5l0,0c-0.1-0.1-0.2-0.1-0.3-0.2c-1.7-1.1-5.6-3.7-6.7-5.5c-0.4-0.7-0.8-1.4-1-2.1
	c-0.2-0.7-0.3-1.5-0.3-2.2c0-2.2,0.8-4,2.5-5.3c1.8-1.5,4.2-2,6.5-2c1.3,0,2.5,0.2,3.7,0.6c0.4,0.1,1.8,0.5,2.2,0.5
	c0.2,0,0.4,0,0.5-0.1c0.2-0.1,0.5-0.1,0.7-0.2l0.7-0.3l1,7.3l-1.9,0.1l-0.2-0.4c-0.6-1.5-1.5-2.9-2.7-3.9c-1.1-0.9-2.3-1.3-3.8-1.3
	c-1.2,0-2.4,0.3-3.3,1.1c-0.8,0.7-1.3,1.6-1.3,2.7c0,2.5,4.1,5.2,5.8,6.4C1059.4,265.8,1059.4,265.8,1059.5,265.8L1059.5,265.8z
	 M1077.4,266.3c0.9-0.6,1.9-1.2,2.9-1.7c1.1-0.5,2.2-0.8,3.4-0.8c2.2,0,3.9,0.9,5.3,2.6c1.5,1.8,2.1,4,2.1,6.4c0,3-0.9,5.7-2.9,7.9
	c-1.9,2.1-4.3,3.2-7.2,3.2c-0.6,0-1.3-0.1-1.9-0.2c-0.5-0.1-1.1-0.2-1.6-0.4v6.5c0,0.5,0,1.4,0.4,1.7c0.4,0.4,1.3,0.4,1.8,0.4l0.6,0
	v2h-10l0.1-2l0.5,0c0.5,0,1.4-0.1,1.7-0.4c0.4-0.3,0.4-1.3,0.4-1.7v-21c0-0.3,0-0.8-0.3-1.1c-0.4-0.3-1.5-0.6-1.9-0.7l-0.4-0.1
	l-0.1-1.7l6.3-2h1V266.3L1077.4,266.3z M1102.9,282.1c-0.6,0.5-1.2,1-1.9,1.4c-0.9,0.5-1.9,0.7-3,0.7c-1.2,0-2.4-0.3-3.4-1.1
	c-0.9-0.8-1.3-2-1.3-3.2c0-0.9,0.2-1.7,0.7-2.4c0.5-0.7,1.2-1.2,1.9-1.6c0.9-0.4,1.9-0.7,2.7-1c1.3-0.5,2.7-1,4-1.5v-2.9
	c0-0.9-0.1-2.5-0.6-3.3c-0.5-0.6-1.3-0.8-2-0.8c-0.5,0-1.1,0.1-1.5,0.5c-0.4,0.4-0.5,0.8-0.5,1.4c0,0.1,0,0.3,0,0.4
	c0,0.1,0,0.1,0,0.2l0.1,0.4l-4.4,1.8v-1c0-1.8,1-3.2,2.4-4.3c1.5-1.2,3.2-1.9,5.1-1.9c0.7,0,1.4,0.1,2.1,0.3c0.7,0.2,1.3,0.6,1.8,1
	c0.6,0.5,1.2,1.2,1.5,1.9c0.4,1,0.4,2.5,0.4,3.5v8.2c0,0.3,0,1.4,0.2,1.7c0.1,0.1,0.3,0.2,0.4,0.2c0.3,0,0.5-0.1,0.8-0.2
	c0.4-0.1,0.8-0.4,1.1-0.6l0.6-0.4l0.6,1.7l-0.3,0.3c-0.8,0.7-1.7,1.5-2.6,2.1c-0.6,0.4-1.4,0.7-2.2,0.7c-0.8,0-1.5-0.3-2.1-0.9
	C1103.2,283,1103,282.5,1102.9,282.1L1102.9,282.1z M1139.1,279.4c-1.5,1.3-3.2,2.6-5,3.5c-1.6,0.8-3.3,1.4-5.1,1.4
	c-2.2,0-4.2-0.7-5.8-2.3c-1.6-1.6-2.3-3.5-2.3-5.8c0-2,0.6-3.8,2-5.3c1.4-1.5,3.5-2.6,5.5-3.4c-0.7-0.8-1.4-1.7-1.9-2.7
	c-0.5-1-0.8-2-0.8-3.1c0-1.7,0.6-3.1,1.9-4.2c1.4-1.2,3.1-1.6,4.9-1.6c1.6,0,3.3,0.4,4.6,1.4c1.2,1,1.8,2.3,1.8,3.8
	c0,1.2-0.4,2.3-1.2,3.2c-0.8,1-2.1,1.9-3.2,2.6c1.5,1.3,3,2.6,4.3,4c0.8,0.9,1.6,1.9,2.3,2.9c1.3-1.5,2.5-3.1,3.6-4.8
	c0.3-0.5,1.5-2.4,1.5-3c0-0.1-0.2-0.2-0.3-0.2c-0.5-0.2-1-0.2-1.5-0.3l-0.6,0l0-2.1l9.1,0l-0.1,2.1l-0.5,0c-0.7,0-2,0.1-2.7,0.3
	c-0.5,0.2-0.9,0.7-1.2,1.1c-0.3,0.4-0.5,0.8-0.8,1.2c-1.6,2.6-3.4,5.1-5.3,7.5c0.4,0.6,0.7,1.2,1.1,1.8c0.4,0.7,2.5,4.1,3.5,4.1
	c0.4,0,0.9-0.2,1.3-0.3c0.7-0.3,1.4-0.7,2-1l0.5-0.3l1,1.7l-0.4,0.3c-1,0.7-2,1.4-3.1,1.8c-0.9,0.4-1.8,0.6-2.7,0.6
	c-1.3,0-2.4-0.4-3.4-1.3C1140.9,282.2,1139.9,280.7,1139.1,279.4L1139.1,279.4z M1185.3,266.6l4.5,11.4l7.1-18.9
	c0.2-0.6,0.6-1.7,0.6-2.3c0-0.3-0.2-0.4-0.5-0.5c-0.6-0.3-1.5-0.3-2.2-0.3h-0.6v-2.1h9.9l0.1,2.1l-0.5,0.1c-1.8,0.2-2.8,1.7-3.4,3.3
	c0,0.1-0.1,0.2-0.1,0.4l-9.4,24.7h-3.3l-4.7-11.9l-4.9,11.9h-3.3l-9-23.9c-0.4-1.1-1.2-3-2.1-3.7c-0.7-0.6-1.8-0.8-2.7-0.8h-0.6
	v-2.1h32.9v2.1l-0.5,0c-0.8,0-1.9,0.1-2.6,0.6c-0.7,0.4-1.2,1.6-1.5,2.3L1185.3,266.6L1185.3,266.6z M1216.6,269.9
	c-1.7-3-4.2-6.1-7.9-6.1c-2.7,0-4.9,1-6.7,3c-1.9,2.1-2.6,4.7-2.6,7.5c0,2.6,0.7,5.1,2.4,7.2c1.6,1.9,3.7,2.9,6.2,2.9
	c1.5,0,3-0.4,4.3-1.2c1.5-0.9,2.8-2.3,3.9-3.7l0.3-0.4l-1.1-1.3l-0.4,0.4c-0.8,0.8-1.7,1.5-2.7,2c-0.8,0.4-1.7,0.6-2.6,0.6
	c-1.8,0-3.3-0.7-4.4-2.1c-1.3-1.6-1.7-3.6-1.7-5.7c0-0.3,0-0.6,0-0.9c0-0.1,0-0.3,0-0.4h13.2v-1.5l-0.1-0.1
	C1216.7,270,1216.7,270,1216.6,269.9L1216.6,269.9z M1221.4,257.6c0-0.3,0-0.8-0.3-1.1c-0.4-0.3-1.5-0.6-2-0.8l-0.4-0.1v-1.7
	l6.2-2.2h1v27.7c0,0.5,0,1.4,0.4,1.7c0.4,0.3,1.2,0.4,1.7,0.4l0.5,0l0.1,2h-10v-2l0.6,0c0.5,0,1.4-0.1,1.8-0.4
	c0.4-0.3,0.4-1.3,0.4-1.7V257.6L1221.4,257.6z M1233.1,257.6c0-0.3,0-0.8-0.3-1.1c-0.4-0.3-1.5-0.6-2-0.8l-0.4-0.1v-1.7l6.2-2.2h1
	v27.7c0,0.5,0,1.4,0.4,1.7c0.4,0.3,1.2,0.4,1.7,0.4l0.5,0l0.1,2h-10v-2l0.6,0c0.5,0,1.4-0.1,1.8-0.4c0.4-0.3,0.4-1.3,0.4-1.7V257.6
	L1233.1,257.6z M1249.1,268.9v10.6c0,0.4,0,1.4,0.4,1.7c0.4,0.4,1.3,0.4,1.8,0.4l0.6,0v2h-9.9v-2l0.6,0c0.5,0,1.4-0.1,1.8-0.4
	c0.4-0.3,0.4-1.3,0.4-1.7v-10.6c0-0.3,0-0.8-0.3-1.1c-0.4-0.3-1.5-0.6-2-0.8l-0.4-0.1v-1.7l6.2-2h0.9v3.1c1.2-0.7,2.5-1.5,3.9-2
	c1.1-0.4,2.3-0.8,3.5-0.8c1.6,0,3.2,0.4,4.2,1.8c1,1.5,1.2,4.1,1.2,5.9c0,0.4,0,0.9,0,1.3c0,0.3,0,0.6-0.1,0.9l-0.2,3.6
	c0,0.2,0,0.4,0,0.6c0,0.6-0.1,1.2-0.1,1.8c0,0.5,0,1.3,0.5,1.6c0.5,0.4,1.7,0.4,2.3,0.4l0.5,0l0,2h-10.9v-2h0.8
	c0.7,0,1.4-0.1,1.8-0.8c0.5-0.9,0.6-3.1,0.7-4.1l0.1-3.1c0-0.3,0-0.5,0-0.8c0-0.2,0-0.5,0-0.8c0-1.2-0.1-3.4-0.7-4.5
	c-0.5-0.8-1.2-1-2.1-1c-0.7,0-1.5,0.3-2.2,0.6C1251.2,267.6,1250.1,268.2,1249.1,268.9L1249.1,268.9z M1283.2,269.9
	c0,0,0.1,0.1,0.1,0.2l0.1,0.1v1.5h-13.2c0,0.1,0,0.3,0,0.4c0,0.3,0,0.6,0,0.9c0,2,0.4,4.1,1.7,5.7c1.1,1.4,2.6,2.1,4.4,2.1
	c0.9,0,1.8-0.2,2.6-0.6c1-0.5,1.9-1.3,2.7-2l0.4-0.4l1.1,1.3l-0.3,0.4c-1.1,1.4-2.4,2.8-3.9,3.7c-1.3,0.8-2.8,1.2-4.3,1.2
	c-2.5,0-4.6-1-6.2-2.9c-1.7-2-2.4-4.5-2.4-7.2c0-2.8,0.7-5.4,2.6-7.5c1.8-2,4-3,6.7-3C1279,263.8,1281.5,266.9,1283.2,269.9
	L1283.2,269.9z M1287.9,283.4c-0.1,0.1-0.1,0.2-0.2,0.3l-0.1,0.3l-1.7,0.1l-0.6-6.4h1.9l0.1,0.4c0.3,1.1,0.8,2,1.7,2.8
	c0.8,0.7,1.7,1,2.7,1c0.9,0,1.8-0.2,2.4-0.8c0.6-0.5,0.9-1.2,0.9-2c0-1.4-2.5-2.7-3.5-3.2c-0.8-0.4-1.6-0.8-2.3-1.2
	c-1-0.6-2.1-1.3-2.8-2.3c-0.6-0.9-0.9-1.9-0.9-3c0-1.7,0.8-3,2.1-4c1.5-1.1,3.3-1.5,5.1-1.5c0.8,0,1.6,0.1,2.4,0.3
	c0.8,0.2,1.7,0.4,2.4,0.8l0.4,0.1v4.9h-1.8l-0.1-0.4c-0.2-1-0.6-1.9-1.4-2.6c-0.7-0.6-1.6-0.8-2.5-0.8c-0.7,0-1.5,0.2-2,0.7
	c-0.5,0.4-0.7,1-0.7,1.6c0,0.5,0.2,1,0.5,1.4c0.3,0.5,0.8,0.8,1.3,1.1c0.3,0.1,0.5,0.2,0.8,0.4c2.6,1.2,7,3.5,7,6.8
	c0,1.7-0.6,3.2-1.9,4.3c-1.3,1.2-2.9,1.7-4.7,1.7c-1,0-2-0.1-3-0.3C1288.9,283.6,1288.4,283.4,1287.9,283.4
	C1287.9,283.4,1287.9,283.4,1287.9,283.4L1287.9,283.4z M1303.8,283.4c-0.1,0.1-0.1,0.2-0.2,0.3l-0.1,0.3l-1.7,0.1l-0.6-6.4h1.9
	l0.1,0.4c0.3,1.1,0.8,2,1.7,2.8c0.8,0.7,1.7,1,2.7,1c0.9,0,1.8-0.2,2.4-0.8c0.6-0.5,0.9-1.2,0.9-2c0-1.4-2.5-2.7-3.5-3.2
	c-0.8-0.4-1.6-0.8-2.3-1.2c-1-0.6-2.1-1.3-2.8-2.3c-0.6-0.9-0.9-1.9-0.9-3c0-1.7,0.8-3,2.1-4c1.5-1.1,3.3-1.5,5.1-1.5
	c0.8,0,1.6,0.1,2.4,0.3c0.8,0.2,1.7,0.4,2.5,0.8l0.4,0.1v4.9h-1.8l-0.1-0.4c-0.2-1-0.6-1.9-1.4-2.6c-0.7-0.6-1.6-0.8-2.5-0.8
	c-0.7,0-1.5,0.2-2,0.7c-0.5,0.4-0.7,1-0.7,1.6c0,0.5,0.2,1,0.5,1.4c0.3,0.5,0.8,0.8,1.3,1.1c0.3,0.1,0.5,0.2,0.8,0.4
	c2.6,1.2,7,3.5,7,6.8c0,1.7-0.6,3.2-1.9,4.3c-1.3,1.2-2.9,1.7-4.7,1.7c-1,0-2-0.1-3-0.3C1304.8,283.6,1304.3,283.4,1303.8,283.4
	C1303.8,283.4,1303.8,283.4,1303.8,283.4L1303.8,283.4z M1355,262.5c-1-2.1-2.3-4-4.2-5.3c-1.7-1.2-3.7-1.8-5.8-1.8
	c-1.5,0-3,0.3-4.5,0.9c-1.4,0.5-2.7,1.3-3.7,2.4c-1.1,1.1-1.9,2.5-2.5,3.9c-0.6,1.6-0.9,3.2-0.9,4.9c0,3.8,0.9,7.5,3.5,10.5
	c2.3,2.7,5.3,4,8.8,4c2.1,0,4.2-0.5,6-1.6c2-1.2,3.5-2.9,4.6-4.8l0.2-0.3l2.1,0.3l-3.4,7.7h-0.9c-1.3,0-3,0.3-4.3,0.6
	c-1.5,0.3-3.3,0.6-4.8,0.6c-2.3,0-4.5-0.3-6.7-1c-2-0.6-3.7-1.6-5.3-2.9c-1.7-1.4-3-3-3.9-5c-0.9-2-1.4-4.1-1.4-6.2
	c0-1.7,0.3-3.4,0.8-5c0.6-1.6,1.4-3.2,2.4-4.6c1.6-2.1,3.5-3.7,5.8-4.8c2.4-1.2,4.9-1.7,7.5-1.7c1.2,0,2.5,0.1,3.7,0.3
	c1.8,0.3,3.7,0.8,5.4,1.2c0.2,0,0.3,0.1,0.5,0.1c0.4,0.1,0.8,0.2,1.2,0.2c0.1,0,0.3,0,0.4,0c0.1,0,0.3,0,0.4-0.1l0.7-0.2l0.5,8.1
	l-2.2,0.1L1355,262.5L1355,262.5z M1363.1,257.6c0-0.3,0-0.8-0.3-1.1c-0.4-0.3-1.5-0.6-2-0.8l-0.4-0.1v-1.7l6.2-2.2h1v27.7
	c0,0.5,0,1.4,0.4,1.7c0.4,0.3,1.2,0.4,1.7,0.4l0.5,0l0.1,2h-10v-2l0.6,0c0.5,0,1.4-0.1,1.8-0.4c0.4-0.3,0.4-1.3,0.4-1.7V257.6
	L1363.1,257.6z M1387.2,281.5c-1.2,0.7-2.5,1.5-3.9,2c-1.1,0.4-2.4,0.8-3.6,0.8c-1.6,0-3.2-0.5-4.1-1.9c-1-1.6-1.1-4.5-1.1-6.3v-7.2
	c0-0.3,0-0.8-0.3-1.1c-0.4-0.3-1.5-0.6-2-0.8l-0.4-0.1v-1.7l6.2-2h0.9v12.1c0,1.1,0,4.1,0.6,5.1c0.4,0.7,1.3,0.9,2.1,0.9
	c0.7,0,1.5-0.3,2.2-0.6c1.1-0.5,2.2-1.1,3.2-1.8v-10.1c0-0.4-0.1-1-0.4-1.2c-0.5-0.4-2.2-0.5-2.8-0.6l-0.5,0l0-1.8l7.3-1.9h1v15.2
	c0,0.3,0,0.9,0.3,1.1c0.3,0.3,1.5,0.7,1.9,0.8l0.4,0.1l0.1,1.6l-6.2,2.3h-1V281.5L1387.2,281.5z M1402.2,266.3
	c0.9-0.6,1.9-1.2,2.9-1.6c1.1-0.5,2.2-0.8,3.4-0.8c2.3,0,4.2,0.9,5.6,2.7c1.6,1.9,2.2,4.1,2.2,6.6c0,1.5-0.2,3-0.8,4.4
	c-0.5,1.4-1.3,2.5-2.3,3.6c-1,1-2.2,1.9-3.6,2.3c-1.6,0.6-3.5,0.7-5.3,0.7c-1,0-2-0.1-3-0.2c-1.1-0.2-2.2-0.4-3.2-0.7l-0.4-0.1
	v-25.5c0-0.3,0-0.9-0.3-1.1c-0.4-0.3-1.5-0.6-1.9-0.8l-0.4-0.1l-0.1-1.7l6.3-2.2h1V266.3L1402.2,266.3z M1077.4,279.2
	c0.7,0.6,1.4,1.2,2.2,1.6c0.7,0.4,1.5,0.6,2.3,0.6c1.5,0,2.7-0.6,3.6-1.8c1.1-1.5,1.4-3.4,1.4-5.2c0-1.9-0.5-3.6-1.6-5.1
	c-1-1.2-2.2-2-3.7-2c-0.7,0-1.3,0.2-2,0.4c-0.8,0.3-1.6,0.8-2.3,1.3V279.2L1077.4,279.2z M1102.6,275.7c-1.1,0.6-2.2,1.1-3.4,1.5
	c-0.3,0.1-0.6,0.2-0.8,0.4c-0.3,0.2-0.6,0.4-0.7,0.7c-0.2,0.3-0.3,0.7-0.3,1.1c0,0.5,0.2,1,0.5,1.4c0.4,0.4,0.8,0.5,1.3,0.5
	c0.5,0,1.1-0.2,1.6-0.4c0.6-0.3,1.2-0.7,1.8-1.2V275.7L1102.6,275.7z M1137.9,277.4c-0.7-1.5-1.7-2.8-2.8-4c-1.4-1.6-3.1-3-4.9-4.2
	c-1.3,0.7-2.4,1.7-3.3,2.9c-0.8,1.1-1.2,2.4-1.2,3.8c0,1.4,0.4,2.6,1.4,3.6c1,1,2.2,1.4,3.6,1.4c1.2,0,2.4-0.4,3.5-0.9
	C1135.7,279.3,1136.9,278.4,1137.9,277.4L1137.9,277.4z M1132.7,265.4c0.7-0.4,1.3-0.9,1.7-1.6c0.5-0.7,0.7-1.5,0.7-2.4
	c0-0.9-0.2-1.8-0.7-2.5c-0.5-0.6-1.1-0.8-1.9-0.8c-0.7,0-1.3,0.2-1.8,0.7c-0.5,0.5-0.7,1.3-0.7,2c0,0.9,0.3,1.7,0.7,2.5
	C1131.2,264.1,1132,264.8,1132.7,265.4L1132.7,265.4z M1177.2,278l3.8-9.4l-3.7-9.3c-0.3-0.8-1-2.2-1.7-2.7
	c-0.8-0.5-2.2-0.6-3.1-0.6c-0.7,0-1.6,0.1-2.2,0.4c-0.3,0.2-0.5,0.4-0.5,0.8c0,0.3,0.1,0.7,0.1,1c0.1,0.5,0.2,0.9,0.4,1.4
	L1177.2,278L1177.2,278z M1183.7,262.9l1.5-3.7c0.2-0.5,0.3-1,0.5-1.5c0.1-0.3,0.2-0.7,0.2-1c0-0.3-0.2-0.4-0.4-0.5
	c-0.5-0.3-1.3-0.3-1.9-0.3c-0.5,0-1.2,0.1-1.6,0.3c-0.2,0.1-0.4,0.2-0.4,0.5c0,0.3,0.1,0.6,0.2,0.9c0.1,0.5,0.3,1,0.5,1.5
	L1183.7,262.9L1183.7,262.9z M1204,269.7h7.6c-0.2-0.9-0.6-1.8-1.2-2.5c-0.7-0.7-1.5-1.1-2.6-1.1c-1,0-1.8,0.4-2.5,1.1
	C1204.7,267.8,1204.3,268.7,1204,269.7L1204,269.7z M1270.6,269.7h7.6c-0.2-0.9-0.6-1.8-1.2-2.5c-0.7-0.7-1.5-1.1-2.6-1.1
	c-1,0-1.8,0.4-2.5,1.1C1271.2,267.8,1270.8,268.7,1270.6,269.7L1270.6,269.7z M1402.2,269v7.7c0,1.3,0.2,2.8,1.1,3.8
	c0.8,0.9,1.9,1.2,3.1,1.2c1.7,0,3.1-0.7,4.2-2c1.2-1.5,1.6-3.5,1.6-5.4c0-1.8-0.4-3.7-1.5-5.1c-1-1.2-2.2-1.9-3.8-1.9
	c-0.8,0-1.6,0.2-2.3,0.5C1403.7,268.1,1402.9,268.5,1402.2,269z M957.9,175.8c-3.6,3.6-7.5,6.9-11.6,9.7c-4,2.7-9.1,5.3-14.1,5.3
	c-2.7,0-5.1-1-6.9-3c-1.8-2.1-2.5-4.7-2.5-7.4c0-1.7,0.1-3.4,0.4-5.1c0.7-3.6,1.5-7.1,2.3-10.7c0.2-0.8,0.4-1.7,0.4-2.5
	c-2.1,0.4-6.7,3.2-8.3,4.2c-9.6,5.9-19.8,12.7-27.6,20.9c-1.4,1.6-3.9,4.3-6.2,4.3c-3.1,0-4.2-2.9-4.2-5.6c0-4.8,2.8-11.4,4.8-15.8
	c0.2-0.6,0.5-1.1,0.7-1.7c-2.1,0.6-4.4,0.9-6.6,0.9c-1.3,0-2.7-0.1-4-0.4c0,0.3,0,0.7,0,1c0,4.5-1.3,8.6-3.5,12.4
	c-2.3,3.9-5.3,7.2-9.1,9.8c-3.5,2.4-7.4,4-11.7,4c-4.5,0-8.4-1.7-11.4-5c-3.1-3.4-4.4-7.5-4.4-12.1c0-0.7,0-1.3,0.1-2
	c-2,1.9-4.1,3.8-6.3,5.5c-4.6,3.7-11.4,8.1-17.5,8.1c-2.8,0-5.3-1.1-7.1-3.2c-1.9-2.2-2.7-4.8-2.7-7.6c0-3.8,0.9-7.7,1.8-11.3
	c0.4-1.4,0.7-2.9,1-4.3c0.1-0.4,0.3-1.1,0.3-1.5c-2.7,0.3-9.3,4.8-11.4,6.2c-5,3.4-9.8,7.2-14.1,11.5c-2.4,2.3-4.9,4.6-7,7.2l0,0
	l0,0c-1.3,1.3-3,3.1-5,3.1c-3.6,0-5.1-3-5.1-6.2c0-2,0.4-4.2,0.9-6.1c0.8-3.3,1.7-6.5,2.7-9.7l0-0.1l1.6-4.7
	c0.2-0.6,0.5-1.4,0.6-2.1c-2.7,1-9.2,5-10.8,6c-5.2,3.3-10.2,6.9-15.1,10.8c-3.9,3.1-7.6,6.5-11,10.1c-1,1.2-2.3,2.3-4,2.3
	c-2.5,0-4-2-4-4.4c0-2.3,1.2-5.7,2.1-8.1c-2.8,2.7-5.7,5.2-8.8,7.5c-5.1,3.8-11.4,7.4-18,7.4c-3.7,0-7-1.1-9.6-3.7
	c-2.6-2.6-3.8-5.9-3.8-9.6c0-7,4-14.3,8.3-20.3c-0.9,0.2-1.8,0.3-2.6,0.3c-1.1,0-2.2-0.1-3.2-0.4l-0.7,0.8c-0.5,0.5-0.9,1.1-1.5,1.6
	c-1.3,1.7-2.8,3.2-4.2,4.7c-4.5,4.9-9.2,9.6-14.2,14.1c-3.7,3.4-7.8,6.8-12.1,9.4c-2.8,1.7-6.4,3.4-9.7,3.4c-3,0-5.6-1.2-7.5-3.6
	c-1.9-2.4-2.7-5.3-2.7-8.3c0-0.2,0-0.4,0-0.6c-6.2,5.9-14.7,12.3-22.8,12.3c-2.9,0-5.6-0.9-7.6-3.1c-2.1-2.2-3-5-3-7.9c0,0,0,0,0,0
	c-1.7,1.6-3.5,3.1-5.3,4.6c-3.1,2.6-6.2,5-9.5,7.3c-4.1,3-8.5,5.6-13.2,7.6c-3.5,1.5-7.6,2.9-11.5,2.9c-3.9,0-7.3-1.4-9.8-4.4
	c-2.6-3-3.6-6.8-3.6-10.7c0-14.8,10.5-34.2,17.8-46.9l2.2-3.7c-3.4,0.1-6.8,0.4-10.2,0.8c-4.1,0.5-8.2,1.2-12.3,2
	c-0.1,0.2-0.3,0.4-0.5,0.6c-0.1,0.1-0.2,0.2-0.3,0.3l-0.1,0.2l-0.1,0.1c-0.2,0.3-0.4,0.6-0.7,0.8l-3.5,4.6c-0.2,0.3-0.4,0.6-0.7,0.8
	l-0.1,0.2l-0.3,0.3c-0.1,0.1-0.3,0.3-0.4,0.5c-0.4,0.6-0.8,1.1-1.3,1.6c-1.7,2.1-3.4,4.3-5.2,6.4l0,0c-0.9,1-1.7,2-2.6,3
	c-0.4,0.5-0.8,0.9-1.2,1.3l-6.6,7.4l-1.9,2.4l0,0c-2.7,3.1-5.4,6.1-8.3,8.9c-2.7,2.7-5.4,5.2-8.3,7.7c-4.6,3.9-9.5,7.6-14.9,10.5
	c-3.8,2.1-8.4,3.9-12.8,3.9c-3,0-5.9-0.9-8-3.2c-2-2.2-2.8-5-2.8-8c0-3,0.8-5.9,2-8.6c1.5-3.3,3.5-6.4,5.7-9.2
	c2.7-3.4,5.8-6.4,9.1-9.3c3.5-3,7.1-5.9,10.9-8.5c4.5-3.1,9.3-5.8,14.1-8.4l0,0c5.2-2.7,10.6-5,16.1-7.1l0,0
	c5.4-2,10.8-3.7,16.3-5.1l1.3-0.3c0.2-0.1,0.4-0.2,0.6-0.2c0.1,0,0.2,0,0.3-0.1c1-1.2,2-2.6,2.8-3.9l0-0.1c4-5.8,8-11.6,11.7-17.5
	c2.5-4,5.1-8,7.2-12.2c1.2-2.4,2.3-5.1,2.7-7.8l0.2-1.5l1.4-0.6c1-0.4,2.2-1,3.2-1c2.2,0,3.7,1.6,3.7,3.7c0,2.3-2.2,6.2-3.3,8.2
	l-2.6,4.6c-2,3.6-4.3,7.2-6.5,10.7l0,0c-3.3,5.1-6.7,10.1-10.3,15c2.4-0.4,4.8-0.7,7.2-0.9c4.5-0.5,9-0.8,13.5-0.9
	c4.1-6.7,8.6-13.3,13.2-19.7c5.5-7.6,11.1-15.1,17.1-22.3l8.7-10.1c1.9-2.3,4.2-5.1,6.6-6.9l0.1,0l0.1,0c1.8-1.2,3.7-2.1,5.7-2.7
	l8.8-2.5l-6,6.9c-2.2,2.5-4.4,5-6.6,7.6c-0.8,0.9-1.6,1.8-2.4,2.7l0,0.1l-0.1,0.1c-2.4,2.8-4.7,5.7-7,8.7c-2.1,2.7-4.2,5.4-6.2,8.1
	c-4,5.5-8,11.1-11.7,16.8c-2.8,4.3-5.4,8.8-8,13.3c1.4,0.1,2.9,0.1,4.3,0.2c1.8,0.1,3.6,0.3,5.4,0.6l0.1,0l0.1,0
	c2.2,0.6,4.4,1.9,4.4,4.4c0,1.2-0.5,2.3-1.2,3.3l-1.1,1.5l-1.8-0.4c-4.7-1.2-9.6-1.7-14.5-2l-0.1,0.2c-3.8,6.8-7.3,13.8-10.6,20.9
	c-2.2,4.8-4.2,9.7-5.6,14.7c-1,3.4-1.9,7.1-1.9,10.7c0,1.9,0.4,3.8,1.6,5.3c1,1.2,2.3,1.6,3.8,1.6c6.6,0,15.3-5.8,20.5-9.5
	c6.8-5,13.2-10.7,19-16.7c1.3-1.8,2.6-3.5,4.1-5.2c3.1-3.5,6.5-6.6,10.3-9.3c4.8-3.5,10-6.4,15.5-8.5c4.7-1.8,9.8-3.2,14.8-3.2
	c3.6,0,7.7,0.5,10.7,2.4c3,1.9,4.4,4.8,4.4,8.3c0,7.6-6.3,11.9-12.7,14.5l-2.7,1.1l-0.7-2.3c-2.8,4.9-5.6,10.9-5.6,16.5
	c0,0.8,0.1,1.9,0.7,2.5l0,0l0,0c0.4,0.5,0.9,0.6,1.5,0.6c3.8,0,11.6-6.5,14.4-9c4.8-4.2,9.4-8.6,13.7-13.3l2.2-2.6
	c0.9-1,1.7-2,2.8-2.7l0.8-1c-0.3-0.9-0.5-1.9-0.5-2.9c0-3,1-5.7,2.9-8c1.7-2.2,3.9-4.1,6.8-4.1c3.1,0,5,2.1,5,5.2c0,2.3-1.5,5-3,7.3
	c2-0.4,4-1.2,5.8-2.1c1.6-0.8,4.5-2.3,6.2-2.3c1.2,0,2.4,0.4,3.3,1.1l0.2,0.1l0.2,0.2c0.8,0.9,1.3,2.1,1.3,3.3
	c0,1.4-0.5,2.7-1.5,3.7l-3.2,4c-3.8,4.7-8.9,11.9-8.9,18.2c0,1.6,0.4,2.9,1.5,4l0,0l0,0.1c1,1.1,2.2,1.5,3.7,1.5
	c2.8,0,5.5-1.2,7.8-2.7c4.4-2.8,8.4-6.5,12.2-10.1c3.9-3.7,7.7-7.5,11.3-11.5l1.3-1.4c1.3-2.3,2.7-4.6,4.1-6.9l0.4-0.6l0.7-0.3
	c2.2-1.1,4.5-1.9,6.9-2.6l6.9-2.1l-4.7,7.5c-2.6,4.3-4.9,8.7-7,13.2c-0.6,1.3-1.2,2.6-1.8,3.9c3.5-2.6,7.1-5.1,10.8-7.4
	c5.1-3.2,16.4-10.3,22.3-10.3c1.7,0,3.2,0.6,4.5,1.8l0.1,0.1l0.1,0.1c1.1,1.3,1.6,2.9,1.6,4.6c0,1.4-0.3,2.8-0.6,4.2
	c-0.5,2.1-1.1,4.2-1.8,6.3c-0.3,1.1-0.7,2.2-1,3.4l0,0c4.1-3.6,8.3-7,12.8-10.1c3.7-2.5,7.5-4.9,11.6-6.8c2.8-1.3,6.4-2.6,9.6-2.6
	c4,0,6.7,2.2,6.7,6.3c0,1.7-0.3,3.4-0.7,5.1c-0.8,3.1-1.5,6.2-2.1,9.3c-0.3,1.3-0.7,3-0.7,4.3c0,0.8,0.1,1.7,0.7,2.3
	c0.3,0.4,0.7,0.6,1.2,0.6c1.8,0,4.5-1.5,6-2.5c4-2.6,7.8-5.9,11.3-9.2c3.3-3.1,6.5-6.2,9.7-9.5c2.7-3.7,5.9-6.8,9.7-9.3
	c4.4-3.1,9.3-5,14.7-5c1.8,0,3.6,0.2,5.3,0.7l0,0c2,0.6,4,1.8,4,4.2c0,1.6-1,2.9-2.1,3.9l0,0l0,0c-1,0.9-2.1,1.6-3.4,1.6
	c-0.6,0-1.1-0.2-1.6-0.4c0,0-0.1,0-0.1,0l-0.3-0.1l-0.3-0.2c-1.1-0.7-2.6-1.4-3.9-1.4c-5,0-9,2.5-12.2,6.2c-3.6,4-5.5,8.7-5.5,14.2
	c0,2.8,0.7,5.4,2.6,7.5c1.6,1.9,3.6,2.7,6.1,2.7c3.8,0,6.7-1.8,9.2-4.5c2.7-3.1,4.1-6.7,4.1-10.9c0-1-0.1-2-0.3-3l-0.1,0
	c-2.8-1.1-6.3-2.9-6.3-6.4c0-2.7,2-4.2,4.6-4.2c3.3,0,5.7,2.4,7.3,5c2,0.6,4,1,6.1,1c5.1,0,9.2-1.9,12.7-5.6
	c1.1-1.9,2.3-3.7,3.6-5.5l0.4-0.6l0.6-0.3c2.3-1.2,4.9-1.9,7.4-2.4l6.3-1.4l-3.4,5.5c-4.1,6.5-7.9,13.1-11.2,20.1
	c-0.2,0.4-0.4,0.8-0.6,1.2c4-3,8-5.9,12.1-8.7c3.3-2.2,6.6-4.3,10-6.2c2.7-1.5,5.5-2.9,8.3-4.2l0.1,0c1.9-0.7,4.2-1.6,6.3-1.6
	c4,0,6.1,2.7,6.1,6.6c0,2.7-0.8,5.8-1.4,8.5c-0.5,2.5-1,4.9-1.4,7.4c-0.2,1.3-0.4,2.7-0.4,4c0,0.8,0.2,1.6,0.7,2.2
	c0.3,0.4,0.7,0.6,1.2,0.6c5.4,0,17.5-11.8,21.3-15.7c2.8-2.8,5.6-5.8,8.2-8.7c0.3-0.3,0.5-0.6,0.8-0.9c1.3-1.9,2.7-3.6,4.2-5.3
	l0.4-0.5l0.6-0.2c2.3-0.9,5.1-1.2,7.6-1.3l5.8-0.1l-3.6,4.5c-4.4,5.6-13,17.1-13,24.4c0,1,0.2,1.9,0.9,2.6l0,0l0,0
	c0.6,0.7,1.3,1,2.2,1c3.7,0,7.2-2.7,9.6-5.2c4-4,7-8.9,9.3-14c2.3-5.1,3.8-10.5,3.8-16v-2.7l8.9-5.6l0.6,4.1
	c0.2,1.6,0.3,3.3,0.3,4.9c0,5.7-1.3,11.7-2.9,17.2c-1.5,5.2-3.2,10.6-5.3,15.6c2.7-2.2,5.2-4.4,7.8-6.7c5.7-5.1,11.2-10.4,16-16.3
	l0,0l0,0c0.9-1,2-1.8,3.3-1.8c2.1,0,3.7,1.4,3.7,3.5c0,1.2-0.6,2.2-1.4,3.1l-1.8,1.9l-4.6,5c-5.3,5.7-11,10.9-17,15.8l0,0
	c-4.1,3.3-8.5,6.4-12.8,9.4c0,0,0,0,0,0l-0.1,0.2l-0.1,0.2c-0.2,0.3-0.4,0.7-0.7,1l-2.5,4.4c-2.7,4.6-5.8,8.9-9,13.1
	c-6.8,8.8-14.6,16.8-23.4,23.6c-5,3.8-11.5,7.7-18,7.7c-2.5,0-4.7-0.9-6.5-2.6c-1.8-1.7-2.6-4-2.6-6.4c0-6.8,5.3-12.8,10.1-17
	c3.5-3.1,7.4-5.7,11.3-8.2l0,0l0,0c4.3-2.6,8.7-5,13.1-7.4c3.6-2,7.1-4.1,10.7-6.1c1.3-0.7,2.7-1.4,3.9-2.3l0.2-0.1l0.2-0.1
	c0.7-0.3,1.3-0.7,2-1.1c1.2-0.7,2.3-1.4,3.5-2.2c1.2-2,2.1-4.4,3-6.7c-4.1,3.6-9,6.5-14.4,6.5c-3.4,0-6.3-1.2-8.6-3.7
	c-2.3-2.4-3.3-5.4-3.3-8.8C957.8,176.9,957.8,176.3,957.9,175.8L957.9,175.8z M651.1,159.4l0.3-0.2c2.5-1.4,5.6-3.8,5.6-6.9
	c0-1.3-0.4-2.3-1.5-3c-1.6-1.1-4.3-1.3-6.2-1.3c-5,0-10.1,1.9-14.5,4.2c-5.2,2.7-10,6.2-13.9,10.7c-2.4,2.7-4.6,5.7-6.3,8.9
	c-1,1.9-2.2,4.6-2.2,6.7c0,1.1,0.2,2.2,1.1,3l0.1,0.1l0.1,0.1c0.9,0.9,1.9,1.1,3.1,1.1c4,0,8.9-3.7,11.8-6.3
	c5.5-4.9,10-10.8,13.7-17.1l0.4-0.7l0.7-0.4c1.1-0.5,2.4-1,3.6-1C648.6,157.2,650,158.2,651.1,159.4L651.1,159.4z M1280,132.4
	c-0.1,0.1-0.3,0.2-0.4,0.3l-0.1,0.1l-3.1,2.3c-3,2.3-6.1,4.8-8.7,7.6l0,0l-1.6,1.6l-1.6-0.6c-1.8-0.7-3.4-1.9-3.4-4
	c0-2.6,3-5.8,4.7-7.7l0.1-0.1c2.5-2.5,6.1-5.5,9.8-5.5c1.5,0,2.9,0.4,4.2,1.1l4,2.2L1280,132.4L1280,132.4z M1167.1,105.2
	c-1.4-0.7-2.5-1.9-2.5-3.6c0-1.2,0.6-2.1,1.4-2.9v-4.4l4.8,3.8c1.7,1.2,3.6,1.8,5.7,1.8c1,0,1.9-0.2,2.6-0.9
	c0.6-0.6,0.8-1.3,0.8-2.2c0-2.9-1.9-5.4-3.9-7.4c-3.2-3.1-7.3-5.3-11.5-6.8c-4.8-1.7-9.7-2.6-14.8-2.6c-4.2,0-8.4,0.5-12.4,1.5
	c-3.4,0.9-6.6,2.1-9.6,3.9c-2.3,1.6-4.4,3.5-5.9,6c-1.4,2.3-2,4.8-2,7.5c0,3.6,1.4,6.9,3.4,9.9c3,4.5,7.5,8.6,11.6,12l15.6,12.7
	c4.7,3.8,9.3,8.4,12.4,13.7c2.7,4.6,4.2,9.7,4.2,15c0,8-2.9,15-7.8,21.2c-5.5,6.9-12.7,11.8-20.7,15.3c-8.8,3.8-18.1,5.6-27.7,5.6
	c-7.3,0-14.6-1-21.7-3.2c-6.4-2-12.5-4.9-18-8.9c-5-3.7-9.1-8.2-12-13.7c-2.9-5.3-4.3-11.1-4.3-17.2c0-5.3,1.1-10.4,3.5-15.2
	c2.3-4.4,5.4-8.2,9.7-10.9c4.2-2.6,8.8-3.9,13.7-3.9c3.4,0,6.8,0.6,10,2c2.7,1.1,5.8,3,5.8,6.4c0,0.8-0.3,1.8-0.6,2.6l-1.2,3.9
	l-3.1-2.6c-3.4-2.8-7.4-5-11.9-5c-4.9,0-8.8,1.9-12,5.5c-3.5,3.9-5.1,8.4-5.1,13.6c0,6,1.8,11.3,5.1,16.2c3.8,5.6,9.1,9.9,14.9,13.2
	c9.7,5.5,20.4,9.1,31.6,9.1c4.3,0,8.5-0.6,12.6-1.7l0,0c3.8-0.9,7.7-2.2,11.1-4.1c0.9-0.5,1.8-1.1,2.7-1.5c0.1-0.1,0.2-0.2,0.3-0.2
	c0.9-0.9,2.3-1.6,3.4-2.4c2.1-1.4,4-3.4,5.5-5.3l0,0c3.8-4.4,6.5-9.4,6.5-15.4c0-4.2-1.6-8-4-11.4c-3.7-5.3-9.2-9.8-14.4-13.7
	l-6.8-5.3c-3.4-2.7-6.8-5.5-9.9-8.5c-2.6-2.5-5-5.2-7.1-8.1c-1.8-2.4-3.4-5.1-4.3-8c-0.8-2.6-1.2-5.3-1.2-8c0-6,1.9-11.3,5.6-16
	c4-4.9,9.2-8.3,15.1-10.6c6.9-2.7,14.2-3.7,21.6-3.7c4.7,0,9.4,0.5,14,1.6c4.1,1,8.1,2.5,11.7,4.5c3.2,1.8,6.1,4.1,8.2,7
	c2,2.8,3.1,6,3.1,9.5c0,3.5-1.3,6.4-3.9,8.7c-2.7,2.4-6,3.4-9.5,3.4C1172.5,107.3,1169.6,106.7,1167.1,105.2L1167.1,105.2z
	 M1379.3,152.1c-0.2,0.2-0.4,0.5-0.6,0.7c-0.3,0.3-0.5,0.6-0.8,0.9l-0.1,0.1l-0.1,0.1c-0.4,0.4-0.7,0.8-1.1,1.2
	c-0.6,0.3-1.1,0.7-1.5,1.2c-0.2,0.1-0.3,0.2-0.4,0.4c-0.4,0.4-0.7,0.8-1.1,1.2l-2.2,2.4c-4.4,4.9-9.1,9.7-14,14.1
	c-3.4,3-7.2,6.1-11.2,8.2c-2.6,1.3-5.5,2.3-8.4,2.3c-2.2,0-4-0.6-5.5-2.2c-1.5-1.6-2.1-3.6-2.1-5.7c0-1.4,0.2-2.9,0.5-4.3
	c0.6,0,1.3,0.1,1.9,0.1c4.5,0,8.9-1.3,13-3.2c4.1-2,7.8-4.6,10.8-8c2.6-3,4.6-6.5,4.6-10.6c0-2.3-0.8-4.4-2.6-5.9
	c-1.8-1.4-4-1.9-6.2-1.9c-5.5,0-10.9,3.3-15.1,6.6c-4.2,3.4-7.9,7.3-10.9,11.7c-2.2,2.3-4.4,4.6-6.7,6.9c-2.6,2.6-5.3,5.1-8.1,7.4
	c-3.7,3.1-10.1,7.8-15.2,7.8c-1.2,0-2.2-0.3-3-1.2c-0.9-1.1-1.2-2.5-1.2-3.8c0-6.1,4.5-15.4,7.5-21.1l0.2,0c3.3-0.1,6.6-0.2,10-0.2
	c2.8,0,5.6,0,8.4,0.1l3.9,0.1l5-8.1l-23.7,1.1c2.8-5,5.8-9.9,8.7-14.8l5.6-8.8l-13.9,2.3l-1.5,2.4l-1.9,3.1l-3,4.9
	c-2.2,3.6-4.4,7.3-6.4,11l-0.1,0.1l-10.3-0.1l-7.5,8.1l13.4-0.7c-0.2,0.2-0.4,0.5-0.7,0.7c-4,4.4-8.3,8.6-12.8,12.5
	c-3.7,3.3-7.7,6.4-12,8.9c-2,1.1-5.2,2.9-7.5,2.9c-0.3,0-0.7,0-0.9-0.3c-0.3-0.4-0.4-1.4-0.4-1.9c0-3.4,1.2-7,2.6-10.1
	c2.5-5.6,5.9-11,9.2-16.2l4-5.8l-5.4,0.2c-2.4,0.1-4.9,0.7-7.1,1.4l-0.9,0.3l-0.5,0.8c-1.4,2-2.8,4.1-4.1,6.3c-1,1-2,2-3,3
	c-5.8,6.1-11.9,12-18.6,17.1c-2.2,1.7-7.7,5.6-10.4,5.6c-0.2,0-0.4,0-0.6-0.2c-0.3-0.3-0.4-1.3-0.4-1.7c0-0.1,0-0.2,0-0.3
	c0-6,5.8-17.3,8.7-22.8l1.7-3.2l-9.2-1.7l-1,1.3c-3,3.7-6.2,7.3-9.6,10.7c-3.6,3.6-7.3,7-11.2,10.3c-3,2.5-9.2,7.4-13.2,7.4
	c-0.3,0-0.8,0-1-0.3c-0.3-0.4-0.4-1.4-0.4-1.9c0-5.7,4.8-14.4,7.6-19.3c2.2-3.8,4.6-7.6,7.4-11l3.9-4.9l-6.3,0.5
	c-2.5,0.2-5,0.7-7.4,1.7l-0.7,0.3l-0.5,0.6c-4.2,5.5-8,11.5-10.8,17.9c-2.1,4.6-4.1,10.1-4.1,15.2c0,5.7,2.8,9.9,8.9,9.9
	c9.5,0,20-8.6,26.8-15.1c-0.3,1.6-0.5,3.3-0.5,4.9c0,2.7,0.6,5.3,2.4,7.4c1.7,2,3.8,3.2,6.5,3.2c5.7,0,12.3-4.2,16.8-7.5
	c2.6-1.8,5.1-3.9,7.4-6.1c0.7-0.7,1.5-1.4,2.2-2.1c-0.5,2.1-0.8,4.2-0.8,6.3c0,2.6,0.8,5.1,2.6,7.1c1.8,2,4.2,2.9,6.9,2.9
	c3.6,0,7.6-1.8,10.7-3.5c4.8-2.6,9.2-5.9,13.3-9.4c2.4-2,4.6-4,6.9-6.2c-0.4,1.8-0.6,3.7-0.6,5.6c0,3.7,1.1,7,3.6,9.7
	c2.5,2.6,5.7,3.9,9.3,3.9c8.4,0,18.5-7.8,25.5-14.1c-0.1,0.6-0.1,1.3-0.1,1.9c0,4.1,1.3,7.8,4.2,10.7c2.8,2.9,6.4,4.3,10.5,4.3
	c7.1,0,14.6-4.6,20.1-8.7c8.8-6.6,16.7-14.9,24-23.1c0.2-0.3,0.5-0.5,0.7-0.8c0.7-0.4,1.4-1,1.9-1.6l2.3-2.7
	c1.4,2.1,2.9,4.6,3.7,6.9c0.6,1.9,0.9,3.9,0.9,5.9c0,3.3-0.9,6.3-2.8,9.1c-1.6,2.3-3.6,4-6.3,4.8c-2.8-0.5-5.7-1.3-8.4-2.2
	c-1.5-0.5-3.3-1-4.8-1c-3,0-5.1,1.7-5.1,4.8c0,2.7,2.1,4.4,4.4,5.4l0,0c2.4,1.1,5.2,1.4,7.9,1.4c2.4,0,5-0.5,7.4-1l0.4-0.1l0.2-0.1
	c0.4,0,0.8-0.1,1.2-0.2c3.6-0.2,7.1-0.9,10.5-2c3.6-1.2,7-2.9,10.2-4.9c3.8-2.4,7.3-5.2,10.6-8.2c4.2-3.9,8.2-8.1,12.1-12.3
	c0.5-0.5,0.9-1,1.3-1.5c0.2-0.3,0.5-0.6,0.8-0.9l0.1-0.1l0.1-0.1c0.2-0.3,0.5-0.6,0.7-0.8l0.1-0.1l0.1-0.1c1-1.1,2-2.3,2-3.8
	c0-2-1.5-3.4-3.5-3.4c-1.6,0-2.7,1.1-3.7,2.3c-4.3,5.1-8.9,10.1-13.9,14.5c-3.8,3.5-7.9,6.7-12.3,9.3c1.4-2.7,2.1-5.7,2.1-8.8
	c0-3.1-0.6-6.2-2-9c-1.7-3.3-4.4-6.4-6.9-9.1c-0.5-0.6-1-1.2-1.5-1.7c1.9-2.3,3.3-5.1,3.3-8.2c0-3.1-1.7-5.5-5-5.5
	c-2.4,0-4.3,1.4-5.7,3.3c-1.5,1.9-2.2,4.1-2.2,6.5C1378.6,149.6,1378.9,150.9,1379.3,152.1L1379.3,152.1z M974.4,202.3l-7.7,4.6
	c-5.9,3.5-11.8,7-17.5,10.9c-3.2,2.2-6.9,5.1-9.2,8.2c-1.2,1.6-2.4,3.8-2.4,5.9c0,0.6,0.2,1,0.6,1.3c0.4,0.4,0.9,0.6,1.5,0.6
	c3.5,0,8.7-3.7,11.5-5.8c5.9-4.6,11.1-10.1,15.9-15.8C969.7,209.1,972.2,205.8,974.4,202.3L974.4,202.3z M533.8,144.9
	c-3,0.9-5.9,2-8.8,3.2c-6.3,2.5-12.4,5.3-18.4,8.6c-8.5,4.7-16.8,10.4-23.6,17.5c-3.8,4-8.5,10-8.5,15.7c0,1.2,0.4,2.1,1.2,3
	c0.8,0.8,1.7,1.2,2.9,1.2c3.2,0,6.6-1.6,9.3-3.1l0,0c4.7-2.5,9-6,12.9-9.5c1.7-1.5,3.3-3.1,4.9-4.7c1.6-1.6,3.1-3.2,4.7-4.8
	c2.5-2.6,4.9-5.2,7.2-7.9C523.1,157.8,528.6,151.4,533.8,144.9L533.8,144.9z M1333.8,165.6c1.1-2.1,2.5-4.1,4-5.9
	c2.8-3.1,7.8-8,12.2-8c1,0,1.5,0,1.5,1.1c0,1.9-1.4,3.9-2.6,5.3c-2,2.2-4.7,4-7.4,5.3C1339.1,164.7,1336.5,165.5,1333.8,165.6z"/>
</svg>
